<svg xmlns="http://www.w3.org/2000/svg" xmlns:xlink="http://www.w3.org/1999/xlink" width="30" height="30" viewBox="0 0 30 30"><defs><style>.a{fill:#fff;stroke:#707070;}.b{opacity:0.5;clip-path:url(#a);}</style><clipPath id="a"><rect class="a" width="30" height="30"/></clipPath></defs><g class="b"><path d="M31.5,13.41A1.965,1.965,0,0,0,31.41,13V12.87a1.6,1.6,0,0,0-.285-.42h0l-9-9h0a1.6,1.6,0,0,0-.42-.285.48.48,0,0,0-.135,0A1.32,1.32,0,0,0,21.075,3H15a4.5,4.5,0,0,0-4.5,4.5V9H9a4.5,4.5,0,0,0-4.5,4.5v15A4.5,4.5,0,0,0,9,33H21a4.5,4.5,0,0,0,4.5-4.5V27H27a4.5,4.5,0,0,0,4.5-4.5V13.41Zm-9-5.3L26.385,12H24a1.5,1.5,0,0,1-1.5-1.5Zm0,20.385A1.5,1.5,0,0,1,21,30H9a1.5,1.5,0,0,1-1.5-1.5v-15A1.5,1.5,0,0,1,9,12h1.5V22.5A4.5,4.5,0,0,0,15,27h7.5Zm6-6A1.5,1.5,0,0,1,27,24H15a1.5,1.5,0,0,1-1.5-1.5V7.5A1.5,1.5,0,0,1,15,6h4.5v4.5A4.5,4.5,0,0,0,24,15h4.5Z" transform="translate(-3 -3)"/></g></svg>