<svg xmlns="http://www.w3.org/2000/svg" width="24" height="24" viewBox="0 0 24 24">
  <g id="Group_1466" data-name="Group 1466" transform="translate(9183 9574)">
    <rect id="Rectangle_254" data-name="Rectangle 254" width="24" height="24" transform="translate(-9183 -9574)" fill="#fff" opacity="0"/>
    <path id="path64" d="M7.408,0A10.271,10.271,0,0,0,3.665,19.836,9.87,9.87,0,0,1,3.7,16.887c.187-.8,1.2-5.1,1.2-5.1A3.708,3.708,0,0,1,4.6,10.257c0-1.428.828-2.494,1.858-2.494a1.29,1.29,0,0,1,1.3,1.447,20.688,20.688,0,0,1-.85,3.419,1.491,1.491,0,0,0,1.521,1.856c1.825,0,3.228-1.925,3.228-4.7A4.054,4.054,0,0,0,7.364,5.6a4.445,4.445,0,0,0-4.637,4.457A4,4,0,0,0,3.491,12.4a.307.307,0,0,1,.071.295c-.078.324-.251,1.022-.285,1.165-.045.188-.149.228-.343.137C1.651,13.4.849,11.529.849,10.023c0-3.239,2.354-6.215,6.785-6.215a6.027,6.027,0,0,1,6.331,5.931c0,3.539-2.232,6.388-5.329,6.388a2.749,2.749,0,0,1-2.354-1.179s-.515,1.961-.64,2.441a11.478,11.478,0,0,1-1.276,2.692A10.271,10.271,0,1,0,7.408,0" transform="translate(-9178.853 -9572.715)" fill="#c2c2c2"/>
  </g>
</svg>
