<svg xmlns="http://www.w3.org/2000/svg" width="24" height="24" viewBox="0 0 24 24">
  <g id="Group_1465" data-name="Group 1465" transform="translate(9283 9574)">
    <rect id="Rectangle_251" data-name="Rectangle 251" width="24" height="24" transform="translate(-9283 -9574)" fill="#fff" opacity="0"/>
    <path id="Forma_1" data-name="Forma 1" d="M244.441,6201.709a9.536,9.536,0,0,1-3.072,1.213,4.739,4.739,0,0,0-3.526-1.572,4.915,4.915,0,0,0-4.835,4.993,5.2,5.2,0,0,0,.125,1.145,13.564,13.564,0,0,1-9.961-5.231,5.136,5.136,0,0,0-.652,2.516,5.039,5.039,0,0,0,2.149,4.167,4.718,4.718,0,0,1-2.189-.626v.066a4.956,4.956,0,0,0,3.876,4.9,4.494,4.494,0,0,1-1.273.186,5.092,5.092,0,0,1-.911-.092,4.867,4.867,0,0,0,4.514,3.474,9.464,9.464,0,0,1-6,2.146,10.832,10.832,0,0,1-1.153-.067,13.408,13.408,0,0,0,7.408,2.25c8.889,0,13.749-7.629,13.749-14.247l-.015-.652a10.046,10.046,0,0,0,2.416-2.584,9.742,9.742,0,0,1-2.775.786A5.018,5.018,0,0,0,244.441,6201.709Z" transform="translate(-9504.533 -15773.351)" fill="#c2c2c2" fill-rule="evenodd"/>
  </g>
</svg>
