<svg xmlns="http://www.w3.org/2000/svg" width="49" height="49" viewBox="0 0 49 49">
  <g id="Group_206" data-name="Group 206" transform="translate(-3401 823)">
    <g id="Group_207" data-name="Group 207">
      <rect id="Rectangle_84" data-name="Rectangle 84" width="49" height="49" transform="translate(3401 -823)" fill="#fff" opacity="0"/>
      <path id="Path_84" data-name="Path 84" d="M4.584,3.107a2.826,2.826,0,0,1-2.119-.914A3.1,3.1,0,0,1,1.59-.035a3,3,0,0,1,.876-2.2A2.87,2.87,0,0,1,4.584-3.12a2.963,2.963,0,0,1,2.147.886,2.955,2.955,0,0,1,.9,2.2,3.049,3.049,0,0,1-.9,2.228A2.917,2.917,0,0,1,4.584,3.107Zm11.977,0a2.826,2.826,0,0,1-2.119-.914,3.1,3.1,0,0,1-.876-2.228,3,3,0,0,1,.876-2.2,2.87,2.87,0,0,1,2.119-.886,2.963,2.963,0,0,1,2.147.886,2.955,2.955,0,0,1,.9,2.2,3.049,3.049,0,0,1-.9,2.228A2.917,2.917,0,0,1,16.562,3.107Zm11.977,0a2.826,2.826,0,0,1-2.119-.914,3.1,3.1,0,0,1-.876-2.228,3,3,0,0,1,.876-2.2,2.87,2.87,0,0,1,2.119-.886,2.963,2.963,0,0,1,2.147.886,2.955,2.955,0,0,1,.9,2.2,3.049,3.049,0,0,1-.9,2.228A2.917,2.917,0,0,1,28.539,3.107Z" transform="translate(3409.41 -798.88)" fill="#555"/>
    </g>
  </g>
</svg>
