<?xml version="1.0" encoding="utf-8"?>
<!-- Generator: Adobe Illustrator 22.0.1, SVG Export Plug-In . SVG Version: 6.00 Build 0)  -->
<svg version="1.1" id="Layer_1" xmlns="http://www.w3.org/2000/svg" xmlns:xlink="http://www.w3.org/1999/xlink" x="0px" y="0px"
	 viewBox="0 0 1000 1000" style="enable-background:new 0 0 1000 1000;" xml:space="preserve">
<g>
	<path d="M816.1,876.7c-42.5,0-80.9-17.4-108.5-45.5c-2.6-2.6-5-5.4-7.4-8.2c-3.5-4.9-7.2-9.8-11-14.5c-16-24.1-25.4-53-25.4-84.2
		c0-9.1,0.8-17.9,2.4-26.6c-41.1,30.8-92.1,49.1-147.5,49.1c-136.4,0-247-110.6-247-247v0c0-136.4,110.6-247,247-247
		c77.7,0,146.3,36.6,191.5,92.7c3.2,3.9,13.8,16,15.9,18.2c22.9,23.3,54.7,37.7,90,37.7c69.8,0,126.3-56.5,126.3-126.3
		c0-18.5-4-35.9-11.2-51.7c-3.6-8-8-15.6-13.2-22.6c-0.3-0.4-0.6-0.8-0.9-1.2C826.2,79.1,681.6,0.8,518.7,0.8
		C243.1,0.8,19.6,224.3,19.6,499.9v0C19.6,775.5,243.1,999,518.7,999c127.2,0,243.3-47.8,331.4-126.2
		C839.2,875.3,827.8,876.7,816.1,876.7z"/>
	<path d="M816.1,850.6c-35.2,0-67.1-14.5-90-37.7c-2.1-2.2-4.2-4.4-6.2-6.8c-2.9-4.1-6-8.1-9.1-12c-13.3-20-21.1-44-21.1-69.8
		c0-69.8,56.5-126.3,126.3-126.3c41.4,0,78.1,20,101.1,50.8c0.3,0.4,0.6,0.8,0.9,1.2c5.1,7,9.6,14.6,13.2,22.6
		c7.1,15.8,11.2,33.3,11.2,51.7C942.5,794.1,885.9,850.6,816.1,850.6z"/>
</g>
</svg>
