<?xml version="1.0" encoding="utf-8"?>
<!-- Generator: Adobe Illustrator 22.0.1, SVG Export Plug-In . SVG Version: 6.00 Build 0)  -->
<svg version="1.1" id="Capa_1" xmlns="http://www.w3.org/2000/svg" xmlns:xlink="http://www.w3.org/1999/xlink" x="0px" y="0px"
	 viewBox="0 0 512 512" style="enable-background:new 0 0 512 512;" xml:space="preserve">
<g fill="#BABABA">
	<path d="M203.2,49.8c2.4-16.8,9.7-30.3,23-40.1C234.9,3.2,245,0,256,0.2c13.7,0.3,25.7,5.2,35.7,14.4c10.1,9.3,14.5,21.5,16.6,34.9
		c6.6,3.2,13,6.2,19.2,9.5c41.7,22.3,67.1,57.4,78.6,102.6c2.5,9.7,3.8,20,3.7,30c-0.2,30,7.7,57.9,19.9,84.9
		c12.7,28.2,29.1,54.3,48.1,78.7c2.8,3.6,5.5,7.3,7.7,11.2c9.8,18.1,7,33.3-4.7,49.5c-5.2,7.2-13.2,11-21.5,13.4
		c-10.6,3.1-21.4,6.2-32.3,8c-20.4,3.4-40.9,6.4-61.4,8.7c-16.5,1.9-33.2,3.2-49.8,3.5c-34.9,0.6-69.8,0.5-104.7,0.4
		c-25.3-0.1-50.4-2.7-75.5-5.4c-20.6-2.2-41.1-5-61.3-9.5c-7.9-1.8-15.7-3.9-23.4-6.1c-25.7-7.6-39.4-38.8-23.8-63.9
		c6.1-9.8,13.7-18.8,20.3-28.3C65.8,310.1,81.6,282,91.9,251c6.7-20.3,10-41.2,10.6-62.4c0.8-25.8,7.9-49.6,21.1-71.8
		c16.5-27.8,39.5-48.3,68.7-62.1c1.8-0.9,3.7-1.6,5.6-2.4C199.1,51.6,200.5,51,203.2,49.8z"/>
	<path d="M319.7,468.4c-2.9,12.3-9.6,19.7-17.2,26.2c-10.5,9-22.4,15.2-36.6,16.5c-17,1.5-33.3-0.4-47.9-10
		c-11.4-7.6-20.8-17.1-26.2-29.2c1.7-4.2,4.4-3.9,6.8-3.9c18.1,0.5,36.2,1.4,54.3,1.4c17.1,0,34.2-0.9,51.3-1.4
		C308.7,468,313.1,468.3,319.7,468.4z"/>
</g>
</svg>
