<?xml version="1.0" encoding="utf-8"?>
<!-- Generator: Adobe Illustrator 22.0.1, SVG Export Plug-In . SVG Version: 6.00 Build 0)  -->
<svg version="1.1" id="Capa_1" xmlns="http://www.w3.org/2000/svg" xmlns:xlink="http://www.w3.org/1999/xlink" x="0px" y="0px" viewBox="0 0 512 512" style="enable-background:new 0 0 512 512;" xml:space="preserve">
	<g fill="#BABABA">
		<path d="M405.6,47H106.4C49,47,2.4,93.7,2.4,151v160.7c0,45.8,30.1,85.7,73.6,98.4l50.2,50.3c2.8,2.8,6.6,4.4,10.5,4.4
		 s7.7-1.6,10.5-4.4l46.1-46.1h212.3c57.4,0,104-46.7,104-104V151.1C509.7,93.7,463,47,405.6,47z M146.8,256.9
		 c0-8.2,6.7-14.9,14.9-14.9h188.8c8.2,0,14.9,6.7,14.9,14.9c0,8.2-6.7,14.9-14.9,14.9H161.6C153.4,271.8,146.8,265.2,146.8,256.9z
		 M350.4,219.3H161.6c-8.2,0-14.9-6.7-14.9-14.9s6.7-14.9,14.9-14.9h188.8c8.2,0,14.9,6.7,14.9,14.9
		 C365.2,212.6,358.6,219.3,350.4,219.3z" />
	</g>
</svg>
