<svg id="Chalkmate_Comment" xmlns="http://www.w3.org/2000/svg" width="19.492" height="19.492" viewBox="0 0 19.492 19.492">
  <path id="Path_25" data-name="Path 25" d="M10.746.4a9.744,9.744,0,0,0-7.6,15.841c-.53,1-1.129,2.125-1.522,2.876a.4.4,0,0,0,.473.576l3.788-1.1A9.746,9.746,0,1,0,10.746.4ZM5.734,8.8a1.343,1.343,0,1,1-1.343,1.343A1.342,1.342,0,0,1,5.734,8.8Zm5.012,2.685a1.343,1.343,0,1,1,1.343-1.343A1.342,1.342,0,0,1,10.746,11.488Zm5.008,0A1.343,1.343,0,1,1,17.1,10.146,1.342,1.342,0,0,1,15.754,11.488Z" transform="translate(-1 -0.4)" fill="#236ae8"/>
</svg>
