<svg xmlns="http://www.w3.org/2000/svg" width="766" height="766" viewBox="0 0 766 766">
  <g id="Group_2243" data-name="Group 2243" transform="translate(15350 11912)">
    <rect id="Rectangle_400" data-name="Rectangle 400" width="766" height="766" transform="translate(-15350 -11912)" fill="#fff" opacity="0"/>
    <g id="Group_2242" data-name="Group 2242" transform="translate(3877.752 1713.611)">
      <path id="Path_1456" data-name="Path 1456" d="M423.266,938.028S374.933,774.143,371.035,738s23.158-24.946,23.158-24.946-22.742-68.882-6.3-85.232,31.271,14.1,31.271,14.1,4.979-83.621,22.514-83.673c32.659-.057,32.014,91.2,32.014,91.2s8.315-35.73,25.824-25.934c26.375,14.77-11.434,86.365-11.434,86.365s33.6.026,45.407,16.968C554.68,757.273,423.266,938.028,423.266,938.028Z" transform="translate(-19372.771 -13849.734)" fill="#0caf7d"/>
      <path id="Path_1457" data-name="Path 1457" d="M270.537,1024.377S131.15,1001.068,100.83,976.371s-.312-35.834-.312-35.834-70.021-35.9-69.21-60.3,35.6-12,35.6-12S7.922,800.959,21.876,788.184c26.017-23.8,94.223,46.135,94.223,46.135s-20.269-33.261,1.076-38.521c32.165-7.936,55.905,74.069,55.905,74.069s-6.034-32.383,16.147-28.064C229.027,849.536,270.537,1024.377,270.537,1024.377Z" transform="translate(-19204.232 -13957.796)" fill="#619aff"/>
      <path id="Path_1458" data-name="Path 1458" d="M191.2,841.805c-22.233-4.023-16.147,28.064-16.147,28.064s-23.74-82-55.905-74.064c-21.308,5.265-1.076,38.521-1.076,38.521S49.867,764.415,23.85,788.192l248.188,236.229C267.62,1001.86,228.481,848.546,191.2,841.805Z" transform="translate(-19206.207 -13957.804)" fill="#4951ec"/>
      <path id="Path_1459" data-name="Path 1459" d="M300.709,1178.008s-73.4-74.646-110.371-82.421-30.32,18.528-30.32,18.528-73.336-64.137-90.336-48.6,1.388,30.543,1.388,30.543-61.087-10.825-69.833,9.22c-13.44,30.8,87.036,47.574,87.036,47.574s-42.1,2.916-32.342,22.228C70.68,1204.211,300.709,1178.008,300.709,1178.008Z" transform="translate(-19194.752 -14092.202)" fill="#4951ec"/>
      <path id="Path_1460" data-name="Path 1460" d="M2.38,1104.983c8.747-20.045,69.833-9.22,69.833-9.22s-18.382-15-1.388-30.543,88.06,39.872,88.06,39.872-16.755-32.025,20.212-24.25,122.755,96.869,122.755,96.869Z" transform="translate(-19195.895 -14091.906)" fill="#131d52"/>
      <path id="Path_1461" data-name="Path 1461" d="M862.444,1222.588H456.031c-15.518,0-28.1-13.05-28.1-29.145v-17.332c0-16.111,12.582-29.15,28.1-29.15H862.444a57.569,57.569,0,0,0-.748,74.75Z" transform="translate(-19400.283 -14132.485)" fill="#ffcf60"/>
      <path id="Path_1462" data-name="Path 1462" d="M1017.609,1163.63H792.216c-15.524,0-28.106,13.05-28.106,29.151h0c0,16.111,12.582,29.15,28.106,29.15h225.409A57.839,57.839,0,0,1,1017.609,1163.63Z" transform="translate(-19561.744 -14140.492)" fill="#dde8fe"/>
      <path id="Path_1463" data-name="Path 1463" d="M760.791,1043.681a1.685,1.685,0,0,0-1.674-2.391H544.1c-16.854,0-30.517,12.3-30.517,27.461h0c0,15.17,13.663,27.467,30.517,27.467H759.179a1.692,1.692,0,0,0,1.673-2.406h0a52.62,52.62,0,0,1-.062-50.131Z" transform="translate(-19441.42 -14081.734)" fill="#4951ec"/>
      <path id="Path_1464" data-name="Path 1464" d="M862.469,1051.12H755.928c-19.78,0-27.822,10.039-27.822,22.751s8.042,23.28,27.822,23.28H863.176a52.537,52.537,0,0,1-.707-46.031Z" transform="translate(-19544.455 -14086.454)" fill="#dde8fe"/>
      <path id="Path_1465" data-name="Path 1465" d="M915.881,1072.12H902.01c-2.983,0-5.4,1-5.4,2.235v.2h19.281Z" transform="translate(-19625.385 -14096.541)" fill="#ffdc60"/>
      <path id="Path_1466" data-name="Path 1466" d="M932.528,1077.733c0-3.118-3.638-5.613-8.1-5.613H906.62c3.388,0,6.143,1.9,6.143,4.256l-.088,60.172,9.843-7.738,10.03,7.738Z" transform="translate(-19630.191 -14096.541)" fill="#f7d943"/>
      <path id="Path_1467" data-name="Path 1467" d="M779,993.409H653.892c-11.1,0-20.092-10.675-20.092-23.844h0c0-13.169,9-23.844,20.092-23.844H779c-9.563,13.221-9.937,32.612-.894,46.332Z" transform="translate(-19499.16 -14035.832)" fill="#dde8fe"/>
      <path id="Path_1468" data-name="Path 1468" d="M563.035,967.283h0c0-13.169,9.2-23.844,20.56-23.844H710.607a1.154,1.154,0,0,0,1.039-1.247h0a1.148,1.148,0,0,0-1.039-1.221H509.121c-12.53,0-22.69,11.782-22.69,26.313h0c0,14.552,10.16,26.313,22.69,26.313H710.6a1.154,1.154,0,0,0,1.065-1.221h0a1.159,1.159,0,0,0-1.065-1.247H583.595C572.239,991.127,563.035,980.452,563.035,967.283Z" transform="translate(-19428.379 -14033.551)" fill="#0b0754"/>
      <path id="Path_1469" data-name="Path 1469" d="M853.331,968.27H839.455c-2.988,0-5.4.982-5.4,2.193v.2h19.281Z" transform="translate(-19595.336 -14046.663)" fill="#fa7167"/>
      <path id="Path_1470" data-name="Path 1470" d="M869.987,973.774c0-3.04-3.638-5.5-8.1-5.5H844.08c3.394,0,6.143,1.871,6.143,4.158l-.083,59.008,9.838-7.588,10.03,7.588Z" transform="translate(-19600.154 -14046.663)" fill="#ff6ad8"/>
      <path id="Path_1471" data-name="Path 1471" d="M1299.916,428.925a5.467,5.467,0,0,1-1.2,0c-3.477-.411-6.05-3.867-5.748-7.723l11.652-148.793c.3-3.856,3.363-6.647,6.84-6.236s6.054,3.872,5.748,7.728L1305.56,422.694A6.533,6.533,0,0,1,1299.916,428.925Z" transform="translate(-19815.738 -13709.433)" fill="#619aff"/>
      <path id="Path_1472" data-name="Path 1472" d="M1305.025,430.318a6.435,6.435,0,0,1-1.263,0c-3.669-.437-6.382-4.085-6.065-8.154l12.291-156.994c.322-4.069,3.55-7.016,7.219-6.58s6.387,4.08,6.065,8.149L1310.98,423.733A6.885,6.885,0,0,1,1305.025,430.318Z" transform="translate(-19818.012 -13705.79)" fill="#4951ec"/>
      <path id="Path_1473" data-name="Path 1473" d="M984.31,589.105v.348h0c.577,6.387,5.53,11.163,11.054,10.67l155.981-13.959c5.525-.494,9.537-6.075,8.96-12.473a5.445,5.445,0,0,0-.1-.8Z" transform="translate(-19667.506 -13856.765)" fill="#4951ec"/>
      <path id="Path_1474" data-name="Path 1474" d="M1122.7,923.8c-10.212,5.665-41.431-4.267-41.431-5.161-.452,8.534-34.961,92.046-34.961,92.046v25.694s71.112,3.389,70.088-2.895-4.844-2.2-19.032-14.063c-1.258-1.039-21.178-5.675-15.789-17.468C1092.46,978.209,1115.515,938.623,1122.7,923.8Z" transform="translate(-19697.283 -14022.825)" fill="#f4c6eb"/>
      <path id="Path_1475" data-name="Path 1475" d="M1039.828,1122.323h77.842c2.812-.291,3.467-2.6,2.474-3.96-2.042-2.864-16.958-9.609-26.989-14.084-17.468,2.037-48.172-4.677-50.984-8.658C1034.781,1105.521,1038.263,1121.974,1039.828,1122.323Z" transform="translate(-19693.115 -14107.828)" fill="#0b0754"/>
      <path id="Path_1476" data-name="Path 1476" d="M1008.755,733.5c-1.04-3.16,67.042-32.045,70.067-28.745,5.389,5.842-36.806,115.433-36.806,115.433l48.5,14.817s50.412-126.612,48.333-149.77-27.368-49.471-82.114-32.633S1008.755,733.5,1008.755,733.5Z" transform="translate(-19679.119 -13892.486)" fill="#4e7fd6"/>
      <path id="Path_1477" data-name="Path 1477" d="M1236.22,953.615c-11.491-2.079-26.386-2.687-38.308-2.895,1.4,10.618,8.227,65.052,6.98,68.4a40.861,40.861,0,0,1-16.262,19.895s52.86,47.688,56.051,42.18-2.36-4.771-5.811-22.94c-.307-1.616-7.947-26.978-8.419-40.657C1229.547,991.5,1235.825,968.1,1236.22,953.615Z" transform="translate(-19765.639 -14038.233)" fill="#f4c6eb"/>
      <path id="Path_1478" data-name="Path 1478" d="M987.4,610.4c-7.375-3.929-26.505-4.069-47.569-2.7a482.861,482.861,0,0,0-120.593,23.688l-26.116,8.627.088-26.781s-83.112-13.907-86,6.72c-4.355,31.016,1.039,93.984,28.74,108.037,86,43.63,206.528-69.579,206.975-54.762.582,19.889,17.353,93.906,21.641,126.289,11.922.208,32.409.2,41.291-1.845C1007.576,734.214,1008.407,621.6,987.4,610.4Z" transform="translate(-19533.771 -13873.105)" fill="#619aff"/>
      <path id="Path_1479" data-name="Path 1479" d="M1185.478,1103.217l59.418,47.465c2.354,1.559,4.308.208,4.423-1.5.234-3.508-7.026-18.19-11.953-28-14.807-9.5-34.332-34.249-33.979-39.108C1197.155,1087.365,1184.469,1101.974,1185.478,1103.217Z" transform="translate(-19764.098 -14101.325)" fill="#0b0754"/>
      <path id="Path_1480" data-name="Path 1480" d="M742.589,60.027c-2-18.247-4.1-36.562-19.229-49.934C711.125-.727,695.565-2.561,680.177,3.228c-43.6,16.407-21.131,55.126-76.74,94.166-17.275,12.135-36.317,20.435-49.326,36.769-18.19,22.867-11.33,50.37,5.265,68.732,79.4,87.862,168.028-30.8,174.389-59.278C738.5,122.424,743.872,71.773,742.589,60.027Z" transform="translate(-19455.697 -13581.613)" fill="#4951ec"/>
      <path id="Path_1481" data-name="Path 1481" d="M803.121,276.451a242.554,242.554,0,0,0-13.164-21.438C783.227,243.055,765.842,237,765.842,237s-5.816.12-12.473.447a5.333,5.333,0,0,1-1.258,2.214c-2.51,1.881-16.885-.52-26.172,5.758-31.125,26.682-22.519,156-20.071,196.866l94.8.868s-11.953-87.878,7.276-110.459C821.373,316.973,812.741,294.168,803.121,276.451Z" transform="translate(-19532.352 -13695.44)" fill="#fa4067"/>
      <path id="Path_1482" data-name="Path 1482" d="M805.01,148.594s-5.2,37.206-8.835,46.254,20,28.381,39.685,34.249-6.018-19.972-5.2-29.623S835.039,144,835.039,144Z" transform="translate(-19576.967 -13650.774)" fill="#f4c6eb"/>
      <path id="Path_1483" data-name="Path 1483" d="M841.082,157.149c.577-7.572.993-13.149.993-13.149l-30.029,4.573s-.759,4.371-1.6,10.55C822.627,166.207,833.572,163.978,841.082,157.149Z" transform="translate(-19584.002 -13650.774)" opacity="0.2"/>
      <path id="Path_1484" data-name="Path 1484" d="M808.37,21.751a34.143,34.143,0,0,0-19.146,13.824c-7.312,11.153-12.322,43.983,11.751,59.309s42.788-6.351,43.1-27.5S839.853,18.025,808.37,21.751Z" transform="translate(-19570.908 -13591.898)" fill="#f4c6eb"/>
      <path id="Path_1485" data-name="Path 1485" d="M899.921,86.362c-2.079,5.1-6.127,8.269-9.1,7.073s-3.716-6.3-1.663-11.434,6.117-8.243,9.1-7.047S901.974,81.258,899.921,86.362Z" transform="translate(-19621.248 -13617.489)" fill="#f4c6eb"/>
      <path id="Path_1486" data-name="Path 1486" d="M800.2,20.727S785.129,54.576,771.855,57.6,758.79,77.651,758.79,77.651s.3-39.332,12.722-48.333S800.2,20.727,800.2,20.727Z" transform="translate(-19559.189 -13591.566)" fill="#4951ec"/>
      <path id="Path_1487" data-name="Path 1487" d="M781,97.795c1.741,5.5.146,10.914-3.57,12.088s-8.144-2.318-9.875-7.8S767.4,91.174,771.117,90,779.251,92.3,781,97.795Z" transform="translate(-19563.061 -13624.729)" fill="#f4c6eb"/>
      <path id="Path_1488" data-name="Path 1488" d="M940.541,478.818c-5.686-2.079-14.152-2.313-14.032-3.066.572-3.035,25.694,6.709,22.3,2.276-1.887-2.469-20.69-11.215-25.263-9.771-4.433,1.4-33.552,9.573-33.552,9.573l-79.557-18.652s-20.087-45.641-22.046-84.858c-16.6,2.245-27.908,6.351-42.341,14.36,6.959,37.5,23.881,98.288,42.59,109.685,7.863,4.8,101.785-5.717,101.785-5.717s20.7-1.46,24.078-2.76c2.567-.987,9.173-4.709,12.764-5.717,8.165-2.313,22.711,3.492,22.758,1.9C950.047,484.878,946.351,480.918,940.541,478.818Z" transform="translate(-19553.072 -13761.395)" fill="#f4c6eb"/>
      <path id="Path_1489" data-name="Path 1489" d="M781.257,267.465c-.764-12.068-5.337-23.714-18.19-27.467-7.957-2.328-16.885-.1-23.247,5.093-7.562,6.179-9.677,16.111-9.641,25.466.078,21.308,1.533,43.385,5.421,64.356,14.432-8.009,31.276-12.821,47.881-15.072C783.492,319.727,782.27,283.415,781.257,267.465Z" transform="translate(-19545.449 -13696.438)" fill="#b23751"/>
      <path id="Path_1490" data-name="Path 1490" d="M744.839,842.58H424.7a18,18,0,0,0-18,18v15.139a17.992,17.992,0,0,0,18.013,18.008H744.855l-.166-.172A36.66,36.66,0,0,1,744.839,842.58Z" transform="translate(-19390.086 -13986.296)" fill="#fa4067"/>
      <path id="Path_1491" data-name="Path 1491" d="M871.643,857.15H700.508a18,18,0,0,0-18,18h0a18,18,0,0,0,18,18h171.13A36.707,36.707,0,0,1,871.643,857.15Z" transform="translate(-19522.555 -13993.293)" fill="#dde8fe"/>
    </g>
  </g>
</svg>
