<svg xmlns="http://www.w3.org/2000/svg" width="766" height="766" viewBox="0 0 766 766">
  <g id="Group_2251" data-name="Group 2251" transform="translate(17153 13120)">
    <rect id="Rectangle_407" data-name="Rectangle 407" width="766" height="766" transform="translate(-17153 -13120)" fill="#fff" opacity="0"/>
    <g id="Asset_5" data-name="Asset 5" transform="translate(-17150 -13028)">
      <g id="Layer_2" data-name="Layer 2" transform="translate(0 0)">
        <g id="Layer_1" data-name="Layer 1">
          <rect id="Rectangle_393" data-name="Rectangle 393" width="96.307" height="72.922" rx="36.461" transform="translate(186.884 140.656)" fill="#feb545"/>
          <path id="Path_1665" data-name="Path 1665" d="M546.119,958.63c-1.974,0-3.582,2.271-3.589,5.086s1.589,5.1,3.563,5.1,3.582-2.271,3.589-5.082S548.094,958.634,546.119,958.63Zm0,1.437c1.059,0,1.919.533,1.915,1.185s-.863,1.178-1.922,1.174-1.915-.533-1.915-1.182.859-1.178,1.919-1.178Zm-.022,6.849c-1.482,0-2.7-.819-2.7-1.826s1.215-1.815,2.712-1.811,2.7.822,2.7,1.826S547.594,966.916,546.1,966.916Z" transform="translate(-341.566 -603.528)" fill="#466eb6"/>
          <path id="Path_1666" data-name="Path 1666" d="M528.2,989a12.3,12.3,0,0,0-1.148,5.16l-.093,37.3a4.1,4.1,0,0,0,4.112,4.075l21.325.052a4.093,4.093,0,0,0,4.13-4.075l.093-37.3a12.384,12.384,0,0,0-1.111-5.186Z" transform="translate(-331.763 -622.648)" fill="#7f1ca0"/>
          <path id="Path_1667" data-name="Path 1667" d="M528.2,989a12.3,12.3,0,0,0-1.148,5.16l-.093,37.3a4.1,4.1,0,0,0,4.112,4.075l21.325.052a4.093,4.093,0,0,0,4.13-4.075l.093-37.3a12.384,12.384,0,0,0-1.111-5.186Z" transform="translate(-331.763 -622.648)" fill="#7f1ca0"/>
          <path id="Path_1668" data-name="Path 1668" d="M556.59,994.272l-.093,37.3a4.1,4.1,0,0,1-4.13,4.075l-21.329-.052a4.1,4.1,0,0,1-4.108-4.075l.089-37.3a12.364,12.364,0,0,1,1.148-5.16l27.3.067A12.387,12.387,0,0,1,556.59,994.272Z" transform="translate(-331.744 -622.686)" fill="#fa7167"/>
          <path id="Path_1669" data-name="Path 1669" d="M532.616,1031.492l.089-37.3a12.451,12.451,0,0,1,1.148-5.164H528.2a12.307,12.307,0,0,0-1.148,5.16l-.093,37.3a4.1,4.1,0,0,0,4.112,4.075h5.653A4.1,4.1,0,0,1,532.616,1031.492Z" transform="translate(-331.763 -622.667)" fill="#f7a491"/>
          <path id="Path_1670" data-name="Path 1670" d="M585,994.278l-.093,37.3a4.1,4.1,0,0,1-4.13,4.075l-8.72-.022a4.127,4.127,0,0,0,4.175-4.075l.089-37.3a12.294,12.294,0,0,0-1.133-5.186l8.687.022A12.387,12.387,0,0,1,585,994.278Z" transform="translate(-360.157 -622.692)" fill="#fa4067"/>
          <path id="Path_1671" data-name="Path 1671" d="M557.6,985.4l-27.3-.067h0a2.171,2.171,0,0,1,2.185-2.156l22.94.056A2.171,2.171,0,0,1,557.6,985.4Z" transform="translate(-333.866 -618.984)" fill="#13375b"/>
          <rect id="Rectangle_394" data-name="Rectangle 394" width="4.634" height="29.567" transform="translate(195.203 406.073) rotate(-89.86)" fill="#13375b"/>
          <path id="Path_1672" data-name="Path 1672" d="M308.035,955.585h3.26a3.393,3.393,0,0,0-1.926-.585h-81.7c-4.275,0-7.738,3.075-7.738,6.86v4.36c0,3.789,3.463,6.86,7.738,6.86l80.786-.026Z" transform="translate(-138.465 -601.243)" fill="#4951ec"/>
          <path id="Path_1673" data-name="Path 1673" d="M319.968,955.018c-4.075,0-7.408,2.938-7.408,6.56V966.5c0,3.626,3.315,6.564,7.408,6.564h50.863v-1.111h-.211l-12.932-1.085-2.611-9.087s5.045-5.023,5.371-5.152,10.172-.519,10.172-.519h.211V955Z" transform="translate(-196.782 -601.243)" fill="#495195"/>
          <path id="Path_1674" data-name="Path 1674" d="M370.341,965.91a10.5,10.5,0,0,1,3.1-7.89H323.808c-3.756-.007-6.808,2.7-6.808,6.027v3.789c0,3.334,3.045,6.027,6.8,6.027h49.622S370.341,972.6,370.341,965.91Z" transform="translate(-199.578 -603.144)" fill="#dde8fe"/>
          <path id="Path_1675" data-name="Path 1675" d="M317,964.047v3.789a5.381,5.381,0,0,0,.2,1.448,14.209,14.209,0,0,1,10.987-8.249c14.254-2.626,45.229-3.015,45.229-3.015H323.808C320.052,958.012,317,960.716,317,964.047Z" transform="translate(-199.578 -603.144)" fill="#daeef7"/>
          <path id="Path_1676" data-name="Path 1676" d="M284.7,1052.87h3.7a3.612,3.612,0,0,0-2.182-.741h-92.48a8.676,8.676,0,0,0-8.742,8.6v5.456a8.675,8.675,0,0,0,8.761,8.587l91.432-.03Z" transform="translate(-116.474 -662.393)" fill="#00d498"/>
          <path id="Path_1677" data-name="Path 1677" d="M298.189,1052.191a8.3,8.3,0,0,0-8.379,8.212v6.156a8.3,8.3,0,0,0,8.379,8.212h57.564v-1.382h-.237l-14.635-1.356-2.963-11.376s5.712-6.3,6.082-6.449,11.513-.656,11.513-.656h.237v-1.374Z" transform="translate(-182.46 -662.425)" fill="#3c8f7c"/>
          <path id="Path_1678" data-name="Path 1678" d="M355.186,1065.815c0-6.668,3.5-9.876,3.5-9.876H302.534a7.62,7.62,0,0,0-7.694,7.542v4.745a7.619,7.619,0,0,0,7.694,7.542H358.69S355.186,1074.186,355.186,1065.815Z" transform="translate(-185.626 -664.791)" fill="#dde8fe"/>
          <path id="Path_1679" data-name="Path 1679" d="M294.84,1063.481v4.745a7.279,7.279,0,0,0,.226,1.808A16.453,16.453,0,0,1,307.5,1059.71c16.136-3.286,51.193-3.771,51.193-3.771H302.534A7.62,7.62,0,0,0,294.84,1063.481Z" transform="translate(-185.626 -664.791)" fill="#daeef7"/>
          <path id="Path_1680" data-name="Path 1680" d="M170.424,1004.267h-3.7a4.245,4.245,0,0,1,2.182-.578h92.517c4.838,0,8.764,3.049,8.764,6.812v4.326c0,3.764-3.926,6.816-8.764,6.816l-91.469-.026Z" transform="translate(-104.965 -631.896)" fill="#fa7167"/>
          <path id="Path_1681" data-name="Path 1681" d="M220.6,1003.7c4.627,0,8.379,2.915,8.379,6.516v4.893c0,3.6-3.752,6.516-8.379,6.516H163v-1.111h.237l14.639-1.078,2.963-9.024s-5.712-4.99-6.086-5.119-11.513-.519-11.513-.519H163v-1.089Z" transform="translate(-102.623 -631.897)" fill="#b75742"/>
          <path id="Path_1682" data-name="Path 1682" d="M167.158,1014.518a9.951,9.951,0,0,0-3.508-7.838h56.179c4.252,0,7.7,2.682,7.7,5.986v3.764c0,3.308-3.445,5.986-7.7,5.986H163.65S167.158,1021.164,167.158,1014.518Z" transform="translate(-103.032 -633.779)" fill="#dde8fe"/>
          <path id="Path_1683" data-name="Path 1683" d="M227.526,1012.666v3.764a4.779,4.779,0,0,1-.222,1.437c-1.9-3.6-5.527-7.075-12.439-8.194-16.143-2.593-51.215-2.993-51.215-2.993h56.179C224.081,1006.68,227.526,1009.362,227.526,1012.666Z" transform="translate(-103.032 -633.779)" fill="#daeef7"/>
          <rect id="Rectangle_395" data-name="Rectangle 395" width="8.827" height="202.267" transform="translate(347.019 380.35) rotate(10.73)" fill="#184655"/>
          <path id="Path_1684" data-name="Path 1684" d="M1577.072,1229.336h1.382a4.445,4.445,0,0,0,4.349-5.267l-37.021-191.71a4.445,4.445,0,0,0-5.186-3.512h0a4.445,4.445,0,0,0-3.53,5.16l35.635,191.709A4.445,4.445,0,0,0,1577.072,1229.336Z" transform="translate(-967.656 -647.686)" fill="#184655"/>
          <path id="Path_1685" data-name="Path 1685" d="M1061.5,1229.336h1.382a4.445,4.445,0,0,0,4.349-5.267l-37.02-191.709a4.445,4.445,0,0,0-5.186-3.512h0a4.445,4.445,0,0,0-3.53,5.16l35.635,191.709A4.445,4.445,0,0,0,1061.5,1229.336Z" transform="translate(-643.066 -647.686)" fill="#184655"/>
          <path id="Path_1686" data-name="Path 1686" d="M1362.318,1230.834h0a4.156,4.156,0,0,1-4.138-4.916l35.583-191.428a4.156,4.156,0,0,1,4.86-3.334l.493.093a4.16,4.16,0,0,1,3.312,4.856l-36.072,191.335A4.156,4.156,0,0,1,1362.318,1230.834Z" transform="translate(-855.035 -649.144)" fill="#184655"/>
          <path id="Path_1687" data-name="Path 1687" d="M932.768,293.39c34.342,3.678,78.786,7.557,123.4,83.271,48.763,82.749,23.1,206.356-15.395,240.706S876.586,694.13,770.919,630.635c0,0-63.8-38.48-31.056-102.337,50.378-98.274,43.269-118.766,65.8-157.279S859.872,285.585,932.768,293.39Z" transform="translate(-459.916 -184.168)" fill="#ffdc60"/>
          <path id="Path_1688" data-name="Path 1688" d="M1091.39,388.069c-30.453-51.678-60.82-69.888-87.957-77.419,10.5,10.861,21.136,24.818,31.786,42.906,48.763,82.749,23.1,206.36-15.391,240.706-34.131,30.464-136.85,67.254-233.368,30.912a98.016,98.016,0,0,0,19.673,16.862C911.8,705.53,1037.5,663.116,1075.987,628.767S1140.152,470.8,1091.39,388.069Z" transform="translate(-495.138 -195.576)" fill="#e0b93d"/>
          <path id="Path_1689" data-name="Path 1689" d="M1455.22,0c-35.561-.211-64.454,17.317-64.591,39.15-.063,10.916,7.079,20.844,18.684,28.067l-14.617,32.1,30.5-24.844a97.939,97.939,0,0,0,29.552,4.59c35.561.211,64.454-17.317,64.591-39.154S1490.751.208,1455.22,0Z" transform="translate(-875.508 0.005)" fill="#fa4067"/>
          <path id="Path_1690" data-name="Path 1690" d="M1497.217,69.033a22.429,22.429,0,1,0,15.969-27.411A22.429,22.429,0,0,0,1497.217,69.033Z" transform="translate(-942.142 -25.732)" fill="#fff"/>
          <path id="Path_1691" data-name="Path 1691" d="M1551.368,102.48a11.99,11.99,0,1,1-23.189,6.112Z" transform="translate(-962.106 -64.517)" fill="#fa4067"/>
          <path id="Path_1692" data-name="Path 1692" d="M733.271,446.26l31.686,32.286-39.087-7.294Z" transform="translate(-456.992 -280.953)" fill="#feb545"/>
          <path id="Path_1693" data-name="Path 1693" d="M608.557,428.774l-9.535-.17s-12.017-8.972-12.383-12.146,1.6-9.879-.263-10.724a6.244,6.244,0,0,0-8.3,2.693c-1.811,3.045-.3,14.172-1.422,14.917-.7.467-6.186.522-10.19.5a7.068,7.068,0,0,0-6.3,3.76h0a3.764,3.764,0,0,0,.911,4.656l2.126,1.778-1.674,2.223a3.767,3.767,0,0,0,.741,5.26l1.678,1.282-1.148,1.311a3.763,3.763,0,0,0,.67,5.556l1.482,1.045-.226.415a3.771,3.771,0,0,0,1.234,4.941l1.482.989,25.4.452a17.436,17.436,0,0,0,6.945-1.3l8.957-1.319a1.963,1.963,0,0,0,1.678-1.941l.059-22.225A1.963,1.963,0,0,0,608.557,428.774Z" transform="translate(-352.388 -255.043)" fill="#fff"/>
          <path id="Path_1694" data-name="Path 1694" d="M963.867,634.4l-8.827,26.478,26.9-10.579Z" transform="translate(-601.272 -399.401)" fill="#f79c8d"/>
          <path id="Path_1695" data-name="Path 1695" d="M991.72,421.66c-1.8.074-6.708,1.715-13.895,15.25-9.179,17.284-22.6,69.5-22.6,69.5l40.039,14.861,5.142-10.9,8.472-83.9S992.217,421.641,991.72,421.66Z" transform="translate(-601.392 -265.465)" fill="#fa7167"/>
          <path id="Path_1696" data-name="Path 1696" d="M1102.344,401.34c-11.45.019-39.776,3.334-52.922,7.531,0,0-9.661,82.734,8.694,145.6,4.108,14.076-3.4,58.334-3.4,58.334l118.629-1.56s-14.054-107.008-8.757-124.292,5.419-77.522,5.419-77.522-.811-.126-26.671-4.578A268.972,268.972,0,0,0,1102.344,401.34Z" transform="translate(-659.093 -252.672)" fill="#fa4067"/>
          <path id="Path_1697" data-name="Path 1697" d="M1217.737,1386.75s-2.623,30.186-7.449,38.546.256,22.574.508,24.522,10.161,4.738,25.907,3.067,15.491-5.293,14.221-11.146-9.631-13.376-10.157-18.951,4.815-25.637,4.815-25.637Z" transform="translate(-760.665 -873.062)" fill="#f7a491"/>
          <path id="Path_1698" data-name="Path 1698" d="M921.414,901.834s-81.89-4.553-100.178,6.486,3.308,33.709,3.308,33.709,66.677,28.893,178.281,35.309c26.43,1.519,28.708-68.68,23.767-74.492S921.414,901.834,921.414,901.834Z" transform="translate(-512.405 -566.598)" fill="#4951ec"/>
          <path id="Path_1699" data-name="Path 1699" d="M1235.795,1523.832c16.214-1.719,14.209-9.657,12.9-15.684-.819-3.775-5.471-8.223-8.242-12.428-1.452,1.148-3.808,3.182-10.85,5.253-7.312,2.152-17.336-2.108-23.707-4.775a77.6,77.6,0,0,0-2.167,20.844C1203.975,1519.049,1219.581,1525.554,1235.795,1523.832Z" transform="translate(-757.794 -941.667)" fill="#0b0754"/>
          <path id="Path_1700" data-name="Path 1700" d="M1233.163,961.569c-3.271,24.674-19.473,147.5-19.473,147.5l37.587,4.645s46.225-160.323,43.855-184.842-19.673-26.585-19.673-26.585S1241.824,896.252,1233.163,961.569Z" transform="translate(-764.112 -567.965)" fill="#619aff"/>
          <path id="Path_1701" data-name="Path 1701" d="M1114.178,110.917s12.487-13.169,22.533,2.852c0,0,7.738-4.345,13.168,3.393,0,0,13.98-4.208,17.373,16.7,0,0,7.2-1.356,8.149,7.194a21.161,21.161,0,0,1-3.393,14.254s4.041,3.03,2.223,10.894c-1.582,6.686-7.1,7.7-7.1,7.7s-1.482,11.268-6.382,14.661-11.546,1.785-11.546,1.785-1.767,6.108-7.468,5.556-12.761-5.971-19.14-3.53-22.94-.133-22.94-.133-18.6-8.283-13.032-27.285c0,0-9.772-8.824-1.222-19.41,0,0-6.242-16.562,6.108-26.337S1114.178,110.917,1114.178,110.917Z" transform="translate(-681.135 -66.624)" fill="#f50"/>
          <path id="Path_1702" data-name="Path 1702" d="M1167.725,316.018l-2.263,16.769s-5.052,24.163,1.452,28.83,27.708-29.512,27.708-29.512l-2.223-42.5Z" transform="translate(-732.571 -182.329)" fill="#f7a491"/>
          <path id="Path_1703" data-name="Path 1703" d="M1196.87,303.362c-5.382,14.495-18.2,23.4-27.3,26.859L1171.489,316l24.655-26.415Z" transform="translate(-736.335 -182.317)" fill="#f47458"/>
          <path id="Path_1704" data-name="Path 1704" d="M1147.706,166.993a22.418,22.418,0,0,0-29.334,17.862,169.919,169.919,0,0,0-1.819,21.518c-.371,19.588,9.786,38.654,18.68,38.654s33.479-12.68,34.368-40.491C1170.154,187.367,1161.582,171.79,1147.706,166.993Z" transform="translate(-702.951 -104.371)" fill="#f7a491"/>
          <path id="Path_1705" data-name="Path 1705" d="M1242.09,263.043c0,4.319,2.864,7.823,6.4,7.823s6.4-3.5,6.4-7.823-2.867-7.823-6.4-7.823S1242.09,258.72,1242.09,263.043Z" transform="translate(-781.991 -160.678)" fill="#f7a491"/>
          <path id="Path_1706" data-name="Path 1706" d="M1080.17,132.571c-9.19,7.279-12.409,18.34-7.194,24.7s16.9,5.623,26.082-1.656,12.409-18.34,7.19-24.7S1089.356,125.292,1080.17,132.571Z" transform="translate(-673.949 -79.694)" fill="#f50"/>
          <path id="Path_1707" data-name="Path 1707" d="M1148.56,447.787c-11.113-4.145-16.521,95.455-18.014,136.45-19.633,1.885-53.878,0-62.406-.622-4.008-.3-13.254-3.675-17.24-4.2-4.075-.533-7.779-.807-9.8-.459-.741.126-21.21,8.472-22.966,10.3-2.174,2.267-8.046,7.994-7.038,10.468s11.291-6.9,11.291-6.9l5.038-2.815c-6.271,6.1-18.225,14.139-16.5,17.065,1.678,2.852,12.465-5.3,20.151-10.861-6.594,5.927-14.784,16.554-12.9,18.21,1.7,1.482,11.013-10.805,20.97-14.346,3.7-1.311,7.368,2.319,10.268,2.76,2.134.322,5.427,1.008,7.52.419l10.779-3.049c3.675.333,3.767,2.5,7.475,3.282,4.3.915,11.368,1.874,16.851,3.212,31.571,7.686,42.1,11.257,51.767,11.25C1173.093,617.941,1174.771,457.588,1148.56,447.787Z" transform="translate(-636.35 -281.835)" fill="#f7a491"/>
          <path id="Path_1708" data-name="Path 1708" d="M1363.1,525.481c2.078-42,1.774-93.751-21.855-102.582-9.32-3.486-25.752,17.466-22.8,103.434C1331.074,527.37,1349.588,528.2,1363.1,525.481Z" transform="translate(-829.847 -266.019)" fill="#fa7167"/>
          <path id="Path_1709" data-name="Path 1709" d="M1082.85,651.73h2.408l36.194,88.646-2.493-.378Z" transform="translate(-681.738 -410.311)" fill="#f79c8d"/>
          <path id="Path_1710" data-name="Path 1710" d="M870.848,1456.46s3.282,10.479-2.593,17.41-30.275,13.728-33.479,17.484-2.963,6.949-2.963,6.949l68.491-1.878-.741-20.614-3.152-14.817Z" transform="translate(-523.689 -916.95)" fill="#f7a491"/>
          <path id="Path_1711" data-name="Path 1711" d="M846.031,1510.12s17.6,7.094,26.1,2.893,8.246-5.364,10.705-3.8,3.334,20.892,3.334,20.892l-77.019,2.252c-5.36-.122-8.068-4.056-3.7-7.408a63.183,63.183,0,0,1,8.4-4.975C819.868,1516.521,846.031,1510.12,846.031,1510.12Z" transform="translate(-505.724 -949.743)" fill="#0b0754"/>
          <path id="Path_1712" data-name="Path 1712" d="M841.712,923.994c-5.293-11.113-17.332-25.559-38.524-16.851-20.2,8.3-25.626,28.712-19.262,49.607s48.34,143.725,49.8,160.631l33.5.222s-6.09-97.27-7.583-120.781C858.233,974.2,850.872,943.193,841.712,923.994Z" transform="translate(-491.955 -569.433)" fill="#619aff"/>
          <path id="Path_1713" data-name="Path 1713" d="M784.95,651.73H896.958a7.3,7.3,0,0,1,6.764,4.546L938.2,740.361h61.75a3.123,3.123,0,0,1,3.126,3.123h0a3.122,3.122,0,0,1-3.126,3.123H824.207a12.272,12.272,0,0,1-11.194-7.242l-34.723-77.341a7.3,7.3,0,0,1,6.66-10.294Z" transform="translate(-489.59 -410.311)" fill="#dde8fe"/>
          <path id="Path_1714" data-name="Path 1714" d="M1674.819,927.787c-.711-6.275-1.556-12.694-4.467-18.3-3.541-6.808-9.764-11.724-15.187-17.136a94.99,94.99,0,0,1-22.666-36.128c-3.63-10.483-5.438-21.648-10.435-31.549-3.056-6.045-7.216-11.446-10.683-17.262-8.2-13.746-12.657-30-23.77-41.487a49.878,49.878,0,0,0,11.265,39.454c2.737,3.193,5.927,6.071,8,9.724,3.786,6.631,3.441,14.724,3.882,22.351a98.166,98.166,0,0,0,11.739,41.076c7.29,13.391,17.814,25.311,21.714,40.058,2.922,11.046,2.052,23.44,8.283,33.016a8.476,8.476,0,0,1,1.611,3.308,7.261,7.261,0,0,1-.122,2.078c-.141.889-.278,1.778-.419,2.667-1.419,9.042-2.882,20.551,4.89,27.319,5.386,4.69,12.317,4.793,16.184-1.437s3.549-15.454,3.26-22.514C1677.4,951.264,1676.142,939.474,1674.819,927.787Z" transform="translate(-999.189 -482.209)" fill="#02ccc0"/>
          <path id="Path_1715" data-name="Path 1715" d="M1788.069,847.252c-3.026-10.468-7.716-20.436-10.068-31.075-2.282-10.324-2.3-20.992-2.308-31.56l-.022-34.75c0-7.212,0-14.447-1.208-21.574-2.563-15.3-10.516-29.449-11.854-44.907-.582-6.668.093-13.439-.641-20.107a31.682,31.682,0,0,0-3.163-11.079,4.934,4.934,0,0,0-8.853.248c-3.864,8.368-6.3,17.41-4.753,26.382.937,5.379,3.267,10.4,5,15.558,7.745,23.044,3.634,48.552,9.631,72.11,1.811,7.112,4.545,14.076,4.864,21.422.763,17.547-12.346,33.579-11.142,51.119.985,14.365,11.317,26.256,15.65,40.006,2.426,7.686,2.964,15.891,5.556,23.522,2.019,5.927,6.716,13.128,14.017,11.328,6.927-1.708,4.834-7.364,4.523-12.765C1792.244,882.835,1793.226,865.107,1788.069,847.252Z" transform="translate(-1098.441 -408.95)" fill="#027ec0"/>
          <path id="Path_1716" data-name="Path 1716" d="M1854.589,874.588c-.307-5.438-1.222-10.909-.463-16.3.641-4.556,2.456-8.849,3.752-13.265,2.426-8.272,3.026-16.951,3.615-25.559q1.6-23.452,3.2-46.907c1.659-24.3,3.334-48.677,7.875-72.6,1.26-6.645,2.678-13.843-.307-19.91-.63-1.278-1.852-2.634-3.226-2.223-.971.3-1.445,1.371-1.793,2.323-9.935,27-13.706,56.064-24.778,82.6-2.656,6.356-5.745,12.594-7.12,19.366-1.652,8.109-.741,16.484-.533,24.759a116.769,116.769,0,0,1-4.126,35.231c-1.711,5.968-4.008,11.8-4.949,17.94-1.171,7.653-.185,15.45.548,23.159a355.827,355.827,0,0,1,1.426,44.61c-.267,8.749,7.116,8.52,12.009,3.145,3.423-3.756,3.389-7.883,4.56-12.565C1848.132,903.059,1855.523,891.242,1854.589,874.588Z" transform="translate(-1149.103 -426.691)" fill="#02ccc0"/>
          <path id="Path_1717" data-name="Path 1717" d="M1704.739,1188c-6.531-10.49-19.54-16.458-23.707-28.093-1.063-2.963-1.482-6.145-2.774-9.012-2.882-6.364-9.435-9.961-15.876-12.891a1.363,1.363,0,0,0-1.922,1.226h0a4.641,4.641,0,0,0,2.015,3.93,26.145,26.145,0,0,1,10.413,14.2c1.989,6.82,1.111,14.295,3.6,20.955,2.078,5.59,6.353,10.161,8.36,15.776,1.852,5.134,1.641,10.742,2.5,16.125s3.253,11.113,8.2,13.376C1713.421,1231.838,1708.95,1194.781,1704.739,1188Z" transform="translate(-1045.385 -716.383)" fill="#027ec0"/>
          <path id="Path_1718" data-name="Path 1718" d="M1925.68,1144.61c-.282,5.075.5,10.394-1.482,15.069-1.271,2.989-3.556,5.408-5.43,8.061-6.583,9.312-8.972,22.511-19.088,27.752a3.467,3.467,0,0,1-2.152.519,3.3,3.3,0,0,1-2.134-2.163c-2.482-5.779.3-12.291,1.952-18.362a4.5,4.5,0,0,0,.022-3.223c-.556-1.074-1.826-1.537-2.693-2.382-1.73-1.682-1.567-4.445-1.222-6.853a155.751,155.751,0,0,1,3.608-17.718,31.035,31.035,0,0,1,3.793-9.479c2.1-3.123,5.141-5.456,7.994-7.909a94.693,94.693,0,0,0,27.637-40.817c1.171-3.4,2.223-7,4.627-9.668s6.723-4.041,9.664-1.971c2.093,1.482-6.479,15.262-7.479,16.917-2.856,4.723-2.893,8.835-4.508,14.076C1934.837,1119.325,1926.435,1130.834,1925.68,1144.61Z" transform="translate(-1191.934 -676.455)" fill="#02ccc0"/>
          <path id="Path_1719" data-name="Path 1719" d="M1885.755,1072.977c1.852-4.838,3.756-9.742,4.375-14.895.685-5.727-.226-11.587.741-17.273,1.26-7.308,5.523-13.735,7.631-20.848,1.522-5.134,1.9-10.527,2.812-15.806,2.619-15.087,9.713-29.834,7.675-45.014-.441-3.3-1.934-7.153-5.208-7.716-2.963-.507-5.667,2.223-6.438,5.119s-.2,5.99,0,9a37.176,37.176,0,0,1-6.668,23.826c-4.66,6.594-11.424,11.561-15.617,18.462-5.145,8.464-5.845,18.8-8.471,28.356-5.219,19.006-18.31,35.587-20.7,55.152-.948,7.779.878,17.247,8.064,20.373C1874.772,1120.691,1881.047,1085.153,1885.755,1072.977Z" transform="translate(-1161.981 -598.954)" fill="#027ec0"/>
          <path id="Path_1720" data-name="Path 1720" d="M1766.189,1344.767H1718.5a5.056,5.056,0,0,0-4.912,6.231l17.384,73.314a5.052,5.052,0,0,0,4.908,3.882h57.294a5.053,5.053,0,0,0,4.912-3.89l17.384-73.314a5.056,5.056,0,0,0-4.912-6.23Z" transform="translate(-1078.746 -846.626)" fill="#ff5c7e"/>
          <rect id="Rectangle_396" data-name="Rectangle 396" width="231.83" height="11.972" rx="5.986" transform="translate(26.431 412.336)" fill="#184655"/>
          <rect id="Rectangle_397" data-name="Rectangle 397" width="151.57" height="10.476" rx="5.238" transform="translate(30.624 481.794)" fill="#184655"/>
          <rect id="Rectangle_398" data-name="Rectangle 398" width="9.779" height="163.305" rx="4.89" transform="translate(225.734 418.322)" fill="#184655"/>
          <rect id="Rectangle_399" data-name="Rectangle 399" width="9.779" height="163.305" rx="4.89" transform="translate(87.433 418.322)" fill="#184655"/>
          <path id="Path_1721" data-name="Path 1721" d="M409.326,1289.092l50.255-154.448a4.545,4.545,0,0,0-2.915-5.723h0a4.537,4.537,0,0,0-5.719,2.915l-50.256,154.448a4.542,4.542,0,0,0,4.315,5.945h0a4.542,4.542,0,0,0,4.319-3.138Z" transform="translate(-252.128 -710.598)" fill="#184655"/>
          <path id="Path_1722" data-name="Path 1722" d="M8.92,1288.754l42.921-154.537a4.541,4.541,0,0,0-3.16-5.59h0a4.541,4.541,0,0,0-5.59,3.16L.171,1286.324a4.545,4.545,0,0,0,4.375,5.756h0A4.538,4.538,0,0,0,8.92,1288.754Z" transform="translate(-0.006 -710.449)" fill="#184655"/>
          <path id="Path_1723" data-name="Path 1723" d="M1145.25,320.521l17.221-.281s-.289,6.549-7.86,6.89C1145.38,327.56,1145.25,320.521,1145.25,320.521Z" transform="translate(-721.024 -201.613)" fill="#fff"/>
        </g>
      </g>
    </g>
  </g>
</svg>
