<svg xmlns="http://www.w3.org/2000/svg" xmlns:xlink="http://www.w3.org/1999/xlink" width="20" height="20" viewBox="0 0 20 20">
  <defs>
    <clipPath id="clip-path">
      <rect id="_1829026" data-name="1829026" width="20" height="20" transform="translate(588.864 14.509)" fill="#858585" opacity="0.4"/>
    </clipPath>
  </defs>
  <g id="Mask_Group_81" data-name="Mask Group 81" transform="translate(-588.864 -14.509)" clip-path="url(#clip-path)">
    <g id="Chalkmate_GIF" transform="translate(585.533 11.188)">
      <g id="Group_1732" data-name="Group 1732">
        <path id="Path_479" data-name="Path 479" d="M3.331,19.412V12.074a.244.244,0,0,0,.031-.047A1.752,1.752,0,0,1,5.2,10.585h.479V10.33c0-2.071.005-4.143-.005-6.214a.754.754,0,0,1,.437-.786H15.6a2.3,2.3,0,0,1,.349.239L20.77,8.316a.7.7,0,0,1,.224.536c-.005.5,0,1,0,1.5v.229c.224,0,.422-.005.625,0a1.741,1.741,0,0,1,1.639,1.27c.021.073.047.146.073.219v7.338a.243.243,0,0,0-.026.052,1.752,1.752,0,0,1-1.874,1.468H21v.239c0,.5.005,1.015,0,1.52a.578.578,0,0,1-.625.619H6.328a.586.586,0,0,1-.635-.63V20.932c-.224,0-.432.005-.64,0a1.755,1.755,0,0,1-1.593-1.15A1.952,1.952,0,0,1,3.331,19.412Zm10-7.655H5.178a.593.593,0,0,0-.671.671V19.1a.6.6,0,0,0,.666.661H21.488a.593.593,0,0,0,.661-.661V12.407a.843.843,0,0,0-.005-.114.527.527,0,0,0-.281-.442,1.006,1.006,0,0,0-.411-.088Q17.393,11.754,13.333,11.756ZM19.8,9.378h-.234c-.942,0-1.884.005-2.826,0a2.487,2.487,0,0,1-.52-.052,1.73,1.73,0,0,1-1.343-1.738c-.005-.947,0-1.9,0-2.847V4.523H6.859V10.58H19.8ZM6.854,22.134H19.8V20.947H6.854ZM18.912,8.207a.359.359,0,0,1,.016-.042c-.947-.937-1.9-1.868-2.873-2.831-.005.1-.01.151-.01.2v2a.6.6,0,0,0,.671.671h2.2Z" fill="#858585"/>
        <path id="Path_480" data-name="Path 480" d="M10.872,16.284c-.245,0-.479.005-.713,0a.336.336,0,0,1-.354-.375.317.317,0,0,1,.3-.323c.552-.01,1.1-.01,1.66,0a.288.288,0,0,1,.3.3c.005.333.005.666-.016.994a1.27,1.27,0,0,1-.843,1.166,3.289,3.289,0,0,1-2.524-.005,1.249,1.249,0,0,1-.822-1.135c-.026-.39-.021-.781-.021-1.171,0-.37-.005-.744.01-1.114a1.338,1.338,0,0,1,.984-1.291,3.382,3.382,0,0,1,2.472.1,1.263,1.263,0,0,1,.63.557.961.961,0,0,1,.12.6.321.321,0,0,1-.25.291,1.327,1.327,0,0,1-.713-.016.28.28,0,0,1-.2-.239c-.094-.468-.245-.619-.723-.661a2,2,0,0,0-.656.052.621.621,0,0,0-.489.567A1.77,1.77,0,0,0,9,14.822v1.8a.748.748,0,0,0,.786.864,1.889,1.889,0,0,0,.614-.068.611.611,0,0,0,.468-.562C10.887,16.674,10.872,16.492,10.872,16.284Z" fill="#858585"/>
        <path id="Path_481" data-name="Path 481" d="M16.425,13.953v1.395h.416c.317,0,.635-.005.958,0a.349.349,0,0,1,.364.349.338.338,0,0,1-.364.349c-.385.005-.765.005-1.15.005h-.229v1.806c0,.193-.042.26-.219.323a1.094,1.094,0,0,1-.729,0c-.177-.057-.224-.13-.224-.317v-4.33A.288.288,0,0,1,15.5,13.2a.943.943,0,0,1,.271-.036h3.081a.393.393,0,1,1,.026.786c-.739.005-1.483,0-2.222,0C16.576,13.953,16.508,13.953,16.425,13.953Z" fill="#858585"/>
        <path id="Path_482" data-name="Path 482" d="M14.161,15.7v2.123c0,.25-.052.338-.3.375a2.164,2.164,0,0,1-.635-.01c-.187-.031-.245-.125-.245-.317v-4.33a.279.279,0,0,1,.239-.328,1.206,1.206,0,0,1,.692,0c.187.052.239.125.239.323C14.161,14.26,14.161,14.978,14.161,15.7Z" fill="#858585"/>
      </g>
    </g>
  </g>
</svg>
