<svg xmlns="http://www.w3.org/2000/svg" width="21" height="21" viewBox="0 0 21 21">
  <g id="Group_1044" data-name="Group 1044" transform="translate(18008 6246)">
    <rect id="Rectangle_204" data-name="Rectangle 204" width="21" height="21" transform="translate(-18008 -6246)" fill="#fff" opacity="0"/>
    <path id="G_" data-name="G+" d="M276.139,6201.354h-4.566a6.754,6.754,0,0,0-4.709,1.519,4.706,4.706,0,0,0-1.591,3.435,3.994,3.994,0,0,0,4.128,4.022,7.536,7.536,0,0,0,.8-.055l-.037.094a2.19,2.19,0,0,0-.21.905,2.6,2.6,0,0,0,.7,1.678l.044.053-.077.014a10.486,10.486,0,0,0-4.68,1.171,3.694,3.694,0,0,0-1.919,3.115c0,1.825,1.655,3.662,5.355,3.662,4.3,0,6.552-2.423,6.552-4.833a4.485,4.485,0,0,0-2.1-3.582l-.911-.731a1.378,1.378,0,0,1-.631-1.079,1.772,1.772,0,0,1,.666-1.225l.033-.026a4.367,4.367,0,0,0,2.1-3.649,4.29,4.29,0,0,0-1.767-3.448h1.515c.019,0,.036-.013.052-.013l1.3-.839a.115.115,0,0,0,.043-.119.1.1,0,0,0-.1-.068ZM270.6,6219.9c-2.622,0-4.383-1.251-4.383-3.129a2.785,2.785,0,0,1,2.14-2.637,10.079,10.079,0,0,1,2.618-.412,3.849,3.849,0,0,1,.571.027c1.835,1.344,2.718,2.05,2.718,3.381,0,1.7-1.4,2.769-3.663,2.769Zm-.025-10.292c-2.2,0-3.113-2.97-3.113-4.554a2.932,2.932,0,0,1,.547-1.891,2.274,2.274,0,0,1,1.744-.853c2.021,0,3.138,2.782,3.138,4.714a2.653,2.653,0,0,1-.622,1.863,2.537,2.537,0,0,1-1.7.719Zm11.959.905H280.13v-2.463a.1.1,0,0,0-.03-.068.094.094,0,0,0-.069-.025H279a.1.1,0,0,0-.069.025.1.1,0,0,0-.031.067v2.464h-2.4a.1.1,0,0,0-.069.026.093.093,0,0,0-.03.067v1.078a.106.106,0,0,0,.1.105h2.4v2.477a.1.1,0,0,0,.031.067.1.1,0,0,0,.069.025h1.035a.094.094,0,0,0,.1-.093v-2.477h2.406a.107.107,0,0,0,.1-.106v-1.079a.1.1,0,0,0-.1-.093Z" transform="translate(-18271.021 -12446.34)" fill="#fff" fill-rule="evenodd"/>
  </g>
</svg>
