<svg xmlns="http://www.w3.org/2000/svg" width="20.791" height="19.491" viewBox="0 0 20.791 19.491">
  <path id="Chalkmate_like" d="M19.94,30.407A5.466,5.466,0,0,0,15.78,28.5a5.058,5.058,0,0,0-3.265,1.187,6.887,6.887,0,0,0-1.322,1.453,6.887,6.887,0,0,0-1.322-1.453A5.058,5.058,0,0,0,6.607,28.5a5.452,5.452,0,0,0-4.156,1.907A7.057,7.057,0,0,0,.8,35.083a8.391,8.391,0,0,0,2.062,5.336,45.082,45.082,0,0,0,5.164,5.109c.716.643,1.525,1.371,2.367,2.147a1.181,1.181,0,0,0,1.61,0c.842-.776,1.651-1.5,2.367-2.147a45.028,45.028,0,0,0,5.16-5.1,8.391,8.391,0,0,0,2.062-5.336A7.1,7.1,0,0,0,19.94,30.407Z" transform="translate(-0.8 -28.5)" fill="#858585"/>
</svg>
