<svg xmlns="http://www.w3.org/2000/svg" width="178.311" height="37.761" viewBox="0 0 178.311 37.761">
  <g id="Group_998" data-name="Group 998" transform="translate(-24.018 5.505)">
    <g id="Layer_2" data-name="Layer 2" transform="translate(24.008 -5.504)">
      <g id="Layer_1" data-name="Layer 1">
        <path id="Path_199" data-name="Path 199" d="M30.134,22.6a4.756,4.756,0,0,0-3.4,1.426c-.081.081-.46.575-.575.713a9.368,9.368,0,1,1,0-11.7c.121.15.523.61.575.69A4.773,4.773,0,0,0,34.5,8.425a5.216,5.216,0,0,0-.495-.851l-.035-.046a18.88,18.88,0,1,0,0,22.7l.035-.04a5.267,5.267,0,0,0,.495-.863A4.767,4.767,0,0,0,30.134,22.6" fill="#fff"/>
        <path id="Path_200" data-name="Path 200" d="M30.134,32.146a4.756,4.756,0,0,1-3.4-1.426c-.081-.081-.161-.167-.236-.253s-.224-.311-.345-.46a4.774,4.774,0,1,1,7.809-5.492l.035.04a5.268,5.268,0,0,1,.512.857,4.767,4.767,0,0,1-4.371,6.734" fill="#fff"/>
        <path id="Path_201" data-name="Path 201" d="M149.07,24.63h-.989a.909.909,0,0,1-.863-1.024V17.062h1.53a1.461,1.461,0,1,0,0-2.916h-1.53V11.72a1.765,1.765,0,0,0,0-.3,1.691,1.691,0,0,0-1.7-1.725h0a1.685,1.685,0,0,0-1.679,1.679V23.607a4.221,4.221,0,0,0,4.238,4.382h.989a1.679,1.679,0,1,0,0-3.358" fill="#fff"/>
        <path id="Path_202" data-name="Path 202" d="M91.827,24.63h-.966a.909.909,0,0,1-.886-1.024V11.4a1.679,1.679,0,1,0-3.358,0V23.607a4.221,4.221,0,0,0,4.244,4.382h.983a1.679,1.679,0,0,0,0-3.358" fill="#fff"/>
        <path id="Path_203" data-name="Path 203" d="M140.53,14.147h0a1.691,1.691,0,0,0-1.581,1.081,6.953,6.953,0,1,0,0,11.726,1.68,1.68,0,0,0,.477.679l.052.04a1.668,1.668,0,0,0,1.047.368,1.725,1.725,0,0,0,1.7-1.7V15.837a1.691,1.691,0,0,0-1.691-1.691m-5.308,10.507a3.56,3.56,0,1,1,3.56-3.56,3.56,3.56,0,0,1-3.56,3.56" fill="#fff"/>
        <path id="Path_204" data-name="Path 204" d="M121.1,14.158a5.452,5.452,0,0,0-3.5,1.576,5.549,5.549,0,0,0-4.256-1.576,5.636,5.636,0,0,0-5.233,5.664v6.487a1.725,1.725,0,0,0,3.393,0v-6.59a2.185,2.185,0,0,1,2.438-2.168,2.226,2.226,0,0,1,1.926,2.231v6.527a1.725,1.725,0,0,0,3.387.173V19.719h0a2.191,2.191,0,0,1,2.438-2.162,2.226,2.226,0,0,1,1.944,2.226v6.734a1.725,1.725,0,0,0,.575,1.116l.052.04a1.668,1.668,0,0,0,1.047.368,1.725,1.725,0,0,0,1.7-1.7V19.719a5.584,5.584,0,0,0-5.94-5.561" fill="#fff"/>
        <path id="Path_205" data-name="Path 205" d="M63.4,14.158a5.394,5.394,0,0,0-1.829.437V11.432a1.7,1.7,0,0,0-3.387,0V26.309h0v.035a1.673,1.673,0,0,0,.575,1.288l.052.04a1.668,1.668,0,0,0,1.047.368,1.725,1.725,0,0,0,1.685-1.524q0-.1,0-.207v-6.59a2.185,2.185,0,0,1,2.438-2.168,2.226,2.226,0,0,1,1.932,2.231V26.3a1.7,1.7,0,1,0,3.393,0V19.719a5.584,5.584,0,0,0-5.94-5.561" fill="#fff"/>
        <path id="Path_206" data-name="Path 206" d="M84.662,15.6a.976.976,0,0,0,0-.127v-.063a1.116,1.116,0,0,0-.029-.115.241.241,0,0,1,0-.058c0-.035-.029-.069-.046-.109v-.052l-.052-.1-.035-.052-.069-.1-.035-.046a.615.615,0,0,0-.081-.092l-.034-.04a1.2,1.2,0,0,0-.127-.115h0l-.121-.092-.058-.035-.075-.046-.063-.035-.075-.035-.069-.029-.075-.029H83.08a1.691,1.691,0,0,0-1.553,1.012h0a6.947,6.947,0,1,0,0,11.72,1.691,1.691,0,0,0,3.261-.638V15.6M77.68,24.653a3.56,3.56,0,1,1,3.56-3.56,3.56,3.56,0,0,1-3.56,3.56" fill="#fff"/>
        <path id="Path_207" data-name="Path 207" d="M163.97,19.432a5.67,5.67,0,0,0-2-3.7h0l-.081-.063h-.04a6.947,6.947,0,1,0,.374,10.6h0l.092-.086a1.7,1.7,0,0,0-1.208-2.875,1.679,1.679,0,0,0-1.15.466h0a3.519,3.519,0,0,1-2.392.88,3.565,3.565,0,0,1-3.054-1.725l6.6-.173a2.956,2.956,0,0,0,2.875-3.324m-9.6.1a3.542,3.542,0,0,1,5.365-1.248,2.2,2.2,0,0,1,.753,1.087Z" fill="#fff"/>
        <path id="Path_208" data-name="Path 208" d="M103.783,20.7c.155-.115.3-.23.431-.345,1.409-1.254,2.1-3.18,2.1-5.883h0a1.725,1.725,0,0,0-1.7-1.662,1.685,1.685,0,0,0-1.685,1.616h0c0,1.725-.3,2.824-.96,3.41a4.9,4.9,0,0,1-3.45.822V11.432a1.7,1.7,0,0,0-3.387,0V26.309a1.7,1.7,0,1,0,3.387,0V22.037H99.1a10.667,10.667,0,0,0,1.409-.092l3.261,5.227a1.733,1.733,0,1,0,2.944-1.829Z" fill="#fff"/>
        <path id="Path_209" data-name="Path 209" d="M56.265,23.239h0a1.757,1.757,0,0,0-2.663-.2c-.035,0-.173.207-.219.259a3.45,3.45,0,1,1,0-4.3c.04.058.19.224.219.253a1.725,1.725,0,0,0,3.013-1.219,1.662,1.662,0,0,0-.167-.776,1.57,1.57,0,0,0-.184-.316h0a6.947,6.947,0,1,0-.322,8.712,1.725,1.725,0,0,0,.667-1.374,1.662,1.662,0,0,0-.161-.7,1.57,1.57,0,0,0-.184-.316" fill="#fff"/>
      </g>
    </g>
    <path id="Path_149" data-name="Path 149" d="M.08-7H4.374v.895H2.734v4.369H1.719V-6.105H.08ZM5.088-7H6.239L7.983-3.609,9.713-7h1.151v5.264H9.938V-5.511L8.3-2.278H7.652L6.005-5.511v3.775H5.088Z" transform="translate(191.466 9.405)" fill="#fff"/>
  </g>
</svg>
