<svg xmlns="http://www.w3.org/2000/svg" width="21" height="21" viewBox="0 0 21 21">
  <g id="Group_1043" data-name="Group 1043" transform="translate(17961 6246)">
    <rect id="Rectangle_205" data-name="Rectangle 205" width="21" height="21" transform="translate(-17961 -6246)" fill="#fff" opacity="0"/>
    <path id="Mail" d="M300.663,6204.345l7.561,5.97a2.385,2.385,0,0,0,2.546,0l7.561-5.969c.6-.482.468-.865-.3-.865H300.962C300.2,6203.48,300.058,6203.862,300.663,6204.345Zm18.216,1.579-8.263,6.25a1.988,1.988,0,0,1-2.235,0l-8.264-6.25c-.613-.47-1.116-.215-1.116.548v10.258a1.4,1.4,0,0,0,1.4,1.4h18.2a1.4,1.4,0,0,0,1.4-1.4v-10.258C320,6205.708,319.49,6205.453,318.879,6205.924Z" transform="translate(-18260.002 -12446.48)" fill="#fff" fill-rule="evenodd"/>
  </g>
</svg>
