<svg xmlns="http://www.w3.org/2000/svg" width="766" height="766" viewBox="0 0 766 766">
  <g id="Group_2244" data-name="Group 2244" transform="translate(18885 13120)">
    <rect id="Rectangle_406" data-name="Rectangle 406" width="766" height="766" transform="translate(-18885 -13120)" fill="#fff" opacity="0"/>
    <g id="Layer_2" data-name="Layer 2" transform="translate(-18860 -13043)">
      <g id="Layer_1" data-name="Layer 1">
        <path id="Path_1492" data-name="Path 1492" d="M661.051,350.636C546.807,258.659,450.818,139.688,378.141,0L221,127.62c84.038,161.511,195.027,299.068,327.116,405.411Z" transform="translate(-125.854)" fill="#3c8f7c"/>
        <path id="Path_1493" data-name="Path 1493" d="M390.987,77.47l-97.608,80.542c7.749,14.6,4.938,34.308-6.609,44.3,73.878,132.063,166.458,246.811,274.269,339.92,8.813-13.372,25.427-15.968,37.365-6.174L669.6,422.8c-10.987-9.015-12.558-27.437-3.746-40.805C571.2,300.236,489.9,199.472,425.028,83.5,413.49,93.485,398.116,90.911,390.987,77.47Z" transform="translate(-163.309 -44.117)" fill="#00d498"/>
        <path id="Path_1494" data-name="Path 1494" d="M927.456,874.253q-39.049-33.809-75.2-71.583-6.187,8.146-12.382,16.278,36.65,38.269,76.259,72.586Z" transform="translate(-478.286 -457.102)" fill="#50bfa5"/>
        <path id="Path_1495" data-name="Path 1495" d="M489.234,567.193C345.741,548.8,205.007,500.277,74.455,424.13L0,600.5C150.946,688.519,313.662,744.646,479.577,765.91Q484.408,666.558,489.234,567.193Z" transform="translate(0 -241.532)" fill="#3c8f7c"/>
        <path id="Path_1496" data-name="Path 1496" d="M100.525,497.732Q77.708,553.02,54.89,608.295c13.777,7.892,20.872,24.867,15.7,38.317,127.9,69.5,263.631,116.323,402.109,138.693,1.171-14.827,14.311-24.828,29.4-22.762q3.47-61.957,6.94-123.909c-13.88-1.907-24.152-15.774-22.981-30.593C364.449,588.4,245.255,547.277,132.94,486.25,127.773,499.687,113.2,504.991,100.525,497.732Z" transform="translate(-31.259 -276.908)" fill="#00d498"/>
        <path id="Path_1497" data-name="Path 1497" d="M538.042,667.94c-112.9,45.1-237.468,65.715-367.142,60.76l25.831,167.362c149.93,5.726,293.957-18.108,424.5-70.253Q579.626,746.872,538.042,667.94Z" transform="translate(-97.324 -380.376)" fill="#3c8f7c"/>
        <path id="Path_1498" data-name="Path 1498" d="M202.42,784.894q8.473,52.244,16.941,104.488c13.617.431,26.494,10.621,28.845,23.175,124.736.921,244.882-18.943,355.918-58.9-5.877-11.969-.861-25.147,11.086-29.784L564,725.051c-10.978,4.266-24.755-2.226-30.628-14.181-97.509,35.079-203.018,52.524-312.56,51.727C223.163,775.138,214.953,785.269,202.42,784.894Z" transform="translate(-115.273 -404.824)" fill="#00d498"/>
        <path id="Path_1499" data-name="Path 1499" d="M675.407,890.205c-12.571-30.968-46.131-50.259-75.66-45.14-29.53,5.2-46.806,33.361-37.925,64.966s43.582,54.246,76.81,48.447S687.961,921.1,675.407,890.205Z" transform="translate(-318.615 -480.777)" fill="#50bfa5"/>
        <path id="Path_1500" data-name="Path 1500" d="M649.054,866.76q1.778,5.489,3.543,10.978c12.726.288,22.09,7.241,25.349,16.79,3.276,9.644.181,16.506-11.28,23.05-8.128,4.865-11.288,7.638-10.186,11.194.93,3.014,4.189,5.73,11.353,4.654a30.821,30.821,0,0,0,9.226-2.846c3.113-1.546,7.353-.142,9.385,3.108h0c1.963,3.143,1.089,6.862-2.006,8.3A43.12,43.12,0,0,1,674.773,945q1.515,4.736,3.014,9.472-5.489.861-11,1.632-1.58-5.115-3.173-10.238c-12.649-.568-21.759-7.216-24.54-16.713-3.074-10.488,3.315-16.833,13.617-22.387,7.129-3.853,9.7-7,8.374-11.077-1.4-4.305-6.294-6.027-12.343-5.132a33.33,33.33,0,0,0-10.922,3.621c-3.039,1.627-7.319.06-9.248-3.341-.073-.125-.142-.25-.211-.375-1.752-3.087-.956-6.578,1.8-7.995a45.105,45.105,0,0,1,11.913-4.012l-3.195-10.182Q643.969,867.543,649.054,866.76Z" transform="translate(-357.296 -493.599)" fill="#3c8f7c"/>
        <path id="Path_1501" data-name="Path 1501" d="M942.293,877.53q-40.284,14.44-82.183,25.117,3.233,7.879,6.458,15.766,42.454-10.823,83.336-25.465Z" transform="translate(-489.812 -499.733)" fill="#50bfa5"/>
        <path id="Path_1502" data-name="Path 1502" d="M1355.088,780.125l-8.033,28.359c-1.292,4.585-52.955-6.35-115.333-24.419s-111.936-36.435-110.644-41.02l8.034-28.354Z" transform="translate(-638.413 -406.999)" fill="#c6a23c"/>
        <path id="Path_1503" data-name="Path 1503" d="M1450.84,848.021l10.294-36.34,81.761,23.679-8.034,28.359C1533.789,867.506,1498.335,860.7,1450.84,848.021Z" transform="translate(-826.219 -462.233)" fill="#ffcf60"/>
        <path id="Path_1504" data-name="Path 1504" d="M1352.922,819.708c-8.821-2.381-18.03-4.955-27.485-7.693-14.087-4.077-27.519-8.18-39.858-12.119l10.234-36.125,67.424,19.524Z" transform="translate(-732.107 -434.949)" fill="#ffcf60"/>
        <path id="Path_1505" data-name="Path 1505" d="M1187.378,770.5c-39.9-12.916-67.256-24.032-66.3-27.455l8.034-28.354,68.453,19.8Z" transform="translate(-638.413 -406.999)" fill="#ffcf60"/>
        <path id="Path_1506" data-name="Path 1506" d="M1139.967,712.616c-1.292,4.585,48.219,22.947,110.645,41.02s114.033,29,115.333,24.415S1317.726,755.1,1255.3,737.036,1141.259,708.027,1139.967,712.616Z" transform="translate(-649.17 -405.222)" fill="#c6a23c"/>
        <path id="Path_1507" data-name="Path 1507" d="M1186.311,726.585c-.9,3.182,40.039,17.819,91.409,32.72s93.768,24.368,94.668,21.19-40.039-17.819-91.409-32.72S1187.21,723.4,1186.311,726.585Z" transform="translate(-675.567 -413.422)" fill="#ffdc60"/>
        <path id="Path_1508" data-name="Path 1508" d="M1197.7,413.36l8.555,28.2c1.382,4.559-47.788,23.851-109.857,43.091s-113.5,31.144-114.864,26.585L973,483.036Z" transform="translate(-554.1 -235.399)" fill="#c6a23c"/>
        <path id="Path_1509" data-name="Path 1509" d="M1317.021,474.705l-10.961-36.134,81.313-25.211,8.554,28.2C1397.068,445.326,1363.677,459.159,1317.021,474.705Z" transform="translate(-743.77 -235.399)" fill="#ffcf60"/>
        <path id="Path_1510" data-name="Path 1510" d="M1219.562,510.851c-8.679,2.867-17.785,5.782-27.188,8.7-14.009,4.344-27.476,8.313-39.948,11.8l-10.9-35.923,67.05-20.79Z" transform="translate(-650.074 -270.296)" fill="#ffcf60"/>
        <path id="Path_1511" data-name="Path 1511" d="M1051.911,561.977c-40.418,11.151-69.34,16.924-70.373,13.518L973,547.3l68.07-21.1Z" transform="translate(-554.1 -299.658)" fill="#ffcf60"/>
        <path id="Path_1512" data-name="Path 1512" d="M972.712,481.047c1.382,4.559,52.808-7.319,114.864-26.585s111.239-38.532,109.857-43.091-52.808,7.319-114.864,26.585S971.33,476.488,972.712,481.047Z" transform="translate(-553.92 -233.712)" fill="#c6a23c"/>
        <path id="Path_1513" data-name="Path 1513" d="M1018.8,483.564c.96,3.16,43.16-7.121,94.263-22.968s91.749-31.247,90.789-34.412-43.16,7.121-94.284,22.968S1017.838,480.4,1018.8,483.564Z" transform="translate(-580.172 -242.376)" fill="#ffdc60"/>
        <path id="Path_1514" data-name="Path 1514" d="M1154.39,1260.5v33.581c0,5.425-59.877,9.824-133.738,9.824s-133.742-4.4-133.742-9.824V1260.5Z" transform="translate(-505.074 -717.825)" fill="#c6a23c"/>
        <path id="Path_1515" data-name="Path 1515" d="M1283.39,1303.514V1260.5h96.786v33.581C1380.176,1298.55,1339.281,1302.334,1283.39,1303.514Z" transform="translate(-730.86 -717.825)" fill="#ffcf60"/>
        <path id="Path_1516" data-name="Path 1516" d="M1167.366,1303.6c-10.389.189-21.259.293-32.449.293-16.679,0-32.638-.224-47.358-.633V1260.5h79.81Z" transform="translate(-619.34 -717.825)" fill="#ffcf60"/>
        <path id="Path_1517" data-name="Path 1517" d="M967.93,1303.072c-47.646-1.5-81.02-4.981-81.02-9.041V1260.45h81.02Z" transform="translate(-505.074 -717.797)" fill="#ffcf60"/>
        <ellipse id="Ellipse_115" data-name="Ellipse 115" cx="133.738" cy="9.825" rx="133.738" ry="9.825" transform="translate(381.84 532.493)" fill="#c6a23c"/>
        <ellipse id="Ellipse_116" data-name="Ellipse 116" cx="110.132" cy="6.811" rx="110.132" ry="6.811" transform="translate(405.446 535.507)" fill="#ffdc60"/>
        <path id="Path_1518" data-name="Path 1518" d="M1189.8,1170.13v33.581c0,5.425-59.877,9.825-133.738,9.825s-133.742-4.4-133.742-9.825V1170.13Z" transform="translate(-525.239 -666.361)" fill="#c6a23c"/>
        <path id="Path_1519" data-name="Path 1519" d="M1318.8,1213.1V1170.09h96.786v33.581C1415.586,1208.161,1374.691,1211.941,1318.8,1213.1Z" transform="translate(-751.025 -666.339)" fill="#ffcf60"/>
        <path id="Path_1520" data-name="Path 1520" d="M1202.776,1213.234c-10.389.189-21.259.288-32.449.288-16.679,0-32.638-.224-47.358-.633v-42.76h79.81Z" transform="translate(-639.505 -666.362)" fill="#ffcf60"/>
        <path id="Path_1521" data-name="Path 1521" d="M1003.34,1212.7c-47.646-1.5-81.02-4.981-81.02-9.041V1170.08h81.02Z" transform="translate(-525.239 -666.333)" fill="#ffcf60"/>
        <ellipse id="Ellipse_117" data-name="Ellipse 117" cx="133.738" cy="9.825" rx="133.738" ry="9.825" transform="translate(397.085 493.587)" fill="#c6a23c"/>
        <ellipse id="Ellipse_118" data-name="Ellipse 118" cx="110.132" cy="6.811" rx="110.132" ry="6.811" transform="translate(420.691 496.6)" fill="#ffdc60"/>
        <path id="Path_1522" data-name="Path 1522" d="M1154.39,1076.22V1109.8c0,5.425-59.877,9.825-133.738,9.825s-133.742-4.4-133.742-9.825V1076.22Z" transform="translate(-505.074 -612.882)" fill="#c6a23c"/>
        <path id="Path_1523" data-name="Path 1523" d="M1283.39,1119.234V1076.22h96.786V1109.8C1380.176,1114.27,1339.281,1118.054,1283.39,1119.234Z" transform="translate(-730.86 -612.882)" fill="#ffcf60"/>
        <path id="Path_1524" data-name="Path 1524" d="M1167.366,1119.32c-10.389.189-21.259.293-32.449.293-16.679,0-32.638-.224-47.358-.633v-42.76h79.81Z" transform="translate(-619.34 -612.882)" fill="#ffcf60"/>
        <path id="Path_1525" data-name="Path 1525" d="M967.93,1118.792c-47.646-1.5-81.02-4.981-81.02-9.041V1076.17h81.02Z" transform="translate(-505.074 -612.853)" fill="#ffcf60"/>
        <ellipse id="Ellipse_119" data-name="Ellipse 119" cx="133.738" cy="9.825" rx="133.738" ry="9.825" transform="translate(381.84 453.156)" fill="#c6a23c"/>
        <ellipse id="Ellipse_120" data-name="Ellipse 120" cx="110.132" cy="6.811" rx="110.132" ry="6.811" transform="translate(405.446 456.17)" fill="#ffdc60"/>
        <path id="Path_1526" data-name="Path 1526" d="M1189.8,984.52V1018.1c0,5.425-59.877,9.825-133.738,9.825s-133.742-4.4-133.742-9.825V984.52Z" transform="translate(-525.239 -560.661)" fill="#c6a23c"/>
        <path id="Path_1527" data-name="Path 1527" d="M1318.8,1027.534V984.52h96.786V1018.1C1415.586,1022.57,1374.691,1026.354,1318.8,1027.534Z" transform="translate(-751.025 -560.661)" fill="#ffcf60"/>
        <path id="Path_1528" data-name="Path 1528" d="M1202.776,1027.62c-10.389.189-21.259.293-32.449.293-16.679,0-32.638-.224-47.358-.633V984.52h79.81Z" transform="translate(-639.505 -560.661)" fill="#ffcf60"/>
        <path id="Path_1529" data-name="Path 1529" d="M1003.34,1027.092c-47.646-1.5-81.02-4.981-81.02-9.041V984.47h81.02Z" transform="translate(-525.239 -560.632)" fill="#ffcf60"/>
        <ellipse id="Ellipse_121" data-name="Ellipse 121" cx="133.738" cy="9.825" rx="133.738" ry="9.825" transform="translate(397.085 413.677)" fill="#c6a23c"/>
        <ellipse id="Ellipse_122" data-name="Ellipse 122" cx="110.132" cy="6.811" rx="110.132" ry="6.811" transform="translate(420.691 416.691)" fill="#ffdc60"/>
        <path id="Path_1530" data-name="Path 1530" d="M585.672,116.417a88.387,88.387,0,0,1-10.216-4.12c-3.737-1.821-8.585-3.948-11.624-4.421-6.458-1-17.518-.336-23.631,6.346-7.616,8.326-21.147,1.5-18.422,45.106,3.087,49.355,30.322,43.935,31,43.1s24.29-31.575,24.29-31.575,8.262,18.211,8.262,17.544S627.476,130.6,585.672,116.417Z" transform="translate(-296.937 -61.219)" fill="#f50"/>
        <path id="Path_1531" data-name="Path 1531" d="M310.44,1299v40.865c0,6.609,72.9,11.964,162.828,11.964s162.824-5.356,162.824-11.964V1299Z" transform="translate(-176.788 -739.75)" fill="#c6a23c"/>
        <path id="Path_1532" data-name="Path 1532" d="M428.274,1351.356V1299H310.44v40.865C310.44,1345.316,360.23,1349.922,428.274,1351.356Z" transform="translate(-176.788 -739.75)" fill="#ffcf60"/>
        <path id="Path_1533" data-name="Path 1533" d="M596.88,1351.464c12.649.232,25.883.357,39.509.357,20.3,0,39.733-.276,57.66-.775V1299H596.88Z" transform="translate(-339.909 -739.75)" fill="#ffcf60"/>
        <path id="Path_1534" data-name="Path 1534" d="M837.73,1350.852c58.013-1.83,98.642-6.062,98.642-11V1299H837.73Z" transform="translate(-477.067 -739.75)" fill="#ffcf60"/>
        <ellipse id="Ellipse_123" data-name="Ellipse 123" cx="162.824" cy="11.964" rx="162.824" ry="11.964" transform="translate(133.656 546.842)" fill="#c6a23c"/>
        <path id="Path_1535" data-name="Path 1535" d="M645.369,1287.026c0,4.581-60.032,8.292-134.082,8.292s-134.087-3.724-134.087-8.292,60.032-8.3,134.087-8.3S645.369,1282.432,645.369,1287.026Z" transform="translate(-214.806 -728.207)" fill="#ffdc60"/>
        <path id="Path_1536" data-name="Path 1536" d="M266.22,1194.79v40.865c0,6.609,72.9,11.964,162.824,11.964s162.828-5.356,162.828-11.964V1194.79Z" transform="translate(-151.606 -680.405)" fill="#c6a23c"/>
        <path id="Path_1537" data-name="Path 1537" d="M384.054,1247.159V1194.79H266.22v40.865C266.22,1241.119,316.01,1245.721,384.054,1247.159Z" transform="translate(-151.606 -680.405)" fill="#ffcf60"/>
        <path id="Path_1538" data-name="Path 1538" d="M552.66,1247.266c12.649.233,25.883.353,39.5.353,20.3,0,39.737-.271,57.66-.771V1194.79H552.66Z" transform="translate(-314.727 -680.405)" fill="#ffcf60"/>
        <path id="Path_1539" data-name="Path 1539" d="M793.51,1246.655c58.013-1.83,98.642-6.066,98.642-11V1194.79H793.51Z" transform="translate(-451.885 -680.405)" fill="#ffcf60"/>
        <ellipse id="Ellipse_124" data-name="Ellipse 124" cx="162.824" cy="11.964" rx="162.824" ry="11.964" transform="translate(114.614 501.986)" fill="#c6a23c"/>
        <path id="Path_1540" data-name="Path 1540" d="M601.16,1182.812c0,4.581-60.032,8.3-134.087,8.3S333,1187.393,333,1182.812s60.032-8.292,134.082-8.292S601.16,1178.231,601.16,1182.812Z" transform="translate(-189.636 -668.861)" fill="#ffdc60"/>
        <path id="Path_1541" data-name="Path 1541" d="M217,1091.18v40.865c0,6.609,72.9,11.964,162.828,11.964s162.824-5.356,162.824-11.964V1091.18Z" transform="translate(-123.576 -621.401)" fill="#c6a23c"/>
        <path id="Path_1542" data-name="Path 1542" d="M334.852,1143.549V1091.18H217v40.865C217,1137.509,266.807,1142.111,334.852,1143.549Z" transform="translate(-123.576 -621.401)" fill="#ffcf60"/>
        <path id="Path_1543" data-name="Path 1543" d="M503.48,1143.656c12.649.233,25.883.353,39.509.353,20.3,0,39.733-.271,57.66-.771V1091.18H503.48Z" transform="translate(-286.72 -621.401)" fill="#ffcf60"/>
        <path id="Path_1544" data-name="Path 1544" d="M744.33,1143.045c58.013-1.83,98.641-6.066,98.641-11V1091.18H744.33Z" transform="translate(-423.878 -621.401)" fill="#ffcf60"/>
        <ellipse id="Ellipse_125" data-name="Ellipse 125" cx="162.824" cy="11.964" rx="162.824" ry="11.964" transform="translate(93.445 457.38)" fill="#c6a23c"/>
        <path id="Path_1545" data-name="Path 1545" d="M551.969,1079.2c0,4.581-60.032,8.3-134.082,8.3s-134.087-3.715-134.087-8.3,60.032-8.292,134.087-8.292S551.969,1074.621,551.969,1079.2Z" transform="translate(-161.617 -609.858)" fill="#ffdc60"/>
        <path id="Path_1546" data-name="Path 1546" d="M260,986v40.87c0,6.6,72.9,11.96,162.824,11.96s162.828-5.356,162.828-11.96V986Z" transform="translate(-148.064 -561.504)" fill="#c6a23c"/>
        <path id="Path_1547" data-name="Path 1547" d="M377.817,1038.373V986H260v40.87C260,1032.333,309.773,1036.939,377.817,1038.373Z" transform="translate(-148.064 -561.504)" fill="#ffcf60"/>
        <path id="Path_1548" data-name="Path 1548" d="M546.4,1038.481c12.649.233,25.883.353,39.5.353,20.3,0,39.737-.271,57.66-.771V986H546.4Z" transform="translate(-311.162 -561.504)" fill="#ffcf60"/>
        <path id="Path_1549" data-name="Path 1549" d="M787.25,1037.869c58.013-1.83,98.642-6.066,98.642-11V986H787.25Z" transform="translate(-448.32 -561.504)" fill="#ffcf60"/>
        <ellipse id="Ellipse_126" data-name="Ellipse 126" cx="162.824" cy="11.964" rx="162.824" ry="11.964" transform="translate(111.919 412.102)" fill="#c6a23c"/>
        <path id="Path_1550" data-name="Path 1550" d="M594.889,974.032c0,4.581-60.032,8.3-134.087,8.3s-134.082-3.715-134.082-8.3,60.032-8.292,134.082-8.292S594.889,969.451,594.889,974.032Z" transform="translate(-186.059 -549.966)" fill="#ffdc60"/>
        <path id="Path_1551" data-name="Path 1551" d="M926.54,1315.678s3.875,20.764,3.875,20.807c.215,2.708.138,9.549.715,11.908,2.153,8.882,39.113-12.7,29.422-14.436-.861-.155-7.233-6.66-8.692-9.411-2.531-4.792-4.861-13.717-4.861-13.717Z" transform="translate(-527.643 -746.487)" fill="#f7a491"/>
        <path id="Path_1552" data-name="Path 1552" d="M959.418,1357.581a143.039,143.039,0,0,1-14.388,2.88c-4.852.491-11.082-7.134-14.56-5.692-3.832,1.589-5.92,25.767-5.92,25.767s60.932,2.807,75.342-1.214C1005.583,1377.729,978.378,1364.925,959.418,1357.581Z" transform="translate(-526.509 -771.406)" fill="#0b0754"/>
        <path id="Path_1553" data-name="Path 1553" d="M1123.88,1313.478s3.875,20.764,3.875,20.812c.215,2.7.134,9.545.715,11.908,2.153,8.877,38.429-11.284,28.738-13.019-.861-.155-6.553-8.081-8.008-10.832-2.531-4.792-4.861-13.716-4.861-13.716Z" transform="translate(-640.023 -745.234)" fill="#f7a491"/>
        <path id="Path_1554" data-name="Path 1554" d="M1154.578,1357.581a143.036,143.036,0,0,1-14.388,2.88c-4.852.491-11.082-7.134-14.56-5.692-3.832,1.589-5.92,25.767-5.92,25.767s60.932,2.807,75.342-1.214C1200.747,1377.729,1173.538,1364.925,1154.578,1357.581Z" transform="translate(-637.648 -771.406)" fill="#0b0754"/>
        <path id="Path_1555" data-name="Path 1555" d="M630.59,795.727l110.843-25.995s49.708-13.286,61.707,2.312S866.091,1002.9,866.091,1002.9s-26.262,2.312-27.984,1.154l-61.522-110.4a96.866,96.866,0,0,1-11.349-33.955l-4.366-31.613-45.149,13.286s-51.994,11.551-73.133-1.722S630.59,795.727,630.59,795.727Z" transform="translate(-357.987 -435.34)" fill="#4951ec"/>
        <path id="Path_1556" data-name="Path 1556" d="M709.89,388.32c1.748.073,6.548,1.692,13.561,15.068,8.959,17.062,22.056,68.6,22.056,68.6L706.42,486.634l-5.02-10.763-8.27-82.807S709.4,388.3,709.89,388.32Z" transform="translate(-394.721 -221.139)" fill="#e03167"/>
        <path id="Path_1557" data-name="Path 1557" d="M520.336,371.069c11.194,0,38.829,3.3,51.663,7.431,0,0,9.428,81.657-8.49,143.709-4.017,13.889,3.3,57.583,3.3,57.583L451,578.25s13.734-105.607,8.567-122.682-5.291-76.517-5.291-76.517.792-.125,26.021-4.521A258.448,258.448,0,0,1,520.336,371.069Z" transform="translate(-256.834 -211.315)" fill="#fd5b7d"/>
        <path id="Path_1558" data-name="Path 1558" d="M431.792,410.526c10.828-4.094,16.123,94.216,17.583,134.681,19.18,1.86,52.6,0,60.923-.616,3.914-.3,12.942-3.629,16.834-4.142,3.987-.525,7.6-.8,9.566-.456.719.125,20.708,8.361,22.417,10.169,2.118,2.239,7.853,7.891,6.888,10.333s-11.026-6.807-11.026-6.807l-4.917-2.777c6.122,6.027,17.794,13.953,16.11,16.842-1.64,2.816-12.167-5.235-19.671-10.72,6.436,5.859,14.431,16.36,12.588,17.974-1.653,1.468-10.763-10.668-20.467-14.16-3.6-1.292-7.194,2.29-10.027,2.721-2.084.319-5.3,1-7.319.43l-9.764-.951a50.592,50.592,0,0,0-8.055,1.184c-4.2.9-11.1,1.851-16.45,3.169-30.821,7.59-41.1,11.112-50.539,11.107C407.855,578.473,406.2,420.2,431.792,410.526Z" transform="translate(-235.611 -233.714)" fill="#f7a491"/>
        <path id="Path_1559" data-name="Path 1559" d="M406.905,490.67c-2.028-41.451-1.722-92.537,21.328-101.251,9.1-3.444,25.138,17.221,22.254,102.09C438.179,492.534,420.105,493.361,406.905,490.67Z" transform="translate(-231.278 -221.563)" fill="#e03167"/>
        <path id="Path_1560" data-name="Path 1560" d="M731.155,566.209l-109.116,7.22a7.147,7.147,0,0,0-6.294,4.9L587.5,663.4l-60.157,3.974a3.065,3.065,0,0,0-2.846,3.276h0a3.061,3.061,0,0,0,3.242,2.876L698.952,662.2a11.994,11.994,0,0,0,10.453-7.836l28.91-78.424A7.219,7.219,0,0,0,731.155,566.209Z" transform="translate(-298.686 -322.433)" fill="#dde8fe"/>
        <path id="Path_1561" data-name="Path 1561" d="M449.868,815.451l120.792-21.1s52.223-8.047,64.221,7.551,46.85,217.78,46.85,217.78-26.262,2.312-27.984,1.154c-1.326-.9-33.15-68.3-47.439-98.667a116.453,116.453,0,0,1-9.472-30.386l-4.594-27.519-15.2,5.291a183.6,183.6,0,0,1-83.207,9c-11.736-1.472-22.693-4.008-29.487-8.279C443.19,857.009,449.868,815.451,449.868,815.451Z" transform="translate(-255.62 -451.185)" fill="#619aff"/>
        <path id="Path_1562" data-name="Path 1562" d="M585.631,299.752l2.355,17.651s5.265,25.4-1.511,30.3S557.66,316.68,557.66,316.68L559.989,272Z" transform="translate(-317.574 -154.898)" fill="#f7a491"/>
        <path id="Path_1563" data-name="Path 1563" d="M561.32,286.457c5.6,15.241,18.943,24.613,28.389,28.247l-1.993-14.952L562.073,272Z" transform="translate(-319.658 -154.898)" fill="#fa7167"/>
        <path id="Path_1564" data-name="Path 1564" d="M580.261,158.6c14.358-2.338,27.235,9.3,26.878,23.782A179.462,179.462,0,0,1,605.172,205c-3.126,20.359-16.9,38.282-26.021,36.694s-32.044-19.163-28.006-48.133C553.638,175.669,565.193,161.053,580.261,158.6Z" transform="translate(-313.595 -90.15)" fill="#f7a491"/>
        <path id="Path_1565" data-name="Path 1565" d="M548.91,235.857c-.766,4.477-4.327,7.59-7.947,6.953s-5.933-4.779-5.166-9.256,4.305-7.59,7.947-6.953S549.68,231.379,548.91,235.857Z" transform="translate(-305.039 -128.997)" fill="#f7a491"/>
        <path id="Path_1566" data-name="Path 1566" d="M549.859,178.823s11.021,2.76,15.111-4.383,18.7-22.551,37.3-16.158-16.36-15.538-17.845-15.538-19.33-.125-19.33-.125-13.777,11.4-14.255,12.653-4.46,14.913-4.46,14.913Z" transform="translate(-311.15 -81.219)" fill="#f50"/>
        <path id="Path_1567" data-name="Path 1567" d="M959.78,122.052l1.942,23.916,13.742-15.641,44.439-36.8-37.886,12.055s-18.659,9.162-19.516,10.371A50.038,50.038,0,0,0,959.78,122.052Z" transform="translate(-546.572 -53.263)" fill="#3c8f7c"/>
        <path id="Path_1568" data-name="Path 1568" d="M913,111.77l80.263-18.25L933.14,122.046Z" transform="translate(-519.932 -53.257)" fill="#00d498"/>
        <path id="Path_1569" data-name="Path 1569" d="M998.748,139.754,974.01,127.277l54-33.757Z" transform="translate(-554.676 -53.257)" fill="#00d498"/>
        <path id="Path_1570" data-name="Path 1570" d="M937.191,186.064a29.385,29.385,0,0,1,6.458-1.722l-.181-1.722a30.417,30.417,0,0,0-6.888,1.817Z" transform="translate(-533.36 -103.998)" fill="#00d498"/>
        <path id="Path_1571" data-name="Path 1571" d="M846,339.216a70.489,70.489,0,0,0,8.7-9.622l1.382,1.055a72.363,72.363,0,0,1-8.912,9.859Zm15.387-20.751c.861-1.8,1.627-3.672,2.316-5.571.784-2.153,1.477-4.4,2.058-6.682l1.675.431a70.734,70.734,0,0,1-2.11,6.85c-.706,1.95-1.507,3.875-2.381,5.722Zm7-38.23,1.722-.039a115.361,115.361,0,0,1-.431,13.307l-1.722-.164A111.924,111.924,0,0,0,868.387,280.235Zm-2.458-26.206,1.722-.25c.723,5.115,1.24,9.3,1.627,13.157l-1.722.177c-.409-3.853-.921-8.012-1.64-13.1Zm-1.937-13.165a65.3,65.3,0,0,1-.654-13.273l1.722.108a63.194,63.194,0,0,0,.637,12.916v.1l-1.722.237Zm2.153-26.408a31.8,31.8,0,0,1,7.5-11.155l1.188,1.292a30,30,0,0,0-7.091,10.539Z" transform="translate(-481.777 -115.775)" fill="#00d498"/>
      </g>
    </g>
  </g>
</svg>
