<svg xmlns="http://www.w3.org/2000/svg" width="766" height="766" viewBox="0 0 766 766">
  <g id="Group_2252" data-name="Group 2252" transform="translate(16274 13120)">
    <rect id="Rectangle_408" data-name="Rectangle 408" width="766" height="766" transform="translate(-16274 -13120)" fill="#fff" opacity="0"/>
    <g id="Layer_2" data-name="Layer 2" transform="translate(-16245 -13074)">
      <g id="Layer_1" data-name="Layer 1" transform="translate(0 0)">
        <path id="Shadow" d="M70.705,1038.292,2.89,999.133c-3.824-2.208-3.824-5.8,0-8L397.4,763.364a15.264,15.264,0,0,1,13.831,0l67.815,39.159c3.824,2.208,3.824,5.8,0,8L84.554,1038.292A15.3,15.3,0,0,1,70.705,1038.292Z" transform="translate(-0.022 -421.867)" fill="#e1e1e1"/>
        <path id="Shadow-2" data-name="Shadow" d="M609.7,1155.586,446.81,1061.537,650.381,944.23l162.7,93.937Z" transform="translate(-247.474 -522.957)" fill="#e1e1e1"/>
        <ellipse id="Shadow-3" data-name="Shadow" cx="77.01" cy="44.464" rx="77.01" ry="44.464" transform="translate(510.121 585.64)" fill="#e1e1e1"/>
        <path id="Shadow-4" data-name="Shadow" d="M1502.3,1287.814c8.347,4.818,8.347,12.635,0,17.453s-21.861,4.818-30.231,0-8.348-12.635,0-17.453S1493.951,1283,1502.3,1287.814Z" transform="translate(-811.838 -711.249)" fill="#e1e1e1"/>
        <g id="_Group_" data-name="&lt;Group&gt;" transform="translate(213.697 376.189)">
          <path id="_Path_" data-name="&lt;Path&gt;" d="M579.786,1013.624l58.308-33.711c6.01-3.471,9.017-8.031,9.017-12.564s.027-8.111.027-8.111l-60.5-34.113a12.823,12.823,0,0,1-5.8-10.056V843.18L479,902.032v71.889a12.834,12.834,0,0,0,5.8,10.052l51.464,29.656C548.274,1020.566,567.784,1020.566,579.786,1013.624Z" transform="translate(-479 -843.18)" fill="#cad5e5"/>
        </g>
        <path id="_Path_2" data-name="&lt;Path&gt;" d="M503.407,1045.811v8.075L484.74,1043.13a12.852,12.852,0,0,1-5.8-10.052V961.194L498.348,950c.4,4.908.839,10.021,1.24,14.977l-13.608,7.875v56.166a12.75,12.75,0,0,0,5.8,10.052Z" transform="translate(-265.27 -526.153)" opacity="0.3"/>
        <path id="_Path_3" data-name="&lt;Path&gt;" d="M494.72,984.363a12.834,12.834,0,0,0,5.8,10.052l44.432,25.573c12.019,6.942,31.512,6.942,43.536,0l58.334-33.707c12.046-6.938,12.046-18.19,0-25.132l-44.455-25.587a12.834,12.834,0,0,1-5.8-10.052V869.34L494.724,928.188Z" transform="translate(-274.009 -481.479)" fill="#00dfbf"/>
        <path id="_Path_4" data-name="&lt;Path&gt;" d="M494.72,984.363a12.834,12.834,0,0,0,5.8,10.052l44.432,25.573c12.019,6.942,31.512,6.942,43.536,0l58.334-33.707c12.046-6.938,12.046-18.19,0-25.132l-44.455-25.587a12.834,12.834,0,0,1-5.8-10.052V869.34L494.724,928.188Z" transform="translate(-274.009 -481.479)" fill="#dde8fe"/>
        <path id="_Path_5" data-name="&lt;Path&gt;" d="M614.2,942.4h0l-11.823-6.826a12.834,12.834,0,0,1-5.8-10.052V869.34L494.73,928.188v56.175a12.834,12.834,0,0,0,5.8,10.052l11.6,6.692Z" transform="translate(-274.015 -481.479)" opacity="0.5"/>
        <path id="_Path_6" data-name="&lt;Path&gt;" d="M746.451,1103.32v8.111c0,4.555-3.016,9.079-9.017,12.564l-58.317,33.7c-5.764,3.351-13.237,5.024-20.777,5.158v-8.075c7.54-.1,15.013-1.843,20.777-5.162l58.317-33.725C743.435,1112.435,746.451,1107.875,746.451,1103.32Z" transform="translate(-364.63 -611.068)" fill="#cad5e5"/>
        <path id="_Path_7" data-name="&lt;Path&gt;" d="M119.754,572.7c3.757,2.168,10.052,2.052,14.058-.259L527.676,345.048a16.02,16.02,0,0,0,7.254-12.568V13.86c0-4.627-3.047-10.137-6.808-12.309S518.079-.5,514.064,1.813L120.209,229.2a16.01,16.01,0,0,0-7.259,12.564V560.392C112.946,565.019,115.993,570.529,119.754,572.7Z" transform="translate(-62.567 0.004)" fill="#cad5e5"/>
        <path id="_Path_8" data-name="&lt;Path&gt;" d="M150.72,583.18,544.579,355.789a16.02,16.02,0,0,0,7.254-12.568V24.618c0-4.627-3.248-6.5-7.254-4.189L150.724,247.82a16.02,16.02,0,0,0-7.254,12.568v318.62C143.466,583.626,146.714,585.508,150.72,583.18Z" transform="translate(-79.47 -10.763)" fill="#dde8fe"/>
        <path id="_Path_9" data-name="&lt;Path&gt;" d="M132.745,1249.959c-4.015,1.785-9.583,1.709-13.005-.268-3.752-2.177-6.8-7.674-6.8-12.332v-29l13.6,7.87v29C126.543,1249.455,129.225,1251.369,132.745,1249.959Z" transform="translate(-62.562 -669.245)" fill="#dde8fe"/>
        <path id="_Path_10" data-name="&lt;Path&gt;" d="M132.745,1249.959c-4.015,1.785-9.583,1.709-13.005-.268-3.752-2.177-6.8-7.674-6.8-12.332v-29l13.6,7.87v29C126.543,1249.455,129.225,1251.369,132.745,1249.959Z" transform="translate(-62.562 -669.245)" opacity="0.5"/>
        <path id="_Path_11" data-name="&lt;Path&gt;" d="M143.43,933.237v29c0,4.627,3.248,6.5,7.254,4.189l393.873-227.4a16.005,16.005,0,0,0,7.254-12.564V697.4Z" transform="translate(-79.448 -386.251)" fill="#dde8fe"/>
        <path id="_Path_12" data-name="&lt;Path&gt;" d="M143.46,933.17v29.067c0,4.627,3.248,6.5,7.254,4.189l393.859-227.4a16,16,0,0,0,7.254-12.564V697.4Z" transform="translate(-79.465 -386.251)" opacity="0.3"/>
        <path id="_Path_13" data-name="&lt;Path&gt;" d="M174,549.035V292.6a9.63,9.63,0,0,1,4.35-7.54L550.772,70.032c2.4-1.388,4.35-.263,4.35,2.516V328.993a9.623,9.623,0,0,1-4.354,7.54l-372.431,215C175.932,552.939,174,551.815,174,549.035Z" transform="translate(-96.379 -38.456)" fill="#00dfbf"/>
        <path id="_Path_14" data-name="&lt;Path&gt;" d="M174,549.035V292.6a9.63,9.63,0,0,1,4.35-7.54L550.772,70.032c2.4-1.388,4.35-.263,4.35,2.516V328.993a9.623,9.623,0,0,1-4.354,7.54l-372.431,215C175.932,552.939,174,551.815,174,549.035Z" transform="translate(-96.379 -38.456)" fill="#619aff"/>
        <path id="_Path_15" data-name="&lt;Path&gt;" d="M237.916,362.427a7.748,7.748,0,0,1-3.386-6.13V328.091a7.949,7.949,0,0,1,3.618-6.246L608.861,107.789a6.782,6.782,0,0,1,10.386,6V142a7.945,7.945,0,0,1-3.609,6.246L244.921,362.3A7.758,7.758,0,0,1,237.916,362.427Z" transform="translate(-129.904 -59.197)" fill="#00dfbf"/>
        <path id="_Path_16" data-name="&lt;Path&gt;" d="M620.525,113.184c-.25-1.869-1.785-2.552-3.569-1.5L246.229,325.74a7.732,7.732,0,0,0-2.552,2.7l-6.777-3.922a7.5,7.5,0,0,1,2.556-2.677L610.174,107.794a6.75,6.75,0,0,1,10.351,5.39Z" transform="translate(-131.216 -59.197)" fill="#fff" opacity="0.4"/>
        <path id="_Path_17" data-name="&lt;Path&gt;" d="M244.932,919.641a6.245,6.245,0,0,1-2.842.861,7.139,7.139,0,0,1-4.154-.727,7.706,7.706,0,0,1-3.386-6.126V698.63l6.79,3.922v215c0,1.637.825,2.583,2.008,2.583a3.571,3.571,0,0,0,1.584-.5Z" transform="translate(-129.915 -386.932)" fill="#f0f0f0"/>
        <path id="_Path_18" data-name="&lt;Path&gt;" d="M242.353,598.612a7.349,7.349,0,0,0-1.053,3.569v42.8l-6.79-3.922V597.813a6.087,6.087,0,0,1,.138-.892,8.318,8.318,0,0,1,.892-2.231Z" transform="translate(-129.893 -329.365)" opacity="0.1"/>
        <path id="_Path_19" data-name="&lt;Path&gt;" d="M627.662,119.123v19.309L361.8,291.954c-1.985,1.151-3.6.219-3.6-2.084v-7.312c0-2.3-1.62-3.235-3.618-2.084L266.907,331.09a7.976,7.976,0,0,0-3.623,6.246v7.308a7.957,7.957,0,0,1-3.6,6.246l-9.949,5.742V337.35a7.964,7.964,0,0,1,3.6-6.246L624.057,117.048C626.042,115.884,627.662,116.821,627.662,119.123Z" transform="translate(-138.322 -64.547)" fill="#00dfbf"/>
        <g id="_Group_2" data-name="&lt;Group&gt;" transform="translate(111.408 73.885)">
          <g id="_Group_3" data-name="&lt;Group&gt;">
            <path id="Path_1724" data-name="Path 1724" d="M252,625.169c-1.1,0-1.785-.892-1.785-2.36V384.429l9.815-5.675c1-.58,2.061-4.172,3.7-10.012,1.222-4.354,2.6-9.284,3.529-9.815l86.228-49.764a.291.291,0,0,1,.161-.045c.892,0,2.485,2.811,3.895,5.291,1.941,3.418,3.194,5.492,4.256,5.492a.755.755,0,0,0,.379-.1L627.714,166.47V404.582a7.746,7.746,0,0,1-3.5,6.068L253.5,624.7A3.061,3.061,0,0,1,252,625.169Z" transform="translate(-250.001 -166.082)" fill="#fafafa"/>
            <path id="Path_1725" data-name="Path 1725" d="M627.22,166.372V404.1a7.486,7.486,0,0,1-3.386,5.876L253.116,624.031a2.878,2.878,0,0,1-1.383.446c-.973,0-1.557-.8-1.557-2.137V384.094l9.726-5.613c1.093-.634,2.155-4.27,3.8-10.146,1.089-3.882,2.579-9.2,3.426-9.682l86.2-49.782a.08.08,0,0,1,.049,0c.758,0,2.53,3.123,3.7,5.18,1.976,3.471,3.248,5.6,4.462,5.6a.955.955,0,0,0,.491-.134l265.2-153.137m.446-.772L361.8,319.121a.531.531,0,0,1-.268.076c-2.021,0-6.121-10.784-8.151-10.784a.531.531,0,0,0-.272.076l-86.2,49.768c-2,1.151-5.242,18.676-7.228,19.827l-9.949,5.742v238.5c0,1.637.816,2.583,2,2.583a3.271,3.271,0,0,0,1.606-.5L624.057,410.364a7.976,7.976,0,0,0,3.609-6.246V165.6Z" transform="translate(-249.73 -165.6)" fill="#e1e1e1"/>
          </g>
        </g>
        <g id="_Group_4" data-name="&lt;Group&gt;" transform="translate(172.415 367.535)">
          <path id="_Path_20" data-name="&lt;Path&gt;" d="M388.879,852.639l49.407-28.527c1.338-.767,2.409-.147,2.409,1.392v83.19a5.327,5.327,0,0,1-2.409,4.172l-49.407,28.522c-1.338.768-2.409.147-2.409-1.387V856.81a5.318,5.318,0,0,1,2.409-4.172Z" transform="translate(-386.47 -823.783)" fill="#f0f0f0"/>
          <g id="_Group_5" data-name="&lt;Group&gt;" transform="translate(9.035 15.632)">
            <path id="_Path_21" data-name="&lt;Path&gt;" d="M409.139,877.26l31.329-18.091c1.338-.767,2.409-.223,2.409,1.218a5.158,5.158,0,0,1-2.409,4.015l-31.333,18.092c-1.338.767-2.409.219-2.4-1.222A5.149,5.149,0,0,1,409.139,877.26Z" transform="translate(-406.725 -858.82)" fill="#e1e1e1"/>
            <g id="_Group_6" data-name="&lt;Group&gt;" transform="translate(0 10.423)">
              <path id="_Path_22" data-name="&lt;Path&gt;" d="M406.72,925.88v1.878c0,.924.647,1.3,1.446.834l1.633-.941a3.186,3.186,0,0,0,1.441-2.5V923.27c0-.924-.647-1.294-1.446-.834l-1.611.941A3.19,3.19,0,0,0,406.72,925.88Z" transform="translate(-406.72 -904.367)" fill="#00dfbf"/>
              <path id="_Path_23" data-name="&lt;Path&gt;" d="M427,899.416c0,1.441,1.08,1.985,2.409,1.218l22.308-12.872a5.17,5.17,0,0,0,2.409-4.015c0-1.437-1.08-1.985-2.409-1.218L429.409,895.4A5.2,5.2,0,0,0,427,899.416Z" transform="translate(-417.952 -882.182)" fill="#e1e1e1"/>
              <path id="_Path_24" data-name="&lt;Path&gt;" d="M406.72,949.313v1.869c0,.919.647,1.294,1.446.834l1.633-.941a3.19,3.19,0,0,0,1.441-2.5V946.72c0-.919-.647-1.294-1.446-.834l-1.611.924a3.194,3.194,0,0,0-1.463,2.5Z" transform="translate(-406.72 -917.356)" fill="#00dfbf"/>
              <path id="_Path_25" data-name="&lt;Path&gt;" d="M427,922.825c0,1.441,1.08,1.99,2.409,1.218l22.308-12.872a5.162,5.162,0,0,0,2.409-4.015c0-1.441-1.08-1.985-2.409-1.218L429.409,918.81A5.162,5.162,0,0,0,427,922.825Z" transform="translate(-417.952 -895.147)" fill="#e1e1e1"/>
              <path id="_Path_26" data-name="&lt;Path&gt;" d="M406.72,972.663v1.883c0,.924.647,1.294,1.446.834l1.633-.941a3.186,3.186,0,0,0,1.441-2.5v-1.878c0-.924-.647-1.3-1.446-.834l-1.628.937a3.2,3.2,0,0,0-1.446,2.5Z" transform="translate(-406.72 -930.279)" fill="#00dfbf"/>
              <path id="_Path_27" data-name="&lt;Path&gt;" d="M427,946.2c0,1.441,1.08,1.985,2.409,1.218l22.308-12.872a5.156,5.156,0,0,0,2.409-4.015c0-1.455-1.08-1.985-2.409-1.218l-22.308,12.872A5.171,5.171,0,0,0,427,946.2Z" transform="translate(-417.952 -908.092)" fill="#e1e1e1"/>
              <path id="_Path_28" data-name="&lt;Path&gt;" d="M406.72,996.03v1.878c0,.923.647,1.3,1.446.834l1.633-.937a3.2,3.2,0,0,0,1.441-2.5V993.42c0-.924-.647-1.294-1.446-.834l-1.611.941A3.19,3.19,0,0,0,406.72,996.03Z" transform="translate(-406.72 -943.219)" fill="#00dfbf"/>
              <path id="_Path_29" data-name="&lt;Path&gt;" d="M427,969.6c0,1.441,1.08,1.985,2.409,1.218l22.308-12.871a5.162,5.162,0,0,0,2.409-4.016c0-1.441-1.08-1.99-2.409-1.218l-22.308,12.871A5.162,5.162,0,0,0,427,969.6Z" transform="translate(-417.952 -921.053)" fill="#e1e1e1"/>
            </g>
          </g>
          <g id="_Group_7" data-name="&lt;Group&gt;" transform="translate(8.843 73.119)">
            <path id="_Path_30" data-name="&lt;Path&gt;" d="M408.709,1006.11l31.333-18.091c1.338-.767,2.4-.223,2.4,1.218a5.166,5.166,0,0,1-2.4,4.015L408.7,1011.339c-1.338.772-2.4.223-2.4-1.218a5.149,5.149,0,0,1,2.409-4.011Z" transform="translate(-406.296 -987.67)" fill="#e1e1e1"/>
            <g id="_Group_8" data-name="&lt;Group&gt;" transform="translate(0 10.435)">
              <path id="_Path_31" data-name="&lt;Path&gt;" d="M406.29,1054.76v1.878c0,.924.651,1.294,1.446.834l1.633-.942a3.189,3.189,0,0,0,1.445-2.5v-1.878c0-.924-.651-1.294-1.445-.834l-1.633.942A3.2,3.2,0,0,0,406.29,1054.76Z" transform="translate(-406.29 -1033.246)" fill="#00dfbf"/>
              <path id="_Path_32" data-name="&lt;Path&gt;" d="M426.55,1028.295c0,1.441,1.08,1.985,2.409,1.218l22.308-12.871a5.171,5.171,0,0,0,2.409-4.015c0-1.441-1.08-1.985-2.409-1.218l-22.308,12.871a5.171,5.171,0,0,0-2.409,4.016Z" transform="translate(-417.511 -1011.06)" fill="#e1e1e1"/>
            </g>
          </g>
        </g>
        <g id="_Group_9" data-name="&lt;Group&gt;" transform="translate(433.234 66.063)">
          <path id="_Path_33" data-name="&lt;Path&gt;" d="M1053.206,148.69c2.512-1.45,4.546-.272,4.546,2.628a10.046,10.046,0,0,1-4.546,7.875c-2.512,1.45-4.546.272-4.546-2.628A10.046,10.046,0,0,1,1053.206,148.69Z" transform="translate(-1014.041 -148.069)" fill="#fff"/>
          <path id="_Path_34" data-name="&lt;Path&gt;" d="M1016.516,169.848c2.512-1.45,4.546-.277,4.546,2.623a10.046,10.046,0,0,1-4.546,7.875c-2.512,1.45-4.546.277-4.546-2.623A10.046,10.046,0,0,1,1016.516,169.848Z" transform="translate(-993.721 -159.787)" fill="#fff"/>
          <ellipse id="_Path_35" data-name="&lt;Path&gt;" cx="6.429" cy="3.712" rx="6.429" ry="3.712" transform="translate(0 28.462) rotate(-60)" fill="#fff"/>
        </g>
        <path id="_Path_36" data-name="&lt;Path&gt;" d="M627.666,165.6v23.5L249.73,407.326v-23.5l7.428-4.3c1.99-1.151,2.655-2.9,3.6-6.246l2.521-8.749c.794-3.038,1.62-5.108,3.623-6.246l86.2-49.8c2-1.156,3.569-1.28,5.086,1.236l3.092,5.608c1.133,1.959,1.7,3.123,3.685,1.963Z" transform="translate(-138.322 -91.715)" fill="#e7e7e7"/>
        <path id="_Path_37" data-name="&lt;Path&gt;" d="M241.3,649.884v23.5l-6.79-3.922V645.98Z" transform="translate(-129.893 -357.772)" fill="#e1e1e1"/>
        <path id="_Path_38" data-name="&lt;Path&gt;" d="M277.775,656.057l-5.671,3.275,2.164-4.163a1.031,1.031,0,0,0,.04-1.013c-.165-.2-.446-.058-.642.3l-3.078,5.921h0a1.581,1.581,0,0,0-.08.219l-.027.071a1.452,1.452,0,0,0-.04.308.891.891,0,0,0,.04.259l.027.04a.335.335,0,0,0,.08.125h0l3.078,2.365a.254.254,0,0,0,.3,0,.892.892,0,0,0,.344-.446c.17-.388.147-.821-.04-.968l-2.164-1.624,5.671-3.275a1.2,1.2,0,0,0,.446-.968C278.234,656.106,278.029,655.91,277.775,656.057Z" transform="translate(-149.792 -362.25)" fill="#375a64" opacity="0.5"/>
        <path id="_Path_39" data-name="&lt;Path&gt;" d="M296.946,644.461l5.675-3.275-2.164-1.664c-.187-.147-.21-.58-.04-.968s.446-.58.642-.446l3.078,2.365h0a.365.365,0,0,1,.085.125l.027.045a.85.85,0,0,1,.04.259,1.411,1.411,0,0,1-.04.3l-.027.071a1.173,1.173,0,0,1-.085.219v.027l-3.078,5.916a.853.853,0,0,1-.3.348.25.25,0,0,1-.339-.04,1.035,1.035,0,0,1,.04-1.017l2.164-4.158-5.675,3.275c-.25.143-.446-.054-.446-.446A1.2,1.2,0,0,1,296.946,644.461Z" transform="translate(-164.226 -353.388)" fill="#375a64" opacity="0.5"/>
        <path id="_Path_40" data-name="&lt;Path&gt;" d="M331.355,615.494c-.036-.339-.33-.294-.482.076l-.776,1.9c-1.338-.143-2.931,1.151-4.015,3.449-1.405,2.971-1.405,6.492,0,7.843a2.005,2.005,0,0,0,2.548.152,6.959,6.959,0,0,0,2.548-3.092.973.973,0,0,0,0-.995c-.178-.17-.468,0-.647.375-1.048,2.231-2.753,3.2-3.806,2.2s-1.048-3.636,0-5.858c.75-1.579,1.82-2.516,2.762-2.574l-.589,1.432c-.152.375,0,.718.228.562l2.311-1.508a.736.736,0,0,0,.259-.634Z" transform="translate(-180.026 -340.76)" fill="#375a64" opacity="0.5"/>
        <path id="_Path_41" data-name="&lt;Path&gt;" d="M470.861,502.707l2.07-4.381c.245-.518.245-1.124,0-1.338s-.642,0-.892.513l-2.061,4.354-2.066-1.99c-.245-.237-.642,0-.892.509a1.323,1.323,0,0,0,0,1.365l2.07,1.99-2.066,4.372c-.245.518-.245,1.124,0,1.338a.343.343,0,0,0,.446.027,1.226,1.226,0,0,0,.446-.535l2.066-4.381,2.066,1.994a.361.361,0,0,0,.446.027,1.267,1.267,0,0,0,.446-.54c.245-.518.245-1.129,0-1.339Z" transform="translate(-258.564 -275.207)" fill="#375a64" opacity="0.5"/>
        <path id="_Path_42" data-name="&lt;Path&gt;" d="M356.08,393.373v-7.312a7.942,7.942,0,0,1,3.614-6.246L662.632,204.985c2-1.156,3.614-.219,3.614,2.084v7.312a7.956,7.956,0,0,1-3.614,6.246L359.694,395.457C357.7,396.608,356.08,395.671,356.08,393.373Z" transform="translate(-197.224 -113.254)" fill="#fafafa"/>
        <path id="_Path_43" data-name="&lt;Path&gt;" d="M1032.883,214.051l.95,2.012a.228.228,0,0,0,.308.125l2.124-.816c.334-.129.446.348.227.8l-1.535,2.882a.953.953,0,0,0-.12.553l.361,2.61c.058.415-.295.959-.593.924l-1.9-.236a.446.446,0,0,0-.379.219l-1.9,2.427c-.3.388-.651.25-.593-.232l.361-3.029a.447.447,0,0,0-.12-.415l-1.535-1.111c-.241-.174-.107-.8.228-1.066l2.124-1.633a.974.974,0,0,0,.308-.482l.95-3.123C1032.3,213.98,1032.732,213.73,1032.883,214.051Z" transform="translate(-569.594 -118.47)" fill="none" stroke="#e1e1e1" stroke-miterlimit="10" stroke-width="0.75"/>
        <g id="_Group_10" data-name="&lt;Group&gt;" transform="translate(472.016 82.403)" opacity="0.5">
          <g id="_Group_11" data-name="&lt;Group&gt;" transform="translate(0.004)">
            <path id="_Path_44" data-name="&lt;Path&gt;" d="M1059.25,193.115a1.254,1.254,0,0,1-.625-2.338l10.168-5.871a1.249,1.249,0,1,1,1.254,2.155l-10.168,5.871A1.219,1.219,0,0,1,1059.25,193.115Z" transform="translate(-1058.001 -184.692)" fill="#375a64"/>
          </g>
          <g id="_Group_12" data-name="&lt;Group&gt;" transform="translate(0 5.921)">
            <path id="_Path_45" data-name="&lt;Path&gt;" d="M1059.244,206.337a1.249,1.249,0,0,1-.625-2.333l10.168-5.871a1.249,1.249,0,0,1,1.249,2.164l-10.168,5.871A1.218,1.218,0,0,1,1059.244,206.337Z" transform="translate(-1057.991 -197.964)" fill="#375a64"/>
          </g>
          <g id="_Group_13" data-name="&lt;Group&gt;" transform="translate(0 11.793)">
            <path id="_Path_46" data-name="&lt;Path&gt;" d="M1059.244,219.5a1.249,1.249,0,0,1-.625-2.333l10.168-5.871a1.251,1.251,0,0,1,1.249,2.168l-10.168,5.871A1.26,1.26,0,0,1,1059.244,219.5Z" transform="translate(-1057.991 -211.125)" fill="#375a64"/>
          </g>
        </g>
        <path id="Path_1726" data-name="Path 1726" d="M249.713,436.5l-.013,23.468L627.6,241.782l.045-23.512Z" transform="translate(-138.306 -120.886)" fill="#dde8fe"/>
        <g id="_Group_14" data-name="&lt;Group&gt;" transform="translate(153.743 260.69)">
          <g id="_Group_15" data-name="&lt;Group&gt;">
            <path id="_Path_47" data-name="&lt;Path&gt;" d="M344.62,630v4.524c0,.928.66,1.307,1.463.843l56.777-32.806v-7.9l-56.782,32.806A3.239,3.239,0,0,0,344.62,630Z" transform="translate(-344.62 -590.039)" fill="#fafafa"/>
            <path id="_Path_48" data-name="&lt;Path&gt;" d="M482.834,584.493c.808-.446,1.463-.089,1.463.843v4.537a3.226,3.226,0,0,1-1.463,2.53l-7.674,4.43v-7.91Z" transform="translate(-416.919 -584.302)" fill="#00dfbf"/>
            <path id="_Compound_Path_" data-name="&lt;Compound Path&gt;" d="M485.557,594.529l-.857-.268a4.667,4.667,0,0,0,.138-1.1,2,2,0,0,0-.781-1.829,1.218,1.218,0,0,0-1.249.058,4.388,4.388,0,0,0-1.709,3.569,2,2,0,0,0,.781,1.829,1.067,1.067,0,0,0,.544.143,1.415,1.415,0,0,0,.7-.205,3.569,3.569,0,0,0,1.379-1.847l.861.263a.235.235,0,0,0,.094,0,.326.326,0,0,0,.3-.223A.317.317,0,0,0,485.557,594.529Zm-2.748,1.637a.589.589,0,0,1-.611.063,1.489,1.489,0,0,1-.446-1.28,3.813,3.813,0,0,1,1.4-3.012.829.829,0,0,1,.384-.12.446.446,0,0,1,.228.062,1.489,1.489,0,0,1,.446,1.28A3.81,3.81,0,0,1,482.809,596.166Z" transform="translate(-420.209 -588.114)" fill="#fafafa"/>
          </g>
        </g>
        <path id="Path_1727" data-name="Path 1727" d="M315.807,682.738l-3.882,2.231a3.2,3.2,0,0,0-1.446,2.5v4.493c0,.919.647,1.294,1.446.834l3.882-2.231a3.2,3.2,0,0,0,1.446-2.5V683.55C317.253,682.631,316.606,682.256,315.807,682.738Z" transform="translate(-171.968 -378.014)" fill="#fafafa"/>
        <g id="_Group_16" data-name="&lt;Group&gt;" transform="translate(273.21 224.393)">
          <path id="_Path_49" data-name="&lt;Path&gt;" d="M617.57,503.652a11.447,11.447,0,0,0-5.18,8.972c0,3.306,2.32,4.64,5.18,2.989a11.442,11.442,0,0,0,5.18-8.972C622.745,503.34,620.439,502,617.57,503.652Z" transform="translate(-612.39 -502.945)" fill="#00dfbf"/>
          <g id="_Group_17" data-name="&lt;Group&gt;" transform="translate(2.329 2.232)">
            <g id="_Group_18" data-name="&lt;Group&gt;" transform="translate(1.307)">
              <path id="_Compound_Path_2" data-name="&lt;Compound Path&gt;" d="M621.49,511.692a.891.891,0,0,1-.446-.12,1.12,1.12,0,0,1-.5-1.039,2.971,2.971,0,0,1,1.365-2.36h0a1.017,1.017,0,0,1,1.642.95,2.971,2.971,0,0,1-1.338,2.36A1.388,1.388,0,0,1,621.49,511.692Z" transform="translate(-620.539 -507.948)" fill="#fff"/>
            </g>
            <g id="_Group_19" data-name="&lt;Group&gt;" transform="translate(0 3.9)">
              <path id="_Compound_Path_3" data-name="&lt;Compound Path&gt;" d="M622.518,516.877a1.785,1.785,0,0,0-1.825.138l-.754.446a5.1,5.1,0,0,0-2.329,4.038v.535a2.9,2.9,0,0,0,2.86-.3,8.3,8.3,0,0,0,2.86-3v-.121A1.883,1.883,0,0,0,622.518,516.877Z" transform="translate(-617.61 -516.689)" fill="#fff"/>
            </g>
          </g>
        </g>
        <path id="Path_1728" data-name="Path 1728" d="M647.351,469.644l35.474-20.478c1.437-.83,2.6-.2,2.6,1.405a5.657,5.657,0,0,1-2.6,4.408l-35.474,20.483c-1.437.83-2.6.2-2.6-1.405A5.666,5.666,0,0,1,647.351,469.644Z" transform="translate(-357.103 -248.564)" fill="#e1e1e1"/>
        <path id="Path_1729" data-name="Path 1729" d="M768.711,409.183l22-12.827c1.437-.83,2.6-.2,2.6,1.405a5.666,5.666,0,0,1-2.6,4.412l-22,12.822c-1.437.83-2.6.2-2.6-1.405a5.662,5.662,0,0,1,2.6-4.408Z" transform="translate(-424.318 -219.316)" fill="#e1e1e1"/>
        <path id="Path_1730" data-name="Path 1730" d="M859.987,361.722l15.169-8.816c1.437-.83,2.6-.2,2.6,1.405a5.639,5.639,0,0,1-2.6,4.408l-15.169,8.816c-1.437.83-2.6.2-2.6-1.405a5.657,5.657,0,0,1,2.6-4.408Z" transform="translate(-474.873 -195.251)" fill="#e1e1e1"/>
        <path id="Path_1731" data-name="Path 1731" d="M750.339,443.179a.629.629,0,0,1-.629-.625v-7.83a.629.629,0,0,1,1.254,0v7.834A.625.625,0,0,1,750.339,443.179Z" transform="translate(-415.235 -240.45)" fill="#1a2e35"/>
        <path id="Path_1732" data-name="Path 1732" d="M841.506,390.418a.629.629,0,0,1-.629-.629v-7.826a.629.629,0,1,1,1.254,0v7.826a.629.629,0,0,1-.625.629Z" transform="translate(-465.726 -211.169)" fill="#1a2e35"/>
        <path id="Path_1733" data-name="Path 1733" d="M917.485,346.619a.625.625,0,0,1-.625-.625v-7.83a.625.625,0,1,1,1.249,0v7.83A.625.625,0,0,1,917.485,346.619Z" transform="translate(-507.81 -186.944)" fill="#1a2e35"/>
        <g id="_Group_20" data-name="&lt;Group&gt;" transform="translate(417.322 144.21)">
          <path id="_Path_50" data-name="&lt;Path&gt;" d="M940.794,326.619v-1.437c0-1.646-1-2.4-2.231-1.686h0a5.34,5.34,0,0,0-2.231,4.261v1.285a5.1,5.1,0,0,1-.75,2.512h0a1.424,1.424,0,0,0-.183.66h0c0,.415.254.6.562.424l5.211-3.007a1.338,1.338,0,0,0,.562-1.075h0a.522.522,0,0,0-.165-.446h0A1.478,1.478,0,0,1,940.794,326.619Z" transform="translate(-935.4 -323.226)" fill="#00dfbf"/>
          <path id="_Path_51" data-name="&lt;Path&gt;" d="M942.232,340.57a2.575,2.575,0,0,1-1.071,2.048c-.593.339-1.071-.022-1.071-.812Z" transform="translate(-937.998 -332.832)" fill="#00dfbf"/>
        </g>
        <g id="_Group_21" data-name="&lt;Group&gt;" transform="translate(429.684 137.074)">
          <g id="_Group_22" data-name="&lt;Group&gt;" transform="translate(1.472)">
            <path id="_Compound_Path_4" data-name="&lt;Compound Path&gt;" d="M967.494,311.451a1.031,1.031,0,0,1-.518-.134,1.272,1.272,0,0,1-.562-1.169,3.351,3.351,0,0,1,1.539-2.677h0a1.151,1.151,0,0,1,1.842,1.084,3.351,3.351,0,0,1-1.539,2.677A1.549,1.549,0,0,1,967.494,311.451Z" transform="translate(-966.409 -307.23)" fill="#00dfbf"/>
          </g>
          <g id="_Group_23" data-name="&lt;Group&gt;" transform="translate(0 4.4)">
            <path id="_Compound_Path_5" data-name="&lt;Compound Path&gt;" d="M968.66,317.3a2.017,2.017,0,0,0-2.057.161l-.866.482a5.746,5.746,0,0,0-2.628,4.56v.6a3.3,3.3,0,0,0,3.226-.339,9.4,9.4,0,0,0,3.23-3.382v-.147a2.132,2.132,0,0,0-.906-1.932Z" transform="translate(-963.11 -317.092)" fill="#00dfbf"/>
          </g>
        </g>
        <g id="_Group_24" data-name="&lt;Group&gt;" transform="translate(434.315 133.188)">
          <g id="_Group_25" data-name="&lt;Group&gt;" transform="translate(0.972)">
            <path id="_Compound_Path_6" data-name="&lt;Compound Path&gt;" d="M976.758,302.75a1.031,1.031,0,0,1-.517-.134,1.267,1.267,0,0,1-.567-1.169,3.364,3.364,0,0,1,1.539-2.677h0a1.156,1.156,0,0,1,1.86,1.071,3.364,3.364,0,0,1-1.539,2.677A1.548,1.548,0,0,1,976.758,302.75Z" transform="translate(-975.669 -298.522)" fill="#00dfbf"/>
          </g>
          <g id="_Group_26" data-name="&lt;Group&gt;" transform="translate(0 4.42)">
            <path id="_Compound_Path_7" data-name="&lt;Compound Path&gt;" d="M978.545,308.643a2.03,2.03,0,0,0-2.066.147l-.834.5a5.4,5.4,0,0,0-2.155,2.534,1.9,1.9,0,0,1,1.82-.031,2.115,2.115,0,0,1,.919,1.936v.366a9.272,9.272,0,0,0,3.235-3.373v-.147A2.115,2.115,0,0,0,978.545,308.643Z" transform="translate(-973.49 -308.429)" fill="#00dfbf"/>
          </g>
        </g>
        <path id="Path_1734" data-name="Path 1734" d="M1002.642,284.275a9.388,9.388,0,0,0-4.243,7.375,3.221,3.221,0,0,0,.95,2.525l-.531,2.516c-.067.321.147.446.348.214l1.91-2.231a4.082,4.082,0,0,0,1.566-.549,9.37,9.37,0,0,0,4.243-7.375C1006.885,284.029,1004.989,282.9,1002.642,284.275Z" transform="translate(-552.966 -157.119)" fill="#00dfbf"/>
        <path id="Path_1735" data-name="Path 1735" d="M1050.255,257.855a2.633,2.633,0,0,1,1.049-.37,1.392,1.392,0,0,1,.861.165,1.445,1.445,0,0,1,.571.669,2.676,2.676,0,0,1,.21,1.142,4.315,4.315,0,0,1-.121,1.04,6.754,6.754,0,0,1-.3.924,7.71,7.71,0,0,1-.406.839c-.147.268-.29.522-.424.776s-.259.5-.37.758a3.319,3.319,0,0,0-.223.75,1.652,1.652,0,0,1-.094.348.446.446,0,0,1-.174.223l-1.218.7a.143.143,0,0,1-.187,0,.317.317,0,0,1-.08-.25,3.614,3.614,0,0,1,.134-.982,7.308,7.308,0,0,1,.33-.924,8.63,8.63,0,0,1,.446-.857c.165-.277.3-.531.446-.776a6.643,6.643,0,0,0,.335-.709,1.786,1.786,0,0,0,.134-.647c0-.294-.071-.486-.219-.571s-.37-.036-.678.138a1.758,1.758,0,0,0-.642.58,2.6,2.6,0,0,0-.286.616c-.058.2-.111.379-.156.544a.536.536,0,0,1-.25.352l-1.218.7a.125.125,0,0,1-.156,0,.268.268,0,0,1-.063-.21,5.168,5.168,0,0,1,.2-1.245,7.683,7.683,0,0,1,.544-1.4,7.3,7.3,0,0,1,.861-1.338A4.337,4.337,0,0,1,1050.255,257.855Zm.866,9.98a.773.773,0,0,1-.08.339.481.481,0,0,1-.187.232l-1.258.727a.147.147,0,0,1-.187,0,.33.33,0,0,1-.08-.245v-1.553a.806.806,0,0,1,.08-.339.5.5,0,0,1,.188-.228l1.258-.727a.143.143,0,0,1,.187,0,.326.326,0,0,1,.08.245Z" transform="translate(-580.167 -142.599)" fill="#00dfbf"/>
        <g id="_Group_27" data-name="&lt;Group&gt;" transform="translate(172.41 165.496)">
          <path id="_Path_52" data-name="&lt;Path&gt;" d="M386.46,521.317V591.23c0,2.3,1.62,3.235,3.614,2.084l248.7-143.621a7.972,7.972,0,0,0,3.614-6.246v-69.93c0-2.307-1.62-3.239-3.614-2.088l-248.7,143.643A7.929,7.929,0,0,0,386.46,521.317Z" transform="translate(-386.46 -370.935)" fill="#00dfbf"/>
          <path id="_Path_53" data-name="&lt;Path&gt;" d="M386.46,521.317V591.23c0,2.3,1.62,3.235,3.614,2.084l248.7-143.621a7.972,7.972,0,0,0,3.614-6.246v-69.93c0-2.307-1.62-3.239-3.614-2.088l-248.7,143.643A7.929,7.929,0,0,0,386.46,521.317Z" transform="translate(-386.46 -370.935)" fill="#fff" opacity="0.7"/>
        </g>
        <g id="_Group_28" data-name="&lt;Group&gt;" transform="translate(179.169 324.202)">
          <path id="_Path_54" data-name="&lt;Path&gt;" d="M415.169,728.51c-7.486,4.323-13.559,14.839-13.559,23.486s6.09,12.153,13.559,7.83,13.568-14.839,13.559-23.49S422.668,724.186,415.169,728.51Z" transform="translate(-401.61 -726.657)" fill="#00dfbf"/>
          <g id="_Group_29" data-name="&lt;Group&gt;" transform="translate(6.072 5.897)">
            <g id="_Group_30" data-name="&lt;Group&gt;" transform="translate(3.413)">
              <path id="_Compound_Path_8" data-name="&lt;Compound Path&gt;" d="M425.377,749.621a2.392,2.392,0,0,1-1.2-.312,2.956,2.956,0,0,1-1.3-2.713,7.781,7.781,0,0,1,3.569-6.184h0a2.674,2.674,0,0,1,4.31,2.489,7.794,7.794,0,0,1-3.569,6.184A3.676,3.676,0,0,1,425.377,749.621Z" transform="translate(-422.87 -739.875)" fill="#fff"/>
            </g>
            <g id="_Group_31" data-name="&lt;Group&gt;" transform="translate(0 10.15)">
              <path id="_Compound_Path_9" data-name="&lt;Compound Path&gt;" d="M428.06,763.122a4.682,4.682,0,0,0-4.774.366l-1.968,1.133a13.326,13.326,0,0,0-6.1,10.569v1.4c1.932,1.071,4.569.892,7.486-.794a21.79,21.79,0,0,0,7.486-7.843v-.335A4.846,4.846,0,0,0,428.06,763.122Z" transform="translate(-415.22 -762.625)" fill="#fff"/>
            </g>
          </g>
        </g>
        <path id="Path_1736" data-name="Path 1736" d="M480.231,703.339,508.95,686.76c1.437-.83,2.6-.308,2.6,1.164a5.455,5.455,0,0,1-2.6,4.172L480.227,708.68c-1.437.83-2.6.308-2.6-1.169A5.459,5.459,0,0,1,480.231,703.339Z" transform="translate(-264.544 -380.14)" fill="#375a64"/>
        <path id="Path_1737" data-name="Path 1737" d="M479.156,736.908l16.887-9.748c.843-.491,1.53-.183,1.53.683a3.216,3.216,0,0,1-1.53,2.454l-16.887,9.753c-.843.486-1.53.178-1.526-.687A3.2,3.2,0,0,1,479.156,736.908Z" transform="translate(-264.544 -402.604)" fill="#375a64"/>
        <path id="Path_1738" data-name="Path 1738" d="M390.074,669.324,638.777,525.7a7.986,7.986,0,0,0,3.614-6.246V508L386.46,655.752v11.484C386.46,669.543,388.079,670.475,390.074,669.324Z" transform="translate(-214.05 -281.352)" fill="#f5f5f5"/>
        <path id="Path_1739" data-name="Path 1739" d="M537.625,767.762a.629.629,0,0,1-.625-.629v-7.848a.629.629,0,0,1,1.254,0v7.826a.629.629,0,0,1-.629.651Z" transform="translate(-297.426 -420.207)" fill="#ececec"/>
        <path id="Path_1740" data-name="Path 1740" d="M467.2,785.672l22-12.827c1.437-.83,2.6-.2,2.6,1.405a5.666,5.666,0,0,1-2.6,4.412l-22,12.827c-1.437.83-2.6.2-2.6-1.405A5.649,5.649,0,0,1,467.2,785.672Z" transform="translate(-257.327 -427.834)" fill="#e1e1e1"/>
        <path id="Path_1741" data-name="Path 1741" d="M626.689,715.979a.629.629,0,0,1-.629-.625v-7.83a.629.629,0,0,1,1.254,0v7.83a.625.625,0,0,1-.625.625Z" transform="translate(-346.751 -391.539)" fill="#ececec"/>
        <path id="Path_1742" data-name="Path 1742" d="M556.261,733.923l22-12.827c1.437-.83,2.6-.2,2.606,1.405a5.657,5.657,0,0,1-2.6,4.408l-22,12.827c-1.437.83-2.6.2-2.6-1.405A5.657,5.657,0,0,1,556.261,733.923Z" transform="translate(-306.653 -399.172)" fill="#e1e1e1"/>
        <path id="Path_1743" data-name="Path 1743" d="M715.755,664.169a.625.625,0,0,1-.625-.625v-7.83a.625.625,0,0,1,1.249,0v7.812a.625.625,0,0,1-.625.642Z" transform="translate(-396.083 -362.818)" fill="#ececec"/>
        <path id="Path_1744" data-name="Path 1744" d="M645.321,682.173l22-12.827c1.437-.83,2.6-.2,2.6,1.405a5.657,5.657,0,0,1-2.6,4.408l-22,12.827c-1.437.83-2.6.2-2.6-1.405A5.657,5.657,0,0,1,645.321,682.173Z" transform="translate(-355.979 -370.51)" fill="#e1e1e1"/>
        <path id="Path_1745" data-name="Path 1745" d="M804.815,612.415a.625.625,0,0,1-.625-.625v-7.825a.625.625,0,0,1,1.249,0v7.826a.62.62,0,0,1-.625.625Z" transform="translate(-445.408 -334.156)" fill="#ececec"/>
        <path id="Path_1746" data-name="Path 1746" d="M734.381,630.39l22-12.845c1.437-.83,2.6-.2,2.6,1.405a5.666,5.666,0,0,1-2.6,4.412l-22,12.827c-1.437.825-2.6.2-2.6-1.405a5.666,5.666,0,0,1,2.6-4.395Z" transform="translate(-405.304 -341.821)" fill="#e1e1e1"/>
        <path id="Path_1747" data-name="Path 1747" d="M823.447,578.645l22.009-12.809c1.437-.83,2.6-.2,2.6,1.405a5.657,5.657,0,0,1-2.6,4.408l-22,12.827c-1.437.83-2.606.2-2.606-1.405a5.657,5.657,0,0,1,2.6-4.426Z" transform="translate(-454.635 -313.182)" fill="#e1e1e1"/>
        <g id="Plants" transform="translate(94.333 473.191)">
          <path id="_Path_55" data-name="&lt;Path&gt;" d="M348.245,1209.641l22.192-12.787s13.764-40.52,10.262-77.836c-4.332-46.373-26.229-62.671-39.1-57.5s-10.2,23.646,3.426,48.43C355.857,1129.6,355.888,1174.864,348.245,1209.641Z" transform="translate(-278.909 -1060.599)" fill="#00dfbf"/>
          <path id="_Path_56" data-name="&lt;Path&gt;" d="M348.245,1209.641l22.192-12.787s13.764-40.52,10.262-77.836c-4.332-46.373-26.229-62.671-39.1-57.5s-10.2,23.646,3.426,48.43C355.857,1129.6,355.888,1174.864,348.245,1209.641Z" transform="translate(-278.909 -1060.599)" fill="#027ec0"/>
          <g id="_Group_32" data-name="&lt;Group&gt;" transform="translate(67.124 10.134)">
            <g id="_Group_33" data-name="&lt;Group&gt;">
              <path id="_Path_57" data-name="&lt;Path&gt;" d="M374.791,1217.135a1.008,1.008,0,0,0,.955-.692c14.277-43.723,14.884-105.176-12.149-132.869a1.008,1.008,0,0,0-1.441,1.405c25.52,26.145,25.98,87.053,11.676,130.839a1,1,0,0,0,.647,1.267A.943.943,0,0,0,374.791,1217.135Z" transform="translate(-361.91 -1083.313)" fill="#fff"/>
            </g>
          </g>
          <g id="_Group_34" data-name="&lt;Group&gt;" transform="translate(0 50.263)">
            <path id="_Path_58" data-name="&lt;Path&gt;" d="M240.946,1295.045c-2.3,1.338-7.031-1.566-8.847-2.784a21.971,21.971,0,0,1-7.29-8.37,20.493,20.493,0,0,1-1.825-12.336,48.375,48.375,0,0,1,1.562-6.563l1.829-6.367a16.139,16.139,0,0,0,.932-6.425c-.553-4.354-4.421-7.406-7.937-10.038-3.886-2.909-7.933-6.755-7.91-12,0-4.047,2.11-7.8,4.618-10.98s5.483-5.979,7.75-9.334c1.633-2.409,2.9-5.247,2.637-8.147a13.006,13.006,0,0,0-1.785-5.091c-1.852-3.413-4.3-6.541-5.572-10.208s-1.1-8.231,1.785-10.855c2.351-2.155,5.84-2.458,9.021-2.231a20.742,20.742,0,0,1,8.392,2.953c8.325,4.627,13.077,14.487,21.911,18.051,3.409,1.37,7.138,1.673,10.708,2.61s7.174,2.753,8.816,6.041c3.244,6.474-2.775,14.46-.5,21.331,2.017,6.085,7.933,8.414,11.252,13.9a13.037,13.037,0,0,1,1.553,7.964,38.186,38.186,0,0,1-3.36,13.46c-1.892,4.332-7.388,12.113-7.388,12.113C281.145,1271.876,241.3,1294.84,240.946,1295.045Z" transform="translate(-211.46 -1173.257)" fill="#02ccc0"/>
            <g id="_Group_35" data-name="&lt;Group&gt;" transform="translate(16.524 5.744)">
              <path id="_Path_59" data-name="&lt;Path&gt;" d="M285.257,1289.322a.892.892,0,0,0,.892-.785c4.288-33.988-11.935-79.826-36.138-102.169a.9.9,0,0,0-1.218,1.338c23.856,22.013,39.824,67.159,35.6,100.643a.893.893,0,0,0,.776,1Z" transform="translate(-248.497 -1186.132)" fill="#fff"/>
            </g>
            <g id="_Group_36" data-name="&lt;Group&gt;" transform="translate(14.197 55.485)">
              <path id="_Path_60" data-name="&lt;Path&gt;" d="M278.223,1307.6a.892.892,0,0,0,.54-1.615c-13.385-10.034-33.8-8.285-34.666-8.2a.9.9,0,1,0,.165,1.785c.205,0,20.612-1.758,33.426,7.852A.892.892,0,0,0,278.223,1307.6Z" transform="translate(-243.281 -1297.62)" fill="#fff"/>
            </g>
            <g id="_Group_37" data-name="&lt;Group&gt;" transform="translate(46.225 29.577)">
              <path id="_Path_61" data-name="&lt;Path&gt;" d="M315.966,1267.083a.892.892,0,0,0,.892-.861c.607-15.566,12.367-24.984,12.492-25.069a.9.9,0,0,0-1.106-1.41c-.513.4-12.537,9.989-13.175,26.408a.892.892,0,0,0,.861.933Z" transform="translate(-315.068 -1239.551)" fill="#fff"/>
            </g>
          </g>
        </g>
        <g id="Post" transform="translate(233.422 260.787)">
          <path id="Path_1748" data-name="Path 1748" d="M652.019,1076.775A113.768,113.768,0,0,1,596.4,995.187l-11.828-78.523a113.769,113.769,0,0,0-45.922-75.311L523.21,830.2v8.807l8.383,6.032a113.769,113.769,0,0,1,45.9,75.114l12.046,79.094a113.769,113.769,0,0,0,55.586,81.378l6.889,3.975v-7.826Z" transform="translate(-523.21 -720.589)" fill="#ececec"/>
          <path id="Path_1749" data-name="Path 1749" d="M652.517,940.791a113.515,113.515,0,0,1-55.394-81.356l-11.832-78.55a114.662,114.662,0,0,0-46.012-75.458l-15.169-10.94L713.515,585.14l15.33,11.056a113.551,113.551,0,0,1,45.833,75.163l11.832,78.55a113.389,113.389,0,0,0,55.39,81.548Z" transform="translate(-523.708 -584.863)" fill="#fafafa"/>
          <path id="Path_1750" data-name="Path 1750" d="M713,585.06l15.2,10.975a113.345,113.345,0,0,1,45.744,75.012L785.78,749.6a113.644,113.644,0,0,0,55.167,81.512L652.019,940.189a113.323,113.323,0,0,1-55.176-81.133l-11.828-78.55A114.894,114.894,0,0,0,538.91,704.9l-14.879-10.739L713,585.06m.027-.531L523.21,694.122l15.441,11.154a113.769,113.769,0,0,1,45.922,75.32L596.4,859.118A113.769,113.769,0,0,0,652.019,940.7h0l189.82-109.593a113.769,113.769,0,0,1-55.617-81.579l-11.828-78.554a113.768,113.768,0,0,0-45.922-75.3L713.03,584.52Z" transform="translate(-523.21 -584.52)" fill="#e1e1e1"/>
          <path id="Path_1751" data-name="Path 1751" d="M811.92,1246.823l189.82-109.593v7.83L811.92,1254.649Z" transform="translate(-683.111 -890.637)" fill="#f5f5f5"/>
          <g id="_Group_38" data-name="&lt;Group&gt;" transform="translate(30.009 102.2)">
            <path id="_Path_62" data-name="&lt;Path&gt;" d="M595.936,815.111c-6.616,2.815-7.326,8.606-1.575,12.938s15.78,5.55,22.4,2.735,7.335-8.606,1.575-12.938S602.548,812.283,595.936,815.111Z" transform="translate(-590.471 -813.59)" fill="#00dfbf"/>
            <g id="_Group_39" data-name="&lt;Group&gt;" transform="translate(6.401 3.411)">
              <g id="_Group_40" data-name="&lt;Group&gt;">
                <path id="_Compound_Path_10" data-name="&lt;Compound Path&gt;" d="M611.047,826.369a9.143,9.143,0,0,1-1.736-.049,7.3,7.3,0,0,1-3.458-1.245c-1.535-1.156-1.338-2.65.415-3.4h0a8.281,8.281,0,0,1,7.107.87c1.539,1.156,1.339,2.65-.415,3.4A6.037,6.037,0,0,1,611.047,826.369Z" transform="translate(-604.817 -821.237)" fill="#fff"/>
              </g>
              <g id="_Group_41" data-name="&lt;Group&gt;" transform="translate(5.597 4.848)">
                <path id="_Compound_Path_11" data-name="&lt;Compound Path&gt;" d="M627.391,832.235a11.6,11.6,0,0,0-5.8.6l-1.74.741c-3.021,1.285-3.333,3.846-.709,5.8l.928.7a21.264,21.264,0,0,0,9.441-.745c2.86-1.111,4.618-2.378,4.876-4.2l-1.3-.848A12.146,12.146,0,0,0,627.391,832.235Z" transform="translate(-617.362 -832.103)" fill="#fff"/>
              </g>
            </g>
          </g>
          <path id="Path_1752" data-name="Path 1752" d="M669.856,748.434,725.6,716.249a6.825,6.825,0,0,1,6.991.361l.513.4c1.785,1.432,1.6,3.569-.4,4.747L677.016,754.02a6.487,6.487,0,0,1-6.808-.589l-.584-.446C667.8,751.548,667.857,749.607,669.856,748.434Z" transform="translate(-603.571 -657.04)" fill="#375a64"/>
          <path id="Path_1753" data-name="Path 1753" d="M694.025,793.882l27.9-16.111a1.472,1.472,0,0,0,.3-2.481l-.509-.486a2.936,2.936,0,0,0-3.31-.388l-27.746,16.231a1.49,1.49,0,0,0-.294,2.494l.352.339a2.945,2.945,0,0,0,3.31.4Z" transform="translate(-615.484 -689.504)" fill="#375a64"/>
          <path id="Path_1754" data-name="Path 1754" d="M655.96,778.427l150.452-86.866a4.649,4.649,0,0,1,6.032,1.316l.308.446a3.9,3.9,0,0,1-1.338,5.586L660.926,785.856a4.435,4.435,0,0,1-5.862-1.423l-.326-.486a3.779,3.779,0,0,1,1.223-5.519Z" transform="translate(-595.658 -643.475)" opacity="0.2"/>
          <path id="Path_1755" data-name="Path 1755" d="M676.1,811.657,826.675,724.72a3.864,3.864,0,0,1,5.483,1.642c.076.165.152.33.232.491a4.685,4.685,0,0,1-1.9,5.894l-150.6,87a3.685,3.685,0,0,1-5.3-1.727l-.254-.549a4.542,4.542,0,0,1,1.762-5.813Z" transform="translate(-606.673 -661.861)" opacity="0.2"/>
          <path id="Path_1756" data-name="Path 1756" d="M690.849,847.7l150.693-87a3.225,3.225,0,0,1,4.908,1.887c.071.241.143.486.219.736a5.653,5.653,0,0,1-2.507,6.108L693.419,856.511a3.039,3.039,0,0,1-4.685-1.945c-.076-.268-.152-.531-.232-.8A5.488,5.488,0,0,1,690.849,847.7Z" transform="translate(-614.65 -681.811)" opacity="0.2"/>
          <path id="Path_1757" data-name="Path 1757" d="M700.038,932.3l87.589-50.576a2.657,2.657,0,0,1,4.247,2.034l.179,1.169a6.576,6.576,0,0,1-2.98,6.21L701.47,941.8a2.647,2.647,0,0,1-4.234-2.039c-.062-.406-.125-.817-.183-1.223A6.581,6.581,0,0,1,700.038,932.3Z" transform="translate(-619.472 -748.851)" opacity="0.2"/>
          <path id="Path_1758" data-name="Path 1758" d="M886.972,970.7l-143.344,82.779c-4.015,2.307-9.579,1.263-12.1-2.6q-13.6-20.831-18.158-51.892l-5.733-38.048a13.18,13.18,0,0,1,5.983-12.421L857.2,865.611c4.015-2.307,7.785-.477,8.477,4.078l5.733,38.061q3.44,29.446,17.98,51.955C891.9,963.578,890.965,968.4,886.972,970.7Z" transform="translate(-625.295 -739.649)" fill="#00dfbf"/>
          <path id="Path_1759" data-name="Path 1759" d="M886.972,970.7l-143.344,82.779c-4.015,2.307-9.579,1.263-12.1-2.6q-13.6-20.831-18.158-51.892l-5.733-38.048a13.18,13.18,0,0,1,5.983-12.421L857.2,865.611c4.015-2.307,7.785-.477,8.477,4.078l5.733,38.061q3.44,29.446,17.98,51.955C891.9,963.578,890.965,968.4,886.972,970.7Z" transform="translate(-625.295 -739.649)" fill="#fff" opacity="0.7"/>
          <path id="Path_1760" data-name="Path 1760" d="M761.767,1127.119l143.345-82.779c4.015-2.3,4.908-7.138,2.427-11a111.168,111.168,0,0,1-11.386-23.2L851.693,997.57l-19.747,43.812,21.442,17.248-74.829-39.387-38.28,87a104.443,104.443,0,0,0,9.391,18.292C752.2,1128.382,757.774,1129.426,761.767,1127.119Z" transform="translate(-643.434 -813.286)" fill="#00dfbf"/>
          <path id="Path_1761" data-name="Path 1761" d="M913.216,975.148c5.273-3.043,10.3-.522,11.225,5.635s-2.592,13.617-7.866,16.664-10.3.518-11.23-5.639S907.943,978.191,913.216,975.148Z" transform="translate(-734.773 -800.153)" fill="#00dfbf"/>
          <g id="_Group_42" data-name="&lt;Group&gt;" transform="translate(216.766 275.814)">
            <g id="_Group_43" data-name="&lt;Group&gt;">
              <path id="_Compound_Path_12" data-name="&lt;Compound Path&gt;" d="M1014.274,1207.015a7.944,7.944,0,0,1-1.445-.04,6.141,6.141,0,0,1-2.891-1.04c-1.285-.968-1.133-2.231.348-2.846h0a6.929,6.929,0,0,1,5.947.727c1.285.964,1.133,2.231-.344,2.842A4.972,4.972,0,0,1,1014.274,1207.015Z" transform="translate(-1009.066 -1202.725)" fill="#00dfbf"/>
            </g>
            <g id="_Group_44" data-name="&lt;Group&gt;" transform="translate(4.673 4.051)">
              <path id="_Compound_Path_13" data-name="&lt;Compound Path&gt;" d="M1027.928,1211.915a9.718,9.718,0,0,0-4.85.5l-1.459.616c-2.525,1.075-2.784,3.212-.589,4.863l.772.584a17.757,17.757,0,0,0,7.888-.629c2.392-.923,3.859-1.985,4.073-3.5l-1.079-.709A10.143,10.143,0,0,0,1027.928,1211.915Z" transform="translate(-1019.54 -1211.806)" fill="#00dfbf"/>
            </g>
          </g>
          <path id="Path_1762" data-name="Path 1762" d="M1035.8,1198l-5.354.263-1.463,1.263a.513.513,0,0,0,0,.794l1.463,1.142,5.452-.214Zm-5.729,2.266a.386.386,0,1,0,0-.013Z" transform="translate(-803.229 -924.294)" fill="#00dfbf"/>
          <path id="Path_1763" data-name="Path 1763" d="M1099.729,1176.336c-.067.812-1.048,1.5-1.629,1.838a10.553,10.553,0,0,1-3.779,1.214C1093.014,1177.906,1095.45,1175.229,1099.729,1176.336Z" transform="translate(-839.323 -912.151)" fill="#00dfbf"/>
          <path id="Path_1764" data-name="Path 1764" d="M1084.7,1160.764c-3.94-3.253-10.114-4.462-14.464-1.968s-5.184,7.736-1.2,11,11.123,3.319,15.428.812S1088.642,1164.012,1084.7,1160.764Zm-6.6-.692a1.973,1.973,0,0,1,2.231.344,1,1,0,0,1-.2,1.691,2.052,2.052,0,0,1-2.32-.259,1.084,1.084,0,0,1,.286-1.776Zm-7.915,6.063a1.089,1.089,0,0,1,.286-1.785,1.972,1.972,0,0,1,2.231.348,1,1,0,0,1-.2,1.686A2.057,2.057,0,0,1,1070.184,1166.136Zm13.1,2.44a12.331,12.331,0,0,1-6.019,1.454,12.079,12.079,0,0,1-5.26-1.115l11.2-6.34c1.432,1.178,2.2,2.463,2.115,3.52a3.637,3.637,0,0,1-2.034,2.481Z" transform="translate(-824.091 -901.844)" fill="#00dfbf"/>
          <path id="Path_1765" data-name="Path 1765" d="M1142.428,1127.07a6.8,6.8,0,0,0-1.477-1.664c-2.757-2.271-7.071-3.123-10.115-1.374s-3.623,5.407-.839,7.692a9.977,9.977,0,0,0,1.12.736l.045.022c4.979,2.851,14.112,3.212,14.112,3.212A15.946,15.946,0,0,0,1142.428,1127.07Zm-4.341,3.123a4.958,4.958,0,0,1-5.157-.272,2.155,2.155,0,0,1,.4-3.677,4.469,4.469,0,0,1,4.836.656c1.316,1.1,1.361,2.476-.08,3.315Z" transform="translate(-858.282 -882.81)" fill="#00dfbf"/>
        </g>
        <path id="_Path_63" data-name="&lt;Path&gt;" d="M1508.817,1170.86l-21.464,62.631a2.012,2.012,0,0,1-3.815,0l-21.188-63.13Z" transform="translate(-809.928 -648.198)" fill="#ffaaa8"/>
        <path id="_Path_64" data-name="&lt;Path&gt;" d="M1504.219,1295.064a2.012,2.012,0,0,0,3.814,0l4.189-12.229h0a11.154,11.154,0,0,1-11.6-.642l-.932-.642Z" transform="translate(-830.609 -709.781)" fill="#1a2e35"/>
        <path id="_Path_65" data-name="&lt;Path&gt;" d="M1463.168,544.34v6.126l-.049,7.4-.758,265.76c4.908,5.617,12.189,8.477,19.568,9.209,11.239,1.169,22.754-2.512,26.876-8.691l.75-265.6.04-14.134C1509.045,553.558,1462.757,553.526,1463.168,544.34Z" transform="translate(-809.934 -301.479)" fill="#ffdc60"/>
        <path id="_Path_66" data-name="&lt;Path&gt;" d="M1463.844,596.475v13.684c-.138,3.966,8.312,6.527,18.069,7.428,12.938,1.222,28.206-2.284,28.4-7.54l.027-10.088-.054-3.609c-.187,5.26-15.441,8.78-28.4,7.553-9.369-.892-17.525-3.3-17.993-7v-.045A.84.84,0,0,1,1463.844,596.475Z" transform="translate(-810.753 -330.285)" fill="#ececec"/>
        <path id="_Path_67" data-name="&lt;Path&gt;" d="M1463.908,587.133c-.335,9.213,46.1,9.1,46.436-.116l.058-13.7c-.335,9.213-46.761,9.329-46.427.116Z" transform="translate(-810.79 -317.53)" fill="#ffdc60"/>
        <path id="_Path_68" data-name="&lt;Path&gt;" d="M1464.089,544.34l-.062,13.523c-.393,9.044,44.415,9.307,46.436.674a2,2,0,0,0,.08-.513l-.04-13.621C1509.967,553.558,1463.679,553.526,1464.089,544.34Z" transform="translate(-810.855 -301.479)" fill="#ececec"/>
        <path id="Path_1766" data-name="Path 1766" d="M1510.827,398.913v-.576c0-6.6-10.391-11.948-23.2-11.948s-23.2,5.354-23.2,11.948v6.224l-.2,52.3c-.178,3.926,8.169,6.514,17.846,7.455,12.938,1.267,28.273-2.155,28.554-7.393v-.062l.2-57.554C1510.832,399.2,1510.827,398.954,1510.827,398.913Z" transform="translate(-810.966 -213.999)" fill="#ff9090"/>
        <ellipse id="Ellipse_127" data-name="Ellipse 127" cx="23.213" cy="11.948" rx="23.213" ry="11.948" transform="translate(653.435 172.391)" fill="#fff" opacity="0.2"/>
        <path id="_Path_69" data-name="&lt;Path&gt;" d="M1540.573,486.6l.254-72.143c-.312,5.653-9.936,10.993-20.447,11.377l-.75,335.28-1.24,53.721,21.464-62.631h-.031Z" transform="translate(-840.966 -229.545)" opacity="0.1"/>
        <path id="Path_1767" data-name="Path 1767" d="M1399.81,701.193c8.825-1.285,19.715,5.354,27.291,16.008s33.983,36.585,36.87,44.807c2.11,6.019.892,17.3-11.555,12.01C1440.37,768.888,1402,731.251,1402,731.251Z" transform="translate(-775.291 -388.264)" fill="#f7a491"/>
        <path id="Path_1768" data-name="Path 1768" d="M1390.35,700.164s5.595-1.169,8.642-.964,9.913,2.012,16.954,8.887,25.382,29.094,25.382,29.094.816,6.246-5.323,13.193-11.872,6.96-11.872,6.96L1396.917,734.8Z" transform="translate(-770.051 -387.235)" fill="#f4a741"/>
        <path id="Path_1769" data-name="Path 1769" d="M1524.4,749.776l19.287-28.108.058-20.648s4.274,1.432,5.974,8.084,3.819,14.4,2.971,20.077-14.277,39.971-21.469,44.825S1524.4,749.776,1524.4,749.776Z" transform="translate(-844.29 -388.256)" fill="#f7a491"/>
        <g id="_Group_45" data-name="&lt;Group&gt;" transform="translate(592.985 298.496)">
          <path id="_Path_70" data-name="&lt;Path&gt;" d="M1329.13,674.148l3.766,23.758,23.548-1.258-3.377-27.608Z" transform="translate(-1329.13 -669.04)" fill="#f7a491"/>
        </g>
        <g id="_Group_46" data-name="&lt;Group&gt;" transform="translate(572.122 274.457)">
          <path id="_Path_71" data-name="&lt;Path&gt;" d="M1287.392,615.16s-5.612,8.521-4.974,9.369,4.769,1.593,4.769,1.593Z" transform="translate(-1282.367 -615.16)" fill="#f47458"/>
        </g>
        <g id="_Group_47" data-name="&lt;Group&gt;" transform="translate(576.698 249.782)">
          <path id="_Path_72" data-name="&lt;Path&gt;" d="M1308.656,560.967c-11.359,2.4-14.638,7.388-15.709,25.431-1.115,18.855.807,24.784,3.284,27.322,1.673,1.713,10.966,2.021,15.655.732,5.867-1.62,19.122-6.318,25.333-15.8,7.308-11.154,9.227-26.283,1.406-32.489C1327.618,557.433,1313.283,559.99,1308.656,560.967Z" transform="translate(-1292.623 -559.853)" fill="#f7a491"/>
        </g>
        <path id="Path_1770" data-name="Path 1770" d="M1329.59,681.521a46.949,46.949,0,0,0,5.983-1.521,10.57,10.57,0,0,1-5.706,3.288Z" transform="translate(-736.399 -376.614)" fill="#f47458"/>
        <g id="_Group_48" data-name="&lt;Group&gt;" transform="translate(571.122 234.059)">
          <g id="_Group_49" data-name="&lt;Group&gt;">
            <path id="_Path_73" data-name="&lt;Path&gt;" d="M1285.307,547.173a21.313,21.313,0,0,0,4.943,2.017c2.771.8,2.351,1.847,2.739,4.377a10.292,10.292,0,0,0,3.123,6c1.075.973,1.883,1.066,2.231,2.565a22.574,22.574,0,0,1,.067,4.725c.031,3.123,2.03,5.51,3.007,1.338,0,0,1.784-6.969,7.669-6.094s6.394,7.5,3.569,12.693c-1.7,3.159-6.246,2.333-6.246,2.333a20.492,20.492,0,0,0,6.135,15.8s5.849,4.337,14.946-.165a119.681,119.681,0,0,0,10.44-15.87c4.078-7.089,7.585-15.789,6.2-24.128a15.471,15.471,0,0,0-3.948-8.272c-1.584-1.637-1.463-1.95-1.9-4.172a8.031,8.031,0,0,0-11.118-5.912c0-2.909-2.467-5.412-5.273-6.166a12.7,12.7,0,0,0-8.477,1.164,9.338,9.338,0,0,0-15.687-.981,4.994,4.994,0,0,0-3.935-2.271,11.882,11.882,0,0,0-4.631.736,17.659,17.659,0,0,0-3.6,1.526,11.51,11.51,0,0,0-5.126,12.448A10,10,0,0,0,1285.307,547.173Z" transform="translate(-1280.126 -524.613)" fill="#fa7167"/>
          </g>
        </g>
        <g id="_Group_50" data-name="&lt;Group&gt;" transform="translate(628.962 248.801)">
          <g id="_Group_51" data-name="&lt;Group&gt;">
            <path id="_Path_74" data-name="&lt;Path&gt;" d="M1410.318,563.608l6.795-4.015a3.946,3.946,0,0,0-6.795,4.015Z" transform="translate(-1409.768 -557.653)" fill="#fa7167"/>
          </g>
        </g>
        <g id="_Group_52" data-name="&lt;Group&gt;" transform="translate(539.111 401.86)">
          <path id="_Path_75" data-name="&lt;Path&gt;" d="M1360.884,1345.841l.147,1.526a27.756,27.756,0,0,1,.156,6.054c-.165,1.4-.571,3.284-1.865,4.051a16.858,16.858,0,0,1-4.435,1.735,15.5,15.5,0,0,1-10.261-1.008c-2.677-1.3-4.761-3.328-7.656-4.136a59.145,59.145,0,0,0-9.075-1.5,20.026,20.026,0,0,1-4.015-.736,18.2,18.2,0,0,1-2.887-1.3,28.984,28.984,0,0,1-8.575-6.246,13.518,13.518,0,0,1-3.065-6.117c-.263-1.339-.808-5.2,1.423-5.1,10.926.491,21.745,2.833,32.681,2.7a12.027,12.027,0,0,1,2.124.089,8.823,8.823,0,0,1,3.672,1.718,3.81,3.81,0,0,0,3.351.816,16.57,16.57,0,0,1,5.671.085,2.657,2.657,0,0,1,1.954,1.338,2.921,2.921,0,0,1,.165.83Q1360.625,1343.231,1360.884,1345.841Z" transform="translate(-1264.161 -1140.172)" fill="#1a2e35"/>
          <g id="_Group_53" data-name="&lt;Group&gt;" transform="translate(80.572 190.981)">
            <path id="_Path_76" data-name="&lt;Path&gt;" d="M1404,1330.377l-.567,8.236c-.531,3.123-11.216,5.055-13.42-.491l-1.044-9.342Z" transform="translate(-1388.97 -1328.78)" fill="#c76668"/>
          </g>
          <path id="_Path_77" data-name="&lt;Path&gt;" d="M1263.313,1405.347a82.6,82.6,0,0,1,1.981,8.031c.531,2.971,1.285,7.933.2,10.132s-5.158,3.569-11.417,3.36c-4.056-.125-10.44,2.49-14.826,4.805-4.524,2.4-13.831,3.181-18.56,2.516-5.559-.776-11.256-4.14-12.1-6.465s.4-4.7,13.657-10c.12-.049,18.39-5.537,24.9-12.407Z" transform="translate(-1208.377 -1180.19)" fill="#1a2e35"/>
          <path id="_Path_78" data-name="&lt;Path&gt;" d="M1311.536,1393.481s-.1,3.632-.125,5.706-2.547,5.113-8.887,4.743c-4.462-.259-7.531-1.53-7.272-5.193l.116-5.287Z" transform="translate(-1256.484 -1173.616)" fill="#c76668"/>
          <g id="_Group_54" data-name="&lt;Group&gt;" transform="translate(26.931)">
            <path id="_Path_79" data-name="&lt;Path&gt;" d="M1341.722,1030.041c-1.878-16.035-3.284-25.226-3.284-25.226s.321-22.308,1.629-43.148c1.414-22.49,1.1-50.808,1.651-56.412,0,0-72.25-15.432-72.839,10.618-.678,30.276,1.339,92.911,1.785,101.067.6,11.453.629,23.356,2.574,41.938,1.919,18.341,7.478,61.672,7.478,61.672,8.2,4.671,16.169.031,16.169.031s6.286-51.915,6.045-65.138a180.569,180.569,0,0,0-2.739-28.554l5.693-58.767s2.231,18.167,2.833,29.62,2.173,18.439,5,39.748c2.454,18.484,8.687,57.5,8.687,57.5a14.613,14.613,0,0,0,15.365-.616S1343.6,1046.075,1341.722,1030.041Z" transform="translate(-1268.74 -900.718)" fill="#00dfbf"/>
            <path id="_Path_80" data-name="&lt;Path&gt;" d="M1341.722,1030.041c-1.878-16.035-3.284-25.226-3.284-25.226s.321-22.308,1.629-43.148c1.414-22.49,1.1-50.808,1.651-56.412,0,0-72.25-15.432-72.839,10.618-.678,30.276,1.339,92.911,1.785,101.067.6,11.453.629,23.356,2.574,41.938,1.919,18.341,7.478,61.672,7.478,61.672,8.2,4.671,16.169.031,16.169.031s6.286-51.915,6.045-65.138a180.569,180.569,0,0,0-2.739-28.554l5.693-58.767s2.231,18.167,2.833,29.62,2.173,18.439,5,39.748c2.454,18.484,8.687,57.5,8.687,57.5a14.613,14.613,0,0,0,15.365-.616S1343.6,1046.075,1341.722,1030.041Z" transform="translate(-1268.74 -900.718)" fill="#fa4067"/>
            <path id="_Path_81" data-name="&lt;Path&gt;" d="M1379.435,990.61s-5.01,8.258-20.2,14.313l-4.225,14.188-.446,24.931c-.58-8.031-1.468-16.811-2.6-26.1l1.709-14.616S1370.441,998.244,1379.435,990.61Z" transform="translate(-1314.837 -950.504)" opacity="0.15"/>
          </g>
        </g>
        <g id="_Group_55" data-name="&lt;Group&gt;" transform="translate(565.592 312.882)">
          <g id="_Group_56" data-name="&lt;Group&gt;">
            <path id="_Path_82" data-name="&lt;Path&gt;" d="M1343.942,716.7c-2.9-10.328-9.722-14.893-17.284-15.37-1.923-.125-5.827.04-5.827.04.535,4.377-12.938,7.464-23.432,4.992-3.159.83-8.392,2.017-11.024,2.891-7.536,2.5-16.575,11.926-17.748,36.5,0,0-1.2,52.829-.825,68.172,18.609,7.852,36.584,8.834,47.413,6.719,22.575-4.4,26.287-14.076,26.287-14.076s-.214-13.425-1.053-34.831C1344.277,741.312,1345.2,721.177,1343.942,716.7Z" transform="translate(-1267.73 -701.285)" fill="#feb545"/>
          </g>
        </g>
        <path id="Path_1771" data-name="Path 1771" d="M1198.776,814.149c4.341,3.083,6.246,6.4,6.594,11.756.312,4.8.308,10.007,2.561,14.357.37.718,2.333,2.333,3.123,2.11v-6.139c1.249-1.588,4.667-4.546,5.55-6.362,1.481-3.029-.245-6.741.643-9.994.388-1.414,1.115-2.525,1.133-4.042.04-3.569-.964-6.964-3.757-9.253a127.014,127.014,0,0,1-9.262-9.021c-3.868-3.89-9.244-9.615-13.117-13.509l25.988-24.927a37.919,37.919,0,0,0,7.411-9.86c4.243-8.174,10.07-22.513,3.569-30.115-9.267,0-14.531,1.419-23.99,12.452-8.156,9.521-34.215,40.729-37.566,46.021s-5.274,8.923,1.151,14.781c4.462,4.1,10.819,8.517,16.392,12.528C1189.59,808.073,1194.381,811.035,1198.776,814.149Z" transform="translate(-644.999 -398.297)" fill="#f7a491"/>
        <path id="Path_1772" data-name="Path 1772" d="M1216.728,864.62a29.264,29.264,0,0,1-7.968,5.456s6.045-.772,9.771-3.627Z" transform="translate(-669.478 -478.865)" fill="#f47458"/>
        <path id="Path_1773" data-name="Path 1773" d="M1257.1,717.2a45.32,45.32,0,0,0-11.216.839c-5.622,1.222-9.4,4.082-19.158,15.1s-16.583,20.077-16.583,20.077-2.815,6.224,5.019,13.251,14.861,5.822,14.861,5.822l21.893-21.3S1267.514,734.618,1257.1,717.2Z" transform="translate(-669.969 -397.186)" fill="#f4a741"/>
      </g>
    </g>
  </g>
</svg>
