<svg xmlns="http://www.w3.org/2000/svg" width="18.637" height="18.641" viewBox="0 0 18.637 18.641">
  <g id="Chalkmate_Search" transform="translate(-0.033 -0.013)">
    <path id="Path_210" data-name="Path 210" d="M4.711,11.574c-.113-.222-.193-.387-.277-.547a7.352,7.352,0,0,1-.8-4.507A7.315,7.315,0,0,1,7.075,1.207a7.494,7.494,0,0,1,9.3.944A7.336,7.336,0,0,1,18.558,6.3,7.523,7.523,0,0,1,15,14.072a7.209,7.209,0,0,1-7.253.222c-.711-.354-.726-.255-1.174.2q-1.641,1.652-3.289,3.3a3.2,3.2,0,0,1-.974.718A1.614,1.614,0,0,1,.077,17.431,1.594,1.594,0,0,1,.19,16.406,2.947,2.947,0,0,1,.9,15.425q1.685-1.685,3.37-3.377C4.412,11.906,4.544,11.757,4.711,11.574ZM16.694,7.581A5.576,5.576,0,0,0,5.543,7.556a5.509,5.509,0,0,0,5.587,5.6A5.521,5.521,0,0,0,16.694,7.581Z" fill="#fff"/>
    <path id="Path_211" data-name="Path 211" d="M11.454,3.06a4.8,4.8,0,0,1,1.681.292,1.8,1.8,0,0,1,.35.164.729.729,0,0,1,.339.81.742.742,0,0,1-.769.591,2.589,2.589,0,0,1-.536-.124,3.479,3.479,0,0,0-2.33.08A3.337,3.337,0,0,0,8.522,6.345c-.066.113-.113.233-.179.343a.784.784,0,0,1-1.036.361.773.773,0,0,1-.361-1.036A4.715,4.715,0,0,1,8.081,4.391,4.9,4.9,0,0,1,11.454,3.06Z" fill="#fff"/>
  </g>
</svg>
