<svg id="Chalkmate_Share" xmlns="http://www.w3.org/2000/svg" width="19.492" height="19.491" viewBox="0 0 19.492 19.491">
  <path id="Path_70" data-name="Path 70" d="M186.4,386.1v3.916a.634.634,0,0,0,.436.6.67.67,0,0,0,.2.032.633.633,0,0,0,.511-.258l2.291-3.115Z" transform="translate(-179.352 -371.158)" fill="#858585"/>
  <path id="Path_71" data-name="Path 71" d="M19.281,11.054a.6.6,0,0,0-.637-.048L.376,20.969a.64.64,0,0,0-.324.613.631.631,0,0,0,.412.553l5.075,1.815,10.817-9.656L7.987,24.822,16.5,27.859a.564.564,0,0,0,.2.036.6.6,0,0,0,.316-.092.647.647,0,0,0,.286-.45l2.234-15.683A.663.663,0,0,0,19.281,11.054Z" transform="translate(-0.05 -10.936)" fill="#858585"/>
</svg>
