<svg xmlns="http://www.w3.org/2000/svg" xmlns:xlink="http://www.w3.org/1999/xlink" width="20" height="20" viewBox="0 0 20 20">
  <defs>
    <clipPath id="clip-path">
      <rect id="_1023758" data-name="1023758" width="20" height="20" transform="translate(508.864 14.509)" fill="#858585" opacity="0.4"/>
    </clipPath>
  </defs>
  <g id="Group_2092" data-name="Group 2092" transform="translate(-508.864 -14.509)">
    <g id="Mask_Group_79" data-name="Mask Group 79" clip-path="url(#clip-path)">
      <g id="Chalkmate_Smiley" transform="translate(505.531 11.176)">
        <path id="Path_470" data-name="Path 470" d="M23.26,12.166a9.829,9.829,0,0,0-3.6-6.573,9.714,9.714,0,0,0-4.724-2.135c-.271-.042-.542-.062-.812-.094-.057-.005-.115-.021-.172-.031H12.7c-.187.026-.37.047-.557.073A9.852,9.852,0,0,0,5.729,6.838a9.425,9.425,0,0,0-2.266,4.87,9.787,9.787,0,0,0,2.818,8.713,9.524,9.524,0,0,0,4.8,2.656A9.988,9.988,0,0,0,23.057,15.63c.115-.49.161-1,.24-1.5.01-.057.021-.115.036-.172v-1.25C23.307,12.526,23.281,12.349,23.26,12.166ZM13.312,22.13a8.8,8.8,0,1,1,8.817-8.8A8.812,8.812,0,0,1,13.312,22.13Z" fill="#858585"/>
        <path id="Path_471" data-name="Path 471" d="M16.7,15.083a.641.641,0,0,0-.661.26c-.031.042-.068.078-.1.12a5.973,5.973,0,0,1-.6.656,2.926,2.926,0,0,1-3.828.2,4.138,4.138,0,0,1-.953-.974.624.624,0,0,0-.651-.276.64.64,0,0,0-.484.38.665.665,0,0,0,.068.635,4.932,4.932,0,0,0,.958,1.052,4.37,4.37,0,0,0,2.854,1.1h.016a4.805,4.805,0,0,0,3.818-2.187.57.57,0,0,0,.083-.458A.643.643,0,0,0,16.7,15.083Z" fill="#858585"/>
        <path id="Path_472" data-name="Path 472" d="M10.869,10.755a.977.977,0,1,0-.984.974A.978.978,0,0,0,10.869,10.755Z" fill="#858585"/>
        <path id="Path_473" data-name="Path 473" d="M16.729,9.781a.977.977,0,1,0,.974.984A.974.974,0,0,0,16.729,9.781Z" fill="#858585"/>
      </g>
    </g>
  </g>
</svg>
