<svg xmlns="http://www.w3.org/2000/svg" width="766" height="766" viewBox="0 0 766 766">
  <g id="Group_2250" data-name="Group 2250" transform="translate(18006 13120)">
    <rect id="Rectangle_406" data-name="Rectangle 406" width="766" height="766" transform="translate(-18006 -13120)" fill="#fff" opacity="0"/>
    <g id="Group_2249" data-name="Group 2249" transform="translate(325.012 -989.347)">
      <g id="Group_2248" data-name="Group 2248" transform="translate(-17782.584 -12058.595)">
        <path id="Path_1573" data-name="Path 1573" d="M1730.113,565.194l-2.479-11.281s-8.116,5.15-12.848,12.507-6.989,26.976-8.342,27.712-16.331-22.344-18.949-25.98c-3.238-4.5-4.449-9.664-6.48-13.588s-9.17-5.261-11.879-4.771,3.713,11.967,3.713,11.967,16.232,28.2,21.642,43.649,22.317,22.807,25.022,20.6S1730.113,565.194,1730.113,565.194Z" transform="translate(-1627.572 -340.117)" fill="#dda4d5"/>
        <path id="Path_1574" data-name="Path 1574" d="M1682.4,559.365s-.674-2.97-2.495-3.579a12.79,12.79,0,0,0-5.2,0A36.675,36.675,0,0,1,1671,554l2.9,5.4s5.671,6.679,7.56,4.181S1682.4,559.365,1682.4,559.365Z" transform="translate(-1629.133 -342.771)" fill="#dda4d5"/>
        <path id="Path_1575" data-name="Path 1575" d="M1665.74,554.59s-2.046,10.415-1.533,12.6,1.824,1.016,2.069.54c1-1.958,1.709-8.641,1.709-8.641Z" transform="translate(-1624.893 -343.135)" fill="#dda4d5"/>
        <path id="Path_1576" data-name="Path 1576" d="M1673.782,572.12s-.973,6.461-1.977,7.223c-.651.494-1.487.2-1.755-1.1s1.3-9.269,1.3-9.269Z" transform="translate(-1628.529 -352.005)" fill="#dda4d5"/>
        <path id="Path_1577" data-name="Path 1577" d="M1674.235,574.687l3.4-1.655-14.431-29.6h0a3.782,3.782,0,0,0-1.74,5.054Z" transform="translate(-1623.016 -336.252)" fill="#184655"/>
        <path id="Path_1578" data-name="Path 1578" d="M1786.6,399.885c-2.039-9.258-4.031-18.573,1.337-28.739a26.107,26.107,0,0,1,20.547-14c24.631-2.924,19.366,20.071,53.792,25.049,10.695,1.533,20.635,3.031,29.563,8.354,16.129,9.607,22.225,25.015,11.523,50.117-26.191,61.471-90.471,9.288-98.411-2.816C1799.058,428.843,1787.922,405.844,1786.6,399.885Z" transform="translate(-1699.131 -221.193)" fill="#fa7167"/>
        <path id="Path_1579" data-name="Path 1579" d="M2022.578,1482.41s1.755,17.807,6.265,21.075,10.519,15.366,7.514,21.907a7.56,7.56,0,0,1-4.958,3.882,13.143,13.143,0,0,1-15.768-7.388,37.507,37.507,0,0,1-3.1-13.576c-.675-14.469-5.185-21.842-5.185-21.842Z" transform="translate(-1836.598 -915.425)" fill="#f4c6eb"/>
        <path id="Path_1580" data-name="Path 1580" d="M1796.756,1501.43s-1.422,17.968-.268,23.808c.617,3.127,4.058,9.58,2.479,12.5a8.052,8.052,0,0,1-3.383,3.679l-40.9.659c-2.226.034-.766-1.395,1.042-2.713,2.939-2.157,5.315-3.583,14.707-8.12.609-.3,2.839-1.709,3.644-2.2a28.278,28.278,0,0,0,5.851-5.158c2.935-3.261,3.192-19.087,3.192-19.087Z" transform="translate(-1680.057 -927.157)" fill="#f4c6eb"/>
        <path id="Path_1581" data-name="Path 1581" d="M1778.17,870.86s-5.15,29.172-1.771,48.282,19.612,196.411,19.612,196.411l18.037,1.016s3.782-74.055,3.1-84.355-6.027-27.532-6.027-27.532l1.793-59.777L1790.16,866.35Z" transform="translate(-1693.438 -535.433)" fill="#fa4067"/>
        <path id="Path_1582" data-name="Path 1582" d="M1839.589,851.452s14.2,21.332,17.585,38.986-2.483,71.913,4.023,95.05c3.521,12.523,16.86,31.866,18.9,48.048s10,58.574,10,58.574l-18.01,3.568-41.9-105.871-32.866-95.694-8.43-49.282Z" transform="translate(-1701.85 -522.159)" fill="#fa7167"/>
        <path id="Path_1583" data-name="Path 1583" d="M1823.413,545.35s12.438,1.41,19.876,9.5-12.024,73.132-13.377,83.435S1841,672.611,1841,672.611s-46.473,8.591-59.1.253c0,0-1.353-74.059,0-81.412s12.622-37.276,15.328-40.235S1823.413,545.35,1823.413,545.35Z" transform="translate(-1697.168 -337.436)" fill="#619aff"/>
        <path id="Path_1584" data-name="Path 1584" d="M1775.65,578.982a6.533,6.533,0,0,0-8.813-3.855c-4.8,2.077-11.431,6.016-14.668,12.768-5.411,11.281-24.348,50.025-30.207,51.5s-29.758-40.235-29.758-40.235.674-7.357-1.353-11.526-8.116-8.583-9.016-7.112,3.38,5.15,3.38,5.886-1.8,1.226-4.284-.245a11.173,11.173,0,0,1-3.832-4.445s-4.069,7.388.215,14.009,6.089,9.319,6.089,9.319,27.727,61.548,37.87,62.283C1730.733,668.031,1785.146,607.69,1775.65,578.982Z" transform="translate(-1631.818 -355.461)" fill="#f4c6eb"/>
        <path id="Path_1585" data-name="Path 1585" d="M1847.81,479.238s.1.552.272,1.494c.835,4.51,4.066,19.477,6.246,23.593,2.636,4.981-9.024,20.83-20.244,18.9-3.341-.579,2.824-14.561,2.525-16.056-.567-2.836-1.333-6.71-2.123-10.68-.441-2.238-.893-4.506-1.314-6.641L1831,478.82Z" transform="translate(-1727.824 -296.399)" fill="#f4c6eb"/>
        <path id="Path_1586" data-name="Path 1586" d="M1848.082,480.732c-.176-.943-.272-1.494-.272-1.494L1831,478.82l2.18,11.024c.421,2.119.866,4.376,1.307,6.606a15.887,15.887,0,0,0,8.047-4.02,21.154,21.154,0,0,0,6.081-9.024C1848.385,482.338,1848.213,481.43,1848.082,480.732Z" transform="translate(-1727.824 -296.399)" fill="#d142b3"/>
        <path id="Path_1587" data-name="Path 1587" d="M1820.69,375.6a19.83,19.83,0,0,1,11.825,7.365c4.981,6.411,10.323,26.245-2.019,37.024s-24.524-1.422-26.344-14.362S1802.711,375.128,1820.69,375.6Z" transform="translate(-1710.82 -232.724)" fill="#f4c6eb"/>
        <path id="Path_1588" data-name="Path 1588" d="M1793.308,431.051c1.471,2.859,3.943,4.441,5.522,3.537s1.663-3.958.188-6.817-3.947-4.441-5.522-3.533S1791.837,428.2,1793.308,431.051Z" transform="translate(-1703.928 -262.574)" fill="#f4c6eb"/>
        <path id="Path_1589" data-name="Path 1589" d="M1843,374.507s10.587,18.857,18.163,19.73,8.568,10.89,8.568,10.89-2.706-23.091-10.208-27.544S1843,374.507,1843,374.507Z" transform="translate(-1735.225 -231.935)" fill="#fa7167"/>
        <path id="Path_1590" data-name="Path 1590" d="M1883.747,429.441c-.613,3.349.625,6.422,2.771,6.863s4.38-1.916,4.981-5.269-.625-6.422-2.767-6.859S1884.345,426.108,1883.747,429.441Z" transform="translate(-1760.262 -262.662)" fill="#f4c6eb"/>
        <path id="Path_1591" data-name="Path 1591" d="M2025.75,1563.852c9.825,1.79,16.362-3.947,19.765-8.242,2.5,4.866,4.027,10.936,2.192,14.944-1.617,3.518-6.024,4.483-9.745,4.621a10.576,10.576,0,0,1-9.58-5.334A32.783,32.783,0,0,1,2025.75,1563.852Z" transform="translate(-1847.947 -960.576)" fill="#0caf7d"/>
        <path id="Path_1592" data-name="Path 1592" d="M1769.357,1572.022c10.814,2.771,18.811.889,23.282-.912,1.15,3.261,2.682,7.353,1.87,9.714-.993,2.889-2.406,3.545-3.656,3.575-9.879.26-36.188.613-43.722.713a1.23,1.23,0,0,1-.954-2.02C1748.044,1580.862,1768.541,1572.516,1769.357,1572.022Z" transform="translate(-1675.328 -970.137)" fill="#0caf7d"/>
        <path id="Path_1593" data-name="Path 1593" d="M1722.491,217.52l11.806,35.41-34.337-35.41Z" transform="translate(-1646.996 -135.227)" fill="#fae0b2"/>
        <rect id="Rectangle_388" data-name="Rectangle 388" width="143.443" height="88.229" rx="44.115" fill="#fae0b2"/>
        <path id="Path_1598" data-name="Path 1598" d="M1648.49,107.1a7.2,7.2,0,1,1-7.185-6.706A6.958,6.958,0,0,1,1648.49,107.1Z" transform="translate(-1606.385 -62.979)" fill="#fff"/>
        <path id="Path_1599" data-name="Path 1599" d="M1744.329,107.1a7.2,7.2,0,1,1-7.185-6.706A6.958,6.958,0,0,1,1744.329,107.1Z" transform="translate(-1665.5 -62.979)" fill="#fff"/>
        <path id="Path_1600" data-name="Path 1600" d="M1840.17,107.1a7.2,7.2,0,1,1-7.185-6.706A6.96,6.96,0,0,1,1840.17,107.1Z" transform="translate(-1724.615 -62.979)" fill="#fff"/>
      </g>
      <g id="Group_2245" data-name="Group 2245" transform="translate(-18145.811 -12029.63)">
        <path id="Path_1572" data-name="Path 1572" d="M832.458,290.784,792.94,325.826l8.633-36.146Z" transform="translate(-691.232 -208.7)" fill="#ffdc60"/>
        <rect id="Rectangle_386" data-name="Rectangle 386" width="143.443" height="88.229" rx="44.115" transform="translate(49.121)" fill="#ffdc60"/>
        <path id="Path_1618" data-name="Path 1618" d="M590.418,395.233s-24.106-6.192-26.984,19.466,10.177,29.636,3.1,42.02-15.036,3.1-16.569,38.265,79.082,77.883,100.323,57.007c69.062-67.874-12.89-95.525-9.58-116.313s-6.158-38.441-18.776-45.96S593.3,382.186,590.418,395.233Z" transform="translate(-541.35 -267.264)" fill="#4951ec"/>
        <path id="Path_1619" data-name="Path 1619" d="M839.693,1549.556s-.437,6.69,2.974,10.492,16.094,5.821,17.788,10.147-12.775,4.6-17.627,3.269-17.508-2.368-20.692-2.541,4.073-21.213,4.721-21.792S839.693,1549.556,839.693,1549.556Z" transform="translate(-708.746 -985.434)" fill="#f4c6eb"/>
        <path id="Path_1620" data-name="Path 1620" d="M647.846,1539.72s3.142,14.124,2.843,19.577-6.932,13.91-12.036,13.63-9.323-3.686-8.078-10.323,5.1-22.394,5.1-22.394Z" transform="translate(-590.949 -979.739)" fill="#f4c6eb"/>
        <path id="Path_1621" data-name="Path 1621" d="M560.73,717.735s-3.253-107.588,1.855-112.7c2.046-2.046,18.776-7.564,30.191-9.442a134.3,134.3,0,0,1,30.494-1.609S640.7,614.872,640.7,622.62s1.111,95.947,1.111,95.947c13.488,4.981,34.361,94.314,35.924,117.332s-1.82,130.085-1.82,130.085l-19.642-2.13c-10.729-16.818-15.55-105.377-18.684-116.39-4.326-15.213-24.631-61.789-24.631-61.789L602.5,781.111s2.422,70.212,1.533,86.39.123,94.559.123,94.559l-19.7-1.077c-15.423-27.655-26.44-155.268-26.076-161.951s-6.441-17.627-7.867-36.786C549.391,747.168,560.73,717.735,560.73,717.735Z" transform="translate(-541.654 -396.243)" fill="#fa4067"/>
        <rect id="Rectangle_389" data-name="Rectangle 389" width="34.939" height="3.698" transform="translate(88.49 322.427) rotate(180)" fill="#fff"/>
        <rect id="Rectangle_390" data-name="Rectangle 390" width="11.22" height="6.1" rx="3.05" transform="translate(76.838 323.913) rotate(180)" fill="#ffdc60"/>
        <path id="Path_1622" data-name="Path 1622" d="M563.81,723.081s-2.889-95.544,1.054-110.826c5.112-3.449,21.382-9.541,25.367-9.856-.728,7.855,6.4,52.041,13.714,74.722,4.617,14.327,3.935,31.9,2.192,45.55h0a186.363,186.363,0,0,1-4.667,23.861c-.422.13-11.266,5.951-30.111,5.951-.8-.046-7.863-.513-15.929-1.77A220.557,220.557,0,0,1,563.81,723.081Z" transform="translate(-544.734 -401.59)" fill="#001c41" opacity="0.38"/>
        <path id="Path_1623" data-name="Path 1623" d="M728.351,742.648c-.414-1.36,2.79-16.9,3.79-24.934h.023c6.625-53.8.659-122.325.567-123.364h0c.383.383,1.533,1.674,3.066,3.51,4.679,5.962,13.641,18.044,14.542,24.2,0,.184.027.383.027.536v.169c0,.969,0,2.9.042,5.575,0,.521.023,1.065.061,1.629.222,22.689,1.058,88.976,1.058,88.976,4.357,1.605,9.484,12.013,14.481,26.145C749.779,746.112,729.5,746.407,728.351,742.648Z" transform="translate(-651.371 -396.624)" fill="#001c41" opacity="0.38"/>
        <path id="Path_1624" data-name="Path 1624" d="M527.52,736.561c-.031,13.488,36.284,14.442,53.547,6.69l-1.878-58.478-5.924-83.294s-21.8,4.326-29.245,9.4c0,0-2.406,86.6-4.522,104.227S527.535,730.407,527.52,736.561Z" transform="translate(-527.52 -401.022)" fill="#e09379"/>
        <path id="Path_1625" data-name="Path 1625" d="M759.291,599.047s8.518,68.955,8.518,86.922,3.4,48.964,3.4,48.964S752.819,741.98,740,738.807c0,0,12.185-69.173,12.185-73.687s-12.35-70.84-12.35-70.84S751.566,594.908,759.291,599.047Z" transform="translate(-658.48 -396.581)" fill="#e09379"/>
        <path id="Path_1626" data-name="Path 1626" d="M818.81,1553.444l23.834,1.548.027-6.166-24.811-1.356Z" transform="translate(-706.604 -984.521)" fill="#db2a54"/>
        <path id="Path_1627" data-name="Path 1627" d="M630.568,1543.123l23.639,1.548.134-6.135-24.811-1.357Z" transform="translate(-590.439 -978.173)" fill="#db2a54"/>
        <path id="Path_1628" data-name="Path 1628" d="M823.492,1574.49c1.878,2.376,8.009,7.242,25.957,5.089,4.675,1.885,9.963,3.682,11.017,6.369,1.705,4.326-12.775,4.6-17.627,3.269s-17.508-2.368-20.692-2.541C820.423,1586.564,821.787,1580.291,823.492,1574.49Z" transform="translate(-708.758 -1001.187)" fill="#4951ec"/>
        <path id="Path_1629" data-name="Path 1629" d="M650.679,1578.011c-.3,5.449-6.932,13.91-12.036,13.63s-9.323-3.686-8.078-10.323c.418-2.23,1.15-5.5,1.916-8.856.648,4.139,2.571,11.185,8.016,8.748,5.89-2.64,8.5-8.759,9.526-11.151A46.859,46.859,0,0,1,650.679,1578.011Z" transform="translate(-590.943 -998.454)" fill="#4951ec"/>
        <path id="Path_1630" data-name="Path 1630" d="M777.128,885.731c-6.9-.353-15.665-.793-24.3-1.219.513-2.989,1.038-6.066,1.563-9.143l22.079,1.149C776.653,879.593,776.89,882.716,777.128,885.731Z" transform="translate(-666.492 -569.961)" fill="#001653" opacity="0.18"/>
        <path id="Path_1631" data-name="Path 1631" d="M598.718,881.081H598.6c-5.365,0-26.21,5.69-33.782,5.69a14.722,14.722,0,0,1-7.165-1.862l.033-.2c.153-.824.287-1.694.383-2.625.054-.452.107-.95.165-1.491.272-2.606.475-5.556.655-8.338h39.545Z" transform="translate(-546.105 -568.043)" fill="#001653" opacity="0.18"/>
        <path id="Path_1632" data-name="Path 1632" d="M701.379,607.12s6.449,1.356,15.55,31.843,3.066,69.664-3.226,73.729-67.265,2.56-67.265,2.56l-.238-21.961s46.17-7.212,50.738-12.818c1.123-1.379-.8-7.281-.4-13.99C697.769,645.872,701.379,607.12,701.379,607.12Z" transform="translate(-600.723 -404.501)" fill="#e09379"/>
        <path id="Path_1633" data-name="Path 1633" d="M784.31,769.834s6.311-4.345,8.679-7.254,7.112-6.817,7.323-4.74-1.943,5.066-1.943,5.066,8.622-6.024,9.764-5.093,2.272,7.384,1.475,14.511S788.6,784.636,788.6,784.636Z" transform="translate(-685.91 -497.106)" fill="#f4c6eb"/>
        <path id="Path_1634" data-name="Path 1634" d="M552.174,730.281c21.987,3.667,68.4-12.672,87.214-18.585l-7.055-24.417s-55.424,15.328-62.686,12.074c-3.59-1.609-12.791-18.681-16.163-36.043-3.449-17.761-2.6-37.361-2.6-37.361s-15.933,20.83-11.434,64.927C542.877,724.525,542.5,728.664,552.174,730.281Z" transform="translate(-534.385 -416.116)" fill="#e6a088"/>
        <path id="Path_1635" data-name="Path 1635" d="M571.475,759.741s5.188,4.391,9.239,7.694,10.392,12.17,10.392,12.17-7.545,1.8-10.166,2.054-11.316-4.56-14.331-4.253-2.138-4.161,1.556-3.4,7.353,1.15,7.353,1.15-8.668-5.687-12.718-8.99-.766-5.8,2.541-3.1a32.476,32.476,0,0,0,6.9,4.215s-11.668-9.856-9.963-11.933S571.475,759.741,571.475,759.741Z" transform="translate(-548.123 -495.682)" fill="#f4c6eb"/>
        <path id="Path_1636" data-name="Path 1636" d="M676.988,518.8s1.242,17.427,2.862,21.229a5.663,5.663,0,0,0,2.13,2.487c4.6,3.066-3.6,41.879-7.767,41-4.5-.923-15.626-24.984-19.213-32.789a4.625,4.625,0,0,1,2.211-6.15h.027c3.87-1.717,1.019-33.659,1.019-33.659Z" transform="translate(-605.879 -345.164)" fill="#f4c6eb"/>
        <path id="Path_1637" data-name="Path 1637" d="M669.557,507.65a1.916,1.916,0,0,0-.82,1.862,25.688,25.688,0,0,0,2.809,8.43c5.56,11.112,10.565,15.626,16.094,16.389-.977-6.093-2.027-19.512-2.027-19.512Z" transform="translate(-614.611 -343.146)" fill="#ba5aac"/>
        <path id="Path_1638" data-name="Path 1638" d="M662.61,446.449s2.851-12.588,12.289-16.32,18.067-.927,21.344,11.392-1.464,31.858-7.2,37.855S663.323,475.323,662.61,446.449Z" transform="translate(-610.844 -294.385)" fill="#f4c6eb"/>
        <path id="Path_1639" data-name="Path 1639" d="M655.769,478.475s-4.729-7.327-7.633-3.089-.33,14.354,5.161,14.883S655.769,478.475,655.769,478.475Z" transform="translate(-601.172 -322.433)" fill="#f4c6eb"/>
      </g>
      <g id="Group_2246" data-name="Group 2246" transform="translate(-18324.012 -12059.652)">
        <rect id="Rectangle_385" data-name="Rectangle 385" width="143.443" height="88.229" rx="44.115" transform="translate(68.477)" fill="#fa4067"/>
        <path id="Path_1594" data-name="Path 1594" d="M264.7,187.46l-3.184,41.89,40.618-41.89Z" transform="translate(-161.309 -115.628)" fill="#fa4067"/>
        <path id="Path_1595" data-name="Path 1595" d="M265.45,104.336a7.2,7.2,0,1,1-7.185-6.706A6.96,6.96,0,0,1,265.45,104.336Z" transform="translate(-154.869 -60.22)" fill="#fff"/>
        <path id="Path_1596" data-name="Path 1596" d="M361.29,104.336A7.2,7.2,0,1,1,354.1,97.63,6.96,6.96,0,0,1,361.29,104.336Z" transform="translate(-213.984 -60.22)" fill="#fff"/>
        <path id="Path_1597" data-name="Path 1597" d="M457.12,104.336a7.2,7.2,0,1,1-7.185-6.706A6.958,6.958,0,0,1,457.12,104.336Z" transform="translate(-273.094 -60.22)" fill="#fff"/>
        <path id="Path_1640" data-name="Path 1640" d="M116.878,1493.225s-.054.548-.054,1.468c0,2.755.471,8.813,4.269,13.3,5.062,5.974,5.093,13.412-.257,14.672s-18.1-.406-18.1-.406-2.885-5.683-.916-20.861,3.111-31.8,3.111-31.8l14.542-2.6Z" transform="translate(-62.381 -904.862)" fill="#ff7446"/>
        <path id="Path_1641" data-name="Path 1641" d="M116.566,1550.954s5.388,8.3,6.648,11.771.992,12.074,0,12.959c-8.714,7.806-25.237.766-25.237.766a124.95,124.95,0,0,1-1.709-12.749c-.575-7.028-.253-13.573,1.709-13.573s2.3,3.686,6.775,2.644S111.979,1549.911,116.566,1550.954Z" transform="translate(-59.223 -956.139)" fill="#422f7f"/>
        <path id="Path_1642" data-name="Path 1642" d="M97.56,1594.68a52.838,52.838,0,0,0,12.162,3.916c4.525.732,10.622-1.552,15.22-3.851.238,3.682-.1,7.806-.766,8.4-8.714,7.806-25.237.766-25.237.766S98.154,1600.01,97.56,1594.68Z" transform="translate(-60.176 -983.617)" fill="#fff"/>
        <path id="Path_1643" data-name="Path 1643" d="M216.091,1492.358c-1.885,6.729-.019,14.132,4.813,18.577a25.309,25.309,0,0,0,5.8,4.058c8.465,4.2,19.428,3.253,20.953,11.879S194,1524.449,194,1524.449s3.832-20.972,4.077-24.482-.337-16.412-.337-16.412l21.317-1.736Z" transform="translate(-119.662 -914.004)" fill="#ff7446"/>
        <path id="Path_1644" data-name="Path 1644" d="M194.832,1547.519s-.674,3.33-2.219,8.974a27.628,27.628,0,0,0-.582,10.963s51.7,2.778,53.792.92,1.019-8.618.49-9.2-7.089-2.609-10.457-4.981-14.856-11.266-18.738-10.906-5.675,3.614-13.048,3.985S196.664,1545.895,194.832,1547.519Z" transform="translate(-118.264 -951.914)" fill="#422f7f"/>
        <path id="Path_1645" data-name="Path 1645" d="M245.817,1593.936c-2.092,1.859-53.792-.92-53.792-.92a27.776,27.776,0,0,1-.05-7.813c26.988,5.671,54.332-.483,54.332-.483C246.836,1585.318,247.909,1592.081,245.817,1593.936Z" transform="translate(-118.258 -977.474)" fill="#fff"/>
        <path id="Path_1646" data-name="Path 1646" d="M192.38,1585.223a124.726,124.726,0,0,0,54.332-.483c-28.141,4.821-50.834,1.084-49.263,1.265Z" transform="translate(-118.662 -977.486)" fill="#9cb9bd"/>
        <path id="Path_1647" data-name="Path 1647" d="M86.49,971.33l4.855,212.336,23.24-3.337s7.353-170.392,11.672-175.443,6.035.318,6.035.318,18.531,70.89,15.086,85.033-18.838,89.892-18.838,89.892l22.282,1.012s25.432-58.08,25.432-98.479-15.711-107.572-15.711-107.572Z" transform="translate(-53.348 -599.128)" fill="#4951ec"/>
        <rect id="Rectangle_391" data-name="Rectangle 391" width="26.835" height="6.25" transform="translate(101.135 581.887) rotate(180)" fill="#021753"/>
        <rect id="Rectangle_392" data-name="Rectangle 392" width="27.091" height="7.894" transform="translate(63.031 584.538) rotate(180)" fill="#021753"/>
        <path id="Path_1648" data-name="Path 1648" d="M103.71,1236.4a.5.5,0,0,0,.149,0,.813.813,0,0,0,.521-.962c-4.292-22.485-4.568-168.6-4.571-170.07a.766.766,0,0,0-.686-.8h0a.766.766,0,0,0-.686.808c0,6.024.28,147.761,4.6,170.419a.717.717,0,0,0,.674.609Z" transform="translate(-60.717 -656.633)" fill="#021753"/>
        <path id="Path_1649" data-name="Path 1649" d="M204.951,1232.164a.7.7,0,0,0,.644-.525c1.042-3.334,25.532-81.761,24.141-92.59-1.364-10.672-17.01-77.91-17.676-80.765a.686.686,0,0,0-.843-.567.831.831,0,0,0-.483.992c.161.7,16.289,70,17.627,80.581,1.337,10.423-23.823,90.98-24.076,91.793a.854.854,0,0,0,.41,1.035A.642.642,0,0,0,204.951,1232.164Z" transform="translate(-125.977 -652.4)" fill="#021753"/>
        <path id="Path_1650" data-name="Path 1650" d="M259.688,583.29l32.437,42.791-38.215,13.94Z" transform="translate(-156.615 -359.78)" fill="#0caf7d"/>
        <path id="Path_1651" data-name="Path 1651" d="M45.66,528.594c4.928-4.928,16.4-8.549,23.88-10.488a34.107,34.107,0,0,1,13.166-.766l16.83,2.3S121.4,533.694,129.6,541.891s15.615,59.54,15.615,59.54L141.5,621l4.276,86.129c-1.885,0-58.337,6.9-89.7-2.51,0,0,0-45.937-.866-73.837C51.538,609.569,39.138,535.116,45.66,528.594Z" transform="translate(-27.014 -318.905)" fill="#00d498"/>
        <path id="Path_1652" data-name="Path 1652" d="M46.159,536.9c2.583-2.41,6.564-4.349,9.817-5.7h0s6.215-3.407,11.856,19.849-1.533,51.546.977,54.03,57.417-.333,57.417-.333-32.088,18.443-47.745,31.889c-6.28,5.391-22.938,8.223-22.968,8.047-.046-1.828-.1-3.6-.149-5.307C53.608,629.161,38.6,543.947,46.159,536.9Z" transform="translate(-27.168 -327.542)" fill="#0caf7d"/>
        <path id="Path_1653" data-name="Path 1653" d="M303.313,665.774l-27.59,52.114a3.51,3.51,0,0,1-3.307,1.878l-32.763-1.943a3.56,3.56,0,0,1-3.108-4.767l16.9-47.565a3.525,3.525,0,0,1,3.1-2.353l43.442-2.606a3.56,3.56,0,0,1,3.318,5.242Z" transform="translate(-145.771 -407.421)" fill="#dde8fe"/>
        <path id="Path_1654" data-name="Path 1654" d="M229.827,717.145l17.109-47.132a3.568,3.568,0,0,1,3.146-2.334l1.694-.1a3.586,3.586,0,0,0-2.154,2.153L232.513,717.31a3.568,3.568,0,0,0,2.544,4.679l-2.085-.119a3.537,3.537,0,0,1-3.146-4.725Z" transform="translate(-141.633 -411.771)" fill="#619aff"/>
        <path id="Path_1655" data-name="Path 1655" d="M28.658,687.37l2.6,9.361S86.7,682.423,93.206,679.3c5.265-2.525,26.191-8.124,33.985-7.579a1.1,1.1,0,0,1,.2,2.177c-4.9,1.18-14.657,3.648-14.657,4.625,0,1.3,9.817,3.215,9.108,4.813-1.433,3.223-6.246,5.077-7.158,8.07s-10.879.648-14.289.648-66.644,38.38-85.773,29.283S7.069,671.8,7.069,671.8Z" transform="translate(-2.219 -414.302)" fill="#f99662"/>
        <path id="Path_1656" data-name="Path 1656" d="M335.2,739.35c1.268-1.268,1.2-4.391,2.682-5.855s3.065,1.494,3.449-1.824-1.95-8.457.326-8.2,5.4,9.63,5.4,9.63c1.64,3.832-5.729,18.09-9.626,17.117s-5.43-5.6-5.43-7.748S333.916,740.618,335.2,739.35Z" transform="translate(-204.781 -446.242)" fill="#f99662"/>
        <path id="Path_1657" data-name="Path 1657" d="M139.573,519.624h0l.08.054.038.023.061.042.046.031.13.084.054.035.157.1h.027l.042.027.038.027.084.054.046.031.349.226.069.046c2.077,1.356,6.514,4.3,11.45,7.76h0s2.05,8.223,1.073,13.492-3.027,6.932-5.955,5.748-8.43-8.974-9.679-8.537-9.722,11.1-13.841,9.442c-2.755-1.115-11.02-19.213-15.163-29.973l.881-.23a34.107,34.107,0,0,1,13.166-.766l16.833,2.3h0Z" transform="translate(-67.035 -318.905)" fill="#ffdc60"/>
        <path id="Path_1658" data-name="Path 1658" d="M164.007,470.446c-1.314,6.9-1.935,14.362-.747,18.692,0,0-2.732,11.821-9.541,12.4S134,481.2,134,481.2l14.178-22.279Z" transform="translate(-82.652 -283.067)" fill="#f99662"/>
        <path id="Path_1659" data-name="Path 1659" d="M179.941,481.31A22.449,22.449,0,0,1,162,464.346l3.449-5.426,15.83,11.526a77.359,77.359,0,0,0-1.337,10.863Z" transform="translate(-99.924 -283.067)" fill="#f26e5a" opacity="0.4"/>
        <path id="Path_1660" data-name="Path 1660" d="M194.242,374.191s6.671,41.848-5.261,46.676-28.065-2.916-29.268-17.117S161.552,360.6,194.242,374.191Z" transform="translate(-98.385 -228.622)" fill="#f99662"/>
        <path id="Path_1661" data-name="Path 1661" d="M160.769,352.666s22.754-6.706,24.091-.077-6.131,11.588-11.365,12.028-18.546-.245-22.608,4.556-11.293,26.984-11.293,26.984l-4.1,6.422s-1.671-11.683-7.56-18.826S125.355,364.315,131,355.9,155.615,353.1,160.769,352.666Z" transform="translate(-76.996 -215.676)" fill="#0b0754"/>
        <path id="Path_1662" data-name="Path 1662" d="M166.2,422.556s-2.165-5.863-5.365-5.027c-7.281,1.889-1.935,14.845.456,15.2C166.144,433.446,168.11,429.611,166.2,422.556Z" transform="translate(-96.934 -257.486)" fill="#f99662"/>
        <path id="Path_1663" data-name="Path 1663" d="M39.2,555.5c.238,13.887-7.281,54.85-7.281,54.85S2.767,609.76.425,607.419s5.165-64.157,18.041-72.806C33.843,524.252,38.963,542.1,39.2,555.5Z" transform="translate(0 -327.845)" fill="#00d498"/>
      </g>
      <g id="Group_2247" data-name="Group 2247" transform="translate(-17945.232 -12058.595)">
        <rect id="Rectangle_387" data-name="Rectangle 387" width="143.443" height="88.229" rx="44.115" fill="#feb545"/>
        <path id="Path_1601" data-name="Path 1601" d="M1108.7,750.406c7.606-2.192,7.813-.835,8.775-1.15,1.15-.364,10.346-12.825,10.346-12.825s27.39-36.533,28.793-38.564l8.637-47.274,25.949-.2s-10.84,51.048-11.9,53.577-44.45,47.132-48.14,51.209c0,0-2.376,6.595-4.016,10.676s-5.146,7.062-5.8,8.127a35.285,35.285,0,0,1-6.667,6.855c-3.6,2.851-1.7-1.586-1.7-1.586s5.572-6.537,4.92-6.928c-.5-.3-3.311,3.449-7.258,6.664-1.016.82-2.02,1.629-2.95,2.364-2.441,1.916-4.51.9-2.326-1.533a28.1,28.1,0,0,1,3.188-3.115,24.413,24.413,0,0,0,2.793-3.108,30.147,30.147,0,0,0,2.859-3.226c-.126-.035-.115-.671-1.226.165-1.33,1.008-3.61,3.8-5.706,5.123-1.184.766-3.552,2.472-3.552,2.472s-4.146,1.916-4.368,1.694c-1.192-1.15,1.18-3.249,2.951-4.05a19.155,19.155,0,0,1,3.353-2.836s4.215-4.717,3.487-5.365c-.318-.28-3.3,2.3-6.675,4.3-3.134,1.878-6.671,3.246-7.208,2.682-.916-.992,2.3-3.449,2.3-3.449s2.357-1.6,3.092-2.2c.862-.7,3.261-2.993,3.261-2.993s7.921-8.4,7.169-8.97-3.207-1.341-3.9-1-1.567,1.64-2.261,1.977a2.18,2.18,0,0,1-2.537-.671c-.579-.839,2-3.782,2-3.782A11.4,11.4,0,0,1,1108.7,750.406Z" transform="translate(-1087.064 -402.226)" fill="#f48c7f"/>
        <path id="Path_1602" data-name="Path 1602" d="M1206.238,1530.31s.924,16.308.927,16.343c.341,2.069,1.678,7.185,1.678,9.07,0,7.07-31.467-6-24.413-9.139.636-.284,3.981-2.429,4.192-4.836.322-3.709,1.15-11.212,1.15-11.212Z" transform="translate(-1141.529 -944.971)" fill="#f7a491"/>
        <path id="Path_1603" data-name="Path 1603" d="M1144.29,1572.139a113.577,113.577,0,0,0,11.17,2.7c3.782.54,8.771-4.012,11.45-2.782,2.947,1.353,2.648,14.688,2.648,14.688s-39.434,2.322-50.581-1.268C1114.57,1584.057,1129.189,1577.175,1144.29,1572.139Z" transform="translate(-1101.301 -970.592)" fill="#0b0754"/>
        <path id="Path_1604" data-name="Path 1604" d="M1387.233,1534.39s.92,16.312.927,16.343c.337,2.073,1.674,7.189,1.674,9.07,0,7.074-31.464-6-24.413-9.139.64-.284,4.981-4.027,5.184-6.434.322-3.709.153-9.61.153-9.61Z" transform="translate(-1253.168 -947.487)" fill="#f7a491"/>
        <path id="Path_1605" data-name="Path 1605" d="M1323.521,1576.22a113.127,113.127,0,0,0,11.174,2.705c3.786.54,8.771-4.016,11.446-2.786,2.947,1.357,3.066,13.542,3.066,13.542s-42.151,3.065-52.072.188C1292.682,1588.578,1308.42,1581.259,1323.521,1576.22Z" transform="translate(-1211.209 -973.108)" fill="#0b0754"/>
        <path id="Path_1606" data-name="Path 1606" d="M1227.377,920l-13.3,5.748L1186.1,1059.381l1.15,100.185,22.432.521s10.434-87.635,10.434-94.425,48.3-118.876,48.3-118.876Z" transform="translate(-1143.193 -568.524)" fill="#4951ec"/>
        <path id="Path_1607" data-name="Path 1607" d="M1320.61,931.941s9.8,102.963,9.8,120.321,7.947,114.5,7.947,114.5l22.485-.13s1.621-29.609,4.031-73.17c.383-6.821-.487-20.585,0-27.647,3.5-50.8,10.419-98.617,7.112-117.57-.529-3.065-1.533-11.028-3.475-13.028C1353.786,919.963,1320.61,931.941,1320.61,931.941Z" transform="translate(-1226.162 -573.132)" fill="#619aff"/>
        <path id="Path_1608" data-name="Path 1608" d="M1249,610.883l27.207-1.82s1.341-24.321,1.341-35.924c0-14.075,4.292-34.828,2.613-34.437-4.706,1.1-12.833,5.426-16.607,10.683C1250.51,567.571,1249,610.883,1249,610.883Z" transform="translate(-1181.992 -333.331)" fill="#fa7167"/>
        <path id="Path_1609" data-name="Path 1609" d="M1312.587,536.1s15.515,2.157,19.6,5.158c4.6,3.376,9.7,10.936,9.7,10.936s-19.048,90.049-19.083,105.2c-.027,11.726,4.127,40.507,4.127,40.507s-57.57,3.636-79.374-4.981c0,0,6.9-34.234,6.9-43.224s8.215-90.72,10.1-96.429c1.7-5.181,4.809-14.488,15.328-16.784S1312.587,536.1,1312.587,536.1Z" transform="translate(-1181.104 -331.269)" fill="#fa4067"/>
        <path id="Path_1610" data-name="Path 1610" d="M1369.854,471.607l3.832,25.149s-14.025,29.939-22.4,27.341c-7.028-2.177-2.705-28.67-2.705-28.67s3.832-14.228,2.682-21.344S1369.854,471.607,1369.854,471.607Z" transform="translate(-1242.604 -291.033)" fill="#f7a491"/>
        <path id="Path_1611" data-name="Path 1611" d="M1356.937,474.11c-1.15-7.12,18.581-2.475,18.581-2.475l.318,2.088a11.568,11.568,0,0,1-2.142,3.5,26.041,26.041,0,0,1-17.244,7.756C1357.044,481.141,1357.427,477.026,1356.937,474.11Z" transform="translate(-1248.268 -291.049)" fill="#f47458"/>
        <path id="Path_1612" data-name="Path 1612" d="M1360.418,368.545c.559-.2,4.472,28.639-2.951,36.575s-21.888,10.534-27.076,4.284c-5.748-6.9-5.453-37.909,6.089-46.075S1360.418,368.545,1360.418,368.545Z" transform="translate(-1229.934 -223.535)" fill="#f7a491"/>
        <path id="Path_1613" data-name="Path 1613" d="M1347.51,327.033a32.115,32.115,0,0,1,16.822,9.53c4.05.479,9.557,2.7,15.243,12.051,6.989,11.5,1.828,24.237-6.311,30.486s-8.047,13.507-8.047,13.507l-1.268-3.771a20.858,20.858,0,0,1-1.019-8.813,17.1,17.1,0,0,1,1.318-5.288c1.958-4.173-4.215-6.947-5.932-10.419-1.33-2.682-1.395-8.79-3.491-13.212l-2.5-3.372s-5.775-4.464-11.427-3.2S1336.064,324.715,1347.51,327.033Z" transform="translate(-1236.568 -202.665)" fill="#0b0754"/>
        <path id="Path_1614" data-name="Path 1614" d="M1392.848,427.9c-.057,3.518,1.552,6.4,3.6,6.434s3.748-2.79,3.809-6.311-1.533-6.4-3.6-6.434S1392.9,424.379,1392.848,427.9Z" transform="translate(-1270.717 -261.099)" fill="#f7a491"/>
        <path id="Path_1615" data-name="Path 1615" d="M1235.272,760.113l-.383,2.15a2.027,2.027,0,0,1-2.345,1.652l-44.5-7.706a2.031,2.031,0,0,1-1.655-2.345l.383-2.146a2.031,2.031,0,0,1,2.349-1.655l44.5,7.706a2.027,2.027,0,0,1,1.651,2.345Z" transform="translate(-1143.355 -463.686)" fill="#13375b"/>
        <path id="Path_1616" data-name="Path 1616" d="M1321,567.559c-5.219-.149-9.837,34.284-6.514,37.683s3.943,45.81,3.943,45.81l-49.251-1.226h0c-.962-.644-11.281-7.576-12.756-9.089-1.533-1.59-9.066-.793-11.055,1.391s4.422.383,6.192,1.586-1.33,4.173-1.33,4.173-12.48,1.809-14.91-.766-8.936-6.955-9.817-4.372c-.46,1.333,2.893,5.365,4.782,7.062-2.357-1.763-5.177-3.636-6.131-3.311-1.771.594-1.031,2.847-.073,3.51s10.867,8.227,12.415,8.756,24.555,1.084,28.536,1.97c0,0,64.947,14.787,68.641,13.864,3.238-.808,6.48-21.6,6.48-37.522S1337.314,568.034,1321,567.559Z" transform="translate(-1166.002 -351.135)" fill="#f7a491"/>
        <path id="Path_1617" data-name="Path 1617" d="M1449.225,547.06s9.085,2.092,18.47,12.645c8.534,9.58,13.914,63.3,13.914,63.3l-29.471,4.767-2.353-25.98-7.875-11.879Z" transform="translate(-1300.98 -338.49)" fill="#fa7167"/>
        <path id="Path_1664" data-name="Path 1664" d="M1208.4,192.016l2.836,54.662L1172.66,190.74Z" transform="translate(-1134.904 -118.708)" fill="#feb545"/>
      </g>
    </g>
  </g>
</svg>
