<svg xmlns="http://www.w3.org/2000/svg" xmlns:xlink="http://www.w3.org/1999/xlink" width="20" height="20" viewBox="0 0 20 20">
  <defs>
    <clipPath id="clip-path">
      <rect id="_2107783" data-name="2107783" width="20" height="20" transform="translate(548.864 14.509)" fill="#858585" opacity="0.4"/>
    </clipPath>
  </defs>
  <g id="Mask_Group_80" data-name="Mask Group 80" transform="translate(-548.864 -14.509)" clip-path="url(#clip-path)">
    <g id="Chalkmate_Thumbsup" transform="translate(545.532 11.176)">
      <g id="Group_1731" data-name="Group 1731">
        <path id="Path_474" data-name="Path 474" d="M14.427,3.333a1.055,1.055,0,0,1,.469.495c.151.286.323.562.484.844a.592.592,0,0,1-.2.844.584.584,0,0,1-.812-.25c-.2-.333-.391-.672-.583-1.01a.588.588,0,0,1,.271-.88.435.435,0,0,0,.062-.042Z" fill="#858585"/>
        <path id="Path_475" data-name="Path 475" d="M19.427,3.333l.115.068a.569.569,0,0,1,.255.781c-.208.391-.427.771-.661,1.146a.568.568,0,0,1-.786.182.578.578,0,0,1-.219-.766c.208-.391.427-.771.661-1.146a1.458,1.458,0,0,1,.318-.266Z" fill="#858585"/>
        <path id="Path_476" data-name="Path 476" d="M9.849,13.036c.385-.2.74-.375,1.083-.562a10.454,10.454,0,0,0,2.391-1.7,5.171,5.171,0,0,0,1.51-2.656c.042-.208.062-.422.094-.635a1.248,1.248,0,0,1,1.2-1.057,2.473,2.473,0,0,1,2.484,2.312,5.963,5.963,0,0,1-.7,3.234c-.021.042-.036.083-.068.146.083.005.151.01.214.01,1.026,0,2.057-.005,3.083,0a1.824,1.824,0,0,1,1.812,1.453,1.774,1.774,0,0,1-.328,1.495,1.694,1.694,0,0,1-.12.151,1.875,1.875,0,0,1-.391,2.818,1.877,1.877,0,0,1-.62,2.5,5.568,5.568,0,0,1,.187.568,1.822,1.822,0,0,1-1.8,2.2c-1.99.016-3.984.016-5.974-.031a11.207,11.207,0,0,1-4.088-.9c-.042-.016-.083-.036-.125-.052-.01-.005-.026,0-.036,0s-.016.005-.016.01a1.952,1.952,0,0,1-1.875.995c-1.13-.021-2.266-.005-3.4-.005-.484,0-.708-.219-.708-.7v-9.8a.616.616,0,0,1,.7-.7c1.583,0,3.161.01,4.745-.005a.653.653,0,0,1,.745.75A1.234,1.234,0,0,0,9.849,13.036Zm.005,8.1c.443.167.87.339,1.307.484a12.477,12.477,0,0,0,3.87.536c1.588.01,3.177-.005,4.765-.01a1.189,1.189,0,0,0,.234-.021.661.661,0,0,0-.005-1.3c-.078-.016-.156-.016-.234-.031a.559.559,0,0,1-.437-.349.579.579,0,0,1,.542-.807c.234-.01.469.005.7-.016a.656.656,0,0,0,.167-1.266,1.1,1.1,0,0,0-.323-.052c-.193-.01-.391.005-.583-.01a.576.576,0,0,1-.49-.771.6.6,0,0,1,.594-.4c.411-.005.823.01,1.229-.005a.652.652,0,0,0,.578-.9.68.68,0,0,0-.661-.427c-.4-.005-.807.005-1.208-.005a.578.578,0,0,1-.531-.776.6.6,0,0,1,.594-.4c.417-.005.833.005,1.25-.005a.657.657,0,0,0,.156-1.286,1.349,1.349,0,0,0-.286-.036H18.312c-.9,0-1.8.005-2.693-.005a.823.823,0,0,1-.37-.089.549.549,0,0,1-.271-.615.574.574,0,0,1,.557-.464c.271-.01.547-.005.818,0a.2.2,0,0,0,.193-.094,5.159,5.159,0,0,0,.917-3.2A1.322,1.322,0,0,0,16.328,7.6c-.193-.021-.219-.005-.234.182a5.837,5.837,0,0,1-.76,2.338,8.032,8.032,0,0,1-2.391,2.51,18.256,18.256,0,0,1-2.875,1.6.3.3,0,0,0-.2.323q.008,3.164.005,6.328A.84.84,0,0,0,9.854,21.135Zm-2.51,1.021H7.87c.547,0,.807-.25.807-.8V13.531c0-.068-.005-.141-.01-.208H4.854v8.823H6.172v-.281c0-.542-.005-1.078.005-1.62a.575.575,0,0,1,.687-.583.589.589,0,0,1,.479.625c.005.547,0,1.094,0,1.641C7.344,21.994,7.344,22.062,7.344,22.156Z" fill="#858585"/>
        <path id="Path_477" data-name="Path 477" d="M12.4,8.843c-.208,0-.417.005-.625,0a.586.586,0,0,1-.016-1.172q.633-.016,1.266,0a.586.586,0,1,1-.005,1.172C12.812,8.849,12.6,8.843,12.4,8.843Z" fill="#858585"/>
        <path id="Path_478" data-name="Path 478" d="M21.161,8.843c-.208,0-.417.005-.625,0a.586.586,0,1,1,.005-1.172c.411-.005.818-.005,1.229,0a.586.586,0,1,1,0,1.172C21.562,8.849,21.359,8.843,21.161,8.843Z" fill="#858585"/>
      </g>
    </g>
  </g>
</svg>
