<svg xmlns="http://www.w3.org/2000/svg" xmlns:xlink="http://www.w3.org/1999/xlink" width="23" height="23" viewBox="0 0 23 23">
  <defs>
    <clipPath id="clip-path">
      <rect id="Rectangle_294" data-name="Rectangle 294" width="23" height="23" transform="translate(9813.545)" fill="#fff" stroke="#707070" stroke-width="1"/>
    </clipPath>
  </defs>
  <g id="Mask_Group_114" data-name="Mask Group 114" transform="translate(-9813.545)" clip-path="url(#clip-path)">
    <path id="_13728386351561032650" data-name="13728386351561032650" d="M22.287,4.369a9.3,9.3,0,0,1-2.633.745,4.665,4.665,0,0,0,2.01-2.606,8.961,8.961,0,0,1-2.9,1.141A4.514,4.514,0,0,0,15.43,2.156a4.643,4.643,0,0,0-4.566,4.716,5,5,0,0,0,.106,1.075A12.8,12.8,0,0,1,1.552,3.016,4.864,4.864,0,0,0,.926,5.4a4.763,4.763,0,0,0,2.03,3.919A4.406,4.406,0,0,1,.891,8.737v.052a4.7,4.7,0,0,0,3.661,4.633,4.427,4.427,0,0,1-1.2.155,3.918,3.918,0,0,1-.865-.08,4.634,4.634,0,0,0,4.269,3.285,9,9,0,0,1-5.665,2.011A8.3,8.3,0,0,1,0,18.728a12.575,12.575,0,0,0,7.009,2.116c8.408,0,13-7.187,13-13.418,0-.208-.007-.41-.017-.609A9.282,9.282,0,0,0,22.287,4.369Z" transform="translate(9814.01)" fill="#fff"/>
  </g>
</svg>
