<?xml version="1.0" encoding="utf-8"?>
<!-- Generator: Adobe Illustrator 22.0.1, SVG Export Plug-In . SVG Version: 6.00 Build 0)  -->
<svg version="1.1" id="Layer_1" xmlns="http://www.w3.org/2000/svg" xmlns:xlink="http://www.w3.org/1999/xlink" x="0px" y="0px"
	 viewBox="0 0 401 401" style="enable-background:new 0 0 401 401;" xml:space="preserve">
<g>
	<g>
		<path d="M55.5,358.2c6.4-11.2,12.7-22.5,19.3-33.7c10.1-17.3,20.3-34.6,30.5-51.9c4.2-7.1,10.4-10.1,17.2-8.3
			c2.7,0.7,5.3,2.1,7.8,3.5c10.6,6.2,21.2,12.5,31.8,18.8c8.3,4.9,14.3,4.5,22.1-1.6c8.3-6.5,14.9-14.5,20.3-23.3
			c13.9-22.9,27.5-46,40.6-69.4c6.9-12.4,12.6-25.5,15.8-39.6c0.4-1.6,0.5-3.3,0.7-5c0.7-6.8-2.1-11.6-8.1-15
			c-11.5-6.5-22.8-13.3-34.2-20c-4.7-2.8-8-6.4-8.8-12.1c-0.7-4.4,0.9-8.1,3.1-11.8c8.9-15.2,17.8-30.4,26.8-45.6
			c5.8-9.8,11.7-19.6,17.2-29.5c3.1-5.5,7.1-9.5,13.4-10.9c1.3,0,2.6,0,3.9,0c2.1,0.9,4.4,1.6,6.4,2.7c11.9,7,23.9,14,35.6,21.2
			c3.3,2.1,6.5,4.8,9,7.8c9.5,11.2,14.4,24.6,17.4,38.8c0.9,4.4,1.6,8.9,2.3,13.3c0,10.4,0,20.7,0,31.1c-0.2,0.7-0.4,1.5-0.6,2.2
			c-2,11.4-3.5,23-6.2,34.3c-6.6,26.8-17.1,52.1-29.8,76.5c-19.4,37.5-41.8,73-70.2,104.4c-16.7,18.6-35.1,35.1-56.9,47.7
			c-14.6,8.4-30,14.5-46.8,16.8c-2.4,0.3-4.8,0.7-7.2,1c-3.1,0-6.2,0-9.3,0c-0.9-0.2-1.7-0.5-2.6-0.5c-7.2-0.4-13.9-2.4-20.1-6.3
			c-9.7-6-19.6-11.7-29.5-17.3c-4.9-2.8-8.8-6.2-10.7-11.7C55.5,362.9,55.5,360.6,55.5,358.2z"/>
	</g>
</g>
</svg>
