<?xml version="1.0" encoding="utf-8"?>
<!-- Generator: Adobe Illustrator 22.0.1, SVG Export Plug-In . SVG Version: 6.00 Build 0)  -->
<svg version="1.1" id="Layer_1" xmlns="http://www.w3.org/2000/svg" xmlns:xlink="http://www.w3.org/1999/xlink" x="0px" y="0px"
	 viewBox="0 0 401 401" style="enable-background:new 0 0 401 401;" xml:space="preserve">
<path d="M236.8,289.3H30.9C13.8,289.3,0,275.5,0,258.4V142.6c0-17.1,13.8-30.9,30.9-30.9h205.9c17.1,0,30.9,13.8,30.9,30.9v115.9
	C267.7,275.5,253.9,289.3,236.8,289.3z"/>
<path d="M382.5,275.4L291.9,244c-5.6-1.9-9.3-7.2-9.3-13.1v-60.7c0-5.9,3.7-11.2,9.3-13.1l90.6-31.5c9-3.1,18.5,3.6,18.5,13.1v123.6
	C401,271.9,391.6,278.6,382.5,275.4z"/>
</svg>
