<svg xmlns="http://www.w3.org/2000/svg" width="49" height="49" viewBox="0 0 49 49">
  <g id="Group_172" data-name="Group 172" transform="translate(-0.452)">
    <rect id="Rectangle_55" data-name="Rectangle 55" width="49" height="49" transform="translate(0.452)" opacity="0"/>
    <g id="Chalkmate_About" transform="translate(10.776 5.364)">
      <path id="Path_15" data-name="Path 15" d="M78.26,274.528a25.767,25.767,0,0,1-8.433-1.265,13.068,13.068,0,0,1-3.467-1.777,5.523,5.523,0,0,1-2.487-5.01,16.049,16.049,0,0,1,3.6-9.471,4.641,4.641,0,0,1,.607-.651,1.777,1.777,0,0,1,2.428-.044,1.912,1.912,0,0,1,.417,2.282A7.479,7.479,0,0,1,70.2,259.6a12.877,12.877,0,0,0-2.56,6.721,2.216,2.216,0,0,0,1.068,2.253,11.875,11.875,0,0,0,4.447,1.726,22.645,22.645,0,0,0,10.568-.278,19.761,19.761,0,0,0,3.116-1.273,2.257,2.257,0,0,0,1.324-2.465,12.674,12.674,0,0,0-2.457-6.575,13.868,13.868,0,0,1-.841-1.141,1.754,1.754,0,0,1,.5-2.37,1.729,1.729,0,0,1,2.282.073,6.241,6.241,0,0,1,.841.914,16.376,16.376,0,0,1,3.474,9.347,5.278,5.278,0,0,1-1.88,4.425A11.475,11.475,0,0,1,86.92,272.9a19.328,19.328,0,0,1-5.493,1.4C80.242,274.441,79.058,274.477,78.26,274.528Z" transform="translate(-63.864 -237.095)" fill="#fff"/>
      <path id="Path_16" data-name="Path 16" d="M137.132,18.7A9.355,9.355,0,1,1,137.286-.01,9.245,9.245,0,0,1,146.5,9.345,9.217,9.217,0,0,1,137.132,18.7Zm.1-3.781a5.526,5.526,0,0,0,5.515-5.551,5.578,5.578,0,1,0-11.154.139A5.515,5.515,0,0,0,137.235,14.918Z" transform="translate(-123.124 0.01)" fill="#fff"/>
    </g>
  </g>
</svg>
