<svg xmlns="http://www.w3.org/2000/svg" xmlns:xlink="http://www.w3.org/1999/xlink" width="29" height="29" viewBox="0 0 29 29">
  <defs>
    <clipPath id="clip-path">
      <rect id="Rectangle_290" data-name="Rectangle 290" width="23" height="23" transform="translate(0.424 -0.346)" fill="#b4b4b4" stroke="#707070" stroke-width="1"/>
    </clipPath>
  </defs>
  <g id="Group_2044" data-name="Group 2044" transform="translate(-549.731 -26.84)">
    <g id="Rectangle_291" data-name="Rectangle 291" transform="translate(549.731 26.84)" fill="#fff" stroke="#707070" stroke-width="1" opacity="0">
      <rect width="29" height="29" stroke="none"/>
      <rect x="0.5" y="0.5" width="28" height="28" fill="none"/>
    </g>
    <g id="Mask_Group_110" data-name="Mask Group 110" transform="translate(552.307 30.185)" clip-path="url(#clip-path)">
      <g id="_20518457671581426692" data-name="20518457671581426692" transform="translate(3.546 -0.457)">
        <path id="Path_570" data-name="Path 570" d="M2.64,4.583,4.751,22.567H17.794L19.9,4.583ZM16.109,20.674H6.436L4.76,6.476H17.784Z" transform="translate(-2.64 0.149)" fill="#b4b4b4"/>
        <path id="Path_571" data-name="Path 571" d="M19.787,1.893H14.108V.947H12.215V0H10.322V.947H8.429v.947H2.75V3.786H19.787Z" transform="translate(-2.636)" fill="#b4b4b4"/>
        <path id="Path_572" data-name="Path 572" d="M9.42,16.378,11.095,14.7l1.675,1.675L14.1,15.034,12.43,13.359,14.1,11.693,12.77,10.349l-1.675,1.675L9.42,10.349,8.085,11.693,9.76,13.359,8.085,15.034Z" transform="translate(-2.463 0.337)" fill="#b4b4b4"/>
      </g>
    </g>
  </g>
</svg>
