<svg xmlns="http://www.w3.org/2000/svg" width="49" height="49" viewBox="0 0 49 49">
  <g id="Group_202" data-name="Group 202" transform="translate(-0.074)">
    <g id="Group_203" data-name="Group 203">
      <rect id="Rectangle_84" data-name="Rectangle 84" width="49" height="49" transform="translate(0.074)" fill="#fff" opacity="0"/>
      <g id="Chalkmate_Mygroup" transform="translate(3 6)">
        <g id="Group_198" data-name="Group 198">
          <path id="Path_110" data-name="Path 110" d="M35.934,232.329H31.845a6.446,6.446,0,0,0-1.432.166,6.429,6.429,0,0,0-5.621-3.295H17.574a6.412,6.412,0,0,0-5.621,3.295,6.446,6.446,0,0,0-1.432-.166H6.448A6.449,6.449,0,0,0,0,238.769v6.523A4,4,0,0,0,4.006,249.3H38.384a4.015,4.015,0,0,0,4.006-4.006v-6.523A6.472,6.472,0,0,0,35.934,232.329Zm-4.685,3.179a2.977,2.977,0,0,1,.6-.05h4.089a3.328,3.328,0,0,1,3.328,3.328v6.184h-.008v.339a.887.887,0,0,1-.886.886H31.249V235.507Zm-3.121.141v10.546H14.254V235.648a3.328,3.328,0,0,1,3.328-3.328H24.8a3.328,3.328,0,0,1,3.328,3.328Zm-16.994-.141v10.687H4.006a.887.887,0,0,1-.886-.886v-6.523a3.328,3.328,0,0,1,3.328-3.328h4.089a2.416,2.416,0,0,1,.6.05Z" transform="translate(0 -213.05)" fill="#fff"/>
          <path id="Path_111" data-name="Path 111" d="M38.57,127.039a5.77,5.77,0,1,0-5.77-5.77A5.769,5.769,0,0,0,38.57,127.039Zm-2.649-5.778a2.649,2.649,0,1,1,2.649,2.649A2.646,2.646,0,0,1,35.921,121.261Z" transform="translate(-30.085 -108.762)" fill="#fff"/>
          <path id="Path_112" data-name="Path 112" d="M171.891,49.282a7.591,7.591,0,1,0-7.591-7.591A7.59,7.59,0,0,0,171.891,49.282Zm0-12.077a4.47,4.47,0,1,1-4.47,4.47A4.472,4.472,0,0,1,171.891,37.2Z" transform="translate(-150.7 -34.1)" fill="#fff"/>
          <path id="Path_113" data-name="Path 113" d="M345.57,127.039a5.77,5.77,0,1,0-5.77-5.77A5.769,5.769,0,0,0,345.57,127.039Zm-2.649-5.778a2.649,2.649,0,1,1,2.649,2.649A2.646,2.646,0,0,1,342.921,121.261Z" transform="translate(-311.672 -108.762)" fill="#fff"/>
        </g>
      </g>
    </g>
  </g>
</svg>
