<svg xmlns="http://www.w3.org/2000/svg" width="49" height="49" viewBox="0 0 49 49">
  <g id="Group_195" data-name="Group 195" transform="translate(-0.3)">
    <rect id="Rectangle_76" data-name="Rectangle 76" width="49" height="49" transform="translate(0.3)" opacity="0"/>
    <g id="Chalkmate_Learning" transform="translate(4 4)">
      <path id="Path_37" data-name="Path 37" d="M240.217,61.3a1.417,1.417,0,1,0,0,2.834,7.067,7.067,0,0,1,7.06,7.052,1.417,1.417,0,0,0,2.834,0A9.906,9.906,0,0,0,240.217,61.3Z" transform="translate(-219.351 -56.46)" fill="#fff"/>
      <path id="Path_38" data-name="Path 38" d="M101.129,5.856A14.832,14.832,0,0,0,88.665,2.874a14.672,14.672,0,0,0-11.236,11.2A14.736,14.736,0,0,0,80.806,27.06,9.221,9.221,0,0,1,83.138,33.1V35.52a3.823,3.823,0,0,0,2.537,3.608,6.4,6.4,0,0,0,2.068,3.608,6.167,6.167,0,0,0,8.155,0,6.4,6.4,0,0,0,2.068-3.608A3.831,3.831,0,0,0,100.5,35.52V33.1a9.334,9.334,0,0,1,2.405-6.121,14.724,14.724,0,0,0-1.779-21.122Zm-9.3,35.6a3.487,3.487,0,0,1-3.114-2.092h6.236A3.508,3.508,0,0,1,91.829,41.452Zm5.849-6.928v1.005a1.009,1.009,0,0,1-1.005,1.005H86.985a1.009,1.009,0,0,1-1.005-1.005V34.524Zm6.047-17.242a11.881,11.881,0,0,1-2.941,7.826,12.37,12.37,0,0,0-3.023,6.574H85.9a12.182,12.182,0,0,0-2.966-6.508,11.9,11.9,0,1,1,20.792-7.892Z" transform="translate(-70.962 -2.548)" fill="#fff"/>
      <path id="Path_39" data-name="Path 39" d="M6.539,178.9H4.117a1.417,1.417,0,1,0,0,2.834H6.539a1.417,1.417,0,1,0,0-2.834Z" transform="translate(-2.7 -164.373)" fill="#fff"/>
      <path id="Path_40" data-name="Path 40" d="M9.125,84.527a1.4,1.4,0,0,0,1.005.412h0a1.435,1.435,0,0,0,1.005-.412,1.4,1.4,0,0,0,.412-1.005,1.435,1.435,0,0,0-.412-1.005L9.422,80.812A1.4,1.4,0,0,0,8.417,80.4a1.435,1.435,0,0,0-1.005.412A1.4,1.4,0,0,0,7,81.817a1.435,1.435,0,0,0,.412,1.005Z" transform="translate(-6.646 -73.987)" fill="#fff"/>
      <path id="Path_41" data-name="Path 41" d="M11.1,257.112A1.4,1.4,0,0,0,10.1,256.7a1.435,1.435,0,0,0-1.005.412l-1.705,1.714a1.427,1.427,0,0,0,0,2.01,1.4,1.4,0,0,0,1.005.412h0a1.435,1.435,0,0,0,1.005-.412l1.713-1.713a1.422,1.422,0,0,0-.008-2.01Z" transform="translate(-6.623 -235.764)" fill="#fff"/>
      <path id="Path_42" data-name="Path 42" d="M446.917,181.734h2.422a1.417,1.417,0,1,0,0-2.834h-2.422a1.417,1.417,0,1,0,0,2.834Z" transform="translate(-409.023 -164.373)" fill="#fff"/>
      <path id="Path_43" data-name="Path 43" d="M451.194,84.847a1.435,1.435,0,0,0,1.005-.412l1.713-1.713a1.427,1.427,0,0,0,0-2.01,1.4,1.4,0,0,0-1.005-.412,1.435,1.435,0,0,0-1.005.412l-1.713,1.713a1.417,1.417,0,0,0,1.005,2.422Z" transform="translate(-412.946 -73.895)" fill="#fff"/>
      <path id="Path_44" data-name="Path 44" d="M452.2,257.112a1.4,1.4,0,0,0-1.005-.412,1.417,1.417,0,0,0-1.005,2.422l1.713,1.713a1.408,1.408,0,0,0,1.005.412,1.443,1.443,0,0,0,1.005-.412,1.427,1.427,0,0,0,0-2.01Z" transform="translate(-412.946 -235.764)" fill="#fff"/>
    </g>
  </g>
</svg>
