<svg xmlns="http://www.w3.org/2000/svg" width="207.017" height="43.841" viewBox="0 0 207.017 43.841">
  <g id="Group_978" data-name="Group 978" transform="translate(-24.018 5.505)">
    <g id="Layer_2" data-name="Layer 2" transform="translate(24.018 -5.505)">
      <g id="Layer_1" data-name="Layer 1" transform="translate(0 0)">
        <path id="Path_199" data-name="Path 199" d="M34.983,26.239a5.521,5.521,0,0,0-3.952,1.656c-.093.093-.534.668-.668.828a10.876,10.876,0,1,1,0-13.58c.14.174.608.708.668.8a5.541,5.541,0,0,0,9.027-6.162,6.056,6.056,0,0,0-.574-.988l-.04-.053a21.919,21.919,0,1,0,0,26.359l.04-.047a6.115,6.115,0,0,0,.574-1,5.535,5.535,0,0,0-5.074-7.811" transform="translate(-0.01 0.001)" fill="#426ab3"/>
        <path id="Path_200" data-name="Path 200" d="M30.915,33.7a5.521,5.521,0,0,1-3.952-1.656c-.093-.093-.187-.194-.274-.294s-.26-.361-.4-.534a5.542,5.542,0,1,1,9.067-6.376l.04.047a6.116,6.116,0,0,1,.594.995A5.535,5.535,0,0,1,30.915,33.7" transform="translate(4.058 3.622)" fill="#55c7dd"/>
        <path id="Path_201" data-name="Path 201" d="M149.912,27.035h-1.148a1.055,1.055,0,0,1-1-1.188v-7.6h1.776a1.7,1.7,0,1,0,0-3.385h-1.776V12.047a2.048,2.048,0,0,0,0-.354,1.963,1.963,0,0,0-1.97-2h0a1.956,1.956,0,0,0-1.95,1.95V25.847a4.9,4.9,0,0,0,4.921,5.087h1.148a1.95,1.95,0,1,0,0-3.9" transform="translate(23.144 1.561)" fill="#191e1e"/>
        <path id="Path_202" data-name="Path 202" d="M92.666,27.031H91.545a1.055,1.055,0,0,1-1.028-1.188V11.668a1.95,1.95,0,1,0-3.9,0V25.842a4.9,4.9,0,0,0,4.927,5.087h1.142a1.95,1.95,0,0,0,0-3.9" transform="translate(13.932 1.566)" fill="#191e1e"/>
        <path id="Path_203" data-name="Path 203" d="M142.505,14.148h0a1.963,1.963,0,0,0-1.836,1.255,8.072,8.072,0,1,0,0,13.613,1.95,1.95,0,0,0,.554.788l.06.047a1.936,1.936,0,0,0,1.215.427,2,2,0,0,0,1.97-1.97v-12.2a1.963,1.963,0,0,0-1.963-1.963m-6.162,12.2a4.133,4.133,0,1,1,4.133-4.133,4.133,4.133,0,0,1-4.133,4.133" transform="translate(20.636 2.277)" fill="#191e1e"/>
        <path id="Path_204" data-name="Path 204" d="M123.2,14.16a6.329,6.329,0,0,0-4.066,1.829,6.443,6.443,0,0,0-4.941-1.829,6.543,6.543,0,0,0-6.076,6.576v7.531a2,2,0,0,0,3.939,0V20.616a2.537,2.537,0,0,1,2.831-2.517,2.584,2.584,0,0,1,2.237,2.59v7.578a2,2,0,0,0,3.932.2V20.616h0a2.544,2.544,0,0,1,2.831-2.51,2.584,2.584,0,0,1,2.257,2.584v7.818a2,2,0,0,0,.668,1.3l.06.047a1.936,1.936,0,0,0,1.215.427,2,2,0,0,0,1.97-1.97V20.616a6.483,6.483,0,0,0-6.9-6.456" transform="translate(17.393 2.279)" fill="#191e1e"/>
        <path id="Path_205" data-name="Path 205" d="M64.241,14.854a6.263,6.263,0,0,0-2.123.507V11.69a1.97,1.97,0,0,0-3.932,0V28.962h0V29a1.943,1.943,0,0,0,.668,1.5l.06.047a1.936,1.936,0,0,0,1.215.427A2,2,0,0,0,62.085,29.2q0-.12,0-.24V21.31a2.537,2.537,0,0,1,2.831-2.517,2.584,2.584,0,0,1,2.243,2.59v7.571a1.97,1.97,0,0,0,3.939,0V21.31a6.483,6.483,0,0,0-6.9-6.456" transform="translate(9.355 1.585)" fill="#191e1e"/>
        <path id="Path_206" data-name="Path 206" d="M86.885,15.834a1.134,1.134,0,0,0,0-.147v-.073a1.294,1.294,0,0,0-.033-.134.28.28,0,0,1,0-.067c0-.04-.033-.08-.053-.127v-.06l-.06-.12-.04-.06-.08-.113-.04-.053a.715.715,0,0,0-.093-.107l-.04-.047a1.4,1.4,0,0,0-.147-.134h0l-.14-.107-.067-.04L86,14.392l-.073-.04-.087-.04-.08-.033-.087-.033h-.628a1.963,1.963,0,0,0-1.8,1.175h0a8.065,8.065,0,1,0,0,13.607,1.963,1.963,0,0,0,3.786-.741V15.834M78.78,26.343a4.133,4.133,0,1,1,4.133-4.133,4.133,4.133,0,0,1-4.133,4.133" transform="translate(11.394 2.281)" fill="#191e1e"/>
        <path id="Path_207" data-name="Path 207" d="M166.121,20.277a6.583,6.583,0,0,0-2.317-4.293h0l-.093-.073h-.047a8.065,8.065,0,1,0,.434,12.3h0l.107-.1a1.97,1.97,0,0,0-1.4-3.338,1.95,1.95,0,0,0-1.335.541h0a4.086,4.086,0,0,1-2.777,1.021,4.139,4.139,0,0,1-3.545-2l7.658-.2a3.432,3.432,0,0,0,3.338-3.859m-11.15.113a4.113,4.113,0,0,1,6.229-1.449,2.557,2.557,0,0,1,.875,1.262Z" transform="translate(24.234 2.284)" fill="#191e1e"/>
        <path id="Path_208" data-name="Path 208" d="M105.175,22.452c.18-.134.354-.267.5-.4,1.636-1.455,2.437-3.692,2.444-6.83h0a2,2,0,0,0-1.97-1.93,1.956,1.956,0,0,0-1.956,1.876h0c0,2-.354,3.278-1.115,3.959a5.694,5.694,0,0,1-4.006.955V11.69a1.97,1.97,0,0,0-3.932,0V28.962a1.97,1.97,0,1,0,3.932,0V24h.668a12.385,12.385,0,0,0,1.636-.107l3.786,6.069a2.012,2.012,0,1,0,3.418-2.123Z" transform="translate(15.304 1.585)" fill="#191e1e"/>
        <path id="Path_209" data-name="Path 209" d="M58.279,24.7h0a2.04,2.04,0,0,0-3.091-.234c-.04,0-.2.24-.254.3a4.006,4.006,0,1,1,0-4.994c.047.067.22.26.254.294a2,2,0,0,0,3.5-1.415,1.93,1.93,0,0,0-.194-.9,1.823,1.823,0,0,0-.214-.367h0A8.065,8.065,0,1,0,57.905,27.5a2,2,0,0,0,.774-1.6,1.929,1.929,0,0,0-.187-.808,1.822,1.822,0,0,0-.214-.367" transform="translate(7.032 2.279)" fill="#191e1e"/>
      </g>
    </g>
    <path id="Path_149" data-name="Path 149" d="M.08-7H5.065v1.039h-1.9V-.889H1.983V-5.961H.08ZM5.894-7H7.23L9.255-3.063,11.263-7H12.6V-.889H11.525V-5.271l-1.9,3.754H8.871L6.959-5.271V-.889H5.894Z" transform="translate(218.436 10.679)" fill="#191e1e"/>
  </g>
</svg>
