<svg xmlns="http://www.w3.org/2000/svg" width="49" height="49" viewBox="0 0 49 49">
  <g id="Group_179" data-name="Group 179" transform="translate(0.322)">
    <rect id="Rectangle_62" data-name="Rectangle 62" width="49" height="49" transform="translate(-0.322)" opacity="0"/>
    <path id="Chalkmate_Education" d="M12.149,119.74c-2.57-.741-4.992-1.433-7.406-2.125-.956-.28-1.936-.511-2.867-.857a1.338,1.338,0,0,1-.494-2.29,1.787,1.787,0,0,1,.478-.3c.264-.107.535-.189.807-.272,6.03-1.73,12.06-3.443,18.082-5.19a3.99,3.99,0,0,1,2.364-.016c6.071,1.763,12.151,3.485,18.222,5.223a5.9,5.9,0,0,1,.675.222,1.415,1.415,0,0,1,1,1.4A1.309,1.309,0,0,1,42,116.775c-.956.288-1.911.56-2.875.84-.544.157-1.079.33-1.656.5-.033.5-.074.914-.074,1.335-.008,3,0,5.989-.008,8.987a8.237,8.237,0,0,1-.058,1.277,1.3,1.3,0,0,1-1.252,1.153,1.374,1.374,0,0,1-1.409-1.153,7.338,7.338,0,0,1-.082-1.277c-.008-2.611,0-5.231-.008-7.842,0-.47-.041-.931-.066-1.532a10.468,10.468,0,0,0-2.578.643c-.033.354-.091.725-.091,1.1-.008,1.713-.041,3.427.008,5.132a2.209,2.209,0,0,1-1.45,2.34c-1.433.634-2.809,1.392-4.21,2.092a15.723,15.723,0,0,0-3.172,1.9,1.344,1.344,0,0,1-2.051.025,18.144,18.144,0,0,0-3.55-2.1c-1.31-.667-2.62-1.359-3.954-1.969a2,2,0,0,1-1.326-2.109c.049-1.615.016-3.229.016-4.852C12.149,120.828,12.149,120.358,12.149,119.74Zm-4.415-4.259c.445.165.75.3,1.063.387,4.053,1.153,8.122,2.29,12.167,3.468a3.565,3.565,0,0,0,2.076-.016c4-1.162,8.024-2.29,12.027-3.435a11.5,11.5,0,0,0,1.1-.437,8.6,8.6,0,0,0-.84-.321c-4.193-1.2-8.386-2.381-12.571-3.6a2.767,2.767,0,0,0-1.656.033c-4.094,1.186-8.2,2.348-12.3,3.526C8.483,115.185,8.178,115.317,7.733,115.481Zm7.43,5.231a18.876,18.876,0,0,0-.016,5.19c2.282,1.162,4.588,2.348,6.837,3.493,2.372-1.219,4.679-2.405,7.019-3.616,0-1.524,0-2.99-.008-4.457a3.245,3.245,0,0,0-.124-.618c-.4.074-.774.115-1.129.214-1.6.437-3.2.873-4.778,1.359a3.136,3.136,0,0,1-1.944.016c-1.582-.486-3.188-.914-4.778-1.359C15.889,120.836,15.518,120.778,15.164,120.712Z" transform="translate(2.078 -96.522)" fill="#fff"/>
  </g>
</svg>
