<svg xmlns="http://www.w3.org/2000/svg" width="49" height="49" viewBox="0 0 49 49">
  <g id="Group_200" data-name="Group 200" transform="translate(-0.226)">
    <rect id="Rectangle_84" data-name="Rectangle 84" width="49" height="49" transform="translate(0.226)" fill="#fff" opacity="0"/>
    <path id="Chalkmate_Experience" d="M41.329,36.678a3.649,3.649,0,0,0-2.6-1.078H30.079v-.92A3.981,3.981,0,0,0,26.1,30.7H16.3a3.981,3.981,0,0,0-3.98,3.98v.92H3.673A3.68,3.68,0,0,0,0,39.273V64.062a3.981,3.981,0,0,0,3.98,3.98H38.411a3.981,3.981,0,0,0,3.98-3.98V39.273A3.594,3.594,0,0,0,41.329,36.678ZM15.4,35.6v-.92a.924.924,0,0,1,.92-.92h9.791a.924.924,0,0,1,.92.92v.92Zm9.17,16.225a.924.924,0,0,1-.92.92h-4.9a.92.92,0,0,1,0-1.841h4.9A.924.924,0,0,1,24.565,51.825Zm13.97-12.536L35.086,49.653a.912.912,0,0,1-.862.622h-6.6a2.762,2.762,0,0,0-2.736-2.446H17.527a2.757,2.757,0,0,0-2.736,2.454h-6.6a.891.891,0,0,1-.862-.63L3.88,39.289a.47.47,0,0,1,.066-.431.479.479,0,0,1,.39-.2H38.079a.479.479,0,0,1,.456.63Zm-35.476,7.3,1.351,4.054a3.971,3.971,0,0,0,3.781,2.719h6.591a2.757,2.757,0,0,0,2.736,2.454h7.354a2.75,2.75,0,0,0,2.736-2.454H34.2a3.983,3.983,0,0,0,3.781-2.728l1.351-4.054V64.054a.924.924,0,0,1-.92.92H3.98a.924.924,0,0,1-.92-.92Z" transform="translate(3 -24.7)" fill="#fff"/>
  </g>
</svg>
