<svg xmlns="http://www.w3.org/2000/svg" width="49" height="49" viewBox="0 0 49 49">
  <g id="Group_199" data-name="Group 199" transform="translate(0.152)">
    <rect id="Rectangle_84" data-name="Rectangle 84" width="49" height="49" transform="translate(-0.152)" fill="#fff" opacity="0"/>
    <g id="Chalkmate_Interest" transform="translate(3 7)">
      <path id="Path_120" data-name="Path 120" d="M336.8,112.172a8.191,8.191,0,0,0-3.9-.972,1,1,0,0,0,0,1.993,6.188,6.188,0,0,1,2.965.747A5.782,5.782,0,0,1,339,119.032a5.352,5.352,0,0,1-.307,1.761,1.015,1.015,0,0,0,.05.764.971.971,0,0,0,.573.5.994.994,0,0,0,.324.05.978.978,0,0,0,.947-.673,7.559,7.559,0,0,0,.407-2.409A7.789,7.789,0,0,0,336.8,112.172Z" transform="translate(-304.459 -105.374)" fill="#fff"/>
      <path id="Path_121" data-name="Path 121" d="M37.288,42.521a13.341,13.341,0,0,0-14.584,1.6,13.372,13.372,0,0,0-14.593-1.6A12.246,12.246,0,0,0,1.5,53.318a11.552,11.552,0,0,0,.59,3.663C4.075,65.519,16.757,76.748,22.7,76.748s18.6-11.162,20.556-19.609a11.886,11.886,0,0,0,.631-3.82A12.223,12.223,0,0,0,37.288,42.521Zm3.131,10.8a8.982,8.982,0,0,1-.5,2.84l-.008.025C38.118,63.958,26.449,73.26,22.7,73.26c-4.169,0-15.548-9.825-17.259-17.217l-.008-.025a8.29,8.29,0,0,1-.448-2.7A8.759,8.759,0,0,1,9.747,45.6,9.6,9.6,0,0,1,14.24,44.49a9.443,9.443,0,0,1,7.151,3.231l1.329,1.52,1.312-1.52A9.784,9.784,0,0,1,35.668,45.6,8.767,8.767,0,0,1,40.419,53.318Z" transform="translate(-1.5 -41.056)" fill="#fff"/>
    </g>
  </g>
</svg>
