<svg id="Group_197" data-name="Group 197" xmlns="http://www.w3.org/2000/svg" width="49" height="49" viewBox="0 0 49 49">
  <rect id="Rectangle_84" data-name="Rectangle 84" width="49" height="49" opacity="0"/>
  <g id="Chalkmate_Skills" transform="translate(3 4)">
    <path id="Path_72" data-name="Path 72" d="M60.753,29.791a.136.136,0,0,1,.041-.124l6.524-6.36h0a3.119,3.119,0,0,0-1.73-5.322l-9.012-1.31a.145.145,0,0,1-.107-.074L52.433,8.438a3.126,3.126,0,0,0-5.6,0L42.8,16.6a.127.127,0,0,1-.107.074l-9,1.31a3.119,3.119,0,0,0-1.73,5.322l6.524,6.36a.143.143,0,0,1,.041.124l-1.54,8.979a3.08,3.08,0,0,0,1.244,3.048,3.115,3.115,0,0,0,1.829.6,3.182,3.182,0,0,0,1.458-.362l8.065-4.242a.126.126,0,0,1,.132,0l8.065,4.242a3.125,3.125,0,0,0,1.45.362h0a3.06,3.06,0,0,0,1.829-.6A3.112,3.112,0,0,0,62.3,38.77ZM39.919,39.272l1.54-8.979a3.123,3.123,0,0,0-.9-2.76l-6.524-6.36A.123.123,0,0,1,34,21.026a.132.132,0,0,1,.115-.1l9.012-1.31a3.116,3.116,0,0,0,2.348-1.705l4.028-8.164a.135.135,0,0,1,.124-.082c.091,0,.115.049.124.082l4.028,8.164a3.116,3.116,0,0,0,2.348,1.705l9.012,1.31a.128.128,0,0,1,.115.1.149.149,0,0,1-.033.148L58.7,27.533a3.123,3.123,0,0,0-.9,2.76l1.54,8.979a.123.123,0,0,1-.058.14.122.122,0,0,1-.148.008l-8.065-4.242a3.144,3.144,0,0,0-2.9,0l-8.065,4.234a.122.122,0,0,1-.148-.008A.133.133,0,0,1,39.919,39.272Z" transform="translate(-28.634 -6.7)" fill="#fff"/>
    <path id="Path_73" data-name="Path 73" d="M371.97,26.716a1.461,1.461,0,0,0,.873.288,1.483,1.483,0,0,0,1.2-.618L375.2,24.8a1.489,1.489,0,1,0-2.405-1.755l-1.153,1.59a1.5,1.5,0,0,0,.329,2.084Z" transform="translate(-340.939 -21.131)" fill="#fff"/>
    <path id="Path_74" data-name="Path 74" d="M94.066,26.286a1.5,1.5,0,0,0,1.2.618,1.494,1.494,0,0,0,1.466-1.26,1.49,1.49,0,0,0-.264-1.112h0l-1.153-1.59a1.486,1.486,0,1,0-2.405,1.746Z" transform="translate(-85.169 -21.039)" fill="#fff"/>
    <path id="Path_75" data-name="Path 75" d="M6.142,293.67A1.475,1.475,0,0,0,5,293.579l-1.87.61a1.494,1.494,0,0,0-.956,1.878A1.5,1.5,0,0,0,3.6,297.089a1.461,1.461,0,0,0,.461-.074l1.87-.61a1.494,1.494,0,0,0,.956-1.878A1.533,1.533,0,0,0,6.142,293.67Z" transform="translate(-2.106 -269.879)" fill="#fff"/>
    <path id="Path_76" data-name="Path 76" d="M240.491,445.2A1.491,1.491,0,0,0,239,446.691v1.961a1.491,1.491,0,0,0,2.982,0v-1.961A1.491,1.491,0,0,0,240.491,445.2Z" transform="translate(-219.485 -409.077)" fill="#fff"/>
    <path id="Path_77" data-name="Path 77" d="M456.926,294.187l-1.87-.61a1.49,1.49,0,1,0-.923,2.834l1.87.61a1.461,1.461,0,0,0,.461.074,1.491,1.491,0,0,0,.461-2.908Z" transform="translate(-415.951 -269.877)" fill="#fff"/>
  </g>
</svg>
