<?xml version="1.0" encoding="utf-8"?>
<!-- Generator: Adobe Illustrator 22.0.1, SVG Export Plug-In . SVG Version: 6.00 Build 0)  -->
<svg version="1.1" id="Capa_1" xmlns="http://www.w3.org/2000/svg" xmlns:xlink="http://www.w3.org/1999/xlink" x="0px" y="0px"
	 viewBox="0 0 512 512" style="enable-background:new 0 0 512 512;" xml:space="preserve">
<path d="M465.8,216.5c-3.9,68.4-33.1,123.3-88.4,163.9c-34.2,25.1-62.3,55.5-83.7,92.1c-5,8.6-10.1,17-15.3,25.5
	c-3.2,5.2-7.4,9.6-13.4,11.8c-10.2,3.8-21.3,1-28.1-8c-5-6.5-9.2-13.7-13.4-20.8c-23-39.5-52.9-72.9-89.2-100.5
	c-30.9-23.4-55.6-51.8-70.3-87.8C34.5,220.5,40.9,151,86.5,87.7C132.5,23.9,197-5.5,275.4,1.4c86,7.5,158.6,65.8,183.1,153.1
	C463.5,172.1,466.7,200.1,465.8,216.5z M255.9,300.6c49.8,0.2,90.8-39.9,91.2-89.4c0.3-49.3-37.8-91.4-90.3-91.8
	c-50.3-0.3-90.2,38.9-91,89.2C165,258.3,204,299.9,255.9,300.6z"/>
</svg>
