<?xml version="1.0" encoding="utf-8"?>
<!-- Generator: Adobe Illustrator 22.0.1, SVG Export Plug-In . SVG Version: 6.00 Build 0)  -->
<svg version="1.1" id="Capa_1" xmlns="http://www.w3.org/2000/svg" xmlns:xlink="http://www.w3.org/1999/xlink" x="0px" y="0px"
	 viewBox="0 0 512 512" style="enable-background:new 0 0 512 512;" xml:space="preserve">
<g fill='#fff'>
	<g>
		<path d="M248.9,52c4.8,0,9.6,0,14.4,0c0.8,0.2,1.5,0.6,2.3,0.7c7.7,1.7,14.6,4.8,20.8,9.6c7,5.5,11.5,12.7,15.3,20.6
			c5.5,11.5,15.3,15.9,27.7,13.2c4.5-1,9.2-1.9,13.8-2c26.8-0.7,49.2,21.2,49.4,48.1c0.1,9.3-3,17.7-6.9,26
			c-5,10.6-2.4,21.1,6.6,28.7c3.5,2.9,7,5.8,10,9.1c19.7,21.6,14,58.3-11.3,73.2c-6.2,3.7-12.9,5.5-19.8,7.2
			c-10.7,2.6-17.3,10.8-17.7,21.8c-0.2,4.3-0.6,8.5-0.5,12.8c0,2,0.3,4.3,1.2,6.1c6.8,14.4,13.8,28.8,20.8,43.2
			c5.7,11.8,11.3,23.5,17,35.3c2.5,5.1,2.4,10.1-1.3,14.6c-3.7,4.5-8.5,5.6-14.1,4.1c-3-0.8-5.9-1.5-8.9-2.2
			c-10.9-2.7-21.9-5.5-33.1-8.3c-0.7,1.5-1.4,2.8-1.9,4.1c-5,11-10.1,22-15,33.1c-2.1,4.7-4.8,8.6-9.7,10.6c-2.4,0-4.8,0-7.2,0
			c-4.8-2.1-7.5-6-9.7-10.6c-11.1-23.4-22.5-46.7-33.7-70.1c-0.6-1.2-1.3-2.4-2.2-4c-1,2.1-1.6,3.4-2.2,4.7
			c-10.4,23-20.9,46-31.2,69.1c-2.1,4.8-4.8,8.8-9.8,10.9c-2.4,0-4.8,0-7.2,0c-4.8-2.1-7.6-5.9-9.7-10.6
			c-5.1-11-10.5-21.8-15.8-32.8c-0.6-1.3-1.3-2.5-1.9-3.6c-0.7,0.1-1,0.2-1.2,0.2c-13.5,3.7-26.9,7.5-40.4,11.2
			c-8.3,2.2-15.1-1.6-17-9.4c-0.9-3.8,0.4-7.1,1.9-10.4c12.3-27.3,24.7-54.6,37-81.9c0.7-1.5,1.3-3.3,1.3-4.9c0.1-4-0.2-8-0.4-12
			c-0.5-10.2-7.4-18.5-17.3-21c-4.6-1.2-9.3-2.3-13.8-4c-24.6-9.7-36.6-40.3-25.5-64.4c4-8.7,10.3-15.3,17.7-21.2
			c9.2-7.3,11.5-17.9,6.8-28.6c-1.9-4.3-3.9-8.5-5.2-12.9c-7.5-25.2,9-53.4,34.6-59.7c9.1-2.2,17.9-1.8,26.8,0.5
			c4.9,1.3,9.8,1.2,14.5-0.5c7.3-2.7,11.5-8.3,14.5-15.1c5.7-12.7,15.2-21.3,28.3-26C242.9,53.5,245.9,52.8,248.9,52z M184.3,309.5
			c0,1.9-0.1,3.7,0,5.6c0.5,9,4.9,15.8,13,19.6c8.2,3.9,16.3,3.4,23.8-2.2c1.5-1.1,2.9-2.4,4.3-3.5c12.8-10,27.1-13,42.9-9.3
			c8.7,2.1,15.6,7.1,22.5,12.5c13.4,10.6,33.2,3.2,36.5-13.6c0.6-3.1,0.5-6.4,0.5-9.5c-0.1-20,11.7-37.9,30.3-45.3
			c4.3-1.7,8.9-2.6,13.4-3.8c8.9-2.3,14.2-8.2,16.3-16.9c2.2-9.1-0.3-16.9-7.5-23c-1.4-1.2-3-2.2-4.4-3.4
			c-14.4-12.1-20.4-27.5-17.8-46.2c0.9-6.6,3.9-12.4,6.6-18.3c6.7-14.6-3.3-31.5-19.2-32.3c-3.6-0.2-7.4,0.7-11,1.5
			c-13.8,3-26.7,1-38.6-6.8c-9-5.9-14.8-14.3-19.2-24c-3.9-8.8-11.1-13-20.7-13c-9.6,0-16.5,4.3-20.7,13c-0.8,1.6-1.4,3.2-2.2,4.7
			c-8.9,17-22.8,26.5-42,27.2c-5.6,0.2-11.4-0.9-16.9-2.1c-13.7-3-25.8,4.8-28.7,18.6c-1.3,6.5,1.2,11.9,3.9,17.5
			c8.6,18.1,7.1,35.5-4.9,51.5c-3.2,4.3-7.7,7.7-11.8,11.2s-7.1,7.5-8.5,12.7c-2.7,10.4,2.9,25.2,17.2,28.1c1.6,0.3,3.1,0.7,4.7,1.1
			C168.9,266.4,184.6,286.1,184.3,309.5z M154.3,394.1c2-0.5,3.2-0.7,4.5-1c6.7-1.8,13.4-3.5,20-5.6c9.3-2.9,15.2,1.6,18.3,8.3
			c2.9,6.4,6.1,12.7,9.2,19.1c0.5,1,1.1,1.9,2,3.4c10-22.2,19.8-43.8,29.6-65.4c-22,14.1-42.9,13.1-63.6-2.7
			C167.6,364.8,161.1,379.2,154.3,394.1z M304,418.4c0.9-1.8,1.6-2.9,2.1-4.1c3-6.5,5.9-13.1,8.9-19.6c3.5-7.4,9.1-10,17-8.1
			c3.4,0.8,6.7,1.7,10,2.6c4.7,1.2,9.5,2.3,14.2,3.5c0.2-0.2,0.4-0.4,0.6-0.7c-6.6-13.6-13.1-27.3-19.8-41
			c-22.4,16-44,15.9-65.7-0.2C282.2,373.1,292.9,395.4,304,418.4z"/>
		<path d="M256.2,118.3c51.9,0.1,94.5,42.7,94.3,94.5c-0.2,52.1-41.7,94.3-94.4,94.4c-52.9,0-94.5-42.4-94.5-94.6
			C161.6,160.6,204.4,118.2,256.2,118.3z M256.2,144.1c-38-0.1-68.7,30.5-68.8,68.4c-0.1,38.1,30.6,69,68.6,69.1
			c37.9,0.1,68.7-30.6,68.8-68.4C324.9,174.9,294.3,144.1,256.2,144.1z"/>
		<path d="M246.1,214c3.1-2.3,5.9-4.3,8.7-6.3c8.4-6.1,16.8-12.2,25.2-18.4c3.8-2.8,7.8-4,12.4-2.6c8.9,2.6,12,13.7,5.8,20.6
			c-1.1,1.2-2.3,2.2-3.6,3.1c-14,10.2-28,20.4-42,30.6c-1.1,0.8-2.2,1.5-3.3,2.2c-5.9,3.1-12.1,2.1-16.1-3.2
			c-5.1-6.7-9.9-13.6-14.5-20.6c-3.8-5.8-2.1-13.2,3.3-17.1c5.7-4.1,12.9-3.2,17.5,2.4C241.7,207.6,243.6,210.6,246.1,214z"/>
	</g>
</g>
</svg>
