<?xml version="1.0" encoding="utf-8"?>
<!-- Generator: Adobe Illustrator 22.0.1, SVG Export Plug-In . SVG Version: 6.00 Build 0)  -->
<svg version="1.1" id="Capa_1" xmlns="http://www.w3.org/2000/svg" xmlns:xlink="http://www.w3.org/1999/xlink" x="0px" y="0px"
	 viewBox="0 0 512 512" style="enable-background:new 0 0 512 512;" xml:space="preserve">
<g>
	<g>
		<path d="M272,513c-10.7,0-21.3,0-32,0c-1.4-0.3-2.9-0.7-4.3-0.9c-6.9-0.8-13.9-1.3-20.8-2.4c-52-8.7-97.4-31-135.5-67.6
			C35.1,399.7,9.1,347.9,1.8,286.8c-0.6-4.6-1.2-9.2-1.8-13.8c0-10.7,0-21.3,0-32c0.3-1.3,0.6-2.6,0.8-3.9
			c1.8-12.2,2.8-24.5,5.4-36.5C35.8,69.1,165.5-22.6,308.4,6.3c51.7,10.5,95.9,35.4,132.4,73.6c39.5,41.3,62.7,90.5,69.4,147.3
			c0.5,4.6,1.2,9.2,1.8,13.8c0,10.7,0,21.3,0,32c-0.3,1.4-0.7,2.9-0.9,4.4c-1.2,8.9-1.8,17.9-3.5,26.7c-11,57.4-38.3,105.7-82,144.5
			c-40,35.5-86.7,56.4-139.9,62.6C281.2,511.7,276.6,512.4,272,513z M92.5,256.9c-0.2,89.9,72.9,163.2,163.3,163.7
			c89.7,0.5,163-72.6,163.8-163.2c0.7-89.7-73.3-163.9-163.5-163.9C165.9,93.5,92.7,166.6,92.5,256.9z M404,131.4
			c67.4,80.2,57.8,193.4-10.1,261.8c-65.7,66.2-168.3,76.9-245.9,24.6c-38.2-25.8-64.8-60.9-77.5-105.2
			c-19.3-66.9-5.2-127.6,37.7-181.5c-7.5-7.5-14.7-14.6-21.8-21.8C14.9,186.8,5,325.1,97.1,416.8c93.2,92.9,246.2,87.3,332-15.6
			c80.4-96.5,59.6-225.3-3.4-291.6C418.6,116.8,411.4,124,404,131.4z M403.8,87c-90-79.7-221.9-68.3-294.8-0.2
			c7.3,7.3,14.5,14.5,22,22c36.1-29.9,78-45.8,125.4-45.7c47.4,0.1,89.2,16.1,125.4,46.1C389.2,101.6,396.4,94.4,403.8,87z"/>
		<path d="M382.8,259.8c0.2,18.1-2,35.9-6.5,53.4c-2.1,8.4-8.6,13-16.4,12.1c-8.8-0.9-14.9-9-13.3-17.8c1.7-9.5,3.8-18.9,5-28.5
			c3-23,1.5-45.5-9.6-66.6c-19-36.4-58.3-56.8-99.5-51.3c-39.8,5.2-72.8,36.1-81.1,75.9c-1.1,5.2-1.5,10.5-2,15.8
			c-0.9,8.9-7.6,15.2-15.8,14.8c-8.5-0.4-14.9-7.4-14.5-16.5c1.7-34,14.6-63.2,39.6-86.3c36-33.2,78.4-43.5,125-29
			c47.3,14.7,75.9,48,87.1,96.2c1.1,4.7,1.6,9.5,2,14.3C383,250.8,382.8,255.3,382.8,259.8z"/>
		<path d="M327.4,258c-2.1,55.2-22.8,99.7-63.2,135c-4.2,3.7-8.9,5.9-14.6,4.5c-5.6-1.3-9.6-4.8-11.2-10.3
			c-1.6-5.8-0.4-11.2,4.1-15.6c5.3-5.1,10.9-9.9,15.8-15.3c22.4-24.8,35.1-53.8,37.9-87.2c0.6-7.3,1.2-14.6-0.6-21.9
			c-5-19.8-23.2-32.6-42.8-30.8c-21.4,2-36.8,18.3-37.5,39.8c-0.4,12.1-2.7,23.5-9,33.9c-12.5,20.8-31,32-55.2,33.4
			c-9.8,0.6-17.1-5.4-17.5-14.4c-0.5-8.9,6.2-15.5,16.1-16c16.4-0.8,29.5-11,33.7-26.4c1-3.7,1.4-7.5,1.5-11.3
			c1-35.8,28.6-65.8,63.9-69.2c36.4-3.5,69.5,20.7,76.9,56.3C326.8,248.1,326.9,254,327.4,258z"/>
		<path d="M271.1,261.4c-3.9,50-27.7,86.6-73.6,107.9c-8.6,4-17.5,0.6-21-7.4c-3.4-7.9-0.1-16.3,8.5-20.2
			c22.7-10.3,39.1-26.7,48.8-49.7c4.4-10.4,6.4-21.3,6.9-32.5c0.1-2.2,0.1-4.4,0.6-6.4c2-7.4,9-12,16.8-11c7.1,0.9,12.5,7,12.9,14.4
			C271.2,258.1,271.1,259.7,271.1,261.4z"/>
	</g>
</g>
</svg>
