<?xml version="1.0" encoding="utf-8"?>
<!-- Generator: Adobe Illustrator 22.0.1, SVG Export Plug-In . SVG Version: 6.00 Build 0)  -->
<svg version="1.1" id="Capa_1" xmlns="http://www.w3.org/2000/svg" xmlns:xlink="http://www.w3.org/1999/xlink" x="0px" y="0px"
	 viewBox="0 0 512 512" style="enable-background:new 0 0 512 512;" xml:space="preserve">
<path d="M471.5,73C445,44.3,408.7,28.5,369.2,28.5c-29.5,0-56.5,9.3-80.3,27.7c-12,9.3-22.9,20.6-32.5,33.9
	c-9.6-13.3-20.5-24.6-32.5-33.9c-23.8-18.4-50.8-27.7-80.3-27.7c-39.5,0-75.8,15.8-102.2,44.5C15.2,101.4,0.8,140.1,0.8,182.1
	c0,43.2,16.1,82.8,50.7,124.5c31,37.4,75.5,75.3,127,119.2c17.6,15,37.5,32,58.2,50.1c5.5,4.8,12.5,7.4,19.8,7.4
	c7.3,0,14.3-2.6,19.8-7.4c20.7-18.1,40.6-35.1,58.2-50.1c51.5-43.9,96-81.8,126.9-119.1c34.6-41.7,50.7-81.3,50.7-124.5
	C512,140.1,497.6,101.4,471.5,73z"/>
</svg>
