<?xml version="1.0" encoding="utf-8"?>
<!-- Generator: Adobe Illustrator 22.0.1, SVG Export Plug-In . SVG Version: 6.00 Build 0)  -->
<svg version="1.1" id="Capa_1" xmlns="http://www.w3.org/2000/svg" xmlns:xlink="http://www.w3.org/1999/xlink" x="0px" y="0px"
	 viewBox="0 0 512 512" style="enable-background:new 0 0 512 512;" xml:space="preserve">
<g>
	<path d="M497,76.2h-15v314.5c0,24.8-21.2,44.9-45.9,44.9H298.8c-6.2,17.4-22.8,30-42.4,30s-36.2-12.5-42.4-30H76.7
		c-24.8,0-45.9-20.2-45.9-44.9V76.2h-15c-8.3,0-15,6.7-15,15v359.4c0,8.3,6.7,15,15,15h168.3c6.2,17.4,22.8,30,42.4,30h59.9
		c19.5,0,36.2-12.5,42.4-30H497c8.3,0,15-6.7,15-15V91.2C512,82.9,505.3,76.2,497,76.2z"/>
	<path d="M241.4,394.7V51.2c-20.7-17.3-54-34.9-104.8-34.9c-8.3,0-15,6.7-15,15v299.5c0,8.3,6.7,15,15,15
		C205.9,345.7,234.8,384.1,241.4,394.7z"/>
	<path d="M436.1,405.7c8.3,0,15-6.7,15-15V61.2c0-8.3-6.7-15-15-15H316.3c-16.9,0-32.4,5.9-44.9,15.4v359c0-8.3,6.7-15,15-15h149.7
		V405.7z"/>
	<path d="M76.7,46.2c-8.3,0-15,6.7-15,15v329.5c0,8.3,6.7,15,15,15h135.6c-8.4-10.2-30.4-30-75.7-30c-24.8,0-44.9-20.2-44.9-44.9
		V46.2H76.7z"/>
</g>
</svg>
