<?xml version="1.0" encoding="utf-8"?>
<!-- Generator: Adobe Illustrator 22.0.1, SVG Export Plug-In . SVG Version: 6.00 Build 0)  -->
<svg version="1.1" id="Capa_1" xmlns="http://www.w3.org/2000/svg" xmlns:xlink="http://www.w3.org/1999/xlink" x="0px" y="0px"
	 viewBox="0 0 512 512" style="enable-background:new 0 0 512 512;" xml:space="preserve">
<g fill="#fff">
	<g>
		<path d="M418.6,52.9c0.6,0.2,1.2,0.5,1.8,0.7c10.4,2.4,16.6,9.5,16.6,20.1c0.1,29.1,0.3,58.2-0.2,87.3
			c-0.4,27.7-11.1,51.3-31.1,70.5c-8.8,8.5-19,14.6-31.2,17c-2.2,0.4-3,2-3.8,3.7c-7,14.9-16.7,27.9-28.8,39.1
			c-9.9,9.1-20.9,16.5-33.1,22.1c-1.2,0.6-2.4,1.1-3.8,1.8c0,16.5,0,33,0,49.9c1.2,0.1,2.3,0.3,3.5,0.3c5.5,0,10.9-0.1,16.4,0
			c2.5,0,5,0.3,7.5,0.7c4.6,0.7,7.6,3.4,8.4,7.9c0.8,4.8,1.4,9.8,1.4,14.7c0,20.7-0.2,41.4-0.4,62c-0.1,6.4-2.5,9.6-8.8,11.1
			c-3.7,0.9-7.6,1.4-11.5,1.4c-14.9,0-29.9-0.4-44.8-0.4c-18.3,0-36.6,0.2-54.8,0.3c-12.1,0.1-24.3,0.1-36.4,0.1
			c-1.6,0-3.2-0.1-4.8-0.4c-5.6-0.8-8.8-4.1-10-9.5c-0.3-1.4-0.5-2.9-0.5-4.3c-0.1-22-0.1-44-0.1-66.1c0-2.9,0.3-5.9,0.9-8.7
			c0.8-4.6,3.8-7.3,8.3-8c3.5-0.5,7.2-0.7,10.7-0.8c5.6-0.1,11.1,0,17,0c0.1-1.7,0.2-3,0.2-4.3c0-14-0.1-28,0.1-42
			c0-2.8-0.8-4.2-3.4-5.4c-27.7-12.7-48.4-32.7-61.9-60c-1.5-3-3.1-4.6-6.6-5.4c-12.8-3-23.4-10.2-32.4-19.6
			c-16.2-17-26-37.2-27.3-60.7c-1-17.4-0.6-34.9-0.8-52.4c-0.1-12-0.3-24-0.1-36c0.1-4.3,0.6-8.8,1.8-13c1.9-6.7,6.7-10.7,13.7-11.8
			c3.4-0.5,6.8-1,10.2-1.5c38.4,0,76.9,0,115.3,0c0.6,0.1,1.3,0.4,1.9,0.4c16.1,0,32.1,0,48.2,0c0.6,0,1.3-0.3,1.9-0.4
			C318.2,52.9,368.4,52.9,418.6,52.9z M153.5,77.7c0,2.1,0,3.6,0,5.2c0,29.2,0,58.4,0,87.7c0,10-0.4,20,0.2,30
			c0.8,16.3,4.6,31.9,12.2,46.4c20.9,40,75.3,66.9,127.7,46.4c35.7-14,65.6-50.3,65.2-97.1c-0.3-38-0.1-76.1-0.1-114.1
			c0-1.4-0.1-2.8-0.2-4.5C290.1,77.7,222.1,77.7,153.5,77.7z M317.4,389.7c-41,0-81.7,0-122.6,0c0,16.3,0,32.3,0,48.3
			c41,0,81.8,0,122.6,0C317.4,421.7,317.4,405.8,317.4,389.7z M99.3,77.7c0,2,0,3.4,0,4.9c0,19.1-0.1,38.2,0,57.2
			c0,8.7,0,17.4,0.7,26c1.6,18.5,8.9,34.5,22.3,47.4c2.4,2.3,5.2,4.2,8.4,6.7c-0.2-2.6-0.5-4.2-0.5-5.8c-0.5-14.9-1.2-29.9-1.3-44.8
			c-0.1-29,0.2-57.9,0.3-86.9c0-1.5-0.1-3.1-0.2-4.8C119,77.7,109.4,77.7,99.3,77.7z M383.1,77.7c-0.4,47.4,1.6,94.4-1,141.5
			c3.6-2.7,7.2-5.4,10.2-8.6c13.8-14.7,20.2-32.5,20.5-52.4c0.3-25.6,0.1-51.2,0.1-76.8c0-1.2-0.1-2.3-0.2-3.7
			C402.9,77.7,393.3,77.7,383.1,77.7z M280.2,364.9c0-14.1,0-28,0-42.4c-16.2,2.9-32.1,2.7-48.2,0.1c0,14.4,0,28.2,0,42.2
			C248.2,364.9,264.2,364.9,280.2,364.9z"/>
		<path d="M208.1,204.8c1.1-6.6,2.2-15.7,4.3-24.5c1.6-6.6,0.8-11.2-4.7-15.6c-5.5-4.4-10.3-9.7-15.3-14.7c-1.4-1.4-2.8-2.9-4-4.5
			c-5.7-7.9-2.4-17.1,7.2-19c8.8-1.7,17.6-2.9,26.5-4.1c7.8-1,7.8-0.8,11.2-7.8c3.3-6.7,6.5-13.4,9.9-20.1c0.9-1.8,1.9-3.6,3-5.2
			c5.3-7.8,15.3-7.9,20,0.2c4.6,7.9,8.5,16.3,12.5,24.5c3.6,7.2,3.5,7.2,11.4,8.2c8.6,1.2,17.1,2.5,25.7,3.8
			c5.2,0.8,8.8,3.6,10.4,8.7c1.5,5-0.2,9.1-3.8,12.7c-7.2,7-14.3,14.1-21.5,20.9c-1.9,1.8-2.3,3.5-1.8,6c1.8,9.4,3.3,18.9,5,28.3
			c0.2,1.2,0.3,2.4,0.3,3.6c0.1,9.3-7.8,15-16.3,11.3c-8.4-3.7-16.4-8.2-24.6-12.5c-6.9-3.6-6.9-3.8-13.7-0.2
			c-7,3.7-13.8,7.5-20.9,11c-2.7,1.3-5.7,2.4-8.7,2.7C213.5,219.4,207.9,213.7,208.1,204.8z M288,146.7c-4.7-0.6-8.6-1.2-12.6-1.6
			c-5.6-0.6-9.9-3-12.5-8.1c-1.8-3.4-3.5-6.9-5.3-10.3c-0.4-0.8-1-1.6-1.8-2.8c-2.1,4.4-4.1,8.2-5.8,12c-2.2,4.7-5.7,7.6-10.8,8.5
			c-4.8,0.8-9.6,1.7-14.9,2.6c0.8,0.9,1.4,1.6,2,2.2c2.5,2.4,5,4.8,7.5,7.2c3.6,3.3,5.3,7.3,4.8,12.2c-0.2,2.1-0.4,4.2-0.7,6.3
			c-0.4,3-1,6-1.6,9.7c3.6-2,6.8-3.4,9.7-5.2c6.4-4.2,12.7-4.1,19.2-0.5c3.3,1.9,6.8,3.6,10.6,5.6c-0.2-1.4-0.3-2.3-0.4-3.2
			c-0.7-4.6-1.5-9.2-2-13.8c-0.4-4.1,1.1-7.5,4.2-10.3C281.1,154,284.2,150.6,288,146.7z"/>
	</g>
</g>
</svg>
