<?xml version="1.0" encoding="utf-8"?>
<!-- Generator: Adobe Illustrator 22.0.1, SVG Export Plug-In . SVG Version: 6.00 Build 0)  -->
<svg fill="#858585" version="1.1" id="Capa_1" xmlns="http://www.w3.org/2000/svg" xmlns:xlink="http://www.w3.org/1999/xlink" x="0px" y="0px"
	 viewBox="0 0 512 512" style="enable-background:new 0 0 512 512;" xml:space="preserve">
<g>
	<path d="M446.6,233.6c-6.3-51.2-29.5-93.3-69.1-126.2c-26.4-22-56.8-35.4-90.7-41c-5.2-0.8-10.4-1.2-15.6-1.8
		c-1.1-0.1-2.2-0.4-3.3-0.6c-8,0-16,0-24,0c-3.6,0.5-7.1,0.9-10.7,1.4c-49.5,6.2-90.6,28.3-123.2,65.9c-23.4,27-38.3,58.2-43.5,93.5
		c-9.6,64.5,8.3,120.7,54.1,167.3c25.5,26,56.5,43,92.1,51c107.9,24.3,207.2-44.5,230-143c2.2-9.4,3.1-19.2,4.6-28.8
		c0.2-1.1,0.4-2.2,0.7-3.3c0-8,0-16,0-24C447.5,240.5,447,237.1,446.6,233.6z M255.6,424.9C162.4,424.6,86.8,348.7,87,255.7
		c0.2-93.1,76.1-168.8,169.1-168.7c93.1,0.1,168.8,75.9,168.8,169C424.8,349.3,348.7,425.2,255.6,424.9z"/>
	<path d="M320.7,289.6c-5-1-9,0.6-12.7,5c-0.6,0.8-1.3,1.5-1.9,2.3c-3.6,4.3-7.3,8.8-11.6,12.6c-22.3,19.5-49.8,21-73.5,3.9
		c-6.9-5-12.9-11.1-18.3-18.7c-3.2-4.4-7.4-6.2-12.5-5.3c-4.3,0.8-7.6,3.4-9.3,7.3c-1.7,3.9-1.2,8.4,1.3,12.2
		c4.6,7,10.6,13.6,18.4,20.2c16.8,14.1,34.7,21,54.8,21.2c0.1,0,0.2,0,0.3,0c33.1,0,59.5-21.7,73.3-42c1.8-2.6,2.3-5.7,1.6-8.8
		C329.2,294,325.9,290.7,320.7,289.6z"/>
	<path d="M208.7,206.5c0-10.4-8.4-18.8-18.8-18.8c-10.2,0-18.6,8.3-18.7,18.5c-0.1,10.4,8.2,18.9,18.6,19
		C200.2,225.3,208.7,216.9,208.7,206.5z"/>
	<path d="M321.2,187.8c-10.4,0-18.8,8.5-18.7,18.8c0,10.2,8.3,18.6,18.5,18.7c10.4,0.1,18.9-8.3,18.9-18.6
		C340,196.2,331.6,187.8,321.2,187.8z"/>
</g>
</svg>
