<?xml version="1.0" encoding="utf-8"?>
<!-- Generator: Adobe Illustrator 22.0.1, SVG Export Plug-In . SVG Version: 6.00 Build 0)  -->
<svg version="1.1" id="Capa_1" xmlns="http://www.w3.org/2000/svg" xmlns:xlink="http://www.w3.org/1999/xlink" x="0px" y="0px"
	 viewBox="0 0 512 512" style="enable-background:new 0 0 512 512;" xml:space="preserve">
<g fill="#fff">
	<path d="M370.7,178.9c-0.3-13.4-13-24.7-26.5-25.3c-3.8-0.2-7.7,0-12.4,0c0-1.8,0-4,0-6.2c0-13.1,0.2-26.3-0.1-39.4
		c-0.3-13.6-10-24.7-23.4-26.9c-4.7-0.8-9.9,0-14.9,1.6c-1.6-14.7-7.6-25.1-21.9-29.4c-5.9-1.8-13.6-1.5-17.6,0.4
		c-6.5,2.7-11.5,7.9-15.8,13.8c-1.7-0.2-2.2-0.3-4.1-0.5c-4.4-0.6-9-1.7-13.3-1.2c-15.7,2.1-25.3,13.7-25.8,30.3
		c-0.1,4.4,0,8.9,0,13.6c-2.7-0.2-4.5-0.2-6.3-0.4c-16.5-1.7-30.2,8.3-32.5,24.8c-1.2,8.7-1,17.6-0.9,26.4
		c0.3,32.6-1.9,65.2,2.4,97.7c3,23.1,9.9,44.7,24.2,63.6c2.9,3.8,4.4,9.3,4.8,14.2c0.8,9,0.2,18,0.3,27.1c0,3-0.6,4.6-4.1,5.6
		c-9.4,2.6-13.4,8.1-13.8,17.9c-0.2,5.5,0.1,11.1-0.2,16.6c-0.1,1.8-0.8,4.4-2.2,5.2c-6.5,3.9-8.1,9.6-8.1,16.7c0,9,0,18,0,27
		c0,5.4,4.4,9.8,9.8,9.8h0c5.4,0,9.8-4.4,9.8-9.8v-24.8c1-0.3,1.6-0.6,2.1-0.6c46.1,0,92.3,0,138.4-0.1c3.5,0,4.7,1.5,4.6,4.8
		c-0.1,6.2-0.1,12.3,0,18.5c0.1,6.8,4.1,11.2,9.7,11.1c5.4-0.1,9.4-4.5,9.5-10.8c0.1-7.8,0.6-15.6-0.2-23.4
		c-0.4-4.2-1.9-9.5-4.9-12.1c-5.4-4.7-6.1-10.1-5.7-16.4c0.2-3.7,0.1-7.4,0-11.1c-0.1-10.6-3.4-15-13.5-18.7
		c-0.9-0.3-1.7-0.8-2.7-1.3c0-9.3-0.6-18.4,0.3-27.3c0.4-4.3,3.2-8.6,5.7-12.4c1.9-2.8,5.1-4.7,7.7-7.1
		c22.4-21.1,37.3-46.6,40.3-77.4C371.6,221.7,371.1,200.2,370.7,178.9z M301.7,406.6c-17,0-34.1,0-51.1,0c-18.5,0-36.9-0.1-55.4,0.1
		c-5,0.1-6.9-1.4-6.7-6.6c0.5-14.1-1.8-12.4,12.5-12.4c34.5-0.1,68.9,0,103.4,0c8.1,0,8.2,0,8.1,8.1
		C312.4,407.4,314.5,406.5,301.7,406.6z M347.6,254.3c-6.2,22.2-18.3,40.7-36,55.3c-10.8,8.9-16.1,19.8-15.4,33.8
		c0.4,7.9,0.1,15.9,0.1,24.1c-30.4,0-59.8,0-90.3,0c0-11-0.1-21.4,0-31.8c0.2-9.6-2.6-18.2-8.5-25.7c-13.4-16.8-18.8-36.7-21-57.5
		c-4.1-38-2.4-76.2-1.4-114.3c0.2-6.1,3.8-9.7,9.5-9.8c6-0.1,9.9,3.5,10,9.9c0.2,17.4,0.1,34.9,0.1,52.3c0,2.4,0.1,4.9,0.6,7.3
		c0.9,4.8,4.2,7.4,9,7.8c4.5,0.4,8.7-3,9.8-7.7c0.5-2.2,0.4-4.5,0.4-6.7c0-31.6,0-63.2,0-94.8c0-7.9,3.6-11.7,10.3-11.4
		c5.1,0.2,8.4,3.2,9,8.2c0.3,2.2,0.2,4.5,0.2,6.8c0,29.9,0,59.9,0,89.8c0,2.7,0.1,5.4,0.6,7.9c1,4.9,5,8.2,9.5,7.9
		c4.9-0.3,8-3,9.2-7.7c0.5-2.1,0.4-4.5,0.4-6.7c0-34.9,0-69.7,0-104.6c0-2.1-0.1-4.1,0.1-6.1c0.6-5,4.7-8.6,9.6-8.7
		c4.9-0.1,9.1,3.4,9.7,8.5c0.3,2.4,0.2,4.9,0.2,7.4c0,34,0,68.1,0,102.1c0,2.7,0.1,5.4,0.6,7.9c1,4.9,5,8.1,9.5,8
		c4.5-0.1,8.4-3.5,9.3-8.3c0.4-2,0.3-4.1,0.3-6.1c0-26.7,0-53.3,0-80c0-7,3.1-10.9,8.6-11.3c5.4-0.4,9.6,2.9,10.5,8.2
		c0.2,1.6,0.1,3.3,0.1,4.9c0,37.3-0.1,74.7,0.1,112c0,5.2-1.7,8.3-6.3,10.7c-11.9,6.3-22.6,14.1-31.2,24.6c-4.6,5.6-4.5,11.5,0,15.2
		c4.3,3.5,10.1,2.7,14.6-2.5c7.4-8.5,16.1-15.2,26-20.3c11.3-5.7,16.6-14.5,16.1-27.2c-0.5-12.5-0.1-25-0.1-37.5
		c0-2.2,0-4.5,0.5-6.7c1-5.3,4.9-8.6,9.7-8.6c4.8,0.1,9.7,4.1,9.7,9.4C351.4,206.3,354.3,230.6,347.6,254.3z"/>
</g>
</svg>
