<?xml version="1.0" encoding="utf-8"?>
<!-- Generator: Adobe Illustrator 22.0.1, SVG Export Plug-In . SVG Version: 6.00 Build 0)  -->
<svg version="1.1" id="Capa_1" xmlns="http://www.w3.org/2000/svg" xmlns:xlink="http://www.w3.org/1999/xlink" x="0px" y="0px"
	 viewBox="0 0 512 512" style="enable-background:new 0 0 512 512;" xml:space="preserve">
<g>
	<path d="M256.3,103.5C158.6,103.5,70,157,4.6,243.8c-5.3,7.1-5.3,17.1,0,24.2c65.4,86.9,154,140.4,251.7,140.4S442.6,354.9,508,268
		c5.3-7.1,5.3-17.1,0-24.2C442.6,156.9,354,103.5,256.3,103.5z M263.3,363.2c-64.9,4.1-118.4-49.4-114.3-114.3
		c3.3-53.6,46.8-97,100.3-100.3c64.9-4.1,118.4,49.4,114.3,114.3C360.2,316.4,316.8,359.8,263.3,363.2z M260.1,313.6
		c-34.9,2.2-63.8-26.6-61.5-61.5c1.8-28.9,25.2-52.2,54.1-54.1c34.9-2.2,63.8,26.6,61.5,61.5C312.3,288.5,288.8,311.9,260.1,313.6z"
		/>
</g>
</svg>
