<?xml version="1.0" encoding="utf-8"?>
<!-- Generator: Adobe Illustrator 22.0.1, SVG Export Plug-In . SVG Version: 6.00 Build 0)  -->
<svg version="1.1" id="Capa_1" xmlns="http://www.w3.org/2000/svg" xmlns:xlink="http://www.w3.org/1999/xlink" x="0px" y="0px"
	 viewBox="0 0 512 512" style="enable-background:new 0 0 512 512;" xml:space="preserve">
<g fill="#fff">
	<g>
		<path d="M139,460.8L139,460.8c-9.1,0-16.5-7.4-16.5-16.5V67.7c0-9.1,7.4-16.5,16.5-16.5h0c9.1,0,16.5,7.4,16.5,16.5v376.5
			C155.5,453.4,148.1,460.8,139,460.8z"/>
	</g>
	<g>
		<path d="M400.7,324.9H122.4V84h278.4c8.2,0,15.9,4.4,19.9,11.5c4.1,7.1,4.1,15.9,0,23l-50.3,86.5l50.1,85.1
			c4.2,7.1,4.2,16,0.2,23.1C416.6,320.5,409,324.9,400.7,324.9z M157.4,289.9h222.3l-41.1-69.8c-5.4-9.2-5.4-20.6-0.1-29.8L380,119
			H157.4V289.9z"/>
	</g>
</g>
</svg>
