<svg id="Layer_2" data-name="Layer 2" xmlns="http://www.w3.org/2000/svg" width="28.831" height="26.683" viewBox="0 0 28.831 26.683">
  <g id="Layer_1" data-name="Layer 1">
    <path id="Path_144" data-name="Path 144" d="M28.831,7.683,18.222,21.78,14.7,26.457c-.225.3-.225.3-.45.008L.43,8.24C.288,8.053.143,7.865,0,7.683V7.571Q2.647,3.962,5.29.35A.734.734,0,0,1,5.957,0q8.459.017,16.918,0a.712.712,0,0,1,.652.324q2.641,3.632,5.3,7.246ZM14.445,22.567c.05-.128.083-.2.108-.279q2.222-6.733,4.441-13.464c.108-.327.1-.333-.262-.333H10.119c-.385,0-.386,0-.262.369q1.877,5.616,3.759,11.232C13.886,20.9,14.156,21.705,14.445,22.567ZM14.416,6.729h4.36c.3,0,.319-.027.225-.3-.476-1.451-.958-2.9-1.427-4.355a.374.374,0,0,0-.418-.306q-2.743.012-5.485,0a.372.372,0,0,0-.418.306c-.462,1.436-.938,2.868-1.409,4.3-.115.352-.111.359.265.359Zm2.61,13.631.041.03c.023-.026.05-.05.071-.075l8.71-11.579c.044-.059.129-.118.1-.19-.04-.1-.15-.052-.225-.052-1.482,0-2.964,0-4.446-.008a.385.385,0,0,0-.438.315q-1.276,3.917-2.575,7.827ZM11.8,20.334l.047-.013c-.014-.052-.025-.105-.042-.156Q9.891,14.459,7.983,8.753A.341.341,0,0,0,7.6,8.485c-1.472.008-2.945,0-4.417.007-.1,0-.237-.059-.282.048s.085.176.145.255q2.795,3.689,5.593,7.373l3.16,4.167ZM5.373,6.729c.751,0,1.5,0,2.252,0a.309.309,0,0,0,.348-.242Q8.693,4.266,9.43,2.052c.066-.2.047-.293-.194-.291-.863.008-1.727.006-2.588,0a.4.4,0,0,0-.354.181Q4.633,4.219,2.967,6.486c-.041.056-.127.112-.08.194s.135.049.207.049Q4.234,6.73,5.373,6.729Zm18.08,0h2.252c.082,0,.191.032.237-.044.06-.1-.053-.167-.1-.237Q24.212,4.223,22.583,2a.49.49,0,0,0-.441-.235q-1.252.014-2.5,0c-.246,0-.312.059-.225.308q.728,2.173,1.431,4.355a.374.374,0,0,0,.419.309c.726-.015,1.457-.008,2.189-.007Z" fill="#ffaf02"/>
  </g>
</svg>
