<?xml version="1.0" standalone="no"?>
<!DOCTYPE svg PUBLIC "-//W3C//DTD SVG 20010904//EN"
 "http://www.w3.org/TR/2001/REC-SVG-20010904/DTD/svg10.dtd">
<svg version="1.0" xmlns="http://www.w3.org/2000/svg"
 width="512.000000pt" height="512.000000pt" viewBox="0 0 512.000000 512.000000"
 preserveAspectRatio="xMidYMid meet">

<g transform="translate(0.000000,512.000000) scale(0.100000,-0.100000)"
fill="#000000" stroke="none">
<path d="M2422 5098 c-58 -32 -2061 -1978 -2089 -2030 l-23 -41 0 -1444 c0
-1197 2 -1449 14 -1476 17 -42 66 -83 114 -97 25 -8 280 -10 813 -8 l775 3 37
25 c20 13 46 43 59 65 l23 40 3 672 3 673 409 0 409 0 3 -672 3 -673 23 -40
c13 -22 39 -52 59 -65 l37 -25 775 -3 c533 -2 788 0 813 8 48 14 97 55 114 97
12 27 14 279 14 1476 l0 1444 -22 41 c-28 51 -2160 2008 -2216 2034 -51 24
-101 22 -150 -4z m1122 -1353 l916 -840 0 -1272 0 -1273 -565 0 -565 0 0 667
c0 659 0 667 -21 711 -13 26 -38 54 -62 70 l-41 27 -646 0 -646 0 -41 -27
c-24 -16 -49 -44 -62 -70 -21 -44 -21 -52 -21 -711 l0 -667 -565 0 -565 0 0
1274 0 1274 922 895 922 895 62 -57 c34 -31 474 -434 978 -896z"/>
</g>
</svg>
