<svg xmlns="http://www.w3.org/2000/svg" xmlns:xlink="http://www.w3.org/1999/xlink" width="23" height="23" viewBox="0 0 23 23">
  <defs>
    <clipPath id="clip-path">
      <rect id="Rectangle_298" data-name="Rectangle 298" width="23" height="23" transform="translate(9660)" fill="#fff" stroke="#707070" stroke-width="1"/>
    </clipPath>
  </defs>
  <g id="Mask_Group_112" data-name="Mask Group 112" transform="translate(-9660)" clip-path="url(#clip-path)">
    <g id="Page-1" transform="translate(9660)">
      <g id="Social-Icons---Rounded">
        <g id="Linkedin">
          <path id="Rounded" d="M2.556,23H20.444A2.556,2.556,0,0,0,23,20.444V2.556A2.556,2.556,0,0,0,20.444,0H2.556A2.556,2.556,0,0,0,0,2.556V20.444A2.556,2.556,0,0,0,2.556,23Z" fill="#007ebb" fill-rule="evenodd"/>
          <path id="Path_576" data-name="Path 576" d="M19.806,19.806H16.392V13.992c0-1.594-.606-2.485-1.867-2.485-1.372,0-2.089.927-2.089,2.485v5.813H9.147V8.731h3.289v1.492a3.863,3.863,0,0,1,3.339-1.83c2.349,0,4.031,1.434,4.031,4.4ZM5.223,7.281A2.044,2.044,0,1,1,7.25,5.238,2.036,2.036,0,0,1,5.223,7.281Zm-1.7,12.524h3.43V8.731H3.524Z" fill="#fff" fill-rule="evenodd"/>
        </g>
      </g>
    </g>
  </g>
</svg>
