<svg xmlns="http://www.w3.org/2000/svg" xmlns:xlink="http://www.w3.org/1999/xlink" width="24" height="23" viewBox="0 0 24 23">
  <defs>
    <clipPath id="clip-path">
      <rect id="Rectangle_294" data-name="Rectangle 294" width="24" height="23" transform="translate(9813.545)" fill="#b4b4b4" stroke="#707070" stroke-width="1"/>
    </clipPath>
  </defs>
  <g id="Mask_Group_114" data-name="Mask Group 114" transform="translate(-9813.545)" clip-path="url(#clip-path)">
    <path id="_13728386351561032650" data-name="13728386351561032650" d="M23.256,4.369a10.027,10.027,0,0,1-2.747.745,4.7,4.7,0,0,0,2.1-2.606,9.593,9.593,0,0,1-3.023,1.141A4.8,4.8,0,0,0,16.1,2.156a4.74,4.74,0,0,0-4.765,4.716,4.8,4.8,0,0,0,.11,1.075A13.545,13.545,0,0,1,1.619,3.016a4.682,4.682,0,0,0,1.465,6.3A4.749,4.749,0,0,1,.93,8.737v.052a4.75,4.75,0,0,0,3.82,4.633,4.809,4.809,0,0,1-1.25.155,4.261,4.261,0,0,1-.9-.08,4.807,4.807,0,0,0,4.455,3.285,9.648,9.648,0,0,1-5.911,2.011A9.028,9.028,0,0,1,0,18.728a13.531,13.531,0,0,0,7.314,2.116A13.4,13.4,0,0,0,20.884,7.426c0-.208-.007-.41-.017-.609A9.454,9.454,0,0,0,23.256,4.369Z" transform="translate(9814.03)" fill="#b4b4b4"/>
  </g>
</svg>
