<svg id="Group_2093" data-name="Group 2093" xmlns="http://www.w3.org/2000/svg" width="28.018" height="28.018" viewBox="0 0 28.018 28.018">
  <rect id="Rectangle_59" data-name="Rectangle 59" width="28.018" height="28.018" fill="#b2b2b2" opacity="0"/>
  <g id="Chalkmate_Comment" transform="translate(3.284 3.775)">
    <path id="Path_25" data-name="Path 25" d="M11.273.4A10.271,10.271,0,0,0,3.26,17.1c-.559,1.049-1.19,2.24-1.6,3.032a.426.426,0,0,0,.5.607l3.993-1.162A10.273,10.273,0,1,0,11.273.4ZM5.99,9.257a1.415,1.415,0,1,1-1.415,1.415A1.415,1.415,0,0,1,5.99,9.257Zm5.283,2.831a1.415,1.415,0,1,1,1.415-1.415A1.415,1.415,0,0,1,11.273,12.088Zm5.279,0a1.415,1.415,0,1,1,1.415-1.415A1.415,1.415,0,0,1,16.552,12.088Z" transform="translate(-1 -0.4)" fill="#b2b2b2"/>
  </g>
</svg>
