<svg xmlns="http://www.w3.org/2000/svg" xmlns:xlink="http://www.w3.org/1999/xlink" width="28" height="28" viewBox="0 0 28 28">
  <defs>
    <clipPath id="clip-path">
      <rect id="portfolio_copy" data-name="portfolio copy" width="28" height="28" transform="translate(11.406 9.944)" fill="#fff"/>
    </clipPath>
  </defs>
  <g id="Mask_Group_73" data-name="Mask Group 73" transform="translate(-11.406 -9.944)" clip-path="url(#clip-path)">
    <g id="Chalkmate_Certification" transform="translate(7.908 6.39)">
      <g id="Group_1388" data-name="Group 1388">
        <path id="Path_442" data-name="Path 442" d="M17.015,3.555H18a1.378,1.378,0,0,0,.157.048,3.517,3.517,0,0,1,1.422.656,3.8,3.8,0,0,1,1.046,1.408,1.561,1.561,0,0,0,1.894.9,4.907,4.907,0,0,1,.943-.137,3.317,3.317,0,0,1,3.377,3.288,4.052,4.052,0,0,1-.472,1.777,1.564,1.564,0,0,0,.451,1.962,6.6,6.6,0,0,1,.684.622,3.331,3.331,0,0,1-.772,5,4.8,4.8,0,0,1-1.354.492,1.522,1.522,0,0,0-1.21,1.49c-.014.294-.041.581-.034.875a.967.967,0,0,0,.082.417c.465.984.943,1.969,1.422,2.953.39.807.772,1.606,1.162,2.413A.889.889,0,0,1,25.744,29c-.205-.055-.4-.1-.608-.15-.745-.185-1.5-.376-2.263-.567-.048.1-.1.191-.13.28-.342.752-.69,1.5-1.025,2.263a1.26,1.26,0,0,1-.663.725h-.492a1.351,1.351,0,0,1-.663-.725c-.759-1.6-1.538-3.192-2.3-4.792-.041-.082-.089-.164-.15-.273-.068.144-.109.232-.15.321-.711,1.572-1.429,3.145-2.133,4.724a1.287,1.287,0,0,1-.67.745H14a1.3,1.3,0,0,1-.663-.725c-.349-.752-.718-1.49-1.08-2.242-.041-.089-.089-.171-.13-.246-.048.007-.068.014-.082.014-.923.253-1.839.513-2.762.766a.877.877,0,0,1-1.162-.643,1.071,1.071,0,0,1,.13-.711c.841-1.866,1.688-3.732,2.529-5.6a.843.843,0,0,0,.089-.335c.007-.273-.014-.547-.027-.82a1.544,1.544,0,0,0-1.183-1.436,9.265,9.265,0,0,1-.943-.273,3.333,3.333,0,0,1-1.743-4.4,4,4,0,0,1,1.21-1.449A1.56,1.56,0,0,0,8.647,11.5a7.43,7.43,0,0,1-.355-.882,3.335,3.335,0,0,1,2.365-4.081,3.693,3.693,0,0,1,1.832.034,1.635,1.635,0,0,0,.991-.034A1.757,1.757,0,0,0,14.472,5.5a3.228,3.228,0,0,1,1.935-1.777C16.6,3.657,16.81,3.609,17.015,3.555ZM12.6,21.157c0,.13-.007.253,0,.383a1.58,1.58,0,0,0,2.516,1.189c.1-.075.2-.164.294-.239a3.31,3.31,0,0,1,2.933-.636,4.064,4.064,0,0,1,1.538.854,1.558,1.558,0,0,0,2.5-.93,3.449,3.449,0,0,0,.034-.649,3.291,3.291,0,0,1,2.071-3.1,8.259,8.259,0,0,1,.916-.26,1.581,1.581,0,0,0,.6-2.728c-.1-.082-.205-.15-.3-.232a3.3,3.3,0,0,1-1.217-3.158,4.491,4.491,0,0,1,.451-1.251A1.554,1.554,0,0,0,23.618,8.2a2.847,2.847,0,0,0-.752.1,3.333,3.333,0,0,1-2.639-.465,3.685,3.685,0,0,1-1.313-1.641A1.433,1.433,0,0,0,17.5,5.3a1.461,1.461,0,0,0-1.415.889c-.055.109-.1.219-.15.321a3.206,3.206,0,0,1-2.871,1.859,4.733,4.733,0,0,1-1.155-.144A1.59,1.59,0,0,0,9.946,9.5a1.839,1.839,0,0,0,.267,1.2,3.211,3.211,0,0,1-.335,3.521,5.042,5.042,0,0,1-.807.766,1.709,1.709,0,0,0-.581.868,1.576,1.576,0,0,0,1.176,1.921c.109.021.212.048.321.075A3.328,3.328,0,0,1,12.6,21.157ZM10.548,26.94c.137-.034.219-.048.308-.068.458-.123.916-.239,1.367-.383a.957.957,0,0,1,1.251.567c.2.438.417.868.629,1.306.034.068.075.13.137.232.684-1.518,1.354-2.994,2.023-4.471a3.469,3.469,0,0,1-4.348-.185C11.457,24.937,11.013,25.922,10.548,26.94ZM20.781,28.6c.062-.123.109-.2.144-.28.205-.444.4-.9.608-1.34a.917.917,0,0,1,1.162-.554c.232.055.458.116.684.178.321.082.649.157.971.239a.3.3,0,0,0,.041-.048c-.451-.93-.9-1.866-1.354-2.8a3.475,3.475,0,0,1-4.491-.014C19.291,25.5,20.022,27.029,20.781,28.6Z" fill="#fff"/>
        <path id="Path_443" data-name="Path 443" d="M17.514,8.087a6.457,6.457,0,1,1-6.467,6.446A6.474,6.474,0,0,1,17.514,8.087Zm0,1.764A4.7,4.7,0,1,0,22.2,14.574,4.684,4.684,0,0,0,17.514,9.851Z" fill="#fff"/>
        <path id="Path_444" data-name="Path 444" d="M16.823,14.629c.212-.157.4-.294.595-.431.574-.417,1.148-.834,1.723-1.258a.91.91,0,0,1,.848-.178.866.866,0,0,1,.4,1.408,1.442,1.442,0,0,1-.246.212l-2.871,2.092c-.075.055-.15.1-.226.15a.823.823,0,0,1-1.1-.219c-.349-.458-.677-.93-.991-1.408a.872.872,0,0,1,1.422-1C16.522,14.191,16.652,14.4,16.823,14.629Z" fill="#fff"/>
      </g>
    </g>
  </g>
</svg>
