<?xml version="1.0" encoding="utf-8"?>
<!-- Generator: Adobe Illustrator 22.0.1, SVG Export Plug-In . SVG Version: 6.00 Build 0)  -->
<svg version="1.1" id="Capa_1" xmlns="http://www.w3.org/2000/svg" xmlns:xlink="http://www.w3.org/1999/xlink" x="0px" y="0px"
	 viewBox="0 0 512 512" style="enable-background:new 0 0 512 512;" xml:space="preserve" color='#AEAEAE'>
<g fill="#AEAEAE">
	<path d="M472.7,320.7c-7,0-12.7,5.7-12.7,12.7v112.9c0,21.1-17.1,38.1-38.1,38.1H65.1C44,484.4,27,467.3,27,446.3V115
		c0-21.1,17-38.1,38.1-38.2H178c7,0,12.7-5.7,12.7-12.7S185,51.4,178,51.4H65.1C30,51.5,1.6,79.9,1.5,115v331.3
		c0,35.1,28.5,63.5,63.6,63.6h356.7c35.1,0,63.5-28.5,63.6-63.6V333.4C485.4,326.4,479.7,320.7,472.7,320.7z"/>
	<path d="M480.4,18.7c-22.3-22.3-58.6-22.3-80.9,0L172.6,245.5c-1.6,1.6-2.7,3.5-3.3,5.6l-29.8,107.7c-1.2,4.4,0,9.1,3.3,12.4
		c3.2,3.2,8,4.5,12.4,3.3l107.7-29.8c2.1-0.6,4-1.7,5.6-3.3l226.8-226.8c22.3-22.4,22.3-58.6,0-80.9L480.4,18.7z M200.3,253.8
		L386,68.1l59.9,59.9L260.2,313.6L200.3,253.8z M188.4,277.8l47.8,47.8L170,343.9L188.4,277.8z M477.3,96.6L463.8,110l-59.9-59.9
		l13.5-13.5c12.4-12.4,32.5-12.4,44.9,0l14.9,14.9C489.7,64,489.7,84.1,477.3,96.6z"/>
</g>
</svg>
