<?xml version="1.0" encoding="utf-8"?>
<!-- Generator: Adobe Illustrator 22.0.1, SVG Export Plug-In . SVG Version: 6.00 Build 0)  -->
<svg version="1.1" id="Capa_1" xmlns="http://www.w3.org/2000/svg" xmlns:xlink="http://www.w3.org/1999/xlink" x="0px" y="0px"
	 viewBox="0 0 512 512" style="enable-background:new 0 0 512 512;" xml:space="preserve">
<g>
	<path d="M133.1,394.3c-34.1,0-64.4-21.8-75.4-54.3l-0.7-2.4c-2.6-8.6-3.7-15.8-3.7-23.1V169.3L1.6,341.7
		c-6.6,25.4,8.5,51.7,33.9,58.7l329.3,88.2c4.1,1.1,8.2,1.6,12.3,1.6c21.2,0,40.6-14.1,46-34.8l19.2-61H133.1V394.3z"/>
	<path d="M191.6,170.7c23.5,0,42.6-19.1,42.6-42.6s-19.1-42.6-42.6-42.6S149,104.6,149,128.1S168.1,170.7,191.6,170.7z"/>
	<path d="M457.8,21.7H138.4c-29.3,0-53.2,23.9-53.2,53.2v234.2c0,29.3,23.9,53.2,53.2,53.2h319.4c29.3,0,53.2-23.9,53.2-53.2V74.9
		C511,45.6,487.2,21.7,457.8,21.7z M138.4,64.3h319.4c5.9,0,10.6,4.8,10.6,10.6v151.2l-67.3-78.5c-7.1-8.4-17.5-12.8-28.6-13.1
		c-11,0.1-21.4,5-28.4,13.4L265,242.8l-25.8-25.7c-14.6-14.6-38.3-14.6-52.8,0l-58.8,58.8v-201C127.8,69,132.5,64.3,138.4,64.3z"/>
</g>
</svg>
