<?xml version="1.0" encoding="utf-8"?>
<!-- Generator: Adobe Illustrator 22.0.1, SVG Export Plug-In . SVG Version: 6.00 Build 0)  -->
<svg version="1.1" id="Capa_1" xmlns="http://www.w3.org/2000/svg" xmlns:xlink="http://www.w3.org/1999/xlink" x="0px" y="0px" viewBox="0 0 512 512" style="enable-background:new 0 0 512 512;" xml:space="preserve">
	<g fill="#BABABA">

		<path d="M483.6,328.4h-17.4c1.7-4.9,2.7-10.2,2.7-15.8V123.5c0-26.1-21.2-47.3-47.3-47.3H270h-27H91.3c-26,0-47.3,21.2-47.3,47.3
	v189.2c0,5.5,1,10.8,2.7,15.8H29.3C13.7,328.4,1,341.1,1,356.8c0,43.5,35.4,78.8,78.8,78.8H243h27h163.2c43.5,0,78.8-35.4,78.8-78.8
	C512,341.1,499.3,328.4,483.6,328.4z M75.6,123.5c0-8.7,7.1-15.8,15.8-15.8H243h27h151.6c8.7,0,15.8,7.1,15.8,15.8v189.2
	c0,8.7-7.1,15.8-15.8,15.8h-15.3h-4.7h-31.5h-2.6c-10.7-29.2-32.4-52.6-59.6-65.7c15.5-14.1,25.3-34.3,25.3-56.9
	c0-42.3-34.4-76.7-76.7-76.7s-76.7,34.4-76.7,76.7c0,22.7,9.9,43.1,25.6,57.2c-7.8,3.8-15.2,8.4-22,13.9
	c-16.8,13.5-29.6,31.4-37,51.5h-3.6h-31.5h-4.7H91.3c-8.7,0-15.8-7.1-15.8-15.8L75.6,123.5L75.6,123.5z M256.5,251.1
	c-24.9,0-45.2-20.3-45.2-45.2s20.3-45.2,45.2-45.2s45.2,20.3,45.2,45.2S281.4,251.1,256.5,251.1z M257,282.6
	c32.3,0,61.4,18.1,76.1,45.8h-15.5H286h-16h-27h-16.1h-31.5h-14.6C195.4,300.7,224.3,282.6,257,282.6z M433.2,404.1H270h-27H79.8
	c-25,0-45.6-19.5-47.2-44.1H243h27h210.4C478.7,384.6,458.2,404.1,433.2,404.1z" />
		<path d="M-702.5,216.5c-3.9,68.4-33.1,123.3-88.4,163.9c-34.2,25.1-62.3,55.5-83.7,92.1c-5,8.6-10.1,17-15.3,25.5
	c-3.2,5.2-7.4,9.6-13.4,11.8c-10.2,3.8-21.3,1-28.1-8c-5-6.5-9.2-13.7-13.4-20.8c-23-39.5-52.9-72.9-89.2-100.5
	c-30.9-23.4-55.6-51.8-70.3-87.8c-29.6-72.3-23.1-141.7,22.4-205c46-63.8,110.4-93.2,188.9-86.4c86,7.5,158.6,65.8,183.1,153.1
	C-704.8,172.1-701.6,200.1-702.5,216.5z M-912.4,300.6c49.8,0.2,90.8-39.9,91.2-89.4c0.3-49.3-37.8-91.4-90.3-91.8
	c-50.3-0.3-90.2,38.9-91,89.2C-1003.3,258.3-964.3,299.9-912.4,300.6z" />
	</g>
</svg>
