<?xml version="1.0" encoding="utf-8"?>
<!-- Generator: Adobe Illustrator 22.0.1, SVG Export Plug-In . SVG Version: 6.00 Build 0)  -->
<svg version="1.1" id="Capa_1" xmlns="http://www.w3.org/2000/svg" xmlns:xlink="http://www.w3.org/1999/xlink" x="0px" y="0px"
	 viewBox="0 0 512 512" style="enable-background:new 0 0 512 512;" xml:space="preserve">
<g>
	<path d="M482.7,356.7h-17.4c1.7-4.9,2.7-10.2,2.7-15.8V151.8c0-26.1-21.2-47.3-47.3-47.3h-45.3v-0.1c0-31.2-25.4-56.5-56.5-56.5
		h-126c-31.2,0-56.5,25.4-56.5,56.5v0.1h-46c-26.1,0-47.3,21.2-47.3,47.3V341c0,5.5,1,10.8,2.7,15.8H28.4
		C12.7,356.7,0,369.5,0,385.1c0,43.5,35.4,78.8,78.8,78.8H242h27h163.2c43.5,0,78.8-35.4,78.8-78.8
		C511.1,369.5,498.3,356.7,482.7,356.7z M420.7,136c8.7,0,15.8,7.1,15.8,15.8V341c0,8.7-7.1,15.8-15.8,15.8h-15.3h-4.7h-5.4h-20
		v-50.6l1.9,1.5c2.7,2.1,6,3.2,9.3,3.2c2.3,0,4.6-0.5,6.7-1.5c5.3-2.6,8.5-7.8,8.5-13.7v-73.9c5-7.8,7.9-17,7.9-26.9
		c0-22.1-14.4-40.9-34.3-47.6V136H420.7z M330.5,194.8c0-10.2,5.3-19.2,13.3-24.4c4.5-3,10-4.7,15.8-4.7s11.2,1.7,15.8,4.7
		c8,5.2,13.3,14.2,13.3,24.4c0,4.8-1.1,9.2-3.2,13.2c-2.3,4.6-5.9,8.4-10.1,11.2c-4.5,3-10,4.7-15.8,4.7s-11.2-1.7-15.8-4.7
		L333.7,208C331.7,204,330.5,199.5,330.5,194.8z M338.4,240.2c1.8,0.8,3.6,1.6,5.4,2.2c5,1.7,10.3,2.5,15.8,2.5s10.8-0.9,15.8-2.5
		c1.9-0.6,3.7-1.3,5.4-2.2v43.5l-5.4-4.3L359.6,267l-15.8,12.4l-5.4,4.3L338.4,240.2L338.4,240.2z M167.9,104.4
		c0-13.8,11.2-25,25-25h125.9c13.8,0,25,11.2,25,25v0.1V136v11.2c-19.9,6.6-34.3,25.4-34.3,47.6c0,9.9,2.9,19.2,7.9,26.9v73.9
		c0,5.9,3.3,11.1,8.5,13.7c5.3,2.6,11.4,1.9,16-1.7l1.9-1.5v42.7H167.9V136V104.4L167.9,104.4z M74.6,151.8
		c0-8.7,7.1-15.8,15.8-15.8h46v220.7h-26h-4.7H90.4c-8.7,0-15.8-7.1-15.8-15.8V151.8z M432.3,432.4H269.1h-27H78.8
		c-25,0-45.6-19.5-47.2-44.1H242h27h210.4C477.8,412.9,457.3,432.4,432.3,432.4z"/>
	<path d="M189,155.2h86.6c2.6,0,4.9-1,6.6-2.7s2.7-4,2.7-6.6c0-5.1-4.2-9.3-9.3-9.3H189c-2.6,0-4.9,1-6.6,2.7
		c-1.7,1.7-2.7,4-2.7,6.6C179.7,151,183.8,155.2,189,155.2z"/>
	<path d="M189,188.1h86.6c2.6,0,4.9-1,6.6-2.7s2.7-4,2.7-6.6c0-5.1-4.2-9.3-9.3-9.3H189c-2.6,0-4.9,1-6.6,2.7
		c-1.7,1.7-2.7,4-2.7,6.6C179.7,183.9,183.8,188.1,189,188.1z"/>
	<path d="M189,221h86.6c2.6,0,4.9-1,6.6-2.7s2.7-4,2.7-6.6c0-5.1-4.2-9.3-9.3-9.3H189c-2.6,0-4.9,1-6.6,2.7c-1.7,1.7-2.7,4-2.7,6.6
		C179.7,216.8,183.8,221,189,221z"/>
</g>
</svg>
