<?xml version="1.0" encoding="utf-8"?>
<!-- Generator: Adobe Illustrator 22.0.1, SVG Export Plug-In . SVG Version: 6.00 Build 0)  -->
<svg version="1.1" id="Capa_1" xmlns="http://www.w3.org/2000/svg" xmlns:xlink="http://www.w3.org/1999/xlink" x="0px" y="0px"
	 viewBox="0 0 512 512" style="enable-background:new 0 0 512 512;" xml:space="preserve">
<g>
	<path d="M512,255.6c-1.1,68-21.8,129-61.7,183.6c-3.6,4.9-7.4,9.7-11.7,13.9c-11,10.4-27.6,9-37.1-2.5c-6.2-7.6-7.1-19.8-1.7-29.1
		c2.1-3.6,4.9-6.9,7.5-10.3c28.4-37,45.7-78.8,50.8-125c7-63.9-7.2-123.1-44.2-176.2c-4.5-6.5-9.8-12.4-13.9-19.2
		c-9.1-14.9-1.9-32.9,14.8-38.1c8.3-2.6,15.7-0.6,22.2,4.5c3.3,2.6,6,6,8.6,9.3C478,108,499,154.6,507,206.7
		C509.3,223,510.3,239.3,512,255.6z"/>
	<path d="M0.3,260.5c1.4-73.9,22-136.1,63.9-191.1c2.9-3.8,6-7.7,9.6-10.9c9.3-8.5,21.9-9,31.7-1.8c10.4,7.6,13.7,20.9,7.5,32.4
		c-2,3.7-4.7,7-7.3,10.4c-35.4,45.7-53.6,97.6-54,155.2c-0.3,55,15.9,105.1,48.1,149.8c3.9,5.4,8.3,10.5,11.8,16.2
		c7.5,12.1,5.1,26.2-5.5,34.2c-10.3,7.8-25.2,6.5-34.8-3.3c-2.9-3-5.4-6.5-8-9.9c-31.8-41.9-51.4-89.1-59.5-141
		C1.6,285.8,1.2,270.5,0.3,260.5z"/>
	<path d="M408.4,254.6c0.8,29.9-6.1,56.7-18.5,82.2c-1.9,3.8-3.9,7.6-6.4,11c-7.9,10.4-21.4,13.2-32.6,7.2
		c-10.5-5.6-15.4-17.5-12-29.6c1.1-4,3.3-7.8,5.2-11.6c19.1-39.9,18.8-79.7-1.3-119.2c-1.4-2.7-3-5.3-4.2-8.1
		c-5-11.8-0.5-25.2,10.3-31.6c11-6.5,24.8-4.1,32.8,5.9c1.5,1.9,2.8,4,3.9,6.1C399.9,194.8,409.4,224,408.4,254.6z"/>
	<path d="M102.4,258.3c1.1-32,7.1-60.3,21-86.6c3.8-7.2,8.5-13.1,16.3-16.4c9.7-4,18.1-1.6,25.3,4.8c7.3,6.4,10.9,14.7,8,24.5
		c-1.6,5.2-4.2,10.1-6.6,15c-7.6,15.5-11.6,32-12.8,49.1c-1.5,21,2.9,41.1,11.7,60.2c2.3,5,5.1,9.7,7.1,14.8
		c4.6,11.4,0.6,23.5-9.7,30.3c-9.9,6.5-23.4,5.1-31.8-3.5c-2.1-2.2-3.8-4.7-5.3-7.4c-10.3-18.8-17.9-38.5-20.5-59.9
		C104,274,103.1,265,102.4,258.3z"/>
	<path d="M255,306.6c-25.1,0.9-50.9-20.6-50.2-51.4c0.7-30.4,24.4-50.6,51.8-50.2c30.5,0.5,50.3,25.8,50.1,51.8
		C306.5,282.7,284.1,308.2,255,306.6z"/>
</g>
</svg>
