<?xml version="1.0" encoding="utf-8"?>
<!-- Generator: Adobe Illustrator 22.0.1, SVG Export Plug-In . SVG Version: 6.00 Build 0)  -->
<svg version="1.1" id="Capa_1" xmlns="http://www.w3.org/2000/svg" xmlns:xlink="http://www.w3.org/1999/xlink" x="0px" y="0px"
	 viewBox="0 0 512 512" style="enable-background:new 0 0 512 512;" xml:space="preserve">
<g>
	<path d="M129.2,317.4c-3.1-6.1-5.3-10.6-7.6-15c-19.8-39-28.4-79.9-21.9-123.6c9.3-63,41-111.6,94.3-145.7
		c79.5-51,183.5-42.5,255,25.9c32.3,30.9,52.2,69.2,59.9,113.7c15,86.9-25.8,170.8-97.6,213.2c-64.8,38.3-131.8,39.4-198.9,6.1
		c-19.5-9.7-19.9-7-32.2,5.4c-30,30.2-60.1,60.3-90.2,90.5c-7.9,7.9-16.3,15.2-26.7,19.7C37.6,518.8,9.5,505.1,2.1,478
		c-2.7-9.9-0.4-19.1,3.1-28.1C9.3,439.3,16.8,431,24.7,423c30.8-30.8,61.6-61.7,92.4-92.6C121,326.5,124.6,322.4,129.2,317.4z
		 M457.8,207.9c-0.1-84.2-67.6-152.9-152.6-153c-84.5-0.2-152.8,67-153.2,152.3c-0.4,79.9,60.6,153.7,153.2,153.6
		C396.9,360.7,457.8,287,457.8,207.9z"/>
	<path d="M314.1,83.9c15.8,0,31.3,2.5,46.1,8c3.3,1.2,6.6,2.6,9.6,4.5c8,5,11.6,14,9.3,22.2c-2.8,10.3-10.7,16.7-21.1,16.2
		c-4.9-0.2-9.8-2.1-14.7-3.4c-21.6-6.2-42.8-6.3-63.9,2.2c-20.1,8.1-34.9,21.9-45.7,40.4c-1.8,3.1-3.1,6.4-4.9,9.4
		c-6.4,10.9-18,14.9-28.4,9.9c-10.4-4.9-14.8-16.7-9.9-28.4c7.2-17,17.6-31.9,31.1-44.5C247.1,96.6,279.6,83.9,314.1,83.9z"/>
</g>
</svg>
