<?xml version="1.0" encoding="utf-8"?>
<!-- Generator: Adobe Illustrator 22.0.1, SVG Export Plug-In . SVG Version: 6.00 Build 0)  -->
<svg version="1.1" id="Capa_1" xmlns="http://www.w3.org/2000/svg" xmlns:xlink="http://www.w3.org/1999/xlink" x="0px" y="0px"
	 viewBox="0 0 512 512" style="enable-background:new 0 0 512 512;" xml:space="preserve">
<g>
	<path d="M260.7,511.8c-42.8-0.7-79.7-4.6-115.3-17.3c-16.9-6-33-13.6-47.4-24.3c-23-17-35.6-38.7-34-68.5
		c2.7-48.6,18.6-91.7,49.2-129.5c2.5-3.1,5.2-6.3,8.3-8.9c10.5-9,23.2-9.1,33.2-0.6c8.4,7.1,11.2,20.7,5.7,31.2
		c-2.6,5-6.5,9.3-9.9,13.8c-20.7,27.2-31.7,57.9-35,91.9c-1.3,14,3.5,23.3,14.6,30.8c18.5,12.6,39.3,19.3,60.8,23.6
		c48.4,9.6,96.8,9.4,144.5-3.8c14.7-4.1,28.7-10.8,42.6-17.4s19.3-17.8,18.1-33.7c-2.6-33.3-14.1-63-33.6-89.9
		c-3.8-5.2-8.3-10.1-11.5-15.6c-6.7-11.6-3.8-24.1,6.9-32.4c9.6-7.4,21.5-7.3,31.2,1c4.3,3.6,8,8.1,11.5,12.5
		c29.8,37.4,44.3,80.6,47.5,127.8c1.6,24.3-7.8,44.3-25.7,60.5c-12.8,11.5-27.6,19.8-43.3,26.6c-24,10.3-49.3,16.2-75.1,19.1
		C287.8,510.6,271.6,511.1,260.7,511.8z"/>
	<path d="M255.4,255.8c-76.1-0.7-127.5-63.3-127.6-126.4C127.7,57,185.5-0.9,257.5,0c62.6,0.8,125.8,48.6,126,127.9
		C383.7,208.4,318.1,256.6,255.4,255.8z M256.8,204.1c42.2-0.5,75.4-33.9,75.4-75.9c0.1-42.7-34.7-77-77.2-76.9
		c-35.8,0.1-76.8,30.9-75.3,78.8C180.9,172.1,214.5,204.7,256.8,204.1z"/>
</g>
</svg>
