<?xml version="1.0" encoding="utf-8"?>
<!-- Generator: Adobe Illustrator 22.0.1, SVG Export Plug-In . SVG Version: 6.00 Build 0)  -->
<svg version="1.1" id="Capa_1" xmlns="http://www.w3.org/2000/svg" xmlns:xlink="http://www.w3.org/1999/xlink" x="0px" y="0px"
	 viewBox="0 0 512 512" style="enable-background:new 0 0 512 512;" xml:space="preserve">
<path d="M137.2,244.7c-31.2-9-60.6-17.4-89.9-25.8c-11.6-3.4-23.5-6.2-34.8-10.4c-12.6-4.6-15.4-19.1-6-27.8
	c1.7-1.5,3.7-2.7,5.8-3.6c3.2-1.3,6.5-2.3,9.8-3.3c73.2-21,146.4-41.8,219.5-63c9.8-2.9,18.9-3.1,28.7-0.2
	C344,132,417.8,152.9,491.5,174c2.8,0.8,5.6,1.6,8.2,2.7c8.2,3.5,12.7,9.7,12.1,17c-0.6,7.7-4.8,12.8-12.2,15
	c-11.6,3.5-23.2,6.8-34.9,10.2c-6.6,1.9-13.1,4-20.1,6.1c-0.4,6.1-0.9,11.1-0.9,16.2c-0.1,36.4,0,72.7-0.1,109.1
	c0,5.2,0.1,10.4-0.7,15.5c-1.3,8.4-7.4,13.6-15.2,14c-8.1,0.4-15.5-5.3-17.1-14c-0.9-5.1-1-10.3-1-15.5c-0.1-31.7,0-63.5-0.1-95.2
	c0-5.7-0.5-11.3-0.8-18.6c-11.4,0.6-20.8,4.6-31.3,7.8c-0.4,4.3-1.1,8.8-1.1,13.3c-0.1,20.8-0.5,41.6,0.1,62.3
	c0.4,13.8-4.7,22.7-17.6,28.4c-17.4,7.7-34.1,16.9-51.1,25.4c-13.4,6.7-26.8,13.3-38.5,23.1c-9.3,7.8-15.8,7.9-24.9,0.3
	c-13-10.9-28.2-17.9-43.1-25.5c-15.9-8.1-31.8-16.5-48-23.9c-11.5-5.2-16.5-12.9-16.1-25.6c0.6-19.6,0.2-39.2,0.2-58.9
	C137.2,257.9,137.2,252.2,137.2,244.7z M83.6,193c5.4,2,9.1,3.7,12.9,4.7c49.2,14,98.6,27.8,147.7,42.1c8.7,2.5,16.6,2.3,25.2-0.2
	c48.6-14.1,97.4-27.8,146-41.7c4-1.1,7.7-3,13.4-5.3c-4.9-1.9-7.4-3.2-10.2-3.9C367.7,174.1,316.8,159.8,266,145
	c-7.1-2.1-13.3-1.6-20.1,0.4c-49.7,14.4-99.6,28.5-149.3,42.8C92.7,189.4,89,191,83.6,193z M173.8,256.5c-3,14.8-3,47.8-0.2,63
	c27.7,14.1,55.7,28.5,83,42.4c28.8-14.8,56.8-29.2,85.2-43.9c0-18.5,0-36.3-0.1-54.1c0-2.2-0.8-4.3-1.5-7.5
	c-4.9,0.9-9.4,1.4-13.7,2.6c-19.4,5.3-38.8,10.6-58,16.5c-8.1,2.5-15.5,2.7-23.6,0.2c-19.2-5.9-38.7-11.1-58-16.5
	C182.6,258,178.1,257.3,173.8,256.5z"/>
</svg>
