<svg xmlns="http://www.w3.org/2000/svg" width="49" height="49" viewBox="0 0 49 49">
  <g id="Group_194" data-name="Group 194" transform="translate(-4209 896)">
    <rect id="Rectangle_77" data-name="Rectangle 77" width="49" height="49" transform="translate(4209 -896)" opacity="0"/>
    <g id="Chalkmate_Connection" transform="translate(4212 -893)">
      <path id="Path_27" data-name="Path 27" d="M26.154,170.026h0a9.452,9.452,0,0,0-1.623-1.3,9.648,9.648,0,0,0-5.206-1.524h-.016a9.649,9.649,0,0,0-6.8,2.826l-9.078,9.086a9.646,9.646,0,0,0,6.821,16.467h.033a9.673,9.673,0,0,0,6.788-2.809l7.488-7.488a.374.374,0,0,0,.115-.272.366.366,0,0,0-.371-.371H24a12.184,12.184,0,0,1-4.687-.914.4.4,0,0,0-.42.082l-5.388,5.4a4.625,4.625,0,0,1-6.541-6.541l9.111-9.1a4.624,4.624,0,0,1,6.524,0,2.579,2.579,0,0,0,3.542,0,2.5,2.5,0,0,0,.725-1.6A2.452,2.452,0,0,0,26.154,170.026Z" transform="translate(-0.6 -153.443)" fill="#fff"/>
      <path id="Path_28" data-name="Path 28" d="M201.14,28.505c.1-.008.214-.025.346-.025h.214l.461-.066.214-.041.445-.091h.066a9.705,9.705,0,0,0,4.44-2.521l9.078-9.078a9.665,9.665,0,0,0,0-13.658,9.646,9.646,0,0,0-13.642,0l-7.48,7.472a.375.375,0,0,0-.074.42.383.383,0,0,0,.362.231h.288a12.224,12.224,0,0,1,4.663.923.378.378,0,0,0,.412-.082l5.379-5.371a4.619,4.619,0,0,1,6.533,6.533l-6.689,6.681-.066.074-2.348,2.315a4.624,4.624,0,0,1-6.524,0,2.579,2.579,0,0,0-3.542,0,2.513,2.513,0,0,0,0,3.542,9.466,9.466,0,0,0,2.76,1.928c.091.041.181.082.288.124.049.025.1.041.157.066.082.033.173.066.264.1a1.486,1.486,0,0,1,.173.066c.124.049.264.091.428.14l.42.115c.247.058.527.115.832.165a8.126,8.126,0,0,0,1.013.091h.519l.437-.049A.408.408,0,0,0,201.14,28.505Z" transform="translate(-177.103 -0.2)" fill="#fff"/>
    </g>
  </g>
</svg>
