<svg xmlns="http://www.w3.org/2000/svg" xmlns:xlink="http://www.w3.org/1999/xlink" width="23" height="23" viewBox="0 0 23 23">
  <defs>
    <linearGradient id="linear-gradient" x1="0.071" y1="0.036" x2="0.904" y2="0.928" gradientUnits="objectBoundingBox">
      <stop offset="0" stop-color="#ffc107"/>
      <stop offset="1" stop-color="#9c27b0"/>
    </linearGradient>
    <clipPath id="clip-path">
      <rect id="Rectangle_295" data-name="Rectangle 295" width="23" height="23" transform="translate(9752)" stroke="#707070" stroke-width="1" fill="url(#linear-gradient)"/>
    </clipPath>
  </defs>
  <g id="Mask_Group_115" data-name="Mask Group 115" transform="translate(-9752)" clip-path="url(#clip-path)">
    <g id="_9741883171561032669" data-name="9741883171561032669" transform="translate(9752)">
      <path id="Path_577" data-name="Path 577" d="M15.813,0H7.188A7.188,7.188,0,0,0,0,7.188v8.625A7.188,7.188,0,0,0,7.188,23h8.625A7.188,7.188,0,0,0,23,15.813V7.188A7.188,7.188,0,0,0,15.813,0Zm5.031,15.813a5.037,5.037,0,0,1-5.031,5.031H7.188a5.037,5.037,0,0,1-5.031-5.031V7.188A5.037,5.037,0,0,1,7.188,2.156h8.625a5.037,5.037,0,0,1,5.031,5.031Z" fill="url(#linear-gradient)"/>
      <path id="Path_578" data-name="Path 578" d="M11.5,5.75a5.75,5.75,0,1,0,5.75,5.75A5.75,5.75,0,0,0,11.5,5.75Zm0,9.344A3.594,3.594,0,1,1,15.094,11.5,3.6,3.6,0,0,1,11.5,15.094Z" fill="url(#linear-gradient)"/>
      <circle id="Ellipse_99" data-name="Ellipse 99" cx="0.766" cy="0.766" r="0.766" transform="translate(16.915 4.553)" fill="url(#linear-gradient)"/>
    </g>
  </g>
</svg>
