<svg xmlns="http://www.w3.org/2000/svg" width="18" height="18" viewBox="0 0 18 18">
  <g id="Group_1872" data-name="Group 1872" transform="translate(-81 -0.197)">
    <g id="Rectangle_289" data-name="Rectangle 289" transform="translate(81 0.197)" fill="#fff" stroke="#707070" stroke-width="1" opacity="0">
      <rect width="18" height="18" stroke="none"/>
      <rect x="0.5" y="0.5" width="17" height="17" fill="none"/>
    </g>
    <path id="Chalkmate_Location" d="M15.67,7.283A7.023,7.023,0,0,1,12.7,12.8a10.2,10.2,0,0,0-2.816,3.1c-.168.289-.34.572-.515.858a.9.9,0,0,1-.451.4.806.806,0,0,1-.945-.269,6.889,6.889,0,0,1-.451-.7,11.459,11.459,0,0,0-3-3.381A7.043,7.043,0,0,1,2.153,9.847a6.784,6.784,0,0,1,.757-6.9A6.71,6.71,0,0,1,9.265.047,6.98,6.98,0,0,1,15.425,5.2,7.674,7.674,0,0,1,15.67,7.283ZM8.609,10.113a3.048,3.048,0,1,0,.03-6.1,3.048,3.048,0,0,0-.03,6.1Z" transform="translate(81.451 0.184)" fill="#ccc"/>
  </g>
</svg>
