<svg xmlns="http://www.w3.org/2000/svg" xmlns:xlink="http://www.w3.org/1999/xlink" width="23" height="23" viewBox="0 0 23 23">
  <defs>
    <clipPath id="clip-path">
      <rect id="Rectangle_294" data-name="Rectangle 294" width="23" height="23" transform="translate(9706)" fill="#fff" stroke="#707070" stroke-width="1"/>
    </clipPath>
  </defs>
  <g id="Mask_Group_114" data-name="Mask Group 114" transform="translate(-9706)" clip-path="url(#clip-path)">
    <path id="_13728386351561032650" data-name="13728386351561032650" d="M23,4.369a9.831,9.831,0,0,1-2.717.745,4.689,4.689,0,0,0,2.074-2.606,9.423,9.423,0,0,1-2.99,1.141,4.715,4.715,0,0,0-8.156,3.224,4.855,4.855,0,0,0,.109,1.075A13.346,13.346,0,0,1,1.6,3.016a4.716,4.716,0,0,0,1.449,6.3A4.657,4.657,0,0,1,.92,8.737v.052A4.737,4.737,0,0,0,4.7,13.422a4.706,4.706,0,0,1-1.236.155,4.169,4.169,0,0,1-.893-.08,4.76,4.76,0,0,0,4.406,3.285,9.474,9.474,0,0,1-5.846,2.011A8.832,8.832,0,0,1,0,18.728a13.275,13.275,0,0,0,7.234,2.116A13.328,13.328,0,0,0,20.654,7.426c0-.208-.007-.41-.017-.609A9.407,9.407,0,0,0,23,4.369Z" transform="translate(9706)" fill="#03a9f4"/>
  </g>
</svg>
