<?xml version="1.0" encoding="utf-8"?>
<!-- Generator: Adobe Illustrator 22.0.1, SVG Export Plug-In . SVG Version: 6.00 Build 0)  -->
<svg version="1.1" id="Capa_1" xmlns="http://www.w3.org/2000/svg" xmlns:xlink="http://www.w3.org/1999/xlink" x="0px" y="0px"
	 viewBox="0 0 512 512" style="enable-background:new 0 0 512 512;" xml:space="preserve">
<g>
	<g>
		<path d="M46.1,254.4c2.5-6.6,7.3-9.1,14.3-9.1c37.9,0.1,75.7,0.1,113.6,0c1.8,0,3.8-0.1,5.5-0.6c20.5-5.7,40.6-12.6,60.7-19.8
			c15.6-5.6,25.4-16.3,32.5-30.6c7-14.2,11.5-29.2,13.9-44.8c0.6-4.1,0.7-8.2,0.9-12.3c0.5-7.1,5.4-11.8,12.5-11.9
			c28.6-0.5,54.1,23.3,56,51.9c0.7,10.9-1.5,21.5-3.8,32c-2.4,10.9-5.6,21.6-8.4,32.4c-0.3,1-0.5,2-0.9,3.7c1.8,0,3.2,0,4.6,0
			c15.9,0,31.7-0.1,47.6,0c14.6,0.1,25.7,6.5,32.6,19.4c6.8,12.9,5.7,25.6-2.5,37.8c-0.7,1-1.3,2-2,2.9c17.3,21.4,7.7,51-17.5,59.4
			c3.3,9.9,3.1,19.6-1.7,29c-4.7,9.3-12.2,15.3-22.2,18.6c0.2,1.1,0.3,2.1,0.5,3.1c5.3,19.7-5.1,38.7-24.6,44.7
			c-1.3,0.4-2.5,0.9-3.7,1.3c-27.5,0-54.9,0-82.4,0c-6.3-1.7-12.5-3.4-18.8-5c-20.2-5.1-40.4-10.1-60.6-15.2c-2.5-0.6-3.9-0.3-5.2,2
			c-1.4,2.5-3.3,4.8-5.2,7c-5.3,6.1-12.3,9-19.8,11.1c-19.7,0-39.5,0-59.2,0c-6.5-2.5-9.5-7.3-9-14.3c0.2-3,0-6,0-9.5
			c-1.9,0-3.3,0-4.7,0c-9.6,0-19.2-0.2-28.7,0.1c-7,0.2-11.8-2.5-14.3-9.1C46.1,370.7,46.1,312.5,46.1,254.4z M192.1,415.8
			c1.4,0.4,2.6,0.8,3.9,1.1c26.3,6.6,52.7,13.2,79,19.7c1.8,0.4,3.7,0.7,5.5,0.7c21.6,0,43.2,0.1,64.8,0c2.1,0,4.3-0.2,6.3-0.8
			c4.6-1.4,7.9-6.2,7.9-11c0-4.8-3.4-9.5-8-10.9c-1.9-0.6-3.9-0.8-5.9-0.8c-7.3-0.1-14.7,0.1-22-0.1c-7.4-0.1-12.7-6.2-12-13.5
			c0.6-6.3,5.8-10.8,12.7-10.9c15.6-0.1,31.2,0.1,46.8-0.1c7.2-0.1,12.6-5.4,12.4-11.9c-0.2-6.5-5.3-11.3-12.4-11.6c-2-0.1-4,0-6,0
			c-13.9,0-27.7,0.1-41.6-0.1c-6.3-0.1-11.3-4.8-11.9-10.8c-0.6-6.2,3.2-11.8,9.2-13.2c1.7-0.4,3.4-0.3,5.2-0.3
			c22.3,0,44.5,0,66.8,0c2.2,0,4.6-0.2,6.7-0.8c4.6-1.3,7.9-6,8-10.9c0-4.8-3.2-9.6-7.8-11c-2.1-0.6-4.5-0.8-6.7-0.8
			c-15.6-0.1-31.2,0-46.8,0c-7.6,0-15.2,0.1-22.8-0.1c-7.5-0.2-12.8-6.8-11.7-14.1c1-6.1,6-10.2,12.9-10.2c22.8,0,45.6,0,68.4-0.1
			c2.2,0,4.6-0.2,6.7-0.8c4.6-1.4,7.9-6.2,7.9-11c0-4.8-3.3-9.6-8-10.9c-2.1-0.6-4.5-0.8-6.7-0.8c-22.5-0.1-45.1,0-67.6,0
			c-11,0-16.5-8.4-12.1-18.4c1.6-3.7,3.3-7.3,4.9-10.9c5.8-14.1,9.2-28.9,11.8-43.9c1.2-7.2,2.9-14.4,1-21.8
			c-2.7-10.6-8.9-18.2-19.4-22.6c-0.4,1.4-0.8,2.5-1,3.7c-3.2,20.9-9.9,40.6-20.8,58.7c-7.8,13-17.6,24-32.1,29.5
			c-17.8,6.8-35.8,13-53.7,19.3c-3.9,1.4-7.8,2.4-11.7,3.6C192.1,316.8,192.1,366.2,192.1,415.8z M118.6,437.4c11.7,0,23,0,34.3,0
			c10.2,0,14.6-4.4,14.6-14.6c0-49.5,0-98.9,0-148.4c0-1.4,0-2.8,0-4.4c-16.6,0-32.7,0-49,0C118.6,325.8,118.6,381.3,118.6,437.4z
			 M93.7,413.2c0-48,0-95.5,0-143c-7.9,0-15.5,0-23.1,0c0,47.8,0,95.3,0,143C78.4,413.2,85.9,413.2,93.7,413.2z"/>
		<path d="M314.9,52c6.5,2.5,9.3,7.3,9.1,14.3c-0.3,7.4,0,14.9-0.1,22.3c-0.1,7.9-5.1,13.2-12.4,13.1c-7-0.1-11.9-5.4-12-13.1
			c0-7.5,0.2-14.9-0.1-22.3c-0.2-7,2.5-11.8,9.1-14.3C310.7,52,312.8,52,314.9,52z"/>
		<path d="M205.9,105.4c0.5-5.8,2.5-9.6,6.9-11.9c4.5-2.3,9.1-2.2,12.7,1.1c6.8,6.2,13.3,12.6,19.5,19.4c4.2,4.6,3.3,11.6-1,15.9
			c-4.4,4.3-11.3,5.2-16,1c-6.8-6.1-13.2-12.8-19.4-19.5C207,109.7,206.6,106.9,205.9,105.4z"/>
		<path d="M403.9,91.8c5.8,0.4,9.6,2.4,12,6.9c2.3,4.4,2.2,9.1-1.1,12.7c-6.2,6.8-12.6,13.3-19.4,19.5c-4.6,4.2-11.6,3.4-16-1
			c-4.4-4.3-5.2-11.3-1-15.9c6.1-6.8,12.8-13.2,19.5-19.4C399.6,92.9,402.4,92.5,403.9,91.8z"/>
		<path d="M191.6,209.8c-4,0-8,0.1-12,0c-7-0.2-12.1-5.4-12.1-12.2c0-6.8,5.1-12.1,12.1-12.2c8.1-0.1,16.2-0.1,24.3,0
			c6.9,0.1,12,5.5,11.9,12.3c-0.1,6.6-5.1,11.8-11.9,12C199.9,209.9,195.8,209.8,191.6,209.8z"/>
		<path d="M431.3,209.8c-3.9,0-7.7,0.1-11.6,0c-7-0.2-12.2-5.3-12.2-12.1c0-6.8,5.1-12.1,12-12.3c8.1-0.1,16.2-0.1,24.3,0
			c7,0.1,12.1,5.5,12,12.3c0,6.8-5.2,11.9-12.2,12.1C439.6,209.9,435.4,209.8,431.3,209.8z"/>
	</g>
</g>
</svg>
