<?xml version="1.0" encoding="utf-8"?>
<!-- Generator: Adobe Illustrator 22.0.1, SVG Export Plug-In . SVG Version: 6.00 Build 0)  -->
<svg fill="#858585" version="1.1" id="Capa_1" xmlns="http://www.w3.org/2000/svg" xmlns:xlink="http://www.w3.org/1999/xlink" x="0px" y="0px"
	 viewBox="0 0 512 512" style="enable-background:new 0 0 512 512;" xml:space="preserve">
<path d="M256.5,0.4C115.4,0.4,1,114.8,1,255.9c0,60.5,21,116,56.2,159.8c-13.9,26.1-29.6,55.7-39.9,75.4
	c-4.4,8.3,3.4,17.7,12.4,15.1l99.3-28.9c37.5,21.7,81.1,34.1,127.6,34.1c141,0,255.4-114.4,255.4-255.5S397.6,0.4,256.5,0.4z
	 M125.1,220.7c19.5,0,35.2,15.8,35.2,35.2c0,19.5-15.8,35.2-35.2,35.2s-35.2-15.8-35.2-35.2C89.9,236.4,105.7,220.7,125.1,220.7z
	 M256.5,291.1c-19.5,0-35.2-15.8-35.2-35.2c0-19.5,15.8-35.2,35.2-35.2c19.5,0,35.2,15.8,35.2,35.2
	C291.7,275.4,275.9,291.1,256.5,291.1z M387.8,291.1c-19.5,0-35.2-15.8-35.2-35.2c0-19.5,15.8-35.2,35.2-35.2
	c19.5,0,35.2,15.8,35.2,35.2C423.1,275.4,407.3,291.1,387.8,291.1z"/>
<path d="M-702.5,216.5c-3.9,68.4-33.1,123.3-88.4,163.9c-34.2,25.1-62.3,55.5-83.7,92.1c-5,8.6-10.1,17-15.3,25.5
	c-3.2,5.2-7.4,9.6-13.4,11.8c-10.2,3.8-21.3,1-28.1-8c-5-6.5-9.2-13.7-13.4-20.8c-23-39.5-52.9-72.9-89.2-100.5
	c-30.9-23.4-55.6-51.8-70.3-87.8c-29.6-72.3-23.1-141.7,22.4-205c46-63.8,110.4-93.2,188.9-86.4c86,7.5,158.6,65.8,183.1,153.1
	C-704.8,172.1-701.6,200.1-702.5,216.5z M-912.4,300.6c49.8,0.2,90.8-39.9,91.2-89.4c0.3-49.3-37.8-91.4-90.3-91.8
	c-50.3-0.3-90.2,38.9-91,89.2C-1003.3,258.3-964.3,299.9-912.4,300.6z"/>
</svg>
