<?xml version="1.0" encoding="utf-8"?>
<!-- Generator: Adobe Illustrator 22.0.1, SVG Export Plug-In . SVG Version: 6.00 Build 0)  -->
<svg fill="#fe2e83" version="1.1" id="Capa_1" xmlns="http://www.w3.org/2000/svg" xmlns:xlink="http://www.w3.org/1999/xlink" x="0px" y="0px"
	 viewBox="0 0 512 512" style="enable-background:new 0 0 512 512;" xml:space="preserve">
<g>
	<path d="M509.5,219.6c-0.6,1-1.2,1.9-1.8,2.9c-4,6.7-11.1,9.8-18.2,7.9c-6.9-1.8-11.9-8.2-12-15.8c-0.1-33.3,0-66.6,0-99.9
		c0-1.9,0-3.9,0-6.1c-148.3,0-296.1,0-444.8,0c0,1.6,0,3.1,0,4.7c0,98.4,0.1,196.7-0.1,295.1c0,16.9,13.2,28,27.8,27.9
		c48.4-0.3,96.7-0.1,145.1-0.1c2.8,0,5.7,0.2,8.3,0.9c7,1.9,11.9,9.2,11.5,16.2c-0.5,7.7-6.5,14.1-14.1,15c-1.8,0.2-3.6,0.3-5.5,0.3
		c-48,0-96,0-144.1,0c-16.1,0-30.3-4.7-42.2-15.6c-8.9-8.2-14.6-18.3-17.5-30c-0.3-1.2-0.8-2.5-1.2-3.7c0-122.5,0-245.1,0-367.6
		c0.4-1.3,0.7-2.5,1.1-3.8c4-16.6,13-29.7,28-38C36.2,6.4,43.6,4.6,50.5,2c136.5,0,272.9,0,409.4,0c0.9,0.3,1.8,0.7,2.8,0.9
		c17.1,3.7,30.5,12.9,39,28.1c3.6,6.4,5.3,13.8,7.9,20.7C509.5,107.7,509.5,163.6,509.5,219.6z M477.4,75.6c0-6.3,0.5-12-0.1-17.5
		c-1-10.4-6.4-18.1-16.2-21.9c-3.7-1.5-8-2.1-12.1-2.1C319.7,34,190.4,34,61.1,34c-1,0-2,0-3,0.1C47.3,34.9,39.3,40.1,35,50.1
		c-3.5,8.2-2,16.8-2,25.5C181.3,75.6,329.1,75.6,477.4,75.6z"/>
	<path d="M262.1,510.7c-10.4-5.2-13.1-10.1-11.1-21.9c3.3-19.6,6.8-39.1,10.2-58.6c0.8-4.7,3-8.6,6.4-12
		c51.8-51.7,103.5-103.5,155.4-155.1c4.5-4.5,10-8.4,15.7-11c11.6-5.4,22.9-3.5,32.2,5.2c10.1,9.3,19.6,19.3,29.2,29.1
		c4.9,4.9,7.1,11.4,9.4,17.7c0,4.6,0,9.3,0,13.9c-2.6,10.5-9.1,18.4-16.7,25.8c-18.7,18.3-37,36.9-55.5,55.4
		c-31.2,31.2-62.5,62.5-93.7,93.7c-3.4,3.4-7,6-11.8,6.9c-11.7,2.1-23.4,4-35.1,6.2c-8.2,1.5-16.4,3.2-24.7,4.8
		C268.7,510.7,265.4,510.7,262.1,510.7z M286.3,474.9c10.8-1.9,20.9-3.7,31-5.3c3.6-0.6,6.3-2.2,8.9-4.8
		c48.9-49,97.8-97.9,146.7-146.9c0.7-0.7,1.4-1.4,2.1-2.1c3.4-3.7,3.4-5.7-0.1-9.3c-7.2-7.3-14.5-14.5-21.8-21.8
		c-0.9-0.9-1.9-1.7-3.1-2.7c-2,1.8-3.8,3.5-5.6,5.2c-20.4,20.4-40.7,40.7-61.1,61.1c-29.1,29.2-58.3,58.3-87.4,87.5
		c-1.5,1.5-3.2,3.3-3.5,5.2C290.1,452,288.3,463,286.3,474.9z"/>
	<path d="M117.9,245.4c2.9,0,5,0,7.1,0c76,0,152,0,228,0c2.9,0,6,0.2,8.8,0.9c7,1.9,12,9.3,11.4,16.2c-0.6,7.8-6.5,14.1-14.2,14.9
		c-2.5,0.3-5,0.3-7.4,0.3c-81.6,0-163.3,0-244.9,0c-1.8,0-3.6,0-5.5-0.1c-9.6-0.6-15.8-7-16.1-16.7c-0.1-4.6,0-9.3,0-13.9
		c0-26,0-52,0-78c0-12.6,6.3-19,18.9-19c100.7,0,201.3,0,302,0c12.5,0,18.9,6.5,18.9,19c0,14.6,0.1,29.1,0,43.7
		c-0.1,9.6-6.3,16.6-15.1,17.1c-8.9,0.5-16.5-5.5-17-14.4c-0.5-8.7-0.3-17.5-0.3-26.3c0-6.7,0-6.8-6.9-6.8c-87.1,0-174.2,0-261.3,0
		c-0.7,0-1.3,0.1-2,0c-3.6-0.4-5.3,1.1-4.9,4.8c0.1,0.5,0,1,0,1.5c0,16.9,0,33.8,0,50.7C117.7,241.1,117.8,242.9,117.9,245.4z"/>
	<path d="M198.2,341.1c-31.4,0-62.9,0-94.3,0c-8.1,0-14-3.9-16.4-10.4c-3.6-9.8,2.9-20.4,13.3-21.7c1-0.1,2-0.1,3-0.1
		c62.9,0,125.8,0,188.7,0c8.6,0,14.6,4.3,16.8,11.9c2.7,9.3-4,19.3-13.7,20.1c-2,0.2-4,0.1-6,0.1
		C259.1,341.1,228.6,341.1,198.2,341.1z"/>
	<path d="M166.7,404.7c-21.2,0-42.3,0-63.5,0c-7.6,0-13.5-4.1-15.8-10.6c-3.5-9.8,3.1-20.4,13.5-21.5c1-0.1,2-0.1,3-0.1
		c41.8,0,83.7,0,125.5,0c9.6,0,16.7,6.3,17.1,15c0.5,9.5-6.2,17-15.9,17.1c-12.9,0.2-25.8,0.1-38.7,0.1
		C183.5,404.7,175.1,404.7,166.7,404.7z"/>
</g>
</svg>
