<?xml version="1.0" encoding="utf-8"?>
<!-- Generator: Adobe Illustrator 22.0.1, SVG Export Plug-In . SVG Version: 6.00 Build 0)  -->
<svg version="1.1" id="Capa_1" xmlns="http://www.w3.org/2000/svg" xmlns:xlink="http://www.w3.org/1999/xlink" x="0px" y="0px"
	 viewBox="0 0 512 512" style="enable-background:new 0 0 512 512;" xml:space="preserve">
<path d="M-702.5,216.5c-3.9,68.4-33.1,123.3-88.4,163.9c-34.2,25.1-62.3,55.5-83.7,92.1c-5,8.6-10.1,17-15.3,25.5
	c-3.2,5.2-7.4,9.6-13.4,11.8c-10.2,3.8-21.3,1-28.1-8c-5-6.5-9.2-13.7-13.4-20.8c-23-39.5-52.9-72.9-89.2-100.5
	c-30.9-23.4-55.6-51.8-70.3-87.8c-29.6-72.3-23.1-141.7,22.4-205c46-63.8,110.4-93.2,188.9-86.4c86,7.5,158.6,65.8,183.1,153.1
	C-704.8,172.1-701.6,200.1-702.5,216.5z M-912.4,300.6c49.8,0.2,90.8-39.9,91.2-89.4c0.3-49.3-37.8-91.4-90.3-91.8
	c-50.3-0.3-90.2,38.9-91,89.2C-1003.3,258.3-964.3,299.9-912.4,300.6z"/>
<g>
	<path d="M166.4,511.3c-32.9-0.5-61.2-3.5-88.6-13.3c-13-4.6-25.3-10.5-36.4-18.7c-17.6-13-27.4-29.7-26.1-52.6
		c2.1-37.3,14.3-70.5,37.8-99.5c2-2.4,4-4.8,6.4-6.8c8.1-6.9,17.8-7,25.5-0.5c6.4,5.5,8.6,15.9,4.4,23.9c-2,3.8-5,7.1-7.6,10.6
		c-15.9,20.9-24.4,44.5-26.9,70.6c-1,10.7,2.7,17.9,11.2,23.7c14.2,9.7,30.2,14.8,46.7,18.1c37.1,7.4,74.3,7.2,111-2.9
		c11.3-3.1,22.1-8.3,32.7-13.4c10.6-5,14.9-13.7,13.9-25.9c-2-25.6-10.8-48.4-25.8-69c-2.9-4-6.4-7.7-8.8-12
		c-5.2-8.9-2.9-18.5,5.3-24.9c7.4-5.7,16.5-5.6,24,0.8c3.3,2.8,6.1,6.2,8.8,9.6c22.9,28.7,34.1,61.9,36.5,98.2
		c1.2,18.6-6,34-19.7,46.4c-9.8,8.9-21.2,15.2-33.3,20.4c-18.5,7.9-37.8,12.4-57.7,14.7C187.3,510.4,174.8,510.8,166.4,511.3z"/>
	<path d="M162.4,314.7c-58.5-0.5-97.9-48.6-98-97.1c-0.1-55.6,44.3-100,99.6-99.4c48.1,0.6,96.6,37.3,96.8,98.2
		C260.9,278.3,210.5,315.3,162.4,314.7z M163.4,275c32.4-0.4,57.9-26,57.9-58.3c0.1-32.8-26.7-59.2-59.3-59.1
		c-27.5,0.1-59,23.8-57.9,60.5C105.2,250.4,131,275.4,163.4,275z"/>
	<path d="M447.1,98.4c1.3,49.5-38.9,98.4-98.6,98.4c-53.8,0-97.3-44.1-97.4-97.9c0-54.7,44.1-98.7,98.8-98.4
		C405.8,0.7,448.5,47.9,447.1,98.4z M348.1,40.3c-31.9,0.3-58.3,27.2-57.6,58.7c0.7,32.6,26.4,58.4,58.1,58.4
		c33.2,0,59.4-25.9,59.4-58.9C408.1,65.6,381.7,40,348.1,40.3z"/>
	<path d="M364.2,393.2c-7.3,0-11.7,0.3-16-0.1c-10-0.9-17.5-8.6-18.2-18.1c-0.7-9.8,5.4-18.2,15.5-20.2c5.4-1.1,11.1-1.2,16.7-1.4
		c18.1-0.9,36.1-3,53.3-8.7c10-3.3,19.6-7.9,28.9-12.8c9.7-5.1,13.8-13.3,12.7-24.7c-2.5-25.4-10.4-48.6-25.8-69
		c-3-4-6.4-7.7-9-11.9c-5.3-8.9-3.4-18.9,4.3-25.2c7-5.7,16.7-5.8,24.1,0c2.4,1.9,4.5,4.3,6.5,6.6c26,30.7,38.4,66.5,39.4,106.4
		c0.4,15.1-5.5,27.9-16,38.6c-9.8,9.9-21.5,16.9-34.1,22.4C419.4,387.2,390.6,391.6,364.2,393.2z"/>
</g>
</svg>
