<?xml version="1.0" encoding="utf-8"?>
<!-- Generator: Adobe Illustrator 22.0.1, SVG Export Plug-In . SVG Version: 6.00 Build 0)  -->
<svg version="1.1" id="Capa_1" xmlns="http://www.w3.org/2000/svg" xmlns:xlink="http://www.w3.org/1999/xlink" x="0px" y="0px"
	 viewBox="0 0 512 512" style="enable-background:new 0 0 512 512;" xml:space="preserve">
<path d="M498.5,102.8c-8.4-8.4-19.5-13-31.4-13H362.8V78.7c0-26.5-21.5-48-48-48H196.6c-26.5,0-48,21.5-48,48v11.1H44.3
	C19.9,89.8,0,109.7,0,134.1v299c0,26.5,21.5,48,48,48h415.3c26.5,0,48-21.5,48-48v-299C511.4,122.3,506.9,111.2,498.5,102.8z
	 M185.7,89.8V78.7c0-6.1,5-11.1,11.1-11.1h118.1c6.1,0,11.1,5,11.1,11.1v11.1C326,89.8,185.7,89.8,185.7,89.8z M296.3,285.5
	c0,6.1-5,11.1-11.1,11.1h-59.1c-6,0-11-5-11-11.1s4.9-11.1,11-11.1h59.1C291.3,274.4,296.3,279.4,296.3,285.5z M464.8,134.3
	l-41.6,125c-1.4,4.4-5.7,7.5-10.4,7.5h-79.6c-1.9-16.6-16-29.5-33-29.5h-88.8c-17.1,0-31.2,13-33,29.6H98.8c-4.8,0-9-3-10.4-7.6
	l-41.6-125c-0.6-1.8-0.3-3.7,0.8-5.2s2.8-2.4,4.7-2.4h407c1.9,0,3.6,0.9,4.7,2.4C465.1,130.7,465.4,132.6,464.8,134.3z M36.9,222.3
	l16.3,48.9C59.7,290.8,78,304,98.8,304h79.5c1.8,16.6,15.9,29.6,33,29.6H300c17.1,0,31.2-12.9,33-29.6h79.5
	c20.7,0,39-13.2,45.6-32.9l16.3-48.9V433c0,6.1-5,11.1-11.1,11.1H48c-6.1,0-11.1-5-11.1-11.1V222.3z"/>
</svg>
