<?xml version="1.0" encoding="utf-8"?>
<!-- Generator: Adobe Illustrator 22.0.1, SVG Export Plug-In . SVG Version: 6.00 Build 0)  -->
<svg version="1.1" id="Capa_1" xmlns="http://www.w3.org/2000/svg" xmlns:xlink="http://www.w3.org/1999/xlink" x="0px" y="0px"
	 viewBox="0 0 512 512" style="enable-background:new 0 0 512 512;" xml:space="preserve">
<g>
	<path d="M392,287c-0.1-0.6,0.1-1.1,0.5-1.5l79.2-77.2l0,0c10.4-10.1,14.1-25,9.6-38.8s-16.2-23.7-30.6-25.8l-109.4-15.9
		c-0.6-0.1-1-0.4-1.3-0.9l-49-99.1c-6.4-13-19.4-21.1-34-21.1c-14.5,0-27.5,8.1-34,21.1l-48.9,99.1c-0.3,0.5-0.7,0.9-1.3,0.9
		L63.5,143.7c-14.4,2.1-26.1,12-30.6,25.8s-0.8,28.7,9.6,38.8l79.2,77.2c0.4,0.4,0.6,1,0.5,1.5l-18.7,109
		c-2.5,14.3,3.3,28.5,15.1,37c6.6,4.8,14.4,7.3,22.2,7.3c6,0,12.1-1.5,17.7-4.4l97.9-51.5c0.5-0.3,1.1-0.3,1.6,0l97.9,51.5
		c5.5,2.9,11.6,4.4,17.6,4.4l0,0c8,0,15.7-2.5,22.2-7.3c11.7-8.5,17.5-22.7,15.1-37L392,287z M139.1,402.1l18.7-109
		c2.1-12.3-2-24.8-10.9-33.5l-79.2-77.2c-0.2-0.2-0.8-0.7-0.4-1.8c0.3-1,1-1.1,1.4-1.2l109.4-15.9c12.3-1.8,23-9.5,28.5-20.7
		l48.9-99.1c0.2-0.3,0.5-1,1.5-1c1.1,0,1.4,0.6,1.5,1l48.9,99.1c5.5,11.2,16.2,18.9,28.5,20.7l109.4,15.9c0.3,0,1.1,0.2,1.4,1.2
		s-0.2,1.5-0.4,1.8l-79.2,77.2c-8.9,8.7-13,21.2-10.9,33.5l18.7,109c0.1,0.3,0.2,1-0.7,1.7c-0.9,0.6-1.5,0.3-1.8,0.1l-97.9-51.5
		c-5.4-2.8-11.5-4.3-17.6-4.3s-12.2,1.5-17.6,4.3l-97.9,51.4c-0.3,0.2-0.9,0.5-1.8-0.1C138.9,403.2,139.1,402.4,139.1,402.1z"/>
	<path d="M378.8,74.5c3.1,2.3,6.8,3.5,10.6,3.5c5.8,0,11.2-2.8,14.6-7.5l14-19.3c2.8-3.9,4-8.7,3.2-13.5s-3.3-9-7.2-11.8
		c-8.1-5.9-19.4-4.1-25.2,4l-14,19.3c-2.8,3.9-4,8.7-3.2,13.5C372.3,67.5,374.9,71.6,378.8,74.5z"/>
	<path d="M110.1,70.4c3.4,4.7,8.9,7.5,14.6,7.5c3.8,0,7.5-1.2,10.6-3.5c3.9-2.8,6.5-7,7.2-11.8c0.8-4.8-0.4-9.5-3.2-13.5l0,0
		l-14-19.3c-5.9-8.1-17.2-9.9-25.2-4C92,31.7,90.2,43,96.1,51L110.1,70.4z"/>
	<path d="M51.1,295.5c-4.3-2.2-9.2-2.6-13.8-1.1l-22.7,7.4c-4.6,1.5-8.3,4.7-10.5,9S1.5,320,3,324.6C5.5,332,12.4,337,20.3,337
		c1.9,0,3.8-0.3,5.6-0.9l22.7-7.4c4.6-1.5,8.3-4.7,10.5-9s2.6-9.2,1.1-13.8C58.6,301.4,55.4,297.7,51.1,295.5z"/>
	<path d="M257.1,445.2c-10,0-18.1,8.1-18.1,18.1v23.8c0,10,8.1,18.1,18.1,18.1s18.1-8.1,18.1-18.1v-23.8
		C275.2,453.3,267.1,445.2,257.1,445.2z"/>
	<path d="M499.5,301.8l-22.7-7.4c-9.5-3.1-19.7,2.1-22.8,11.6c-3.1,9.5,2.1,19.7,11.6,22.8l22.7,7.4c1.8,0.6,3.7,0.9,5.6,0.9
		c7.9,0,14.8-5,17.2-12.5C514.2,315.1,509,304.8,499.5,301.8z"/>
</g>
</svg>
