<?xml version="1.0" encoding="utf-8"?>
<!-- Generator: Adobe Illustrator 22.0.1, SVG Export Plug-In . SVG Version: 6.00 Build 0)  -->
<svg version="1.1" id="Capa_1" xmlns="http://www.w3.org/2000/svg" xmlns:xlink="http://www.w3.org/1999/xlink" x="0px" y="0px"
	 viewBox="0 0 512 512" style="enable-background:new 0 0 512 512;" xml:space="preserve">
<g>
	<path d="M478.7,444.5H344.8V135c0-20.7,16.8-37.5,37.5-37.5h58.9c20.7,0,37.5,16.8,37.5,37.5V444.5z M379.8,409.5h63.9V135
		c0-1.4-1.1-2.5-2.5-2.5h-58.9c-1.4,0-2.5,1.1-2.5,2.5V409.5z"/>
</g>
<g>
	<path d="M316.7,444.5H182.8V199.1c0-20.7,16.8-37.5,37.5-37.5h58.9c20.7,0,37.5,16.8,37.5,37.5V444.5z M217.8,409.5h63.9V199.1
		c0-1.4-1.1-2.5-2.5-2.5h-58.9c-1.4,0-2.5,1.1-2.5,2.5V409.5z"/>
</g>
<g>
	<path d="M154.8,444.5H20.8V264c0-20.7,16.8-37.5,37.5-37.5h58.9c20.7,0,37.5,16.8,37.5,37.5V444.5z M55.8,409.5h63.9V264
		c0-1.4-1.1-2.5-2.5-2.5H58.3c-1.4,0-2.5,1.1-2.5,2.5V409.5z"/>
</g>
<g>
	<path d="M492.5,444.5H17.9c-9.7,0-17.5-7.8-17.5-17.5v0c0-9.7,7.8-17.5,17.5-17.5h474.6c9.7,0,17.5,7.8,17.5,17.5v0
		C510,436.7,502.2,444.5,492.5,444.5z"/>
</g>
</svg>
