<?xml version="1.0" encoding="utf-8"?>
<!-- Generator: Adobe Illustrator 22.0.1, SVG Export Plug-In . SVG Version: 6.00 Build 0)  -->
<svg version="1.1" id="Capa_1" xmlns="http://www.w3.org/2000/svg" xmlns:xlink="http://www.w3.org/1999/xlink" x="0px" y="0px"
	 viewBox="0 0 512 512" style="enable-background:new 0 0 512 512;" xml:space="preserve">
<path d="M-702.5,216.5c-3.9,68.4-33.1,123.3-88.4,163.9c-34.2,25.1-62.3,55.5-83.7,92.1c-5,8.6-10.1,17-15.3,25.5
	c-3.2,5.2-7.4,9.6-13.4,11.8c-10.2,3.8-21.3,1-28.1-8c-5-6.5-9.2-13.7-13.4-20.8c-23-39.5-52.9-72.9-89.2-100.5
	c-30.9-23.4-55.6-51.8-70.3-87.8c-29.6-72.3-23.1-141.7,22.4-205c46-63.8,110.4-93.2,188.9-86.4c86,7.5,158.6,65.8,183.1,153.1
	C-704.8,172.1-701.6,200.1-702.5,216.5z M-912.4,300.6c49.8,0.2,90.8-39.9,91.2-89.4c0.3-49.3-37.8-91.4-90.3-91.8
	c-50.3-0.3-90.2,38.9-91,89.2C-1003.3,258.3-964.3,299.9-912.4,300.6z"/>
<g>
	<path d="M464.1,16.9C459.7,10.6,453.8,6,446.3,3c-4.7-2-9.7-3.1-14.9-3.1l0,0H77C71.8-0.1,66.8,1,62.1,3c-7.5,3-13.4,7.6-17.8,13.9
		s-6.6,13.3-6.6,21v436c0,7.7,2.3,14.7,6.6,21c4.4,6.3,10.3,10.9,17.8,13.9c4.7,2,9.7,3.1,14.9,3.1c10.5,0,19.9-3.7,28.1-11.1
		l149.2-143.5l149.2,143.5c7.9,7.2,17.3,10.8,28.1,10.8c5.7,0,10.5-0.9,14.9-2.7c7.5-3,13.4-7.6,17.8-13.9s6.6-13.3,6.6-21V38
		C470.7,30.2,468.6,23.2,464.1,16.9z M420.1,448.7l-137-131.6l-28.8-27.6L225.5,317L88.4,448.7V46.2h331.7V448.7L420.1,448.7z"/>
</g>
</svg>
