<?xml version="1.0" encoding="utf-8"?>
<!-- Generator: Adobe Illustrator 22.0.1, SVG Export Plug-In . SVG Version: 6.00 Build 0)  -->
<svg version="1.1" id="Capa_1" xmlns="http://www.w3.org/2000/svg" xmlns:xlink="http://www.w3.org/1999/xlink" x="0px" y="0px"
	 viewBox="0 0 512 512" style="enable-background:new 0 0 512 512;" xml:space="preserve">
<g>
	<path d="M256,61.3c-9.5,0-17.2,7.7-17.2,17.2s7.7,17.2,17.2,17.2c47.2,0,85.7,38.4,85.7,85.6c0,9.5,7.7,17.2,17.2,17.2
		s17.2-7.7,17.2-17.2C376.1,115.2,322.2,61.3,256,61.3z"/>
	<path d="M368.9,42.7C326.8,8.4,271.6-4.8,217.6,6.5c-33.1,7-63.6,23.5-88.1,47.9c-24.6,24.4-41.3,54.9-48.3,88.1
		c-12.1,57.2,2.8,114.7,41,157.6c18,20.2,28.3,47,28.3,73.3v29.4c0,19.7,12.3,37.2,30.8,43.8c3.2,16.9,12.1,32.4,25.1,43.8
		c13.8,12.1,31.4,18.7,49.5,18.7s35.7-6.6,49.5-18.7c13-11.4,21.9-26.9,25.1-43.8c18.5-6.7,30.8-24.1,30.8-43.8v-29.4
		c0-26.5,10.4-52.9,29.2-74.3c28.6-32.6,44.3-74.4,44.3-117.7C434.9,127.3,410.8,76.7,368.9,42.7z M256,474.8
		c-16,0-31.1-10.3-37.8-25.4h75.7C287.1,464.5,272,474.8,256,474.8z M327,390.7v12.2c0,6.7-5.5,12.2-12.2,12.2H197.2
		c-6.7,0-12.2-5.5-12.2-12.2v-12.2H327z M400.4,181.4c0,35-12.7,68.7-35.7,95c-20.3,23.2-33,50.8-36.7,79.8H184
		c-3.7-29-16.4-57-36-79c-30.8-34.7-42.9-81.2-33.1-127.6c11.5-54.1,55.6-98.1,109.7-109.4c43.8-9.2,88.5,1.5,122.6,29.2
		C381,96.9,400.4,137.7,400.4,181.4z"/>
	<path d="M49.3,178.9H19.9c-9.5,0-17.2,7.7-17.2,17.2s7.7,17.2,17.2,17.2h29.4c9.5,0,17.2-7.7,17.2-17.2
		C66.5,186.6,58.8,178.9,49.3,178.9z"/>
	<path d="M32.8,130.5c3.3,3.3,7.6,5,12.2,5l0,0c4.6,0,8.9-1.8,12.2-5c3.3-3.3,5-7.6,5-12.2s-1.8-8.9-5-12.2L36.4,85.4
		c-3.3-3.3-7.6-5-12.2-5s-8.9,1.8-12.2,5C8.7,88.7,7,93,7,97.6s1.8,8.9,5,12.2L32.8,130.5z"/>
	<path d="M57.1,261.7c-3.3-3.3-7.6-5-12.2-5s-8.9,1.8-12.2,5L12,282.5c-6.7,6.7-6.7,17.6,0,24.4c3.3,3.3,7.6,5,12.2,5l0,0
		c4.6,0,8.9-1.8,12.2-5l20.8-20.8c3.3-3.3,5-7.6,5-12.2S60.4,265,57.1,261.7L57.1,261.7z"/>
	<path d="M462.7,213.3h29.4c9.5,0,17.2-7.7,17.2-17.2s-7.7-17.2-17.2-17.2h-29.4c-9.5,0-17.2,7.7-17.2,17.2S453.2,213.3,462.7,213.3
		z"/>
	<path d="M467,135.5c4.6,0,8.9-1.8,12.2-5l20.8-20.8c6.7-6.7,6.7-17.6,0-24.4c-3.3-3.3-7.6-5-12.2-5s-8.9,1.8-12.2,5l-20.8,20.8
		c-6.7,6.7-6.7,17.6,0,24.4C458.1,133.7,462.4,135.5,467,135.5z"/>
	<path d="M479.2,261.7c-3.3-3.3-7.6-5-12.2-5s-8.9,1.8-12.2,5c-6.7,6.7-6.7,17.6,0,24.4l20.8,20.8c3.4,3.4,7.8,5,12.2,5
		c4.4,0,8.8-1.7,12.2-5c6.7-6.7,6.7-17.6,0-24.4L479.2,261.7z"/>
</g>
</svg>
