<?xml version="1.0" encoding="utf-8"?>
<!-- Generator: Adobe Illustrator 22.0.1, SVG Export Plug-In . SVG Version: 6.00 Build 0)  -->
<svg version="1.1" id="Capa_1" xmlns="http://www.w3.org/2000/svg" xmlns:xlink="http://www.w3.org/1999/xlink" x="0px" y="0px"
	 viewBox="0 0 512 512" style="enable-background:new 0 0 512 512;" xml:space="preserve">
<path d="M-702.5,216.5c-3.9,68.4-33.1,123.3-88.4,163.9c-34.2,25.1-62.3,55.5-83.7,92.1c-5,8.6-10.1,17-15.3,25.5
	c-3.2,5.2-7.4,9.6-13.4,11.8c-10.2,3.8-21.3,1-28.1-8c-5-6.5-9.2-13.7-13.4-20.8c-23-39.5-52.9-72.9-89.2-100.5
	c-30.9-23.4-55.6-51.8-70.3-87.8c-29.6-72.3-23.1-141.7,22.4-205c46-63.8,110.4-93.2,188.9-86.4c86,7.5,158.6,65.8,183.1,153.1
	C-704.8,172.1-701.6,200.1-702.5,216.5z M-912.4,300.6c49.8,0.2,90.8-39.9,91.2-89.4c0.3-49.3-37.8-91.4-90.3-91.8
	c-50.3-0.3-90.2,38.9-91,89.2C-1003.3,258.3-964.3,299.9-912.4,300.6z"/>
<g>
	<path d="M434.1,267h-49.4c-5.8,0-11.6,0.7-17.3,2c-13.7-24.6-39.7-39.8-67.9-39.8h-87.2c-28.2-0.1-54.2,15.2-67.9,39.8
		c-5.7-1.3-11.5-2-17.3-2H77.9c-43,0-77.8,34.8-77.9,77.8v78.8C0,450.4,21.7,472,48.4,472h415.3c26.7,0,48.3-21.7,48.4-48.4v-78.8
		C511.9,301.9,477.1,267.1,434.1,267z M377.5,305.4c2.4-0.4,4.9-0.7,7.3-0.6h49.4c22.2,0,40.2,18,40.2,40.2v74.7h-0.1v4.1
		c0,5.9-4.8,10.7-10.7,10.7h-86.1V307.1C377.5,306.5,377.5,305.9,377.5,305.4L377.5,305.4z M339.8,307.1v127.4H172.2V307.1
		c0-22.2,18-40.2,40.2-40.2h87.2C321.8,266.9,339.8,284.9,339.8,307.1L339.8,307.1z M134.5,305.4c0,0.6,0,1.1,0,1.7v127.4H48.4
		c-5.9,0-10.7-4.8-10.7-10.7V345c0-22.2,18-40.2,40.2-40.2h49.4C129.7,304.7,132.1,304.9,134.5,305.4L134.5,305.4z"/>
	<path d="M102.5,254.9c38.5,0,69.7-31.2,69.7-69.7c0-38.5-31.2-69.7-69.7-69.7c-38.5,0-69.7,31.2-69.7,69.7
		C32.8,223.6,64,254.8,102.5,254.9z M70.5,185.1c0-17.7,14.3-32,32-32s32,14.3,32,32c0,17.7-14.3,32-32,32S70.5,202.7,70.5,185.1z"
		/>
	<path d="M256,217.5c50.7,0,91.7-41.1,91.7-91.7c0-50.7-41.1-91.7-91.7-91.7s-91.7,41.1-91.7,91.7
		C164.3,176.4,205.4,217.4,256,217.5z M256,71.6c29.8,0,54,24.2,54,54c0,29.8-24.2,54-54,54c-29.8,0-54-24.1-54-54
		C202,95.8,226.2,71.6,256,71.6z"/>
	<path d="M409.5,254.9c38.5,0,69.7-31.2,69.7-69.7c0-38.5-31.2-69.7-69.7-69.7c-38.5,0-69.7,31.2-69.7,69.7
		C339.8,223.6,371,254.8,409.5,254.9z M377.5,185.1c0-17.7,14.3-32,32-32s32,14.3,32,32c0,17.7-14.3,32-32,32
		S377.5,202.7,377.5,185.1z"/>
</g>
</svg>
