<?xml version="1.0" encoding="utf-8"?>
<!-- Generator: Adobe Illustrator 22.0.1, SVG Export Plug-In . SVG Version: 6.00 Build 0)  -->
<svg version="1.1" id="Capa_1" xmlns="http://www.w3.org/2000/svg" xmlns:xlink="http://www.w3.org/1999/xlink" x="0px" y="0px"
	 viewBox="0 0 512 512" style="enable-background:new 0 0 512 512;" xml:space="preserve">
<g>
	<path d="M310.8,201.5L310.8,201.5c-6-6-12.6-11.3-19.7-15.8c-18.9-12.1-40.8-18.5-63.2-18.5c-0.1,0-0.1,0-0.2,0
		c-30.9,0-60.9,12.5-82.6,34.3L34.9,311.8c-22.1,22-34.2,51.5-34.3,82.7c0,64.6,52.5,117.2,117.1,117.2c0.1,0,0.3,0,0.4,0
		c30.6,0,60.7-12.4,82.4-34.1l90.9-90.9c0.9-0.9,1.4-2,1.4-3.3c0-1.2-0.5-2.3-1.3-3.2c-0.9-0.8-2-1.3-3.2-1.3l0,0h-3.6
		c-19.6,0.1-38.8-3.7-56.9-11.1c-1.7-0.7-3.8-0.3-5.1,1l-65.4,65.5c-10.6,10.6-24.7,16.4-39.7,16.4s-29-5.8-39.7-16.4
		c-10.6-10.6-16.4-24.7-16.4-39.7s5.8-29,16.4-39.7l110.6-110.5c21.8-21.8,57.3-21.8,79.2,0c12.1,11.4,31,11.4,43,0
		c5.2-5.2,8.3-12.1,8.8-19.4C320.2,216.3,317,207.6,310.8,201.5z"/>
	<path d="M292.4,343.8c1.2-0.1,2.6-0.3,4.2-0.3h2.6l5.6-0.8l2.6-0.5l5.4-1.1h0.8c20.4-5.2,39-15.8,53.9-30.6l110.2-110.2
		c22.1-22.1,34.3-51.6,34.3-82.9s-12.2-60.7-34.3-82.9c-22-22.1-51.5-34.3-82.7-34.3s-60.7,12.2-82.9,34.3l-90.8,90.7
		c-1.3,1.3-1.7,3.3-0.9,5.1c0.7,1.7,2.4,2.8,4.4,2.8h3.2c0.1,0,0.2,0,0.3,0c19.5,0,38.6,3.8,56.6,11.2c1.7,0.7,3.8,0.3,5-1
		l65.3-65.2c21.8-21.8,57.4-21.8,79.3,0s21.8,57.4,0,79.3l-81.2,81.1l-0.8,0.9L324,267.5c-21.8,21.8-57.3,21.8-79.2,0
		c-12.1-11.4-31-11.4-43,0c-5.2,5.3-8.3,12.2-8.8,19.5c-0.5,8.7,2.6,17.4,8.8,23.5c9.7,9.7,21,17.7,33.5,23.4c1.1,0.5,2.2,1,3.5,1.5
		c0.6,0.3,1.2,0.5,1.9,0.8c1,0.4,2.1,0.8,3.2,1.2c0.7,0.2,1.4,0.5,2.1,0.8c1.5,0.6,3.2,1.1,5.2,1.7l5.1,1.4c3,0.7,6.4,1.4,10.1,2
		c4,0.6,8.1,1,12.3,1.1h6.3l5.3-0.6C290.9,344,291.7,343.9,292.4,343.8z"/>
</g>
</svg>
