<?xml version="1.0" encoding="utf-8"?>
<!-- Generator: Adobe Illustrator 22.0.1, SVG Export Plug-In . SVG Version: 6.00 Build 0)  -->
<svg fill="#858585" version="1.1" id="Capa_1" xmlns="http://www.w3.org/2000/svg" xmlns:xlink="http://www.w3.org/1999/xlink" x="0px" y="0px"
	 viewBox="0 0 512 512" style="enable-background:new 0 0 512 512;" xml:space="preserve">
<g>
	<path d="M186.4,386.1v98.8c0,6.9,4.4,13,11,15.2c1.6,0.5,3.3,0.8,5,0.8c5,0,9.8-2.3,12.9-6.5l57.8-78.6L186.4,386.1z"/>
	<path d="M504.4,13.9c-4.9-3.5-11.3-3.9-16.7-1.2L8.6,263c-5.7,3-9,9-8.5,15.4s4.7,11.8,10.8,13.9L144,337.9L427.7,95.3L208.2,359.8
		l223.3,76.3c1.7,0.6,3.4,0.9,5.2,0.9c2.9,0,5.8-0.8,8.3-2.3c4-2.5,6.8-6.6,7.5-11.3l58.6-394C511.9,23.3,509.3,17.4,504.4,13.9z"/>
</g>
</svg>
