<?xml version="1.0" encoding="utf-8"?>
<!-- Generator: Adobe Illustrator 22.0.1, SVG Export Plug-In . SVG Version: 6.00 Build 0)  -->
<svg version="1.1" id="Capa_1" xmlns="http://www.w3.org/2000/svg" xmlns:xlink="http://www.w3.org/1999/xlink" x="0px" y="0px"
	 viewBox="0 0 512 512" style="enable-background:new 0 0 512 512;" xml:space="preserve">
<g>
	<g>
		<path d="M64,373c0-47,0-94,0-141c0.2-0.3,0.5-0.6,0.6-0.9c4.4-18,16.7-27.6,35.3-27.7c3,0,5.9,0,9.2,0c0-1.9,0-3.4,0-4.9
			c0-39.8,0.1-79.6-0.1-119.4c0-7,1.9-12.1,8.4-15.1c60.8,0,121.5,0,182.3,0c2.2,1.5,4.8,2.7,6.7,4.6c30.9,30.4,61.8,60.8,92.7,91.2
			c2.9,2.9,4.4,6.2,4.3,10.3c-0.1,9.6,0,19.2,0,28.9c0,1.3,0,2.7,0,4.4c4.3,0,8.1-0.1,12,0c14.8,0.4,27.4,10.1,31.5,24.4
			c0.4,1.4,0.9,2.8,1.4,4.2c0,47,0,94,0,141c-0.2,0.3-0.4,0.7-0.5,1c-4.7,18.9-16.7,28.2-36,28.2c-2.7,0-5.4,0-8.3,0
			c0,1.9,0,3.3,0,4.6c0,9.7,0.1,19.5,0,29.2c-0.1,7.4-4.6,11.9-12,11.9c-90,0-179.9,0-269.9,0c-7.5,0-12.2-4.6-12.2-12.1
			c0-9.9,0-19.7,0-29.6c0-1.2,0-2.4,0-4c-4.3,0-8.3,0.1-12.3,0c-13.7-0.4-25.9-9.2-30.6-22.1C65.3,377.8,64.7,375.4,64,373z
			 M256.2,225.9c-52.2,0-104.5,0-156.7,0c-8.6,0-12.9,4.3-12.9,12.9c0,42.7,0,85.5,0,128.2c0,8.2,4.5,12.7,12.8,12.7
			c104.5,0,209,0,313.5,0c8.3,0,12.7-4.5,12.7-12.7c0-42.9,0-85.7,0-128.6c0-0.7,0-1.5-0.1-2.2c-0.5-3.7-2-6.9-5.4-8.5
			c-2.4-1.1-5.2-1.7-7.9-1.7C360.2,225.9,308.2,225.9,256.2,225.9z M380.5,180.2c-1.8,0-3.1,0-4.5,0c-18.1,0-36.2,0.1-54.3,0
			c-3.3,0-6.8-0.3-10-1c-15.6-3.7-25.7-16.8-25.8-33.4c-0.1-18.2,0-36.5,0-54.7c0-1.3,0-2.7,0-4.2c-51.6,0-102.9,0-154.1,0
			c0,39,0,77.6,0,116.4c83,0,165.8,0,248.7,0C380.5,195.5,380.5,188.1,380.5,180.2z M131.7,425.3c83.1,0,165.9,0,248.7,0
			c0-7.7,0-15.3,0-22.8c-83,0-165.8,0-248.7,0C131.7,410.1,131.7,417.6,131.7,425.3z M363.4,157.7c0.1-0.3,0.2-0.6,0.3-0.8
			c-18.2-18-36.5-35.9-55.2-54.4c-0.1,1.9-0.2,2.9-0.2,3.8c0,12.8,0,25.7,0,38.5c0,8.5,4.4,12.9,12.9,12.9c13.1,0,26.2,0,39.3,0
			C361.5,157.7,362.5,157.7,363.4,157.7z"/>
		<path d="M208.9,312.9c-4.7,0-9.2,0.1-13.7,0c-4.5-0.2-7-3-6.8-7.2c0.2-3.4,2.4-6.1,5.8-6.2c10.6-0.2,21.2-0.2,31.9,0
			c3.5,0.1,5.6,2.4,5.7,5.8c0.1,6.4,0.1,12.8-0.3,19.1c-0.7,10.7-6.3,18.5-16.2,22.4c-16.1,6.4-32.5,6.4-48.5-0.1
			c-9.6-3.9-15.1-11.4-15.8-21.8c-0.5-7.5-0.4-15-0.4-22.5c0-7.1-0.1-14.3,0.2-21.4c0.6-12.5,7.2-20.9,18.9-24.8
			c16-5.3,32-4.7,47.5,2c5.1,2.2,9.4,5.7,12.1,10.7c2,3.6,2.8,7.4,2.3,11.5c-0.4,2.9-1.9,4.8-4.8,5.6c-4.6,1.1-9.2,1.1-13.7-0.3
			c-2.2-0.7-3.4-2.1-3.9-4.6c-1.8-9-4.7-11.9-13.9-12.7c-4.1-0.4-8.5,0-12.6,1c-5.5,1.3-8.6,5.2-9.4,10.9c-0.2,1.5-0.3,3-0.3,4.5
			c0,11.5,0,23,0,34.5c0,10.6,4.6,15.8,15.1,16.6c3.9,0.3,8-0.3,11.8-1.3c5.3-1.4,8.4-5.3,9-10.8
			C209.2,320.4,208.9,316.9,208.9,312.9z"/>
		<path d="M315.6,268.1c0,9.2,0,17.8,0,26.8c2.8,0,5.4,0,8,0c6.1,0,12.2-0.1,18.4,0c4.2,0.1,6.9,2.9,7,6.7c0.1,3.8-2.7,6.7-7,6.7
			c-7.4,0.1-14.7,0.1-22.1,0.1c-1.3,0-2.7,0-4.4,0c0,1.7,0,3.1,0,4.4c0,10.1,0,20.2,0,30.3c0,3.7-0.8,5-4.2,6.2
			c-4.6,1.6-9.3,1.6-14,0c-3.4-1.1-4.3-2.5-4.3-6.1c0-27.7,0-55.5,0-83.2c0-3.8,1.2-5.4,4.9-6.4c1.7-0.5,3.4-0.7,5.2-0.7
			c19.7,0,39.5,0,59.2,0c5.2,0,7.9,2.6,8,7.3c0.1,4.9-2.6,7.8-7.5,7.8c-14.2,0.1-28.5,0-42.7,0C318.5,268.1,317.2,268.1,315.6,268.1
			z"/>
		<path d="M272.1,301.7c0,13.6,0,27.2,0,40.8c0,4.8-1,6.5-5.7,7.2c-4,0.6-8.2,0.4-12.2-0.2c-3.6-0.6-4.7-2.4-4.7-6.1
			c0-27.7,0-55.4,0-83.2c0-3.8,1-5.2,4.6-6.3c4.4-1.3,8.9-1.3,13.3,0c3.6,1,4.6,2.4,4.6,6.2C272.1,274,272.1,287.8,272.1,301.7z"/>
	</g>
</g>
</svg>
