<?xml version="1.0" encoding="utf-8"?>
<!-- Generator: Adobe Illustrator 22.0.1, SVG Export Plug-In . SVG Version: 6.00 Build 0)  -->
<svg version="1.1" id="Capa_1" xmlns="http://www.w3.org/2000/svg" xmlns:xlink="http://www.w3.org/1999/xlink" x="0px" y="0px"
	 viewBox="0 0 512 512" style="enable-background:new 0 0 512 512;" xml:space="preserve">
<g>
	<path d="M2.7,253.2c11.7-3.3,20.2,2.3,28.9,5.2c64.6,21.2,129.2,42.2,193.3,64.7c21.8,7.6,41.6,7.4,63.2-0.1
		c65.1-22.6,130.6-43.8,196.1-65.5c7.8-2.6,15.9-4.4,25.3-6.9c1,7.8,2.3,13.3,2.3,18.7c0.2,44.4,0.3,88.8-0.1,133.1
		c-0.1,8.4-1,17.1-3.6,25c-7.6,23.9-24.4,37.6-49.4,40.5c-8.4,1-17,0.6-25.5,0.7c-118,0-236.1,0-354.1,0c-7.6,0-15.1,0.2-22.7-0.4
		c-31.2-2.5-52.2-23.6-54.7-54.5c-0.5-5.6-0.3-11.3-0.3-17c0-39.7-0.1-79.3,0-119C1.6,269.3,2.3,261,2.7,253.2z"/>
	<path d="M343.3,105.3c8.1,0.8,15.4,2.1,22.7,2.2c24.5,0.3,49.1,0,73.6,0.2c7.5,0.1,15.2,0.2,22.6,1.3c27.5,4.3,46.8,25.1,49.2,54.2
		c1.3,15.9,0.2,32,0.2,48.9c-6.4,3.1-11.9,6.5-18,8.5c-72.5,24.3-145,48.2-217.4,72.6c-12.1,4.1-23.3,5.6-35.7,1.3
		c-76.8-26-153.8-51.6-230.8-77.4c-1.7-0.6-3.1-1.9-6.6-4.1c-3.2-18.1-2.7-37.9-0.4-57.3c2.7-23.2,20.9-41.5,44-46
		c9.2-1.8,18.8-1.9,28.2-2c23.6-0.3,47.2,0,70.8-0.2c7.4-0.1,14.7-1.1,23.5-1.8c1-8.4,1.8-15.6,2.8-22.9c3.2-22.5,16-37.2,38.4-38.4
		c30.1-1.7,60.4-1.6,90.5-0.2c22.4,1,35.9,15.2,39.8,37.4C341.9,88.9,342.3,96.4,343.3,105.3z M215.7,90.1
		c-3.1,8.1-2.8,16.1,7.6,16.5c24.2,1.1,48.6,3.2,73.5-2.1c0-5.6,0-10,0-14.4C274.4,84.8,237.7,84.8,215.7,90.1z"/>
</g>
</svg>
