<?xml version="1.0" encoding="utf-8"?>
<!-- Generator: Adobe Illustrator 22.0.1, SVG Export Plug-In . SVG Version: 6.00 Build 0)  -->
<svg version="1.1" id="Capa_1" xmlns="http://www.w3.org/2000/svg" xmlns:xlink="http://www.w3.org/1999/xlink" x="0px" y="0px"
	 viewBox="0 0 512 512" style="enable-background:new 0 0 512 512;" xml:space="preserve">
<path d="M276.6,256.5c-13.1,0-25.7,0.1-38.4-0.1c-3,0-3.7,1.8-4.5,3.9c-2.9,7.9-5.8,15.9-8.9,23.7c-4,10.4-14.6,14.6-24.7,9.9
	c-7.1-3.3-10-10.8-7-18.9c5.9-15.8,11.9-31.6,17.9-47.4c8.9-23.7,18.1-47.4,26.7-71.2c4.5-12.5,12.3-14.2,24.6-12.1
	c5.9,1,8.8,5.8,10.8,11.2c8.4,22.4,16.9,44.8,25.4,67.2c6.6,17.3,13.2,34.6,19.6,51.9c2.8,7.6,1.2,13.8-4.4,17.8
	c-9,6.5-22.7,2.6-26.7-7.7C283.5,275.6,280.1,266.1,276.6,256.5z M246.9,224.4c6.3,0,11.8,0,18.1,0c-3-8.4-5.7-16.1-8.5-23.9
	c-0.4,0.1-0.8,0.1-1.1,0.2C252.6,208.4,249.8,216.1,246.9,224.4z"/>
<path d="M315.8,366.9c7.6,0,15.2,0,22.8,0c2.2,0,4.3,0,7.2,0c0,0,0,0,0,0h35.6c28.3,0,51.2-22.9,51.2-51.2c0-29,0-59.2,0-59.2
	c0,0,0,0-0.1,0c0-3.1,0-5.5,0-7.9c0-17.9,0-35.8,0.1-53.7v-4.4c0-16.9,0-33.8-0.1-50.7c-0.2-38.7-27.9-67.3-65.7-67.4
	c-74.6-0.2-149.2-0.2-223.7,0.1c-28,0.1-52.9,19.2-60.9,45.9c-1,3.3-1.7,6.6-2.6,9.9v183.8c0.4,1.3,0.9,2.6,1.3,3.9
	c5.3,21.1,17.8,36.2,37.4,45.5c11.5,5.4,23.7,5.7,36.1,5.5c5.4-0.1,12.1-1.4,15.8,1.3c3.4,2.4,3.5,9.4,5,14.4
	c5.3,18.8,10.5,37.6,15.8,56.4c3.1,10.8,10.8,16.3,20.9,15c7.1-0.9,11.4-5.3,14.6-11.3c12.5-23.5,25.2-46.8,37.5-70.3
	c2.2-4.2,4.7-5.5,9.4-5.5c8.4,0.1,16.7,0.1,25.1,0.1H315.8z M259.1,330c-9.7-0.1-16.4,3.7-20.9,12.4c-7.5,14.5-15.3,28.7-23.7,44.4
	c-4.1-14.4-7.7-27.6-11.5-40.8c-3.2-11.3-9.3-15.9-21-16c-12.1,0-24.2,0.1-36.3,0c-17.6-0.1-29.7-12-29.7-29.6
	c-0.1-54-0.1-108,0-162c0-17.2,12.3-29.3,29.4-29.4c73.6-0.1,147.1-0.1,220.7,0c17.1,0,29.1,11.7,29.2,28.7
	c0.2,38.7,0.1,116.1,0.1,116.1l0,47.5c0,15.9-12.8,28.7-28.7,28.7C332.2,330.2,276.8,330.2,259.1,330z"/>
</svg>
