<?xml version="1.0" encoding="utf-8"?>
<!-- Generator: Adobe Illustrator 22.0.1, SVG Export Plug-In . SVG Version: 6.00 Build 0)  -->
<svg version="1.1" id="Capa_1" xmlns="http://www.w3.org/2000/svg" xmlns:xlink="http://www.w3.org/1999/xlink" x="0px" y="0px"
	 viewBox="0 0 512 512" style="enable-background:new 0 0 512 512;" xml:space="preserve">
<g>
	<g>
		<path d="M277,64c4.2,2,6.8,5.4,9,9.5c2.9,5.5,6.2,10.8,9.3,16.2c3.5,6.2,1.9,13-3.8,16.2c-5.6,3.2-12,1.2-15.6-4.8
			c-3.8-6.4-7.5-12.9-11.2-19.4c-3.9-6.8-1.8-13.4,5.2-16.9c0.4-0.2,0.8-0.5,1.2-0.8C273,64,275,64,277,64z"/>
		<path d="M373,64c0.7,0.4,1.5,0.9,2.2,1.3c5.6,3,7.9,9.4,4.9,15c-4,7.5-8.2,14.8-12.7,22c-3.3,5.3-9.9,6.6-15.1,3.5
			c-5-3-7-9.4-4.2-14.7c4-7.5,8.2-14.8,12.7-22c1.4-2.1,4-3.4,6.1-5.1C369,64,371,64,373,64z"/>
		<path d="M189.1,250.3c7.4-3.8,14.2-7.2,20.8-10.8c16.6-9.1,32.4-19.3,45.9-32.7c14.4-14.3,24.9-30.9,29-51c0.8-4,1.2-8.1,1.8-12.2
			c1.7-11.3,11.5-20.1,23-20.3c24.8-0.5,46.5,19.7,47.7,44.4c1.1,21.9-2.8,42.8-13.4,62.1c-0.4,0.8-0.7,1.6-1.3,2.8
			c1.6,0.1,2.9,0.2,4.1,0.2c19.7,0,39.5-0.1,59.2,0c17.2,0.1,31.2,11.3,34.8,27.9c2.3,10.4,0.1,20.1-6.3,28.7c-0.7,1-1.5,2-2.3,2.9
			c14,16.7,11.8,40.7-7.5,54.1c7.9,22.5,5.2,33.4-11.9,48c1.2,3.6,2.8,7.2,3.6,10.9c4.3,22.1-11.6,42.1-34.5,42.3
			c-38.2,0.3-76.5,0.3-114.7-0.6c-27.1-0.7-53.4-6.7-78.5-17.3c-0.8-0.3-1.6-0.7-2.4-1c-0.2-0.1-0.5,0-0.7,0
			c-0.1,0.1-0.3,0.1-0.3,0.2c-8.1,13.8-20.2,19.4-36,19.1c-21.7-0.4-43.5-0.1-65.2-0.1c-9.3,0-13.6-4.2-13.6-13.4
			c0-62.7,0-125.5,0-188.2c0-9,4.4-13.3,13.4-13.4c30.4,0,60.7,0.2,91.1-0.1c10.3-0.1,15.1,6.2,14.3,14.4
			C189.1,247.9,189.1,248.7,189.1,250.3z M189.2,405.8c8.5,3.2,16.7,6.5,25.1,9.3c24.1,7.9,49.1,10.2,74.3,10.3
			c30.5,0.2,61-0.1,91.5-0.2c1.5,0,3-0.1,4.5-0.4c5.8-1.1,10.1-6.3,10.2-12.3c0.1-6-4.3-11.5-10.3-12.6c-1.5-0.3-3-0.3-4.5-0.6
			c-4-0.7-6.8-3-8.4-6.7c-3.2-7.4,2-15.1,10.4-15.5c4.5-0.2,9,0.1,13.5-0.3c5.9-0.5,10.3-5,11.2-10.9c0.8-5.6-2.5-11.5-8-13.4
			c-1.9-0.7-4.1-0.9-6.2-1c-3.7-0.2-7.5,0.1-11.2-0.2c-7.3-0.6-11.8-8-9.4-14.8c1.6-4.6,5.8-7.5,11.4-7.6c7.9-0.1,15.8,0.2,23.6-0.1
			c8.7-0.3,14.3-9.2,11.1-17.2c-2-5.1-6.6-8.1-12.7-8.2c-7.7-0.1-15.5,0.1-23.2-0.1c-7.7-0.2-12.7-7.7-10.2-14.9
			c1.6-4.6,5.8-7.5,11.4-7.6c8-0.1,16,0.1,24-0.1c6.2-0.1,11.1-4.9,11.9-10.9c0.8-6.4-2.8-12.1-8.9-13.8c-1.8-0.5-3.7-0.6-5.5-0.7
			c-17.7,0-35.5,0-53.2,0c-17.2,0-34.5,0.1-51.7-0.1c-2.4,0-5-0.6-7.1-1.7c-4.3-2.2-6.3-7.3-5.2-11.8c1.2-5.2,5.3-8.8,10.7-8.9
			c5.2-0.2,10.5-0.1,15.7,0c1.6,0,2.7-0.3,3.7-1.8c12.3-18.7,18.9-38.9,17.6-61.5c-0.7-11.9-10-22.2-21.8-23.6
			c-3.7-0.4-4.2-0.1-4.5,3.5c-1.6,16-6.6,30.9-14.6,44.9c-11.4,19.8-27.5,35.1-45.9,48.2c-17.3,12.2-36,21.9-55.2,30.8
			c-3,1.4-3.8,3-3.8,6.2c0.1,40.5,0.1,81,0.1,121.5C189.2,402.3,189.2,403.6,189.2,405.8z M141,425.4c3.7,0,6.9,0,10.1,0
			c10.5,0,15.5-4.8,15.5-15.3c0-50.1,0-100.2,0-150.3c0-1.3-0.1-2.7-0.2-4c-24.6,0-48.9,0-73.2,0c0,56.6,0,112.9,0,169.4
			c8.5,0,16.6,0,25.3,0c0-1.9,0-3.6,0-5.4c0-10.4-0.1-20.7,0.1-31.1c0.1-7.5,6.1-12.4,13.2-11.2c5.5,0.9,9.2,5.6,9.2,12
			c0.1,10.5,0,21,0,31.5C141,422.3,141,423.6,141,425.4z"/>
		<path d="M238,169.8c-4,0-8,0.1-12,0c-6.5-0.2-11.2-4.9-11.3-11.1c-0.1-6.2,4.6-11.2,11-11.4c8.1-0.2,16.2-0.2,24.3,0
			c6.3,0.1,11.2,5.2,11.2,11.3c0,6.1-4.9,11-11.3,11.2C246,169.9,242,169.8,238,169.8z"/>
		<path d="M406.3,169.8c-4,0-8,0.1-12,0c-6.4-0.2-11.3-5-11.4-11.1c-0.1-6.2,4.9-11.3,11.5-11.4c7.9-0.1,15.7-0.1,23.6,0
			c6.7,0.1,11.5,4.9,11.5,11.3c0,6.4-4.8,11.1-11.5,11.2C414,169.9,410.1,169.8,406.3,169.8z"/>
	</g>
</g>
</svg>
