<?xml version="1.0" encoding="utf-8"?>
<!-- Generator: Adobe Illustrator 22.0.1, SVG Export Plug-In . SVG Version: 6.00 Build 0)  -->
<svg version="1.1" id="Capa_1" xmlns="http://www.w3.org/2000/svg" xmlns:xlink="http://www.w3.org/1999/xlink" x="0px" y="0px"
	 viewBox="0 0 512 512" style="enable-background:new 0 0 512 512;" xml:space="preserve">
<path d="M100.3,417.2c0-22.9-0.1-44.6,0-66.2c0.2-23.1,9-42,27.5-56.1c12.7-9.7,27.3-13.7,43.1-13.7c21.4,0,42.8,0,64.8,0
	c0-16.8,0-33.3,0-49.1c-7.8-5.3-16-9.8-22.8-15.9c-23.4-20.9-28.6-55.4-13.1-82.7c12.7-22.3,25.4-44.6,38.3-66.8
	c7.5-13,20.4-17.4,31.8-10.6c3.9,2.3,7.6,6.1,9.9,10c13.8,23.4,27.6,46.8,40.5,70.7c17.3,32,2.5,74.6-30.7,90.7
	c-2.3,1.1-4.6,2.1-7.5,3.5c0,8,0,16.2,0,24.5c0,8.3,0,16.5,0,25.7c3.3,0,6,0,8.7,0c19.4,0,38.8-0.2,58.2,0.1
	c32.6,0.4,57.9,19.7,66.6,51.1c1.8,6.4,2.3,13.4,2.4,20.1c0.3,18.9,0.1,37.8,0.1,56.7c0,2.4,0,4.9,0,8.1c7.5,0,14.2-0.1,21,0
	c14.4,0.2,24.5,9.9,24.3,23.2c-0.2,13-10.2,22.4-24.3,22.4c-119.9,0.1-239.7,0.1-359.6,0c-14.4,0-24.5-9.8-24.4-23.2
	c0.2-13,10.2-22.3,24.3-22.5C86,417.1,92.8,417.2,100.3,417.2z M146.1,416.8c75.7,0,150.5,0,226.2,0c0-2.8,0-5.3,0-7.7
	c0-18.4,0-36.8,0-55.1c0-18.6-8.5-27-27.4-27c-25.9,0-51.9,0-77.8,0c-32.2,0-64.5-0.1-96.7,0c-14.3,0.1-24,8.8-24.2,22.5
	C145.8,371.6,146.1,393.8,146.1,416.8z M259.2,122.1c-7.3,12.7-14.2,23.8-20.1,35.4c-4.9,9.5-1.6,20.5,6.9,26.9c8,6,18.7,6,26.6-0.1
	c8.5-6.4,11.6-17.4,6.7-26.9C273.3,145.9,266.4,134.8,259.2,122.1z"/>
</svg>
