<svg xmlns="http://www.w3.org/2000/svg" width="22.947" height="4.865" viewBox="0 0 22.947 4.865">
  <path id="Path_223" data-name="Path 223" d="M-6.766-3.743A2.391,2.391,0,0,1-5-3.067a2.361,2.361,0,0,1,.676,1.744A2.391,2.391,0,0,1-5,.446a2.391,2.391,0,0,1-1.768.676A2.361,2.361,0,0,1-8.51.446a2.391,2.391,0,0,1-.676-1.768A2.361,2.361,0,0,1-8.51-3.067,2.361,2.361,0,0,1-6.766-3.743Zm9.042,0a2.391,2.391,0,0,1,1.768.676,2.361,2.361,0,0,1,.676,1.744A2.391,2.391,0,0,1,4.044.446a2.391,2.391,0,0,1-1.768.676A2.361,2.361,0,0,1,.532.446,2.391,2.391,0,0,1-.144-1.322,2.361,2.361,0,0,1,.532-3.067,2.361,2.361,0,0,1,2.276-3.743Zm9.042,0a2.391,2.391,0,0,1,1.768.676,2.361,2.361,0,0,1,.676,1.744A2.391,2.391,0,0,1,13.086.446a2.391,2.391,0,0,1-1.768.676A2.361,2.361,0,0,1,9.574.446,2.391,2.391,0,0,1,8.9-1.322a2.361,2.361,0,0,1,.676-1.744A2.361,2.361,0,0,1,11.318-3.743Z" transform="translate(9.186 3.743)" fill="#b4b4b4"/>
</svg>
